solid model
  facet normal 0 -1 -0
    outer loop
      vertex -45.25 0 0
      vertex 45.25 0 0
      vertex 45.25 0 1
    endloop
  endfacet
  facet normal 0 -1 0
    outer loop
      vertex -45.25 0 0
      vertex 45.25 0 1
      vertex -45.25 0 1
    endloop
  endfacet
  facet normal 0 0 -1
    outer loop
      vertex -45.25 0 0
      vertex 52.2565 9.75 0
      vertex 45.25 0 0
    endloop
  endfacet
  facet normal 0 0 1
    outer loop
      vertex -45.25 0 1
      vertex 45.25 0 1
      vertex 52.2565 9.75 1
    endloop
  endfacet
  facet normal 0.996917 -0.0784581 0
    outer loop
      vertex -45.37 -1.52524 0
      vertex -45.25 0 0
      vertex -45.37 -1.52524 1
    endloop
  endfacet
  facet normal 0.996917 -0.0784581 0
    outer loop
      vertex -45.37 -1.52524 1
      vertex -45.25 0 0
      vertex -45.25 0 1
    endloop
  endfacet
  facet normal 0.97237 -0.233447 0
    outer loop
      vertex -45.7272 -3.01292 0
      vertex -45.37 -1.52524 0
      vertex -45.7272 -3.01292 1
    endloop
  endfacet
  facet normal 0.97237 -0.233447 0
    outer loop
      vertex -45.7272 -3.01292 1
      vertex -45.37 -1.52524 0
      vertex -45.37 -1.52524 1
    endloop
  endfacet
  facet normal 0.92388 -0.382683 0
    outer loop
      vertex -46.3127 -4.42641 0
      vertex -45.7272 -3.01292 0
      vertex -46.3127 -4.42641 1
    endloop
  endfacet
  facet normal 0.92388 -0.382683 0
    outer loop
      vertex -46.3127 -4.42641 1
      vertex -45.7272 -3.01292 0
      vertex -45.7272 -3.01292 1
    endloop
  endfacet
  facet normal 0.852641 -0.522498 0
    outer loop
      vertex -47.1121 -5.73091 0
      vertex -46.3127 -4.42641 0
      vertex -47.1121 -5.73091 1
    endloop
  endfacet
  facet normal 0.852641 -0.522498 0
    outer loop
      vertex -47.1121 -5.73091 1
      vertex -46.3127 -4.42641 0
      vertex -46.3127 -4.42641 1
    endloop
  endfacet
  facet normal 0.760406 -0.649448 0
    outer loop
      vertex -48.1057 -6.89429 0
      vertex -47.1121 -5.73091 0
      vertex -48.1057 -6.89429 1
    endloop
  endfacet
  facet normal 0.760406 -0.649448 0
    outer loop
      vertex -48.1057 -6.89429 1
      vertex -47.1121 -5.73091 0
      vertex -47.1121 -5.73091 1
    endloop
  endfacet
  facet normal 0.649449 -0.760406 0
    outer loop
      vertex -49.2691 -7.88792 0
      vertex -48.1057 -6.89429 0
      vertex -48.1057 -6.89429 1
    endloop
  endfacet
  facet normal 0.649449 -0.760406 0
    outer loop
      vertex -49.2691 -7.88792 0
      vertex -48.1057 -6.89429 1
      vertex -49.2691 -7.88792 1
    endloop
  endfacet
  facet normal 0.522498 -0.852641 0
    outer loop
      vertex -50.5736 -8.68731 0
      vertex -49.2691 -7.88792 0
      vertex -49.2691 -7.88792 1
    endloop
  endfacet
  facet normal 0.522498 -0.852641 0
    outer loop
      vertex -50.5736 -8.68731 0
      vertex -49.2691 -7.88792 1
      vertex -50.5736 -8.68731 1
    endloop
  endfacet
  facet normal 0 0 -1
    outer loop
      vertex -51.75 0 0
      vertex -45.25 0 0
      vertex -45.37 -1.52524 0
    endloop
  endfacet
  facet normal -0 0 1
    outer loop
      vertex -51.75 0 1
      vertex -45.37 -1.52524 1
      vertex -45.25 0 1
    endloop
  endfacet
  facet normal 0 0 -1
    outer loop
      vertex -51.9091 -1.0043 0
      vertex -45.37 -1.52524 0
      vertex -45.7272 -3.01292 0
    endloop
  endfacet
  facet normal 0 0 -1
    outer loop
      vertex -51.9091 -1.0043 0
      vertex -45.7272 -3.01292 0
      vertex -46.3127 -4.42641 0
    endloop
  endfacet
  facet normal 0 -0 -1
    outer loop
      vertex -51.9091 -1.0043 0
      vertex -51.75 0 0
      vertex -45.37 -1.52524 0
    endloop
  endfacet
  facet normal -0.987688 0.156433 0
    outer loop
      vertex -51.9091 -1.0043 0
      vertex -51.75 0 1
      vertex -51.75 0 0
    endloop
  endfacet
  facet normal -0.987688 0.156433 0
    outer loop
      vertex -51.9091 -1.0043 0
      vertex -51.9091 -1.0043 1
      vertex -51.75 0 1
    endloop
  endfacet
  facet normal 0 0 1
    outer loop
      vertex -51.9091 -1.0043 1
      vertex -45.37 -1.52524 1
      vertex -51.75 0 1
    endloop
  endfacet
  facet normal 0 0 1
    outer loop
      vertex -51.9091 -1.0043 1
      vertex -45.7272 -3.01292 1
      vertex -45.37 -1.52524 1
    endloop
  endfacet
  facet normal 0 0 1
    outer loop
      vertex -51.9091 -1.0043 1
      vertex -46.3127 -4.42641 1
      vertex -45.7272 -3.01292 1
    endloop
  endfacet
  facet normal 0 0 -1
    outer loop
      vertex -51.9091 1.0043 0
      vertex -45.25 0 0
      vertex -51.75 0 0
    endloop
  endfacet
  facet normal -0.987688 -0.156433 0
    outer loop
      vertex -51.9091 1.0043 0
      vertex -51.75 0 0
      vertex -51.9091 1.0043 1
    endloop
  endfacet
  facet normal -0.987688 -0.156433 0
    outer loop
      vertex -51.9091 1.0043 1
      vertex -51.75 0 0
      vertex -51.75 0 1
    endloop
  endfacet
  facet normal 0 0 1
    outer loop
      vertex -51.9091 1.0043 1
      vertex -51.75 0 1
      vertex -45.25 0 1
    endloop
  endfacet
  facet normal 0.382684 -0.923879 0
    outer loop
      vertex -51.9871 -9.2728 0
      vertex -50.5736 -8.68731 0
      vertex -50.5736 -8.68731 1
    endloop
  endfacet
  facet normal 0.382684 -0.923879 0
    outer loop
      vertex -51.9871 -9.2728 0
      vertex -50.5736 -8.68731 1
      vertex -51.9871 -9.2728 1
    endloop
  endfacet
  facet normal 0 0 -1
    outer loop
      vertex -52.3707 -1.9103 0
      vertex -46.3127 -4.42641 0
      vertex -47.1121 -5.73091 0
    endloop
  endfacet
  facet normal 0 0 -1
    outer loop
      vertex -52.3707 -1.9103 0
      vertex -47.1121 -5.73091 0
      vertex -48.1057 -6.89429 0
    endloop
  endfacet
  facet normal 0 0 -1
    outer loop
      vertex -52.3707 -1.9103 0
      vertex -51.9091 -1.0043 0
      vertex -46.3127 -4.42641 0
    endloop
  endfacet
  facet normal -0.891007 0.45399 0
    outer loop
      vertex -52.3707 -1.9103 0
      vertex -51.9091 -1.0043 1
      vertex -51.9091 -1.0043 0
    endloop
  endfacet
  facet normal -0.891007 0.45399 0
    outer loop
      vertex -52.3707 -1.9103 0
      vertex -52.3707 -1.9103 1
      vertex -51.9091 -1.0043 1
    endloop
  endfacet
  facet normal -0 0 1
    outer loop
      vertex -52.3707 -1.9103 1
      vertex -46.3127 -4.42641 1
      vertex -51.9091 -1.0043 1
    endloop
  endfacet
  facet normal 0 0 1
    outer loop
      vertex -52.3707 -1.9103 1
      vertex -47.1121 -5.73091 1
      vertex -46.3127 -4.42641 1
    endloop
  endfacet
  facet normal 0 0 1
    outer loop
      vertex -52.3707 -1.9103 1
      vertex -48.1057 -6.89429 1
      vertex -47.1121 -5.73091 1
    endloop
  endfacet
  facet normal 0 0 -1
    outer loop
      vertex -52.3707 1.9103 0
      vertex -45.25 0 0
      vertex -51.9091 1.0043 0
    endloop
  endfacet
  facet normal -0.891007 -0.45399 0
    outer loop
      vertex -52.3707 1.9103 0
      vertex -51.9091 1.0043 0
      vertex -52.3707 1.9103 1
    endloop
  endfacet
  facet normal -0.891007 -0.45399 0
    outer loop
      vertex -52.3707 1.9103 1
      vertex -51.9091 1.0043 0
      vertex -51.9091 1.0043 1
    endloop
  endfacet
  facet normal 0 0 1
    outer loop
      vertex -52.3707 1.9103 1
      vertex -51.9091 1.0043 1
      vertex -45.25 0 1
    endloop
  endfacet
  facet normal 0 0 -1
    outer loop
      vertex -53.0897 -2.6293 0
      vertex -48.1057 -6.89429 0
      vertex -49.2691 -7.88792 0
    endloop
  endfacet
  facet normal 0 0 -1
    outer loop
      vertex -53.0897 -2.6293 0
      vertex -49.2691 -7.88792 0
      vertex -50.5736 -8.68731 0
    endloop
  endfacet
  facet normal 0 0 -1
    outer loop
      vertex -53.0897 -2.6293 0
      vertex -52.3707 -1.9103 0
      vertex -48.1057 -6.89429 0
    endloop
  endfacet
  facet normal -0.707106 0.707108 0
    outer loop
      vertex -53.0897 -2.6293 0
      vertex -53.0897 -2.6293 1
      vertex -52.3707 -1.9103 0
    endloop
  endfacet
  facet normal -0 0 1
    outer loop
      vertex -53.0897 -2.6293 1
      vertex -48.1057 -6.89429 1
      vertex -52.3707 -1.9103 1
    endloop
  endfacet
  facet normal 0 0 1
    outer loop
      vertex -53.0897 -2.6293 1
      vertex -49.2691 -7.88792 1
      vertex -48.1057 -6.89429 1
    endloop
  endfacet
  facet normal 0 0 1
    outer loop
      vertex -53.0897 -2.6293 1
      vertex -50.5736 -8.68731 1
      vertex -49.2691 -7.88792 1
    endloop
  endfacet
  facet normal -0.707106 0.707108 0
    outer loop
      vertex -53.0897 -2.6293 1
      vertex -52.3707 -1.9103 1
      vertex -52.3707 -1.9103 0
    endloop
  endfacet
  facet normal -0.707106 -0.707108 -0
    outer loop
      vertex -53.0897 2.6293 0
      vertex -52.3707 1.9103 0
      vertex -52.3707 1.9103 1
    endloop
  endfacet
  facet normal -0.707106 -0.707108 0
    outer loop
      vertex -53.0897 2.6293 0
      vertex -52.3707 1.9103 1
      vertex -53.0897 2.6293 1
    endloop
  endfacet
  facet normal 0.233446 -0.97237 0
    outer loop
      vertex -53.4748 -9.62996 0
      vertex -51.9871 -9.2728 0
      vertex -51.9871 -9.2728 1
    endloop
  endfacet
  facet normal 0.233446 -0.97237 0
    outer loop
      vertex -53.4748 -9.62996 0
      vertex -51.9871 -9.2728 1
      vertex -53.4748 -9.62996 1
    endloop
  endfacet
  facet normal 0 0 -1
    outer loop
      vertex -53.9957 -3.09093 0
      vertex -50.5736 -8.68731 0
      vertex -51.9871 -9.2728 0
    endloop
  endfacet
  facet normal 0 0 -1
    outer loop
      vertex -53.9957 -3.09093 0
      vertex -51.9871 -9.2728 0
      vertex -53.4748 -9.62996 0
    endloop
  endfacet
  facet normal 0 0 -1
    outer loop
      vertex -53.9957 -3.09093 0
      vertex -53.0897 -2.6293 0
      vertex -50.5736 -8.68731 0
    endloop
  endfacet
  facet normal -0.453991 0.891006 0
    outer loop
      vertex -53.9957 -3.09093 0
      vertex -53.9957 -3.09093 1
      vertex -53.0897 -2.6293 0
    endloop
  endfacet
  facet normal -0 0 1
    outer loop
      vertex -53.9957 -3.09093 1
      vertex -50.5736 -8.68731 1
      vertex -53.0897 -2.6293 1
    endloop
  endfacet
  facet normal 0 0 1
    outer loop
      vertex -53.9957 -3.09093 1
      vertex -51.9871 -9.2728 1
      vertex -50.5736 -8.68731 1
    endloop
  endfacet
  facet normal -0.453991 0.891006 0
    outer loop
      vertex -53.9957 -3.09093 1
      vertex -53.0897 -2.6293 1
      vertex -53.0897 -2.6293 0
    endloop
  endfacet
  facet normal 0 0 1
    outer loop
      vertex -53.9957 -3.09093 1
      vertex -53.4748 -9.62996 1
      vertex -51.9871 -9.2728 1
    endloop
  endfacet
  facet normal -0.453991 -0.891006 -0
    outer loop
      vertex -53.9957 3.09093 0
      vertex -53.0897 2.6293 0
      vertex -53.0897 2.6293 1
    endloop
  endfacet
  facet normal -0.453991 -0.891006 0
    outer loop
      vertex -53.9957 3.09093 0
      vertex -53.0897 2.6293 1
      vertex -53.9957 3.09093 1
    endloop
  endfacet
  facet normal 0 0 -1
    outer loop
      vertex -55 -3.25 0
      vertex -53.9957 -3.09093 0
      vertex -53.4748 -9.62996 0
    endloop
  endfacet
  facet normal -0.156435 0.987688 0
    outer loop
      vertex -55 -3.25 0
      vertex -55 -3.25 1
      vertex -53.9957 -3.09093 0
    endloop
  endfacet
  facet normal -0 0 1
    outer loop
      vertex -55 -3.25 1
      vertex -53.4748 -9.62996 1
      vertex -53.9957 -3.09093 1
    endloop
  endfacet
  facet normal -0.156435 0.987688 0
    outer loop
      vertex -55 -3.25 1
      vertex -53.9957 -3.09093 1
      vertex -53.9957 -3.09093 0
    endloop
  endfacet
  facet normal 0.0784592 -0.996917 0
    outer loop
      vertex -55 -9.75 0
      vertex -53.4748 -9.62996 0
      vertex -53.4748 -9.62996 1
    endloop
  endfacet
  facet normal 0.0784592 -0.996917 0
    outer loop
      vertex -55 -9.75 0
      vertex -53.4748 -9.62996 1
      vertex -55 -9.75 1
    endloop
  endfacet
  facet normal 0 0 -1
    outer loop
      vertex -55 -9.75 0
      vertex -55 -3.25 0
      vertex -53.4748 -9.62996 0
    endloop
  endfacet
  facet normal 0 0 1
    outer loop
      vertex -55 -9.75 1
      vertex -53.4748 -9.62996 1
      vertex -55 -3.25 1
    endloop
  endfacet
  facet normal -0.156435 -0.987688 -0
    outer loop
      vertex -55 3.25 0
      vertex -53.9957 3.09093 0
      vertex -53.9957 3.09093 1
    endloop
  endfacet
  facet normal -0.156435 -0.987688 0
    outer loop
      vertex -55 3.25 0
      vertex -53.9957 3.09093 1
      vertex -55 3.25 1
    endloop
  endfacet
  facet normal 0 0 -1
    outer loop
      vertex -55 3.25 0
      vertex -55 9.75 0
      vertex -53.9957 3.09093 0
    endloop
  endfacet
  facet normal 0 0 1
    outer loop
      vertex -55 3.25 1
      vertex -53.9957 3.09093 1
      vertex -55 9.75 1
    endloop
  endfacet
  facet normal 0 0 -1
    outer loop
      vertex -55 9.75 0
      vertex -45.25 0 0
      vertex -52.3707 1.9103 0
    endloop
  endfacet
  facet normal 0 0 -1
    outer loop
      vertex -55 9.75 0
      vertex -52.3707 1.9103 0
      vertex -53.0897 2.6293 0
    endloop
  endfacet
  facet normal 0 0 -1
    outer loop
      vertex -55 9.75 0
      vertex -53.0897 2.6293 0
      vertex -53.9957 3.09093 0
    endloop
  endfacet
  facet normal 0 1 0
    outer loop
      vertex -55 9.75 0
      vertex -55 9.75 1
      vertex 52.2565 9.75 0
    endloop
  endfacet
  facet normal 0 0 -1
    outer loop
      vertex -55 9.75 0
      vertex 52.2565 9.75 0
      vertex -45.25 0 0
    endloop
  endfacet
  facet normal -0 0 1
    outer loop
      vertex -55 9.75 1
      vertex -45.25 0 1
      vertex 52.2565 9.75 1
    endloop
  endfacet
  facet normal -0 -0 1
    outer loop
      vertex -55 9.75 1
      vertex -52.3707 1.9103 1
      vertex -45.25 0 1
    endloop
  endfacet
  facet normal 0 0 1
    outer loop
      vertex -55 9.75 1
      vertex -53.0897 2.6293 1
      vertex -52.3707 1.9103 1
    endloop
  endfacet
  facet normal 0 0 1
    outer loop
      vertex -55 9.75 1
      vertex -53.9957 3.09093 1
      vertex -53.0897 2.6293 1
    endloop
  endfacet
  facet normal 0 1 -0
    outer loop
      vertex -55 9.75 1
      vertex 52.2565 9.75 1
      vertex 52.2565 9.75 0
    endloop
  endfacet
  facet normal 0.156436 0.987688 0
    outer loop
      vertex -56.0043 -3.09093 0
      vertex -56.0043 -3.09093 1
      vertex -55 -3.25 0
    endloop
  endfacet
  facet normal 0.156436 0.987688 -0
    outer loop
      vertex -56.0043 -3.09093 1
      vertex -55 -3.25 1
      vertex -55 -3.25 0
    endloop
  endfacet
  facet normal 0.156436 -0.987688 0
    outer loop
      vertex -56.0043 3.09093 0
      vertex -55 3.25 0
      vertex -55 3.25 1
    endloop
  endfacet
  facet normal 0.156436 -0.987688 0
    outer loop
      vertex -56.0043 3.09093 0
      vertex -55 3.25 1
      vertex -56.0043 3.09093 1
    endloop
  endfacet
  facet normal 0 0 -1
    outer loop
      vertex -56.5252 -9.62996 0
      vertex -55 -3.25 0
      vertex -55 -9.75 0
    endloop
  endfacet
  facet normal -0.0784594 -0.996917 -0
    outer loop
      vertex -56.5252 -9.62996 0
      vertex -55 -9.75 0
      vertex -55 -9.75 1
    endloop
  endfacet
  facet normal -0.0784594 -0.996917 0
    outer loop
      vertex -56.5252 -9.62996 0
      vertex -55 -9.75 1
      vertex -56.5252 -9.62996 1
    endloop
  endfacet
  facet normal -0 0 -1
    outer loop
      vertex -56.5252 -9.62996 0
      vertex -56.0043 -3.09093 0
      vertex -55 -3.25 0
    endloop
  endfacet
  facet normal 0 0 1
    outer loop
      vertex -56.5252 -9.62996 1
      vertex -55 -3.25 1
      vertex -56.0043 -3.09093 1
    endloop
  endfacet
  facet normal 0 0 1
    outer loop
      vertex -56.5252 -9.62996 1
      vertex -55 -9.75 1
      vertex -55 -3.25 1
    endloop
  endfacet
  facet normal 0 0 -1
    outer loop
      vertex -56.5252 9.62996 0
      vertex -55 3.25 0
      vertex -56.0043 3.09093 0
    endloop
  endfacet
  facet normal 0 0 -1
    outer loop
      vertex -56.5252 9.62996 0
      vertex -55 9.75 0
      vertex -55 3.25 0
    endloop
  endfacet
  facet normal -0.0784594 0.996917 0
    outer loop
      vertex -56.5252 9.62996 0
      vertex -56.5252 9.62996 1
      vertex -55 9.75 0
    endloop
  endfacet
  facet normal -0 0 1
    outer loop
      vertex -56.5252 9.62996 1
      vertex -55 3.25 1
      vertex -55 9.75 1
    endloop
  endfacet
  facet normal -0.0784594 0.996917 0
    outer loop
      vertex -56.5252 9.62996 1
      vertex -55 9.75 1
      vertex -55 9.75 0
    endloop
  endfacet
  facet normal 0 0 1
    outer loop
      vertex -56.5252 9.62996 1
      vertex -56.0043 3.09093 1
      vertex -55 3.25 1
    endloop
  endfacet
  facet normal 0.45399 0.891007 0
    outer loop
      vertex -56.9103 -2.6293 0
      vertex -56.9103 -2.6293 1
      vertex -56.0043 -3.09093 0
    endloop
  endfacet
  facet normal 0.45399 0.891007 -0
    outer loop
      vertex -56.9103 -2.6293 1
      vertex -56.0043 -3.09093 1
      vertex -56.0043 -3.09093 0
    endloop
  endfacet
  facet normal 0.45399 -0.891007 0
    outer loop
      vertex -56.9103 2.6293 0
      vertex -56.0043 3.09093 0
      vertex -56.0043 3.09093 1
    endloop
  endfacet
  facet normal 0.45399 -0.891007 0
    outer loop
      vertex -56.9103 2.6293 0
      vertex -56.0043 3.09093 1
      vertex -56.9103 2.6293 1
    endloop
  endfacet
  facet normal 0.707108 0.707106 0
    outer loop
      vertex -57.6293 -1.9103 0
      vertex -56.9103 -2.6293 1
      vertex -56.9103 -2.6293 0
    endloop
  endfacet
  facet normal 0.707108 0.707106 0
    outer loop
      vertex -57.6293 -1.9103 0
      vertex -57.6293 -1.9103 1
      vertex -56.9103 -2.6293 1
    endloop
  endfacet
  facet normal 0.707108 -0.707106 0
    outer loop
      vertex -57.6293 1.9103 0
      vertex -56.9103 2.6293 0
      vertex -57.6293 1.9103 1
    endloop
  endfacet
  facet normal 0.707108 -0.707106 0
    outer loop
      vertex -57.6293 1.9103 1
      vertex -56.9103 2.6293 0
      vertex -56.9103 2.6293 1
    endloop
  endfacet
  facet normal 0 0 -1
    outer loop
      vertex -58.0129 -9.2728 0
      vertex -56.0043 -3.09093 0
      vertex -56.5252 -9.62996 0
    endloop
  endfacet
  facet normal -0.233445 -0.97237 -0
    outer loop
      vertex -58.0129 -9.2728 0
      vertex -56.5252 -9.62996 0
      vertex -56.5252 -9.62996 1
    endloop
  endfacet
  facet normal -0.233445 -0.97237 0
    outer loop
      vertex -58.0129 -9.2728 0
      vertex -56.5252 -9.62996 1
      vertex -58.0129 -9.2728 1
    endloop
  endfacet
  facet normal 0 0 1
    outer loop
      vertex -58.0129 -9.2728 1
      vertex -56.5252 -9.62996 1
      vertex -56.0043 -3.09093 1
    endloop
  endfacet
  facet normal 0 0 -1
    outer loop
      vertex -58.0129 9.2728 0
      vertex -56.5252 9.62996 0
      vertex -56.0043 3.09093 0
    endloop
  endfacet
  facet normal -0.233445 0.97237 0
    outer loop
      vertex -58.0129 9.2728 0
      vertex -58.0129 9.2728 1
      vertex -56.5252 9.62996 0
    endloop
  endfacet
  facet normal -0 0 1
    outer loop
      vertex -58.0129 9.2728 1
      vertex -56.0043 3.09093 1
      vertex -56.5252 9.62996 1
    endloop
  endfacet
  facet normal -0.233445 0.97237 0
    outer loop
      vertex -58.0129 9.2728 1
      vertex -56.5252 9.62996 1
      vertex -56.5252 9.62996 0
    endloop
  endfacet
  facet normal 0.891005 0.453993 0
    outer loop
      vertex -58.0909 -1.0043 0
      vertex -57.6293 -1.9103 1
      vertex -57.6293 -1.9103 0
    endloop
  endfacet
  facet normal 0.891005 0.453993 0
    outer loop
      vertex -58.0909 -1.0043 0
      vertex -58.0909 -1.0043 1
      vertex -57.6293 -1.9103 1
    endloop
  endfacet
  facet normal 0.891005 -0.453993 0
    outer loop
      vertex -58.0909 1.0043 0
      vertex -57.6293 1.9103 0
      vertex -58.0909 1.0043 1
    endloop
  endfacet
  facet normal 0.891005 -0.453993 0
    outer loop
      vertex -58.0909 1.0043 1
      vertex -57.6293 1.9103 0
      vertex -57.6293 1.9103 1
    endloop
  endfacet
  facet normal 0.987688 0.156433 0
    outer loop
      vertex -58.25 0 0
      vertex -58.0909 -1.0043 1
      vertex -58.0909 -1.0043 0
    endloop
  endfacet
  facet normal 0.987688 -0.156433 0
    outer loop
      vertex -58.25 0 0
      vertex -58.0909 1.0043 0
      vertex -58.25 0 1
    endloop
  endfacet
  facet normal 0.987688 0.156433 0
    outer loop
      vertex -58.25 0 0
      vertex -58.25 0 1
      vertex -58.0909 -1.0043 1
    endloop
  endfacet
  facet normal 0.987688 -0.156433 0
    outer loop
      vertex -58.25 0 1
      vertex -58.0909 1.0043 0
      vertex -58.0909 1.0043 1
    endloop
  endfacet
  facet normal 0 0 -1
    outer loop
      vertex -59.4264 -8.68731 0
      vertex -56.0043 -3.09093 0
      vertex -58.0129 -9.2728 0
    endloop
  endfacet
  facet normal -0 0 -1
    outer loop
      vertex -59.4264 -8.68731 0
      vertex -56.9103 -2.6293 0
      vertex -56.0043 -3.09093 0
    endloop
  endfacet
  facet normal -0.382684 -0.923879 -0
    outer loop
      vertex -59.4264 -8.68731 0
      vertex -58.0129 -9.2728 0
      vertex -58.0129 -9.2728 1
    endloop
  endfacet
  facet normal -0.382684 -0.923879 0
    outer loop
      vertex -59.4264 -8.68731 0
      vertex -58.0129 -9.2728 1
      vertex -59.4264 -8.68731 1
    endloop
  endfacet
  facet normal 0 0 1
    outer loop
      vertex -59.4264 -8.68731 1
      vertex -56.0043 -3.09093 1
      vertex -56.9103 -2.6293 1
    endloop
  endfacet
  facet normal 0 0 1
    outer loop
      vertex -59.4264 -8.68731 1
      vertex -58.0129 -9.2728 1
      vertex -56.0043 -3.09093 1
    endloop
  endfacet
  facet normal 0 0 -1
    outer loop
      vertex -59.4264 8.68731 0
      vertex -56.0043 3.09093 0
      vertex -56.9103 2.6293 0
    endloop
  endfacet
  facet normal 0 0 -1
    outer loop
      vertex -59.4264 8.68731 0
      vertex -58.0129 9.2728 0
      vertex -56.0043 3.09093 0
    endloop
  endfacet
  facet normal -0.382684 0.923879 0
    outer loop
      vertex -59.4264 8.68731 0
      vertex -59.4264 8.68731 1
      vertex -58.0129 9.2728 0
    endloop
  endfacet
  facet normal -0 0 1
    outer loop
      vertex -59.4264 8.68731 1
      vertex -56.0043 3.09093 1
      vertex -58.0129 9.2728 1
    endloop
  endfacet
  facet normal 0 0 1
    outer loop
      vertex -59.4264 8.68731 1
      vertex -56.9103 2.6293 1
      vertex -56.0043 3.09093 1
    endloop
  endfacet
  facet normal -0.382684 0.923879 0
    outer loop
      vertex -59.4264 8.68731 1
      vertex -58.0129 9.2728 1
      vertex -58.0129 9.2728 0
    endloop
  endfacet
  facet normal 0 0 -1
    outer loop
      vertex -60.7309 -7.88792 0
      vertex -56.9103 -2.6293 0
      vertex -59.4264 -8.68731 0
    endloop
  endfacet
  facet normal -0.522499 -0.85264 -0
    outer loop
      vertex -60.7309 -7.88792 0
      vertex -59.4264 -8.68731 0
      vertex -59.4264 -8.68731 1
    endloop
  endfacet
  facet normal -0.522499 -0.85264 0
    outer loop
      vertex -60.7309 -7.88792 0
      vertex -59.4264 -8.68731 1
      vertex -60.7309 -7.88792 1
    endloop
  endfacet
  facet normal 0 0 1
    outer loop
      vertex -60.7309 -7.88792 1
      vertex -59.4264 -8.68731 1
      vertex -56.9103 -2.6293 1
    endloop
  endfacet
  facet normal 0 0 -1
    outer loop
      vertex -60.7309 7.88792 0
      vertex -59.4264 8.68731 0
      vertex -56.9103 2.6293 0
    endloop
  endfacet
  facet normal -0.522499 0.85264 0
    outer loop
      vertex -60.7309 7.88792 0
      vertex -60.7309 7.88792 1
      vertex -59.4264 8.68731 0
    endloop
  endfacet
  facet normal -0 0 1
    outer loop
      vertex -60.7309 7.88792 1
      vertex -56.9103 2.6293 1
      vertex -59.4264 8.68731 1
    endloop
  endfacet
  facet normal -0.522499 0.85264 0
    outer loop
      vertex -60.7309 7.88792 1
      vertex -59.4264 8.68731 1
      vertex -59.4264 8.68731 0
    endloop
  endfacet
  facet normal 0 0 -1
    outer loop
      vertex -61.8943 -6.89429 0
      vertex -56.9103 -2.6293 0
      vertex -60.7309 -7.88792 0
    endloop
  endfacet
  facet normal -0 0 -1
    outer loop
      vertex -61.8943 -6.89429 0
      vertex -57.6293 -1.9103 0
      vertex -56.9103 -2.6293 0
    endloop
  endfacet
  facet normal -0.649447 -0.760407 -0
    outer loop
      vertex -61.8943 -6.89429 0
      vertex -60.7309 -7.88792 0
      vertex -60.7309 -7.88792 1
    endloop
  endfacet
  facet normal -0.649447 -0.760407 0
    outer loop
      vertex -61.8943 -6.89429 0
      vertex -60.7309 -7.88792 1
      vertex -61.8943 -6.89429 1
    endloop
  endfacet
  facet normal 0 0 1
    outer loop
      vertex -61.8943 -6.89429 1
      vertex -56.9103 -2.6293 1
      vertex -57.6293 -1.9103 1
    endloop
  endfacet
  facet normal 0 0 1
    outer loop
      vertex -61.8943 -6.89429 1
      vertex -60.7309 -7.88792 1
      vertex -56.9103 -2.6293 1
    endloop
  endfacet
  facet normal 0 0 -1
    outer loop
      vertex -61.8943 6.89429 0
      vertex -56.9103 2.6293 0
      vertex -57.6293 1.9103 0
    endloop
  endfacet
  facet normal 0 0 -1
    outer loop
      vertex -61.8943 6.89429 0
      vertex -60.7309 7.88792 0
      vertex -56.9103 2.6293 0
    endloop
  endfacet
  facet normal -0.649447 0.760407 0
    outer loop
      vertex -61.8943 6.89429 0
      vertex -61.8943 6.89429 1
      vertex -60.7309 7.88792 0
    endloop
  endfacet
  facet normal -0 0 1
    outer loop
      vertex -61.8943 6.89429 1
      vertex -56.9103 2.6293 1
      vertex -60.7309 7.88792 1
    endloop
  endfacet
  facet normal 0 0 1
    outer loop
      vertex -61.8943 6.89429 1
      vertex -57.6293 1.9103 1
      vertex -56.9103 2.6293 1
    endloop
  endfacet
  facet normal -0.649447 0.760407 0
    outer loop
      vertex -61.8943 6.89429 1
      vertex -60.7309 7.88792 1
      vertex -60.7309 7.88792 0
    endloop
  endfacet
  facet normal 0 0 -1
    outer loop
      vertex -62.8879 -5.73091 0
      vertex -57.6293 -1.9103 0
      vertex -61.8943 -6.89429 0
    endloop
  endfacet
  facet normal -0.760406 -0.649448 0
    outer loop
      vertex -62.8879 -5.73091 0
      vertex -61.8943 -6.89429 0
      vertex -62.8879 -5.73091 1
    endloop
  endfacet
  facet normal -0.760406 -0.649448 0
    outer loop
      vertex -62.8879 -5.73091 1
      vertex -61.8943 -6.89429 0
      vertex -61.8943 -6.89429 1
    endloop
  endfacet
  facet normal 0 0 1
    outer loop
      vertex -62.8879 -5.73091 1
      vertex -61.8943 -6.89429 1
      vertex -57.6293 -1.9103 1
    endloop
  endfacet
  facet normal 0 0 -1
    outer loop
      vertex -62.8879 5.73091 0
      vertex -61.8943 6.89429 0
      vertex -57.6293 1.9103 0
    endloop
  endfacet
  facet normal -0.760406 0.649448 0
    outer loop
      vertex -62.8879 5.73091 0
      vertex -61.8943 6.89429 1
      vertex -61.8943 6.89429 0
    endloop
  endfacet
  facet normal -0.760406 0.649448 0
    outer loop
      vertex -62.8879 5.73091 0
      vertex -62.8879 5.73091 1
      vertex -61.8943 6.89429 1
    endloop
  endfacet
  facet normal -0 0 1
    outer loop
      vertex -62.8879 5.73091 1
      vertex -57.6293 1.9103 1
      vertex -61.8943 6.89429 1
    endloop
  endfacet
  facet normal 0 0 -1
    outer loop
      vertex -63.6873 -4.42641 0
      vertex -57.6293 -1.9103 0
      vertex -62.8879 -5.73091 0
    endloop
  endfacet
  facet normal -0 0 -1
    outer loop
      vertex -63.6873 -4.42641 0
      vertex -58.0909 -1.0043 0
      vertex -57.6293 -1.9103 0
    endloop
  endfacet
  facet normal -0.852641 -0.522498 0
    outer loop
      vertex -63.6873 -4.42641 0
      vertex -62.8879 -5.73091 0
      vertex -63.6873 -4.42641 1
    endloop
  endfacet
  facet normal 0 0 1
    outer loop
      vertex -63.6873 -4.42641 1
      vertex -57.6293 -1.9103 1
      vertex -58.0909 -1.0043 1
    endloop
  endfacet
  facet normal -0.852641 -0.522498 0
    outer loop
      vertex -63.6873 -4.42641 1
      vertex -62.8879 -5.73091 0
      vertex -62.8879 -5.73091 1
    endloop
  endfacet
  facet normal 0 0 1
    outer loop
      vertex -63.6873 -4.42641 1
      vertex -62.8879 -5.73091 1
      vertex -57.6293 -1.9103 1
    endloop
  endfacet
  facet normal 0 0 -1
    outer loop
      vertex -63.6873 4.42641 0
      vertex -57.6293 1.9103 0
      vertex -58.0909 1.0043 0
    endloop
  endfacet
  facet normal 0 0 -1
    outer loop
      vertex -63.6873 4.42641 0
      vertex -62.8879 5.73091 0
      vertex -57.6293 1.9103 0
    endloop
  endfacet
  facet normal -0.852641 0.522498 0
    outer loop
      vertex -63.6873 4.42641 0
      vertex -62.8879 5.73091 1
      vertex -62.8879 5.73091 0
    endloop
  endfacet
  facet normal -0.852641 0.522498 0
    outer loop
      vertex -63.6873 4.42641 0
      vertex -63.6873 4.42641 1
      vertex -62.8879 5.73091 1
    endloop
  endfacet
  facet normal -0 0 1
    outer loop
      vertex -63.6873 4.42641 1
      vertex -57.6293 1.9103 1
      vertex -62.8879 5.73091 1
    endloop
  endfacet
  facet normal 0 0 1
    outer loop
      vertex -63.6873 4.42641 1
      vertex -58.0909 1.0043 1
      vertex -57.6293 1.9103 1
    endloop
  endfacet
  facet normal 0 0 -1
    outer loop
      vertex -64.2728 -3.01292 0
      vertex -58.0909 -1.0043 0
      vertex -63.6873 -4.42641 0
    endloop
  endfacet
  facet normal -0.92388 -0.382681 0
    outer loop
      vertex -64.2728 -3.01292 0
      vertex -63.6873 -4.42641 0
      vertex -64.2728 -3.01292 1
    endloop
  endfacet
  facet normal -0.92388 -0.382681 0
    outer loop
      vertex -64.2728 -3.01292 1
      vertex -63.6873 -4.42641 0
      vertex -63.6873 -4.42641 1
    endloop
  endfacet
  facet normal 0 0 1
    outer loop
      vertex -64.2728 -3.01292 1
      vertex -63.6873 -4.42641 1
      vertex -58.0909 -1.0043 1
    endloop
  endfacet
  facet normal 0 0 -1
    outer loop
      vertex -64.2728 3.01292 0
      vertex -63.6873 4.42641 0
      vertex -58.0909 1.0043 0
    endloop
  endfacet
  facet normal -0.92388 0.382681 0
    outer loop
      vertex -64.2728 3.01292 0
      vertex -63.6873 4.42641 1
      vertex -63.6873 4.42641 0
    endloop
  endfacet
  facet normal -0.92388 0.382681 0
    outer loop
      vertex -64.2728 3.01292 0
      vertex -64.2728 3.01292 1
      vertex -63.6873 4.42641 1
    endloop
  endfacet
  facet normal -0 0 1
    outer loop
      vertex -64.2728 3.01292 1
      vertex -58.0909 1.0043 1
      vertex -63.6873 4.42641 1
    endloop
  endfacet
  facet normal 0 0 -1
    outer loop
      vertex -64.63 -1.52524 0
      vertex -58.0909 -1.0043 0
      vertex -64.2728 -3.01292 0
    endloop
  endfacet
  facet normal -0 0 -1
    outer loop
      vertex -64.63 -1.52524 0
      vertex -58.25 0 0
      vertex -58.0909 -1.0043 0
    endloop
  endfacet
  facet normal -0.97237 -0.233447 0
    outer loop
      vertex -64.63 -1.52524 0
      vertex -64.2728 -3.01292 0
      vertex -64.63 -1.52524 1
    endloop
  endfacet
  facet normal 0 0 1
    outer loop
      vertex -64.63 -1.52524 1
      vertex -58.0909 -1.0043 1
      vertex -58.25 0 1
    endloop
  endfacet
  facet normal -0.97237 -0.233447 0
    outer loop
      vertex -64.63 -1.52524 1
      vertex -64.2728 -3.01292 0
      vertex -64.2728 -3.01292 1
    endloop
  endfacet
  facet normal 0 0 1
    outer loop
      vertex -64.63 -1.52524 1
      vertex -64.2728 -3.01292 1
      vertex -58.0909 -1.0043 1
    endloop
  endfacet
  facet normal 0 0 -1
    outer loop
      vertex -64.63 1.52524 0
      vertex -58.0909 1.0043 0
      vertex -58.25 0 0
    endloop
  endfacet
  facet normal 0 0 -1
    outer loop
      vertex -64.63 1.52524 0
      vertex -64.2728 3.01292 0
      vertex -58.0909 1.0043 0
    endloop
  endfacet
  facet normal -0.97237 0.233447 0
    outer loop
      vertex -64.63 1.52524 0
      vertex -64.2728 3.01292 1
      vertex -64.2728 3.01292 0
    endloop
  endfacet
  facet normal -0.97237 0.233447 0
    outer loop
      vertex -64.63 1.52524 0
      vertex -64.63 1.52524 1
      vertex -64.2728 3.01292 1
    endloop
  endfacet
  facet normal -0 0 1
    outer loop
      vertex -64.63 1.52524 1
      vertex -58.0909 1.0043 1
      vertex -64.2728 3.01292 1
    endloop
  endfacet
  facet normal 0 0 1
    outer loop
      vertex -64.63 1.52524 1
      vertex -58.25 0 1
      vertex -58.0909 1.0043 1
    endloop
  endfacet
  facet normal 0 0 -1
    outer loop
      vertex -64.75 0 0
      vertex -58.25 0 0
      vertex -64.63 -1.52524 0
    endloop
  endfacet
  facet normal -0.996917 -0.0784606 0
    outer loop
      vertex -64.75 0 0
      vertex -64.63 -1.52524 0
      vertex -64.75 0 1
    endloop
  endfacet
  facet normal 0 0 -1
    outer loop
      vertex -64.75 0 0
      vertex -64.63 1.52524 0
      vertex -58.25 0 0
    endloop
  endfacet
  facet normal -0.996917 0.0784606 0
    outer loop
      vertex -64.75 0 0
      vertex -64.63 1.52524 1
      vertex -64.63 1.52524 0
    endloop
  endfacet
  facet normal -0.996917 0.0784606 0
    outer loop
      vertex -64.75 0 0
      vertex -64.75 0 1
      vertex -64.63 1.52524 1
    endloop
  endfacet
  facet normal 0 0 1
    outer loop
      vertex -64.75 0 1
      vertex -58.25 0 1
      vertex -64.63 1.52524 1
    endloop
  endfacet
  facet normal -0.996917 -0.0784606 0
    outer loop
      vertex -64.75 0 1
      vertex -64.63 -1.52524 0
      vertex -64.63 -1.52524 1
    endloop
  endfacet
  facet normal 0 0 1
    outer loop
      vertex -64.75 0 1
      vertex -64.63 -1.52524 1
      vertex -58.25 0 1
    endloop
  endfacet
  facet normal -0.996917 -0.0784581 0
    outer loop
      vertex 45.25 0 0
      vertex 45.37 -1.52524 0
      vertex 45.25 0 1
    endloop
  endfacet
  facet normal 0 0 -1
    outer loop
      vertex 45.25 0 0
      vertex 51.75 0 0
      vertex 45.37 -1.52524 0
    endloop
  endfacet
  facet normal 0 0 -1
    outer loop
      vertex 45.25 0 0
      vertex 51.7545 0.170092 0
      vertex 51.75 0 0
    endloop
  endfacet
  facet normal -0 0 -1
    outer loop
      vertex 45.25 0 0
      vertex 52.2565 9.75 0
      vertex 51.7545 0.170092 0
    endloop
  endfacet
  facet normal -0.996917 -0.0784581 0
    outer loop
      vertex 45.25 0 1
      vertex 45.37 -1.52524 0
      vertex 45.37 -1.52524 1
    endloop
  endfacet
  facet normal 0 0 1
    outer loop
      vertex 45.25 0 1
      vertex 45.37 -1.52524 1
      vertex 51.75 0 1
    endloop
  endfacet
  facet normal 0 0 1
    outer loop
      vertex 45.25 0 1
      vertex 51.75 0 1
      vertex 51.7545 0.170092 1
    endloop
  endfacet
  facet normal 0 0 1
    outer loop
      vertex 45.25 0 1
      vertex 51.7545 0.170092 1
      vertex 52.2565 9.75 1
    endloop
  endfacet
  facet normal -0.97237 -0.233447 0
    outer loop
      vertex 45.37 -1.52524 0
      vertex 45.7272 -3.01292 0
      vertex 45.37 -1.52524 1
    endloop
  endfacet
  facet normal -0 0 -1
    outer loop
      vertex 45.37 -1.52524 0
      vertex 51.75 0 0
      vertex 51.9091 -1.0043 0
    endloop
  endfacet
  facet normal 0 0 -1
    outer loop
      vertex 45.37 -1.52524 0
      vertex 51.9091 -1.0043 0
      vertex 45.7272 -3.01292 0
    endloop
  endfacet
  facet normal -0.97237 -0.233447 0
    outer loop
      vertex 45.37 -1.52524 1
      vertex 45.7272 -3.01292 0
      vertex 45.7272 -3.01292 1
    endloop
  endfacet
  facet normal 0 0 1
    outer loop
      vertex 45.37 -1.52524 1
      vertex 45.7272 -3.01292 1
      vertex 51.75 0 1
    endloop
  endfacet
  facet normal -0.92388 -0.382683 0
    outer loop
      vertex 45.7272 -3.01292 0
      vertex 46.3127 -4.42641 0
      vertex 45.7272 -3.01292 1
    endloop
  endfacet
  facet normal 0 0 -1
    outer loop
      vertex 45.7272 -3.01292 0
      vertex 51.9091 -1.0043 0
      vertex 46.3127 -4.42641 0
    endloop
  endfacet
  facet normal -0.92388 -0.382683 0
    outer loop
      vertex 45.7272 -3.01292 1
      vertex 46.3127 -4.42641 0
      vertex 46.3127 -4.42641 1
    endloop
  endfacet
  facet normal 0 0 1
    outer loop
      vertex 45.7272 -3.01292 1
      vertex 46.3127 -4.42641 1
      vertex 51.75 0 1
    endloop
  endfacet
  facet normal -0.852641 -0.522498 0
    outer loop
      vertex 46.3127 -4.42641 0
      vertex 47.1121 -5.73091 0
      vertex 46.3127 -4.42641 1
    endloop
  endfacet
  facet normal -0 0 -1
    outer loop
      vertex 46.3127 -4.42641 0
      vertex 51.9091 -1.0043 0
      vertex 52.3707 -1.9103 0
    endloop
  endfacet
  facet normal 0 0 -1
    outer loop
      vertex 46.3127 -4.42641 0
      vertex 52.3707 -1.9103 0
      vertex 47.1121 -5.73091 0
    endloop
  endfacet
  facet normal -0.852641 -0.522498 0
    outer loop
      vertex 46.3127 -4.42641 1
      vertex 47.1121 -5.73091 0
      vertex 47.1121 -5.73091 1
    endloop
  endfacet
  facet normal 0 0 1
    outer loop
      vertex 46.3127 -4.42641 1
      vertex 47.1121 -5.73091 1
      vertex 51.75 0 1
    endloop
  endfacet
  facet normal -0.760406 -0.649448 0
    outer loop
      vertex 47.1121 -5.73091 0
      vertex 48.1057 -6.89429 0
      vertex 47.1121 -5.73091 1
    endloop
  endfacet
  facet normal 0 0 -1
    outer loop
      vertex 47.1121 -5.73091 0
      vertex 52.3707 -1.9103 0
      vertex 48.1057 -6.89429 0
    endloop
  endfacet
  facet normal -0.760406 -0.649448 0
    outer loop
      vertex 47.1121 -5.73091 1
      vertex 48.1057 -6.89429 0
      vertex 48.1057 -6.89429 1
    endloop
  endfacet
  facet normal 0 0 1
    outer loop
      vertex 47.1121 -5.73091 1
      vertex 48.1057 -6.89429 1
      vertex 51.75 0 1
    endloop
  endfacet
  facet normal -0.649449 -0.760406 -0
    outer loop
      vertex 48.1057 -6.89429 0
      vertex 49.2691 -7.88792 0
      vertex 49.2691 -7.88792 1
    endloop
  endfacet
  facet normal -0.649449 -0.760406 0
    outer loop
      vertex 48.1057 -6.89429 0
      vertex 49.2691 -7.88792 1
      vertex 48.1057 -6.89429 1
    endloop
  endfacet
  facet normal -0 0 -1
    outer loop
      vertex 48.1057 -6.89429 0
      vertex 52.3707 -1.9103 0
      vertex 53.0897 -2.6293 0
    endloop
  endfacet
  facet normal 0 0 -1
    outer loop
      vertex 48.1057 -6.89429 0
      vertex 53.0897 -2.6293 0
      vertex 49.2691 -7.88792 0
    endloop
  endfacet
  facet normal 0 0 1
    outer loop
      vertex 48.1057 -6.89429 1
      vertex 49.2691 -7.88792 1
      vertex 51.75 0 1
    endloop
  endfacet
  facet normal -0.522498 -0.852641 -0
    outer loop
      vertex 49.2691 -7.88792 0
      vertex 50.5736 -8.68731 0
      vertex 50.5736 -8.68731 1
    endloop
  endfacet
  facet normal -0.522498 -0.852641 0
    outer loop
      vertex 49.2691 -7.88792 0
      vertex 50.5736 -8.68731 1
      vertex 49.2691 -7.88792 1
    endloop
  endfacet
  facet normal 0 0 -1
    outer loop
      vertex 49.2691 -7.88792 0
      vertex 53.0897 -2.6293 0
      vertex 50.5736 -8.68731 0
    endloop
  endfacet
  facet normal 0 0 1
    outer loop
      vertex 49.2691 -7.88792 1
      vertex 50.5736 -8.68731 1
      vertex 51.75 0 1
    endloop
  endfacet
  facet normal -0.382684 -0.923879 -0
    outer loop
      vertex 50.5736 -8.68731 0
      vertex 51.9871 -9.2728 0
      vertex 51.9871 -9.2728 1
    endloop
  endfacet
  facet normal -0.382684 -0.923879 0
    outer loop
      vertex 50.5736 -8.68731 0
      vertex 51.9871 -9.2728 1
      vertex 50.5736 -8.68731 1
    endloop
  endfacet
  facet normal -0 0 -1
    outer loop
      vertex 50.5736 -8.68731 0
      vertex 53.0897 -2.6293 0
      vertex 53.9957 -3.09093 0
    endloop
  endfacet
  facet normal 0 0 -1
    outer loop
      vertex 50.5736 -8.68731 0
      vertex 53.9957 -3.09093 0
      vertex 51.9871 -9.2728 0
    endloop
  endfacet
  facet normal 0 0 1
    outer loop
      vertex 50.5736 -8.68731 1
      vertex 51.9091 -1.0043 1
      vertex 51.75 0 1
    endloop
  endfacet
  facet normal 0 0 1
    outer loop
      vertex 50.5736 -8.68731 1
      vertex 51.9871 -9.2728 1
      vertex 53.9957 -3.09093 1
    endloop
  endfacet
  facet normal 0 0 1
    outer loop
      vertex 50.5736 -8.68731 1
      vertex 52.3707 -1.9103 1
      vertex 51.9091 -1.0043 1
    endloop
  endfacet
  facet normal 0 0 1
    outer loop
      vertex 50.5736 -8.68731 1
      vertex 53.0897 -2.6293 1
      vertex 52.3707 -1.9103 1
    endloop
  endfacet
  facet normal 0 0 1
    outer loop
      vertex 50.5736 -8.68731 1
      vertex 53.9957 -3.09093 1
      vertex 53.0897 -2.6293 1
    endloop
  endfacet
  facet normal 0.987688 0.156433 0
    outer loop
      vertex 51.75 0 0
      vertex 51.75 0 1
      vertex 51.9091 -1.0043 1
    endloop
  endfacet
  facet normal -0 0 -1
    outer loop
      vertex 51.75 0 0
      vertex 51.7545 0.170092 0
      vertex 51.7768 0.168923 0
    endloop
  endfacet
  facet normal 0.987687 -0.156443 0
    outer loop
      vertex 51.75 0 0
      vertex 51.7768 0.168923 0
      vertex 51.75 0 1
    endloop
  endfacet
  facet normal 0.987688 0.156433 0
    outer loop
      vertex 51.75 0 0
      vertex 51.9091 -1.0043 1
      vertex 51.9091 -1.0043 0
    endloop
  endfacet
  facet normal 0.987687 -0.156443 0
    outer loop
      vertex 51.75 0 1
      vertex 51.7768 0.168923 0
      vertex 51.7768 0.168923 1
    endloop
  endfacet
  facet normal 0 0 1
    outer loop
      vertex 51.75 0 1
      vertex 51.7768 0.168923 1
      vertex 51.7545 0.170092 1
    endloop
  endfacet
  facet normal 0.0523365 0.99863 0
    outer loop
      vertex 51.7545 0.170092 0
      vertex 51.7545 0.170092 1
      vertex 51.7768 0.168923 0
    endloop
  endfacet
  facet normal 0.99863 -0.0523358 0
    outer loop
      vertex 51.7545 0.170092 0
      vertex 52.2565 9.75 0
      vertex 51.7545 0.170092 1
    endloop
  endfacet
  facet normal 0.0523365 0.99863 -0
    outer loop
      vertex 51.7545 0.170092 1
      vertex 51.7768 0.168923 1
      vertex 51.7768 0.168923 0
    endloop
  endfacet
  facet normal 0.99863 -0.0523358 0
    outer loop
      vertex 51.7545 0.170092 1
      vertex 52.2565 9.75 0
      vertex 52.2565 9.75 1
    endloop
  endfacet
  facet normal 0.891007 0.45399 0
    outer loop
      vertex 51.9091 -1.0043 0
      vertex 51.9091 -1.0043 1
      vertex 52.3707 -1.9103 1
    endloop
  endfacet
  facet normal 0.891007 0.45399 0
    outer loop
      vertex 51.9091 -1.0043 0
      vertex 52.3707 -1.9103 1
      vertex 52.3707 -1.9103 0
    endloop
  endfacet
  facet normal -0.233446 -0.97237 -0
    outer loop
      vertex 51.9871 -9.2728 0
      vertex 53.4748 -9.62996 0
      vertex 53.4748 -9.62996 1
    endloop
  endfacet
  facet normal -0.233446 -0.97237 0
    outer loop
      vertex 51.9871 -9.2728 0
      vertex 53.4748 -9.62996 1
      vertex 51.9871 -9.2728 1
    endloop
  endfacet
  facet normal 0 0 -1
    outer loop
      vertex 51.9871 -9.2728 0
      vertex 53.9957 -3.09093 0
      vertex 53.4748 -9.62996 0
    endloop
  endfacet
  facet normal 0 0 1
    outer loop
      vertex 51.9871 -9.2728 1
      vertex 53.4748 -9.62996 1
      vertex 53.9957 -3.09093 1
    endloop
  endfacet
  facet normal 0.707106 0.707108 0
    outer loop
      vertex 52.3707 -1.9103 0
      vertex 52.3707 -1.9103 1
      vertex 53.0897 -2.6293 0
    endloop
  endfacet
  facet normal 0.707106 0.707108 -0
    outer loop
      vertex 52.3707 -1.9103 1
      vertex 53.0897 -2.6293 1
      vertex 53.0897 -2.6293 0
    endloop
  endfacet
  facet normal 0.453991 0.891006 0
    outer loop
      vertex 53.0897 -2.6293 0
      vertex 53.0897 -2.6293 1
      vertex 53.9957 -3.09093 0
    endloop
  endfacet
  facet normal 0.453991 0.891006 -0
    outer loop
      vertex 53.0897 -2.6293 1
      vertex 53.9957 -3.09093 1
      vertex 53.9957 -3.09093 0
    endloop
  endfacet
  facet normal -0 0 -1
    outer loop
      vertex 53.4748 -9.62996 0
      vertex 53.9957 -3.09093 0
      vertex 55 -3.25 0
    endloop
  endfacet
  facet normal 0 0 -1
    outer loop
      vertex 53.4748 -9.62996 0
      vertex 55 -3.25 0
      vertex 55 -9.75 0
    endloop
  endfacet
  facet normal -0.0784592 -0.996917 -0
    outer loop
      vertex 53.4748 -9.62996 0
      vertex 55 -9.75 0
      vertex 55 -9.75 1
    endloop
  endfacet
  facet normal -0.0784592 -0.996917 0
    outer loop
      vertex 53.4748 -9.62996 0
      vertex 55 -9.75 1
      vertex 53.4748 -9.62996 1
    endloop
  endfacet
  facet normal 0 0 1
    outer loop
      vertex 53.4748 -9.62996 1
      vertex 55 -3.25 1
      vertex 53.9957 -3.09093 1
    endloop
  endfacet
  facet normal 0 0 1
    outer loop
      vertex 53.4748 -9.62996 1
      vertex 55 -9.75 1
      vertex 55 -3.25 1
    endloop
  endfacet
  facet normal 0.156435 0.987688 0
    outer loop
      vertex 53.9957 -3.09093 0
      vertex 53.9957 -3.09093 1
      vertex 55 -3.25 0
    endloop
  endfacet
  facet normal 0.156435 0.987688 -0
    outer loop
      vertex 53.9957 -3.09093 1
      vertex 55 -3.25 1
      vertex 55 -3.25 0
    endloop
  endfacet
  facet normal -0.156436 0.987688 0
    outer loop
      vertex 55 -3.25 0
      vertex 55 -3.25 1
      vertex 56.0043 -3.09093 0
    endloop
  endfacet
  facet normal 0 0 -1
    outer loop
      vertex 55 -3.25 0
      vertex 56.0043 -3.09093 0
      vertex 56.5252 -9.62996 0
    endloop
  endfacet
  facet normal -0.156436 0.987688 0
    outer loop
      vertex 55 -3.25 1
      vertex 56.0043 -3.09093 1
      vertex 56.0043 -3.09093 0
    endloop
  endfacet
  facet normal -0 0 1
    outer loop
      vertex 55 -3.25 1
      vertex 56.5252 -9.62996 1
      vertex 56.0043 -3.09093 1
    endloop
  endfacet
  facet normal 0 0 -1
    outer loop
      vertex 55 -9.75 0
      vertex 55 -3.25 0
      vertex 56.5252 -9.62996 0
    endloop
  endfacet
  facet normal 0.0784594 -0.996917 0
    outer loop
      vertex 55 -9.75 0
      vertex 56.5252 -9.62996 0
      vertex 56.5252 -9.62996 1
    endloop
  endfacet
  facet normal 0.0784594 -0.996917 0
    outer loop
      vertex 55 -9.75 0
      vertex 56.5252 -9.62996 1
      vertex 55 -9.75 1
    endloop
  endfacet
  facet normal 0 0 1
    outer loop
      vertex 55 -9.75 1
      vertex 56.5252 -9.62996 1
      vertex 55 -3.25 1
    endloop
  endfacet
  facet normal -0.45399 0.891007 0
    outer loop
      vertex 56.0043 -3.09093 0
      vertex 56.0043 -3.09093 1
      vertex 56.9103 -2.6293 0
    endloop
  endfacet
  facet normal 0 0 -1
    outer loop
      vertex 56.0043 -3.09093 0
      vertex 56.9103 -2.6293 0
      vertex 59.4264 -8.68731 0
    endloop
  endfacet
  facet normal 0 0 -1
    outer loop
      vertex 56.0043 -3.09093 0
      vertex 58.0129 -9.2728 0
      vertex 56.5252 -9.62996 0
    endloop
  endfacet
  facet normal 0 0 -1
    outer loop
      vertex 56.0043 -3.09093 0
      vertex 59.4264 -8.68731 0
      vertex 58.0129 -9.2728 0
    endloop
  endfacet
  facet normal 0 0 1
    outer loop
      vertex 56.0043 -3.09093 1
      vertex 56.5252 -9.62996 1
      vertex 58.0129 -9.2728 1
    endloop
  endfacet
  facet normal -0.45399 0.891007 0
    outer loop
      vertex 56.0043 -3.09093 1
      vertex 56.9103 -2.6293 1
      vertex 56.9103 -2.6293 0
    endloop
  endfacet
  facet normal 0 0 1
    outer loop
      vertex 56.0043 -3.09093 1
      vertex 58.0129 -9.2728 1
      vertex 59.4264 -8.68731 1
    endloop
  endfacet
  facet normal -0 0 1
    outer loop
      vertex 56.0043 -3.09093 1
      vertex 59.4264 -8.68731 1
      vertex 56.9103 -2.6293 1
    endloop
  endfacet
  facet normal 0.233445 -0.97237 0
    outer loop
      vertex 56.5252 -9.62996 0
      vertex 58.0129 -9.2728 0
      vertex 58.0129 -9.2728 1
    endloop
  endfacet
  facet normal 0.233445 -0.97237 0
    outer loop
      vertex 56.5252 -9.62996 0
      vertex 58.0129 -9.2728 1
      vertex 56.5252 -9.62996 1
    endloop
  endfacet
  facet normal -0.707108 0.707106 0
    outer loop
      vertex 56.9103 -2.6293 0
      vertex 56.9103 -2.6293 1
      vertex 57.6293 -1.9103 1
    endloop
  endfacet
  facet normal 0 0 -1
    outer loop
      vertex 56.9103 -2.6293 0
      vertex 57.6293 -1.9103 0
      vertex 61.8943 -6.89429 0
    endloop
  endfacet
  facet normal -0.707108 0.707106 0
    outer loop
      vertex 56.9103 -2.6293 0
      vertex 57.6293 -1.9103 1
      vertex 57.6293 -1.9103 0
    endloop
  endfacet
  facet normal 0 0 -1
    outer loop
      vertex 56.9103 -2.6293 0
      vertex 60.7309 -7.88792 0
      vertex 59.4264 -8.68731 0
    endloop
  endfacet
  facet normal 0 0 -1
    outer loop
      vertex 56.9103 -2.6293 0
      vertex 61.8943 -6.89429 0
      vertex 60.7309 -7.88792 0
    endloop
  endfacet
  facet normal 0 0 1
    outer loop
      vertex 56.9103 -2.6293 1
      vertex 59.4264 -8.68731 1
      vertex 60.7309 -7.88792 1
    endloop
  endfacet
  facet normal 0 0 1
    outer loop
      vertex 56.9103 -2.6293 1
      vertex 60.7309 -7.88792 1
      vertex 61.8943 -6.89429 1
    endloop
  endfacet
  facet normal -0 0 1
    outer loop
      vertex 56.9103 -2.6293 1
      vertex 61.8943 -6.89429 1
      vertex 57.6293 -1.9103 1
    endloop
  endfacet
  facet normal -0.891005 0.453993 0
    outer loop
      vertex 57.6293 -1.9103 0
      vertex 57.6293 -1.9103 1
      vertex 58.0909 -1.0043 1
    endloop
  endfacet
  facet normal 0 0 -1
    outer loop
      vertex 57.6293 -1.9103 0
      vertex 58.0909 -1.0043 0
      vertex 63.6873 -4.42641 0
    endloop
  endfacet
  facet normal -0.891005 0.453993 0
    outer loop
      vertex 57.6293 -1.9103 0
      vertex 58.0909 -1.0043 1
      vertex 58.0909 -1.0043 0
    endloop
  endfacet
  facet normal 0 0 -1
    outer loop
      vertex 57.6293 -1.9103 0
      vertex 62.8879 -5.73091 0
      vertex 61.8943 -6.89429 0
    endloop
  endfacet
  facet normal 0 0 -1
    outer loop
      vertex 57.6293 -1.9103 0
      vertex 63.6873 -4.42641 0
      vertex 62.8879 -5.73091 0
    endloop
  endfacet
  facet normal 0 0 1
    outer loop
      vertex 57.6293 -1.9103 1
      vertex 61.8943 -6.89429 1
      vertex 62.8879 -5.73091 1
    endloop
  endfacet
  facet normal 0 0 1
    outer loop
      vertex 57.6293 -1.9103 1
      vertex 62.8879 -5.73091 1
      vertex 63.6873 -4.42641 1
    endloop
  endfacet
  facet normal -0 0 1
    outer loop
      vertex 57.6293 -1.9103 1
      vertex 63.6873 -4.42641 1
      vertex 58.0909 -1.0043 1
    endloop
  endfacet
  facet normal 0.382684 -0.923879 0
    outer loop
      vertex 58.0129 -9.2728 0
      vertex 59.4264 -8.68731 0
      vertex 59.4264 -8.68731 1
    endloop
  endfacet
  facet normal 0.382684 -0.923879 0
    outer loop
      vertex 58.0129 -9.2728 0
      vertex 59.4264 -8.68731 1
      vertex 58.0129 -9.2728 1
    endloop
  endfacet
  facet normal -0.987689 0.156432 0
    outer loop
      vertex 58.0909 -1.0043 0
      vertex 58.0909 -1.0043 1
      vertex 58.2232 -0.168923 1
    endloop
  endfacet
  facet normal -0 0 -1
    outer loop
      vertex 58.0909 -1.0043 0
      vertex 58.2232 -0.168923 0
      vertex 58.2455 -0.170092 0
    endloop
  endfacet
  facet normal -0.987689 0.156432 0
    outer loop
      vertex 58.0909 -1.0043 0
      vertex 58.2232 -0.168923 1
      vertex 58.2232 -0.168923 0
    endloop
  endfacet
  facet normal 0 0 -1
    outer loop
      vertex 58.0909 -1.0043 0
      vertex 58.2455 -0.170092 0
      vertex 64.63 -1.52524 0
    endloop
  endfacet
  facet normal 0 0 -1
    outer loop
      vertex 58.0909 -1.0043 0
      vertex 64.2728 -3.01292 0
      vertex 63.6873 -4.42641 0
    endloop
  endfacet
  facet normal 0 0 -1
    outer loop
      vertex 58.0909 -1.0043 0
      vertex 64.63 -1.52524 0
      vertex 64.2728 -3.01292 0
    endloop
  endfacet
  facet normal 0 0 1
    outer loop
      vertex 58.0909 -1.0043 1
      vertex 58.2455 -0.170092 1
      vertex 58.2232 -0.168923 1
    endloop
  endfacet
  facet normal 0 0 1
    outer loop
      vertex 58.0909 -1.0043 1
      vertex 63.6873 -4.42641 1
      vertex 64.2728 -3.01292 1
    endloop
  endfacet
  facet normal 0 0 1
    outer loop
      vertex 58.0909 -1.0043 1
      vertex 64.2728 -3.01292 1
      vertex 64.63 -1.52524 1
    endloop
  endfacet
  facet normal -0 0 1
    outer loop
      vertex 58.0909 -1.0043 1
      vertex 64.63 -1.52524 1
      vertex 58.2455 -0.170092 1
    endloop
  endfacet
  facet normal 0.0523351 0.99863 0
    outer loop
      vertex 58.2232 -0.168923 0
      vertex 58.2232 -0.168923 1
      vertex 58.2455 -0.170092 0
    endloop
  endfacet
  facet normal 0.0523351 0.99863 -0
    outer loop
      vertex 58.2232 -0.168923 1
      vertex 58.2455 -0.170092 1
      vertex 58.2455 -0.170092 0
    endloop
  endfacet
  facet normal -0.99863 0.0523359 0
    outer loop
      vertex 58.2455 -0.170092 0
      vertex 58.2455 -0.170092 1
      vertex 58.725 8.97786 1
    endloop
  endfacet
  facet normal -0 0 -1
    outer loop
      vertex 58.2455 -0.170092 0
      vertex 58.725 8.97786 0
      vertex 59.4264 8.68731 0
    endloop
  endfacet
  facet normal -0.99863 0.0523359 0
    outer loop
      vertex 58.2455 -0.170092 0
      vertex 58.725 8.97786 1
      vertex 58.725 8.97786 0
    endloop
  endfacet
  facet normal -0 0 -1
    outer loop
      vertex 58.2455 -0.170092 0
      vertex 59.4264 8.68731 0
      vertex 60.7309 7.88792 0
    endloop
  endfacet
  facet normal -0 0 -1
    outer loop
      vertex 58.2455 -0.170092 0
      vertex 60.7309 7.88792 0
      vertex 61.8943 6.89429 0
    endloop
  endfacet
  facet normal -0 0 -1
    outer loop
      vertex 58.2455 -0.170092 0
      vertex 61.8943 6.89429 0
      vertex 62.8879 5.73091 0
    endloop
  endfacet
  facet normal -0 0 -1
    outer loop
      vertex 58.2455 -0.170092 0
      vertex 62.8879 5.73091 0
      vertex 63.6873 4.42641 0
    endloop
  endfacet
  facet normal -0 0 -1
    outer loop
      vertex 58.2455 -0.170092 0
      vertex 63.6873 4.42641 0
      vertex 64.2728 3.01292 0
    endloop
  endfacet
  facet normal -0 0 -1
    outer loop
      vertex 58.2455 -0.170092 0
      vertex 64.2728 3.01292 0
      vertex 64.63 1.52524 0
    endloop
  endfacet
  facet normal -0 0 -1
    outer loop
      vertex 58.2455 -0.170092 0
      vertex 64.63 1.52524 0
      vertex 64.75 0 0
    endloop
  endfacet
  facet normal 0 0 -1
    outer loop
      vertex 58.2455 -0.170092 0
      vertex 64.75 0 0
      vertex 64.63 -1.52524 0
    endloop
  endfacet
  facet normal 0 0 1
    outer loop
      vertex 58.2455 -0.170092 1
      vertex 59.4264 8.68731 1
      vertex 58.725 8.97786 1
    endloop
  endfacet
  facet normal 0 0 1
    outer loop
      vertex 58.2455 -0.170092 1
      vertex 60.7309 7.88792 1
      vertex 59.4264 8.68731 1
    endloop
  endfacet
  facet normal 0 0 1
    outer loop
      vertex 58.2455 -0.170092 1
      vertex 61.8943 6.89429 1
      vertex 60.7309 7.88792 1
    endloop
  endfacet
  facet normal 0 0 1
    outer loop
      vertex 58.2455 -0.170092 1
      vertex 62.8879 5.73091 1
      vertex 61.8943 6.89429 1
    endloop
  endfacet
  facet normal 0 0 1
    outer loop
      vertex 58.2455 -0.170092 1
      vertex 63.6873 4.42641 1
      vertex 62.8879 5.73091 1
    endloop
  endfacet
  facet normal 0 0 1
    outer loop
      vertex 58.2455 -0.170092 1
      vertex 64.2728 3.01292 1
      vertex 63.6873 4.42641 1
    endloop
  endfacet
  facet normal 0 0 1
    outer loop
      vertex 58.2455 -0.170092 1
      vertex 64.63 -1.52524 1
      vertex 64.75 0 1
    endloop
  endfacet
  facet normal 0 0 1
    outer loop
      vertex 58.2455 -0.170092 1
      vertex 64.63 1.52524 1
      vertex 64.2728 3.01292 1
    endloop
  endfacet
  facet normal 0 0 1
    outer loop
      vertex 58.2455 -0.170092 1
      vertex 64.75 0 1
      vertex 64.63 1.52524 1
    endloop
  endfacet
  facet normal 0.382683 0.92388 0
    outer loop
      vertex 58.725 8.97786 0
      vertex 58.725 8.97786 1
      vertex 59.4264 8.68731 0
    endloop
  endfacet
  facet normal 0.382683 0.92388 -0
    outer loop
      vertex 58.725 8.97786 1
      vertex 59.4264 8.68731 1
      vertex 59.4264 8.68731 0
    endloop
  endfacet
  facet normal 0.522499 -0.85264 0
    outer loop
      vertex 59.4264 -8.68731 0
      vertex 60.7309 -7.88792 0
      vertex 60.7309 -7.88792 1
    endloop
  endfacet
  facet normal 0.522499 -0.85264 0
    outer loop
      vertex 59.4264 -8.68731 0
      vertex 60.7309 -7.88792 1
      vertex 59.4264 -8.68731 1
    endloop
  endfacet
  facet normal 0.522499 0.85264 0
    outer loop
      vertex 59.4264 8.68731 0
      vertex 59.4264 8.68731 1
      vertex 60.7309 7.88792 0
    endloop
  endfacet
  facet normal 0.522499 0.85264 -0
    outer loop
      vertex 59.4264 8.68731 1
      vertex 60.7309 7.88792 1
      vertex 60.7309 7.88792 0
    endloop
  endfacet
  facet normal 0.649447 -0.760407 0
    outer loop
      vertex 60.7309 -7.88792 0
      vertex 61.8943 -6.89429 0
      vertex 61.8943 -6.89429 1
    endloop
  endfacet
  facet normal 0.649447 -0.760407 0
    outer loop
      vertex 60.7309 -7.88792 0
      vertex 61.8943 -6.89429 1
      vertex 60.7309 -7.88792 1
    endloop
  endfacet
  facet normal 0.649447 0.760407 0
    outer loop
      vertex 60.7309 7.88792 0
      vertex 60.7309 7.88792 1
      vertex 61.8943 6.89429 0
    endloop
  endfacet
  facet normal 0.649447 0.760407 -0
    outer loop
      vertex 60.7309 7.88792 1
      vertex 61.8943 6.89429 1
      vertex 61.8943 6.89429 0
    endloop
  endfacet
  facet normal 0.760406 -0.649448 0
    outer loop
      vertex 61.8943 -6.89429 0
      vertex 62.8879 -5.73091 0
      vertex 61.8943 -6.89429 1
    endloop
  endfacet
  facet normal 0.760406 -0.649448 0
    outer loop
      vertex 61.8943 -6.89429 1
      vertex 62.8879 -5.73091 0
      vertex 62.8879 -5.73091 1
    endloop
  endfacet
  facet normal 0.760406 0.649448 0
    outer loop
      vertex 61.8943 6.89429 0
      vertex 61.8943 6.89429 1
      vertex 62.8879 5.73091 1
    endloop
  endfacet
  facet normal 0.760406 0.649448 0
    outer loop
      vertex 61.8943 6.89429 0
      vertex 62.8879 5.73091 1
      vertex 62.8879 5.73091 0
    endloop
  endfacet
  facet normal 0.852641 -0.522498 0
    outer loop
      vertex 62.8879 -5.73091 0
      vertex 63.6873 -4.42641 0
      vertex 62.8879 -5.73091 1
    endloop
  endfacet
  facet normal 0.852641 -0.522498 0
    outer loop
      vertex 62.8879 -5.73091 1
      vertex 63.6873 -4.42641 0
      vertex 63.6873 -4.42641 1
    endloop
  endfacet
  facet normal 0.852641 0.522498 0
    outer loop
      vertex 62.8879 5.73091 0
      vertex 62.8879 5.73091 1
      vertex 63.6873 4.42641 1
    endloop
  endfacet
  facet normal 0.852641 0.522498 0
    outer loop
      vertex 62.8879 5.73091 0
      vertex 63.6873 4.42641 1
      vertex 63.6873 4.42641 0
    endloop
  endfacet
  facet normal 0.92388 -0.382681 0
    outer loop
      vertex 63.6873 -4.42641 0
      vertex 64.2728 -3.01292 0
      vertex 63.6873 -4.42641 1
    endloop
  endfacet
  facet normal 0.92388 -0.382681 0
    outer loop
      vertex 63.6873 -4.42641 1
      vertex 64.2728 -3.01292 0
      vertex 64.2728 -3.01292 1
    endloop
  endfacet
  facet normal 0.92388 0.382681 0
    outer loop
      vertex 63.6873 4.42641 0
      vertex 63.6873 4.42641 1
      vertex 64.2728 3.01292 1
    endloop
  endfacet
  facet normal 0.92388 0.382681 0
    outer loop
      vertex 63.6873 4.42641 0
      vertex 64.2728 3.01292 1
      vertex 64.2728 3.01292 0
    endloop
  endfacet
  facet normal 0.97237 -0.233447 0
    outer loop
      vertex 64.2728 -3.01292 0
      vertex 64.63 -1.52524 0
      vertex 64.2728 -3.01292 1
    endloop
  endfacet
  facet normal 0.97237 -0.233447 0
    outer loop
      vertex 64.2728 -3.01292 1
      vertex 64.63 -1.52524 0
      vertex 64.63 -1.52524 1
    endloop
  endfacet
  facet normal 0.97237 0.233447 0
    outer loop
      vertex 64.2728 3.01292 0
      vertex 64.2728 3.01292 1
      vertex 64.63 1.52524 1
    endloop
  endfacet
  facet normal 0.97237 0.233447 0
    outer loop
      vertex 64.2728 3.01292 0
      vertex 64.63 1.52524 1
      vertex 64.63 1.52524 0
    endloop
  endfacet
  facet normal 0.996917 -0.0784606 0
    outer loop
      vertex 64.63 -1.52524 0
      vertex 64.75 0 0
      vertex 64.63 -1.52524 1
    endloop
  endfacet
  facet normal 0.996917 -0.0784606 0
    outer loop
      vertex 64.63 -1.52524 1
      vertex 64.75 0 0
      vertex 64.75 0 1
    endloop
  endfacet
  facet normal 0.996917 0.0784606 0
    outer loop
      vertex 64.63 1.52524 0
      vertex 64.63 1.52524 1
      vertex 64.75 0 1
    endloop
  endfacet
  facet normal 0.996917 0.0784606 0
    outer loop
      vertex 64.63 1.52524 0
      vertex 64.75 0 1
      vertex 64.75 0 0
    endloop
  endfacet
endsolid model
