solid model
  facet normal -1 -0 0
    outer loop
      vertex 0 0 0
      vertex 0 0 3
      vertex 0 33.2 3
    endloop
  endfacet
  facet normal 0 0 -1
    outer loop
      vertex 0 0 0
      vertex 0 33.2 0
      vertex 1 28.2 0
    endloop
  endfacet
  facet normal -1 0 0
    outer loop
      vertex 0 0 0
      vertex 0 33.2 3
      vertex 0 33.2 0
    endloop
  endfacet
  facet normal -0 0 -1
    outer loop
      vertex 0 0 0
      vertex 1 28.2 0
      vertex 1 5 0
    endloop
  endfacet
  facet normal -0 0 -1
    outer loop
      vertex 0 0 0
      vertex 1 5 0
      vertex 6.35 2.5 0
    endloop
  endfacet
  facet normal 0 -1 -0
    outer loop
      vertex 0 0 0
      vertex 6.35 0 0
      vertex 6.35 0 3
    endloop
  endfacet
  facet normal 0 -1 0
    outer loop
      vertex 0 0 0
      vertex 6.35 0 3
      vertex 0 0 3
    endloop
  endfacet
  facet normal 0 0 -1
    outer loop
      vertex 0 0 0
      vertex 6.35 2.5 0
      vertex 6.35 0 0
    endloop
  endfacet
  facet normal 0 0 1
    outer loop
      vertex 0 0 3
      vertex 1 5 3
      vertex 0 33.2 3
    endloop
  endfacet
  facet normal 0 0 1
    outer loop
      vertex 0 0 3
      vertex 6.35 0 3
      vertex 6.35 2.5 3
    endloop
  endfacet
  facet normal 0 0 1
    outer loop
      vertex 0 0 3
      vertex 6.35 2.5 3
      vertex 1 5 3
    endloop
  endfacet
  facet normal 0 1 0
    outer loop
      vertex 0 33.2 0
      vertex 0 33.2 3
      vertex 6.35 33.2 0
    endloop
  endfacet
  facet normal 0 0 -1
    outer loop
      vertex 0 33.2 0
      vertex 6.35 30.7 0
      vertex 1 28.2 0
    endloop
  endfacet
  facet normal 0 0 -1
    outer loop
      vertex 0 33.2 0
      vertex 6.35 33.2 0
      vertex 6.35 30.7 0
    endloop
  endfacet
  facet normal 0 0 1
    outer loop
      vertex 0 33.2 3
      vertex 1 28.2 3
      vertex 6.35 30.7 3
    endloop
  endfacet
  facet normal 0 0 1
    outer loop
      vertex 0 33.2 3
      vertex 1 5 3
      vertex 1 28.2 3
    endloop
  endfacet
  facet normal -0 0 1
    outer loop
      vertex 0 33.2 3
      vertex 6.35 30.7 3
      vertex 6.35 33.2 3
    endloop
  endfacet
  facet normal 0 1 -0
    outer loop
      vertex 0 33.2 3
      vertex 6.35 33.2 3
      vertex 6.35 33.2 0
    endloop
  endfacet
  facet normal 0 -1 -0
    outer loop
      vertex 1 28.2 0
      vertex 14.2 28.2 0
      vertex 14.2 28.2 3
    endloop
  endfacet
  facet normal 0 -1 0
    outer loop
      vertex 1 28.2 0
      vertex 14.2 28.2 3
      vertex 1 28.2 3
    endloop
  endfacet
  facet normal 0 0 -1
    outer loop
      vertex 1 28.2 0
      vertex 6.35 30.7 0
      vertex 6.38671 30.4682 0
    endloop
  endfacet
  facet normal 0 0 -1
    outer loop
      vertex 1 28.2 0
      vertex 6.38671 30.4682 0
      vertex 6.49324 30.2592 0
    endloop
  endfacet
  facet normal 0 0 -1
    outer loop
      vertex 1 28.2 0
      vertex 6.49324 30.2592 0
      vertex 6.65916 30.0932 0
    endloop
  endfacet
  facet normal 0 0 -1
    outer loop
      vertex 1 28.2 0
      vertex 6.65916 30.0932 0
      vertex 6.86824 29.9867 0
    endloop
  endfacet
  facet normal -0 0 -1
    outer loop
      vertex 1 28.2 0
      vertex 6.86824 29.9867 0
      vertex 7.1 29.95 0
    endloop
  endfacet
  facet normal 0 0 -1
    outer loop
      vertex 1 28.2 0
      vertex 7.1 29.95 0
      vertex 14.2 28.2 0
    endloop
  endfacet
  facet normal 0 0 1
    outer loop
      vertex 1 28.2 3
      vertex 14.2 28.2 3
      vertex 7.1 29.95 3
    endloop
  endfacet
  facet normal 0 0 1
    outer loop
      vertex 1 28.2 3
      vertex 6.38671 30.4682 3
      vertex 6.35 30.7 3
    endloop
  endfacet
  facet normal 0 0 1
    outer loop
      vertex 1 28.2 3
      vertex 6.49324 30.2592 3
      vertex 6.38671 30.4682 3
    endloop
  endfacet
  facet normal 0 0 1
    outer loop
      vertex 1 28.2 3
      vertex 6.65916 30.0932 3
      vertex 6.49324 30.2592 3
    endloop
  endfacet
  facet normal 0 0 1
    outer loop
      vertex 1 28.2 3
      vertex 6.86824 29.9867 3
      vertex 6.65916 30.0932 3
    endloop
  endfacet
  facet normal 0 0 1
    outer loop
      vertex 1 28.2 3
      vertex 7.1 29.95 3
      vertex 6.86824 29.9867 3
    endloop
  endfacet
  facet normal 1 0 0
    outer loop
      vertex 1 5 0
      vertex 1 28.2 0
      vertex 1 5 3
    endloop
  endfacet
  facet normal 0 1 0
    outer loop
      vertex 1 5 0
      vertex 1 5 3
      vertex 14.2 5 0
    endloop
  endfacet
  facet normal 0 0 -1
    outer loop
      vertex 1 5 0
      vertex 14.2 5 0
      vertex 7.1 3.25 0
    endloop
  endfacet
  facet normal 0 0 -1
    outer loop
      vertex 1 5 0
      vertex 6.38671 2.73176 0
      vertex 6.35 2.5 0
    endloop
  endfacet
  facet normal 0 0 -1
    outer loop
      vertex 1 5 0
      vertex 6.49324 2.94084 0
      vertex 6.38671 2.73176 0
    endloop
  endfacet
  facet normal 0 0 -1
    outer loop
      vertex 1 5 0
      vertex 6.65916 3.10676 0
      vertex 6.49324 2.94084 0
    endloop
  endfacet
  facet normal 0 0 -1
    outer loop
      vertex 1 5 0
      vertex 6.86824 3.21329 0
      vertex 6.65916 3.10676 0
    endloop
  endfacet
  facet normal 0 0 -1
    outer loop
      vertex 1 5 0
      vertex 7.1 3.25 0
      vertex 6.86824 3.21329 0
    endloop
  endfacet
  facet normal 1 -0 0
    outer loop
      vertex 1 5 3
      vertex 1 28.2 0
      vertex 1 28.2 3
    endloop
  endfacet
  facet normal 0 1 -0
    outer loop
      vertex 1 5 3
      vertex 14.2 5 3
      vertex 14.2 5 0
    endloop
  endfacet
  facet normal 0 0 1
    outer loop
      vertex 1 5 3
      vertex 6.35 2.5 3
      vertex 6.38671 2.73176 3
    endloop
  endfacet
  facet normal 0 0 1
    outer loop
      vertex 1 5 3
      vertex 6.38671 2.73176 3
      vertex 6.49324 2.94084 3
    endloop
  endfacet
  facet normal 0 0 1
    outer loop
      vertex 1 5 3
      vertex 6.49324 2.94084 3
      vertex 6.65916 3.10676 3
    endloop
  endfacet
  facet normal 0 0 1
    outer loop
      vertex 1 5 3
      vertex 6.65916 3.10676 3
      vertex 6.86824 3.21329 3
    endloop
  endfacet
  facet normal 0 0 1
    outer loop
      vertex 1 5 3
      vertex 6.86824 3.21329 3
      vertex 7.1 3.25 3
    endloop
  endfacet
  facet normal -0 0 1
    outer loop
      vertex 1 5 3
      vertex 7.1 3.25 3
      vertex 14.2 5 3
    endloop
  endfacet
  facet normal 1 0 0
    outer loop
      vertex 14.2 0 0
      vertex 14.2 5 0
      vertex 14.2 0 3
    endloop
  endfacet
  facet normal 1 -0 0
    outer loop
      vertex 14.2 0 3
      vertex 14.2 5 0
      vertex 14.2 5 3
    endloop
  endfacet
  facet normal 1 0 0
    outer loop
      vertex 14.2 28.2 0
      vertex 14.2 33.2 0
      vertex 14.2 28.2 3
    endloop
  endfacet
  facet normal 1 -0 0
    outer loop
      vertex 14.2 28.2 3
      vertex 14.2 33.2 0
      vertex 14.2 33.2 3
    endloop
  endfacet
  facet normal 1 0 0
    outer loop
      vertex 6.35 0 0
      vertex 6.35 2.5 0
      vertex 6.35 0 3
    endloop
  endfacet
  facet normal 1 -0 0
    outer loop
      vertex 6.35 0 3
      vertex 6.35 2.5 0
      vertex 6.35 2.5 3
    endloop
  endfacet
  facet normal 0.987686 -0.156446 0
    outer loop
      vertex 6.35 2.5 0
      vertex 6.38671 2.73176 0
      vertex 6.35 2.5 3
    endloop
  endfacet
  facet normal 0.987686 -0.156446 0
    outer loop
      vertex 6.35 2.5 3
      vertex 6.38671 2.73176 0
      vertex 6.38671 2.73176 3
    endloop
  endfacet
  facet normal 0.987691 0.15642 0
    outer loop
      vertex 6.35 30.7 0
      vertex 6.35 30.7 3
      vertex 6.38671 30.4682 3
    endloop
  endfacet
  facet normal 1 0 0
    outer loop
      vertex 6.35 30.7 0
      vertex 6.35 33.2 0
      vertex 6.35 30.7 3
    endloop
  endfacet
  facet normal 0.987691 0.15642 0
    outer loop
      vertex 6.35 30.7 0
      vertex 6.38671 30.4682 3
      vertex 6.38671 30.4682 0
    endloop
  endfacet
  facet normal 1 -0 0
    outer loop
      vertex 6.35 30.7 3
      vertex 6.35 33.2 0
      vertex 6.35 33.2 3
    endloop
  endfacet
  facet normal 0.891009 -0.453985 0
    outer loop
      vertex 6.38671 2.73176 0
      vertex 6.49324 2.94084 0
      vertex 6.38671 2.73176 3
    endloop
  endfacet
  facet normal 0.891009 -0.453985 0
    outer loop
      vertex 6.38671 2.73176 3
      vertex 6.49324 2.94084 0
      vertex 6.49324 2.94084 3
    endloop
  endfacet
  facet normal 0.890939 0.454123 0
    outer loop
      vertex 6.38671 30.4682 0
      vertex 6.38671 30.4682 3
      vertex 6.49324 30.2592 3
    endloop
  endfacet
  facet normal 0.890939 0.454123 0
    outer loop
      vertex 6.38671 30.4682 0
      vertex 6.49324 30.2592 3
      vertex 6.49324 30.2592 0
    endloop
  endfacet
  facet normal 0.707107 -0.707107 0
    outer loop
      vertex 6.49324 2.94084 0
      vertex 6.65916 3.10676 0
      vertex 6.65916 3.10676 3
    endloop
  endfacet
  facet normal 0.707107 -0.707107 0
    outer loop
      vertex 6.49324 2.94084 0
      vertex 6.65916 3.10676 3
      vertex 6.49324 2.94084 3
    endloop
  endfacet
  facet normal 0.707277 0.706936 0
    outer loop
      vertex 6.49324 30.2592 0
      vertex 6.49324 30.2592 3
      vertex 6.65916 30.0932 3
    endloop
  endfacet
  facet normal 0.707277 0.706936 0
    outer loop
      vertex 6.49324 30.2592 0
      vertex 6.65916 30.0932 3
      vertex 6.65916 30.0932 0
    endloop
  endfacet
  facet normal 0.453985 -0.891009 0
    outer loop
      vertex 6.65916 3.10676 0
      vertex 6.86824 3.21329 0
      vertex 6.86824 3.21329 3
    endloop
  endfacet
  facet normal 0.453985 -0.891009 0
    outer loop
      vertex 6.65916 3.10676 0
      vertex 6.86824 3.21329 3
      vertex 6.65916 3.10676 3
    endloop
  endfacet
  facet normal 0.453884 0.891061 0
    outer loop
      vertex 6.65916 30.0932 0
      vertex 6.65916 30.0932 3
      vertex 6.86824 29.9867 0
    endloop
  endfacet
  facet normal 0.453884 0.891061 -0
    outer loop
      vertex 6.65916 30.0932 3
      vertex 6.86824 29.9867 3
      vertex 6.86824 29.9867 0
    endloop
  endfacet
  facet normal 0.156405 0.987693 0
    outer loop
      vertex 6.86824 29.9867 0
      vertex 6.86824 29.9867 3
      vertex 7.1 29.95 0
    endloop
  endfacet
  facet normal 0.156405 0.987693 -0
    outer loop
      vertex 6.86824 29.9867 3
      vertex 7.1 29.95 3
      vertex 7.1 29.95 0
    endloop
  endfacet
  facet normal 0.156446 -0.987686 0
    outer loop
      vertex 6.86824 3.21329 0
      vertex 7.1 3.25 0
      vertex 7.1 3.25 3
    endloop
  endfacet
  facet normal 0.156446 -0.987686 0
    outer loop
      vertex 6.86824 3.21329 0
      vertex 7.1 3.25 3
      vertex 6.86824 3.21329 3
    endloop
  endfacet
  facet normal -0.156405 0.987693 0
    outer loop
      vertex 7.1 29.95 0
      vertex 7.1 29.95 3
      vertex 7.33176 29.9867 0
    endloop
  endfacet
  facet normal 0 0 -1
    outer loop
      vertex 7.1 29.95 0
      vertex 7.33176 29.9867 0
      vertex 14.2 28.2 0
    endloop
  endfacet
  facet normal -0 0 1
    outer loop
      vertex 7.1 29.95 3
      vertex 14.2 28.2 3
      vertex 7.33176 29.9867 3
    endloop
  endfacet
  facet normal -0.156405 0.987693 0
    outer loop
      vertex 7.1 29.95 3
      vertex 7.33176 29.9867 3
      vertex 7.33176 29.9867 0
    endloop
  endfacet
  facet normal 0 0 -1
    outer loop
      vertex 7.1 3.25 0
      vertex 14.2 5 0
      vertex 7.33176 3.21329 0
    endloop
  endfacet
  facet normal -0.156446 -0.987686 -0
    outer loop
      vertex 7.1 3.25 0
      vertex 7.33176 3.21329 0
      vertex 7.33176 3.21329 3
    endloop
  endfacet
  facet normal -0.156446 -0.987686 0
    outer loop
      vertex 7.1 3.25 0
      vertex 7.33176 3.21329 3
      vertex 7.1 3.25 3
    endloop
  endfacet
  facet normal 0 0 1
    outer loop
      vertex 7.1 3.25 3
      vertex 7.33176 3.21329 3
      vertex 14.2 5 3
    endloop
  endfacet
  facet normal -0.453884 0.891061 0
    outer loop
      vertex 7.33176 29.9867 0
      vertex 7.33176 29.9867 3
      vertex 7.54084 30.0932 0
    endloop
  endfacet
  facet normal 0 0 -1
    outer loop
      vertex 7.33176 29.9867 0
      vertex 7.54084 30.0932 0
      vertex 14.2 28.2 0
    endloop
  endfacet
  facet normal -0 0 1
    outer loop
      vertex 7.33176 29.9867 3
      vertex 14.2 28.2 3
      vertex 7.54084 30.0932 3
    endloop
  endfacet
  facet normal -0.453884 0.891061 0
    outer loop
      vertex 7.33176 29.9867 3
      vertex 7.54084 30.0932 3
      vertex 7.54084 30.0932 0
    endloop
  endfacet
  facet normal 0 0 -1
    outer loop
      vertex 7.33176 3.21329 0
      vertex 14.2 5 0
      vertex 7.54084 3.10676 0
    endloop
  endfacet
  facet normal -0.453985 -0.891009 -0
    outer loop
      vertex 7.33176 3.21329 0
      vertex 7.54084 3.10676 0
      vertex 7.54084 3.10676 3
    endloop
  endfacet
  facet normal -0.453985 -0.891009 0
    outer loop
      vertex 7.33176 3.21329 0
      vertex 7.54084 3.10676 3
      vertex 7.33176 3.21329 3
    endloop
  endfacet
  facet normal 0 0 1
    outer loop
      vertex 7.33176 3.21329 3
      vertex 7.54084 3.10676 3
      vertex 14.2 5 3
    endloop
  endfacet
  facet normal 0 0 -1
    outer loop
      vertex 7.54084 3.10676 0
      vertex 14.2 5 0
      vertex 7.70676 2.94084 0
    endloop
  endfacet
  facet normal -0.707107 -0.707107 -0
    outer loop
      vertex 7.54084 3.10676 0
      vertex 7.70676 2.94084 0
      vertex 7.70676 2.94084 3
    endloop
  endfacet
  facet normal -0.707107 -0.707107 0
    outer loop
      vertex 7.54084 3.10676 0
      vertex 7.70676 2.94084 3
      vertex 7.54084 3.10676 3
    endloop
  endfacet
  facet normal 0 0 1
    outer loop
      vertex 7.54084 3.10676 3
      vertex 7.70676 2.94084 3
      vertex 14.2 5 3
    endloop
  endfacet
  facet normal -0.707277 0.706936 0
    outer loop
      vertex 7.54084 30.0932 0
      vertex 7.54084 30.0932 3
      vertex 7.70676 30.2592 3
    endloop
  endfacet
  facet normal 0 0 -1
    outer loop
      vertex 7.54084 30.0932 0
      vertex 7.70676 30.2592 0
      vertex 14.2 28.2 0
    endloop
  endfacet
  facet normal -0.707277 0.706936 0
    outer loop
      vertex 7.54084 30.0932 0
      vertex 7.70676 30.2592 3
      vertex 7.70676 30.2592 0
    endloop
  endfacet
  facet normal -0 0 1
    outer loop
      vertex 7.54084 30.0932 3
      vertex 14.2 28.2 3
      vertex 7.70676 30.2592 3
    endloop
  endfacet
  facet normal 0 0 -1
    outer loop
      vertex 7.70676 2.94084 0
      vertex 14.2 5 0
      vertex 7.81329 2.73176 0
    endloop
  endfacet
  facet normal -0.891009 -0.453985 0
    outer loop
      vertex 7.70676 2.94084 0
      vertex 7.81329 2.73176 0
      vertex 7.70676 2.94084 3
    endloop
  endfacet
  facet normal -0.891009 -0.453985 0
    outer loop
      vertex 7.70676 2.94084 3
      vertex 7.81329 2.73176 0
      vertex 7.81329 2.73176 3
    endloop
  endfacet
  facet normal 0 0 1
    outer loop
      vertex 7.70676 2.94084 3
      vertex 7.81329 2.73176 3
      vertex 14.2 5 3
    endloop
  endfacet
  facet normal -0.890939 0.454123 0
    outer loop
      vertex 7.70676 30.2592 0
      vertex 7.70676 30.2592 3
      vertex 7.81329 30.4682 3
    endloop
  endfacet
  facet normal 0 0 -1
    outer loop
      vertex 7.70676 30.2592 0
      vertex 7.81329 30.4682 0
      vertex 14.2 28.2 0
    endloop
  endfacet
  facet normal -0.890939 0.454123 0
    outer loop
      vertex 7.70676 30.2592 0
      vertex 7.81329 30.4682 3
      vertex 7.81329 30.4682 0
    endloop
  endfacet
  facet normal -0 0 1
    outer loop
      vertex 7.70676 30.2592 3
      vertex 14.2 28.2 3
      vertex 7.81329 30.4682 3
    endloop
  endfacet
  facet normal 0 0 -1
    outer loop
      vertex 7.81329 2.73176 0
      vertex 14.2 5 0
      vertex 7.85 2.5 0
    endloop
  endfacet
  facet normal -0.987686 -0.156446 0
    outer loop
      vertex 7.81329 2.73176 0
      vertex 7.85 2.5 0
      vertex 7.81329 2.73176 3
    endloop
  endfacet
  facet normal -0.987686 -0.156446 0
    outer loop
      vertex 7.81329 2.73176 3
      vertex 7.85 2.5 0
      vertex 7.85 2.5 3
    endloop
  endfacet
  facet normal 0 0 1
    outer loop
      vertex 7.81329 2.73176 3
      vertex 7.85 2.5 3
      vertex 14.2 5 3
    endloop
  endfacet
  facet normal -0.987691 0.15642 0
    outer loop
      vertex 7.81329 30.4682 0
      vertex 7.81329 30.4682 3
      vertex 7.85 30.7 3
    endloop
  endfacet
  facet normal 0 0 -1
    outer loop
      vertex 7.81329 30.4682 0
      vertex 7.85 30.7 0
      vertex 14.2 28.2 0
    endloop
  endfacet
  facet normal -0.987691 0.15642 0
    outer loop
      vertex 7.81329 30.4682 0
      vertex 7.85 30.7 3
      vertex 7.85 30.7 0
    endloop
  endfacet
  facet normal -0 0 1
    outer loop
      vertex 7.81329 30.4682 3
      vertex 14.2 28.2 3
      vertex 7.85 30.7 3
    endloop
  endfacet
  facet normal 0 -1 -0
    outer loop
      vertex 7.85 0 0
      vertex 14.2 0 0
      vertex 14.2 0 3
    endloop
  endfacet
  facet normal 0 -1 0
    outer loop
      vertex 7.85 0 0
      vertex 14.2 0 3
      vertex 7.85 0 3
    endloop
  endfacet
  facet normal -1 -0 0
    outer loop
      vertex 7.85 0 0
      vertex 7.85 0 3
      vertex 7.85 2.5 3
    endloop
  endfacet
  facet normal 0 0 -1
    outer loop
      vertex 7.85 0 0
      vertex 7.85 2.5 0
      vertex 14.2 0 0
    endloop
  endfacet
  facet normal -1 0 0
    outer loop
      vertex 7.85 0 0
      vertex 7.85 2.5 3
      vertex 7.85 2.5 0
    endloop
  endfacet
  facet normal 0 0 1
    outer loop
      vertex 7.85 0 3
      vertex 14.2 0 3
      vertex 7.85 2.5 3
    endloop
  endfacet
  facet normal 0 0 -1
    outer loop
      vertex 7.85 2.5 0
      vertex 14.2 5 0
      vertex 14.2 0 0
    endloop
  endfacet
  facet normal 0 0 1
    outer loop
      vertex 7.85 2.5 3
      vertex 14.2 0 3
      vertex 14.2 5 3
    endloop
  endfacet
  facet normal 0 0 -1
    outer loop
      vertex 7.85 30.7 0
      vertex 14.2 33.2 0
      vertex 14.2 28.2 0
    endloop
  endfacet
  facet normal -1 -0 0
    outer loop
      vertex 7.85 30.7 0
      vertex 7.85 30.7 3
      vertex 7.85 33.2 3
    endloop
  endfacet
  facet normal -0 0 -1
    outer loop
      vertex 7.85 30.7 0
      vertex 7.85 33.2 0
      vertex 14.2 33.2 0
    endloop
  endfacet
  facet normal -1 0 0
    outer loop
      vertex 7.85 30.7 0
      vertex 7.85 33.2 3
      vertex 7.85 33.2 0
    endloop
  endfacet
  facet normal 0 0 1
    outer loop
      vertex 7.85 30.7 3
      vertex 14.2 28.2 3
      vertex 14.2 33.2 3
    endloop
  endfacet
  facet normal 0 0 1
    outer loop
      vertex 7.85 30.7 3
      vertex 14.2 33.2 3
      vertex 7.85 33.2 3
    endloop
  endfacet
  facet normal 0 1 0
    outer loop
      vertex 7.85 33.2 0
      vertex 7.85 33.2 3
      vertex 14.2 33.2 0
    endloop
  endfacet
  facet normal 0 1 -0
    outer loop
      vertex 7.85 33.2 3
      vertex 14.2 33.2 3
      vertex 14.2 33.2 0
    endloop
  endfacet
endsolid model
