solid model
  facet normal -1 -0 0
    outer loop
      vertex 0 0 0
      vertex 0 0 1.97
      vertex 0 14 1.97
    endloop
  endfacet
  facet normal 0 0 -1
    outer loop
      vertex 0 0 0
      vertex 0 14 0
      vertex 4 7 0
    endloop
  endfacet
  facet normal -1 0 0
    outer loop
      vertex 0 0 0
      vertex 0 14 1.97
      vertex 0 14 0
    endloop
  endfacet
  facet normal 0 0 -1
    outer loop
      vertex 0 0 0
      vertex 19.2706 5.47831 0
      vertex 28.84 0 0
    endloop
  endfacet
  facet normal 0 -1 -0
    outer loop
      vertex 0 0 0
      vertex 28.84 0 0
      vertex 28.84 0 1.97
    endloop
  endfacet
  facet normal 0 -1 0
    outer loop
      vertex 0 0 0
      vertex 28.84 0 1.97
      vertex 0 0 1.97
    endloop
  endfacet
  facet normal -0 0 -1
    outer loop
      vertex 0 0 0
      vertex 4 7 0
      vertex 4.07831 6.50557 0
    endloop
  endfacet
  facet normal -0 0 -1
    outer loop
      vertex 0 0 0
      vertex 4.07831 6.50557 0
      vertex 4.30557 6.05954 0
    endloop
  endfacet
  facet normal -0 0 -1
    outer loop
      vertex 0 0 0
      vertex 4.30557 6.05954 0
      vertex 4.65954 5.70557 0
    endloop
  endfacet
  facet normal -0 0 -1
    outer loop
      vertex 0 0 0
      vertex 4.65954 5.70557 0
      vertex 5.10557 5.47831 0
    endloop
  endfacet
  facet normal -0 0 -1
    outer loop
      vertex 0 0 0
      vertex 5.10557 5.47831 0
      vertex 5.6 5.4 0
    endloop
  endfacet
  facet normal 0 0 -1
    outer loop
      vertex 0 0 0
      vertex 5.6 5.4 0
      vertex 6.09443 5.47831 0
    endloop
  endfacet
  facet normal 0 -0 -1
    outer loop
      vertex 0 0 0
      vertex 6.09443 5.47831 0
      vertex 19.2706 5.47831 0
    endloop
  endfacet
  facet normal 0 0 1
    outer loop
      vertex 0 0 1.97
      vertex 1.05 7 1.97
      vertex 0 14 1.97
    endloop
  endfacet
  facet normal 0 0 1
    outer loop
      vertex 0 0 1.97
      vertex 1.10602 6.28822 1.97
      vertex 1.05 7 1.97
    endloop
  endfacet
  facet normal 0 0 1
    outer loop
      vertex 0 0 1.97
      vertex 1.27269 5.59397 1.97
      vertex 1.10602 6.28822 1.97
    endloop
  endfacet
  facet normal 0 0 1
    outer loop
      vertex 0 0 1.97
      vertex 1.54592 4.93434 1.97
      vertex 1.27269 5.59397 1.97
    endloop
  endfacet
  facet normal 0 0 1
    outer loop
      vertex 0 0 1.97
      vertex 1.91897 4.32558 1.97
      vertex 1.54592 4.93434 1.97
    endloop
  endfacet
  facet normal 0 0 1
    outer loop
      vertex 0 0 1.97
      vertex 18.359 2.67269 1.97
      vertex 7.00603 2.67269 1.97
    endloop
  endfacet
  facet normal 0 0 1
    outer loop
      vertex 0 0 1.97
      vertex 19.0532 2.50602 1.97
      vertex 18.359 2.67269 1.97
    endloop
  endfacet
  facet normal 0 0 1
    outer loop
      vertex 0 0 1.97
      vertex 2.38266 3.78266 1.97
      vertex 1.91897 4.32558 1.97
    endloop
  endfacet
  facet normal 0 0 1
    outer loop
      vertex 0 0 1.97
      vertex 2.92558 3.31897 1.97
      vertex 2.38266 3.78266 1.97
    endloop
  endfacet
  facet normal 0 0 1
    outer loop
      vertex 0 0 1.97
      vertex 28.84 0 1.97
      vertex 19.0532 2.50602 1.97
    endloop
  endfacet
  facet normal 0 0 1
    outer loop
      vertex 0 0 1.97
      vertex 3.53434 2.94592 1.97
      vertex 2.92558 3.31897 1.97
    endloop
  endfacet
  facet normal 0 0 1
    outer loop
      vertex 0 0 1.97
      vertex 4.19397 2.67269 1.97
      vertex 3.53434 2.94592 1.97
    endloop
  endfacet
  facet normal 0 0 1
    outer loop
      vertex 0 0 1.97
      vertex 4.88822 2.50602 1.97
      vertex 4.19397 2.67269 1.97
    endloop
  endfacet
  facet normal 0 0 1
    outer loop
      vertex 0 0 1.97
      vertex 5.6 2.45 1.97
      vertex 4.88822 2.50602 1.97
    endloop
  endfacet
  facet normal 0 0 1
    outer loop
      vertex 0 0 1.97
      vertex 6.31178 2.50602 1.97
      vertex 5.6 2.45 1.97
    endloop
  endfacet
  facet normal 0 0 1
    outer loop
      vertex 0 0 1.97
      vertex 7.00603 2.67269 1.97
      vertex 6.31178 2.50602 1.97
    endloop
  endfacet
  facet normal 0 1 0
    outer loop
      vertex 0 14 0
      vertex 0 14 1.97
      vertex 26.2 14 0
    endloop
  endfacet
  facet normal 0 0 -1
    outer loop
      vertex 0 14 0
      vertex 19.2706 8.52169 0
      vertex 6.09443 8.52169 0
    endloop
  endfacet
  facet normal 0 0 -1
    outer loop
      vertex 0 14 0
      vertex 26.2 14 0
      vertex 19.2706 8.52169 0
    endloop
  endfacet
  facet normal 0 0 -1
    outer loop
      vertex 0 14 0
      vertex 4.07831 7.49443 0
      vertex 4 7 0
    endloop
  endfacet
  facet normal 0 0 -1
    outer loop
      vertex 0 14 0
      vertex 4.30557 7.94046 0
      vertex 4.07831 7.49443 0
    endloop
  endfacet
  facet normal 0 0 -1
    outer loop
      vertex 0 14 0
      vertex 4.65954 8.29443 0
      vertex 4.30557 7.94046 0
    endloop
  endfacet
  facet normal 0 0 -1
    outer loop
      vertex 0 14 0
      vertex 5.10557 8.52169 0
      vertex 4.65954 8.29443 0
    endloop
  endfacet
  facet normal 0 0 -1
    outer loop
      vertex 0 14 0
      vertex 5.6 8.6 0
      vertex 5.10557 8.52169 0
    endloop
  endfacet
  facet normal 0 0 -1
    outer loop
      vertex 0 14 0
      vertex 6.09443 8.52169 0
      vertex 5.6 8.6 0
    endloop
  endfacet
  facet normal 0 0 1
    outer loop
      vertex 0 14 1.97
      vertex 1.05 7 1.97
      vertex 1.10602 7.71178 1.97
    endloop
  endfacet
  facet normal 0 0 1
    outer loop
      vertex 0 14 1.97
      vertex 1.10602 7.71178 1.97
      vertex 1.27269 8.40603 1.97
    endloop
  endfacet
  facet normal 0 0 1
    outer loop
      vertex 0 14 1.97
      vertex 1.27269 8.40603 1.97
      vertex 1.54592 9.06566 1.97
    endloop
  endfacet
  facet normal 0 0 1
    outer loop
      vertex 0 14 1.97
      vertex 1.54592 9.06566 1.97
      vertex 1.91897 9.67442 1.97
    endloop
  endfacet
  facet normal 0 0 1
    outer loop
      vertex 0 14 1.97
      vertex 1.91897 9.67442 1.97
      vertex 2.38266 10.2173 1.97
    endloop
  endfacet
  facet normal 0 0 1
    outer loop
      vertex 0 14 1.97
      vertex 18.359 11.3273 1.97
      vertex 19.0532 11.494 1.97
    endloop
  endfacet
  facet normal -0 0 1
    outer loop
      vertex 0 14 1.97
      vertex 19.0532 11.494 1.97
      vertex 26.2 14 1.97
    endloop
  endfacet
  facet normal 0 0 1
    outer loop
      vertex 0 14 1.97
      vertex 2.38266 10.2173 1.97
      vertex 2.92558 10.681 1.97
    endloop
  endfacet
  facet normal 0 0 1
    outer loop
      vertex 0 14 1.97
      vertex 2.92558 10.681 1.97
      vertex 3.53434 11.0541 1.97
    endloop
  endfacet
  facet normal 0 1 -0
    outer loop
      vertex 0 14 1.97
      vertex 26.2 14 1.97
      vertex 26.2 14 0
    endloop
  endfacet
  facet normal 0 0 1
    outer loop
      vertex 0 14 1.97
      vertex 3.53434 11.0541 1.97
      vertex 4.19397 11.3273 1.97
    endloop
  endfacet
  facet normal 0 0 1
    outer loop
      vertex 0 14 1.97
      vertex 4.19397 11.3273 1.97
      vertex 4.88822 11.494 1.97
    endloop
  endfacet
  facet normal 0 0 1
    outer loop
      vertex 0 14 1.97
      vertex 4.88822 11.494 1.97
      vertex 5.6 11.55 1.97
    endloop
  endfacet
  facet normal 0 0 1
    outer loop
      vertex 0 14 1.97
      vertex 5.6 11.55 1.97
      vertex 6.31178 11.494 1.97
    endloop
  endfacet
  facet normal 0 0 1
    outer loop
      vertex 0 14 1.97
      vertex 6.31178 11.494 1.97
      vertex 18.359 11.3273 1.97
    endloop
  endfacet
  facet normal -0.996917 0.0784615 0
    outer loop
      vertex 1.05 7 1.97
      vertex 1.05 7 4.67
      vertex 1.10602 7.71178 4.67
    endloop
  endfacet
  facet normal -0.996917 -0.0784615 0
    outer loop
      vertex 1.05 7 1.97
      vertex 1.10602 6.28822 1.97
      vertex 1.05 7 4.67
    endloop
  endfacet
  facet normal -0.996917 0.0784615 0
    outer loop
      vertex 1.05 7 1.97
      vertex 1.10602 7.71178 4.67
      vertex 1.10602 7.71178 1.97
    endloop
  endfacet
  facet normal -0.996917 -0.0784615 0
    outer loop
      vertex 1.05 7 4.67
      vertex 1.10602 6.28822 1.97
      vertex 1.10602 6.28822 4.67
    endloop
  endfacet
  facet normal 0 0 1
    outer loop
      vertex 1.05 7 4.67
      vertex 1.10602 6.28822 4.67
      vertex 2.3 7 4.67
    endloop
  endfacet
  facet normal 0 0 1
    outer loop
      vertex 1.05 7 4.67
      vertex 2.3 7 4.67
      vertex 1.10602 7.71178 4.67
    endloop
  endfacet
  facet normal -0.972371 -0.233439 0
    outer loop
      vertex 1.10602 6.28822 1.97
      vertex 1.27269 5.59397 1.97
      vertex 1.10602 6.28822 4.67
    endloop
  endfacet
  facet normal -0.972371 -0.233439 0
    outer loop
      vertex 1.10602 6.28822 4.67
      vertex 1.27269 5.59397 1.97
      vertex 1.27269 5.59397 4.67
    endloop
  endfacet
  facet normal 0 0 1
    outer loop
      vertex 1.10602 6.28822 4.67
      vertex 1.27269 5.59397 4.67
      vertex 2.3 7 4.67
    endloop
  endfacet
  facet normal -0.972371 0.233439 0
    outer loop
      vertex 1.10602 7.71178 1.97
      vertex 1.10602 7.71178 4.67
      vertex 1.27269 8.40603 4.67
    endloop
  endfacet
  facet normal -0.972371 0.233439 0
    outer loop
      vertex 1.10602 7.71178 1.97
      vertex 1.27269 8.40603 4.67
      vertex 1.27269 8.40603 1.97
    endloop
  endfacet
  facet normal -0 0 1
    outer loop
      vertex 1.10602 7.71178 4.67
      vertex 2.3 7 4.67
      vertex 1.27269 8.40603 4.67
    endloop
  endfacet
  facet normal -0.923878 -0.382686 0
    outer loop
      vertex 1.27269 5.59397 1.97
      vertex 1.54592 4.93434 1.97
      vertex 1.27269 5.59397 4.67
    endloop
  endfacet
  facet normal -0.923878 -0.382686 0
    outer loop
      vertex 1.27269 5.59397 4.67
      vertex 1.54592 4.93434 1.97
      vertex 1.54592 4.93434 4.67
    endloop
  endfacet
  facet normal 0 0 1
    outer loop
      vertex 1.27269 5.59397 4.67
      vertex 1.54592 4.93434 4.67
      vertex 2.3 7 4.67
    endloop
  endfacet
  facet normal -0.923878 0.382686 0
    outer loop
      vertex 1.27269 8.40603 1.97
      vertex 1.27269 8.40603 4.67
      vertex 1.54592 9.06566 4.67
    endloop
  endfacet
  facet normal -0.923878 0.382686 0
    outer loop
      vertex 1.27269 8.40603 1.97
      vertex 1.54592 9.06566 4.67
      vertex 1.54592 9.06566 1.97
    endloop
  endfacet
  facet normal -0 0 1
    outer loop
      vertex 1.27269 8.40603 4.67
      vertex 2.3 7 4.67
      vertex 1.54592 9.06566 4.67
    endloop
  endfacet
  facet normal -0.852639 -0.5225 0
    outer loop
      vertex 1.54592 4.93434 1.97
      vertex 1.91897 4.32558 1.97
      vertex 1.54592 4.93434 4.67
    endloop
  endfacet
  facet normal -0.852639 -0.5225 0
    outer loop
      vertex 1.54592 4.93434 4.67
      vertex 1.91897 4.32558 1.97
      vertex 1.91897 4.32558 4.67
    endloop
  endfacet
  facet normal 0 0 1
    outer loop
      vertex 1.54592 4.93434 4.67
      vertex 1.91897 4.32558 4.67
      vertex 3.95 4.14212 4.67
    endloop
  endfacet
  facet normal -0 0 1
    outer loop
      vertex 1.54592 4.93434 4.67
      vertex 3.95 4.14212 4.67
      vertex 2.3 7 4.67
    endloop
  endfacet
  facet normal -0.852639 0.5225 0
    outer loop
      vertex 1.54592 9.06566 1.97
      vertex 1.54592 9.06566 4.67
      vertex 1.91897 9.67442 4.67
    endloop
  endfacet
  facet normal -0.852639 0.5225 0
    outer loop
      vertex 1.54592 9.06566 1.97
      vertex 1.91897 9.67442 4.67
      vertex 1.91897 9.67442 1.97
    endloop
  endfacet
  facet normal 0 0 1
    outer loop
      vertex 1.54592 9.06566 4.67
      vertex 2.3 7 4.67
      vertex 3.95 9.85788 4.67
    endloop
  endfacet
  facet normal 0 0 1
    outer loop
      vertex 1.54592 9.06566 4.67
      vertex 3.95 9.85788 4.67
      vertex 1.91897 9.67442 4.67
    endloop
  endfacet
  facet normal -0.760411 -0.649442 0
    outer loop
      vertex 1.91897 4.32558 1.97
      vertex 2.38266 3.78266 1.97
      vertex 1.91897 4.32558 4.67
    endloop
  endfacet
  facet normal -0.760411 -0.649442 0
    outer loop
      vertex 1.91897 4.32558 4.67
      vertex 2.38266 3.78266 1.97
      vertex 2.38266 3.78266 4.67
    endloop
  endfacet
  facet normal 0 0 1
    outer loop
      vertex 1.91897 4.32558 4.67
      vertex 2.38266 3.78266 4.67
      vertex 3.95 4.14212 4.67
    endloop
  endfacet
  facet normal -0.760388 0.64947 0
    outer loop
      vertex 1.91897 9.67442 1.97
      vertex 1.91897 9.67442 4.67
      vertex 2.38266 10.2173 4.67
    endloop
  endfacet
  facet normal -0.760388 0.64947 0
    outer loop
      vertex 1.91897 9.67442 1.97
      vertex 2.38266 10.2173 4.67
      vertex 2.38266 10.2173 1.97
    endloop
  endfacet
  facet normal 0 0 1
    outer loop
      vertex 1.91897 9.67442 4.67
      vertex 3.95 9.85788 4.67
      vertex 2.38266 10.2173 4.67
    endloop
  endfacet
  facet normal 0.996919 -0.0784336 0
    outer loop
      vertex 10.094 6.28822 1.97
      vertex 10.15 7 1.97
      vertex 10.094 6.28822 4.67
    endloop
  endfacet
  facet normal 0 0 1
    outer loop
      vertex 10.094 6.28822 1.97
      vertex 15.271 6.28822 1.97
      vertex 10.15 7 1.97
    endloop
  endfacet
  facet normal 0 0 1
    outer loop
      vertex 10.094 6.28822 1.97
      vertex 15.4377 5.59397 1.97
      vertex 15.271 6.28822 1.97
    endloop
  endfacet
  facet normal 0.996919 -0.0784336 0
    outer loop
      vertex 10.094 6.28822 4.67
      vertex 10.15 7 1.97
      vertex 10.15 7 4.67
    endloop
  endfacet
  facet normal 0.996919 0.0784336 0
    outer loop
      vertex 10.094 7.71178 1.97
      vertex 10.094 7.71178 4.67
      vertex 10.15 7 4.67
    endloop
  endfacet
  facet normal 0 0 1
    outer loop
      vertex 10.094 7.71178 1.97
      vertex 10.15 7 1.97
      vertex 15.271 7.71178 1.97
    endloop
  endfacet
  facet normal 0.996919 0.0784336 0
    outer loop
      vertex 10.094 7.71178 1.97
      vertex 10.15 7 4.67
      vertex 10.15 7 1.97
    endloop
  endfacet
  facet normal 0 0 1
    outer loop
      vertex 10.094 7.71178 1.97
      vertex 15.271 7.71178 1.97
      vertex 15.4377 8.40603 1.97
    endloop
  endfacet
  facet normal 0 0 1
    outer loop
      vertex 10.15 7 1.97
      vertex 15.215 7 1.97
      vertex 15.271 7.71178 1.97
    endloop
  endfacet
  facet normal -0 0 1
    outer loop
      vertex 10.15 7 1.97
      vertex 15.271 6.28822 1.97
      vertex 15.215 7 1.97
    endloop
  endfacet
  facet normal -0.996919 0.0784336 0
    outer loop
      vertex 15.215 7 1.97
      vertex 15.215 7 4.67
      vertex 15.271 7.71178 4.67
    endloop
  endfacet
  facet normal -0.996919 -0.0784336 0
    outer loop
      vertex 15.215 7 1.97
      vertex 15.271 6.28822 1.97
      vertex 15.215 7 4.67
    endloop
  endfacet
  facet normal -0.996919 0.0784336 0
    outer loop
      vertex 15.215 7 1.97
      vertex 15.271 7.71178 4.67
      vertex 15.271 7.71178 1.97
    endloop
  endfacet
  facet normal -0.996919 -0.0784336 0
    outer loop
      vertex 15.215 7 4.67
      vertex 15.271 6.28822 1.97
      vertex 15.271 6.28822 4.67
    endloop
  endfacet
  facet normal 0 0 1
    outer loop
      vertex 15.215 7 4.67
      vertex 15.271 6.28822 4.67
      vertex 16.465 7 4.67
    endloop
  endfacet
  facet normal 0 0 1
    outer loop
      vertex 15.215 7 4.67
      vertex 16.465 7 4.67
      vertex 15.271 7.71178 4.67
    endloop
  endfacet
  facet normal -0.972362 -0.233479 0
    outer loop
      vertex 15.271 6.28822 1.97
      vertex 15.4377 5.59397 1.97
      vertex 15.271 6.28822 4.67
    endloop
  endfacet
  facet normal -0.972362 -0.233479 0
    outer loop
      vertex 15.271 6.28822 4.67
      vertex 15.4377 5.59397 1.97
      vertex 15.4377 5.59397 4.67
    endloop
  endfacet
  facet normal 0 0 1
    outer loop
      vertex 15.271 6.28822 4.67
      vertex 15.4377 5.59397 4.67
      vertex 16.465 7 4.67
    endloop
  endfacet
  facet normal -0.972362 0.233479 0
    outer loop
      vertex 15.271 7.71178 1.97
      vertex 15.271 7.71178 4.67
      vertex 15.4377 8.40603 4.67
    endloop
  endfacet
  facet normal -0.972362 0.233479 0
    outer loop
      vertex 15.271 7.71178 1.97
      vertex 15.4377 8.40603 4.67
      vertex 15.4377 8.40603 1.97
    endloop
  endfacet
  facet normal -0 0 1
    outer loop
      vertex 15.271 7.71178 4.67
      vertex 16.465 7 4.67
      vertex 15.4377 8.40603 4.67
    endloop
  endfacet
  facet normal -0.923893 -0.38265 0
    outer loop
      vertex 15.4377 5.59397 1.97
      vertex 15.7109 4.93434 1.97
      vertex 15.4377 5.59397 4.67
    endloop
  endfacet
  facet normal -0.923893 -0.38265 0
    outer loop
      vertex 15.4377 5.59397 4.67
      vertex 15.7109 4.93434 1.97
      vertex 15.7109 4.93434 4.67
    endloop
  endfacet
  facet normal 0 0 1
    outer loop
      vertex 15.4377 5.59397 4.67
      vertex 15.7109 4.93434 4.67
      vertex 16.465 7 4.67
    endloop
  endfacet
  facet normal -0.923893 0.38265 0
    outer loop
      vertex 15.4377 8.40603 1.97
      vertex 15.4377 8.40603 4.67
      vertex 15.7109 9.06566 4.67
    endloop
  endfacet
  facet normal -0.923893 0.38265 0
    outer loop
      vertex 15.4377 8.40603 1.97
      vertex 15.7109 9.06566 4.67
      vertex 15.7109 9.06566 1.97
    endloop
  endfacet
  facet normal -0 0 1
    outer loop
      vertex 15.4377 8.40603 4.67
      vertex 16.465 7 4.67
      vertex 15.7109 9.06566 4.67
    endloop
  endfacet
  facet normal -0.852608 -0.522551 0
    outer loop
      vertex 15.7109 4.93434 1.97
      vertex 16.084 4.32558 1.97
      vertex 15.7109 4.93434 4.67
    endloop
  endfacet
  facet normal -0.852608 -0.522551 0
    outer loop
      vertex 15.7109 4.93434 4.67
      vertex 16.084 4.32558 1.97
      vertex 16.084 4.32558 4.67
    endloop
  endfacet
  facet normal 0 0 1
    outer loop
      vertex 15.7109 4.93434 4.67
      vertex 16.084 4.32558 4.67
      vertex 18.115 4.14212 4.67
    endloop
  endfacet
  facet normal -0 0 1
    outer loop
      vertex 15.7109 4.93434 4.67
      vertex 18.115 4.14212 4.67
      vertex 16.465 7 4.67
    endloop
  endfacet
  facet normal -0.852608 0.522551 0
    outer loop
      vertex 15.7109 9.06566 1.97
      vertex 15.7109 9.06566 4.67
      vertex 16.084 9.67442 4.67
    endloop
  endfacet
  facet normal -0.852608 0.522551 0
    outer loop
      vertex 15.7109 9.06566 1.97
      vertex 16.084 9.67442 4.67
      vertex 16.084 9.67442 1.97
    endloop
  endfacet
  facet normal 0 0 1
    outer loop
      vertex 15.7109 9.06566 4.67
      vertex 16.465 7 4.67
      vertex 18.115 9.85788 4.67
    endloop
  endfacet
  facet normal 0 0 1
    outer loop
      vertex 15.7109 9.06566 4.67
      vertex 18.115 9.85788 4.67
      vertex 16.084 9.67442 4.67
    endloop
  endfacet
  facet normal -0.760404 -0.64945 0
    outer loop
      vertex 16.084 4.32558 1.97
      vertex 16.5477 3.78266 1.97
      vertex 16.084 4.32558 4.67
    endloop
  endfacet
  facet normal -0.760404 -0.64945 0
    outer loop
      vertex 16.084 4.32558 4.67
      vertex 16.5477 3.78266 1.97
      vertex 16.5477 3.78266 4.67
    endloop
  endfacet
  facet normal 0 0 1
    outer loop
      vertex 16.084 4.32558 4.67
      vertex 16.5477 3.78266 4.67
      vertex 18.115 4.14212 4.67
    endloop
  endfacet
  facet normal -0.760381 0.649478 0
    outer loop
      vertex 16.084 9.67442 1.97
      vertex 16.084 9.67442 4.67
      vertex 16.5477 10.2173 4.67
    endloop
  endfacet
  facet normal -0.760381 0.649478 0
    outer loop
      vertex 16.084 9.67442 1.97
      vertex 16.5477 10.2173 4.67
      vertex 16.5477 10.2173 1.97
    endloop
  endfacet
  facet normal 0 0 1
    outer loop
      vertex 16.084 9.67442 4.67
      vertex 18.115 9.85788 4.67
      vertex 16.5477 10.2173 4.67
    endloop
  endfacet
  facet normal 0.866025 0.500001 0
    outer loop
      vertex 16.465 7 1.97
      vertex 16.465 7 4.67
      vertex 18.115 4.14212 4.67
    endloop
  endfacet
  facet normal 0 0 1
    outer loop
      vertex 16.465 7 1.97
      vertex 18.115 4.14212 1.97
      vertex 18.4706 6.05954 1.97
    endloop
  endfacet
  facet normal 0.866025 0.500001 0
    outer loop
      vertex 16.465 7 1.97
      vertex 18.115 4.14212 4.67
      vertex 18.115 4.14212 1.97
    endloop
  endfacet
  facet normal 0.866025 -0.500001 0
    outer loop
      vertex 16.465 7 1.97
      vertex 18.115 9.85788 1.97
      vertex 16.465 7 4.67
    endloop
  endfacet
  facet normal 0 0 1
    outer loop
      vertex 16.465 7 1.97
      vertex 18.165 7 1.97
      vertex 18.2433 7.49443 1.97
    endloop
  endfacet
  facet normal -0 0 1
    outer loop
      vertex 16.465 7 1.97
      vertex 18.2433 6.50557 1.97
      vertex 18.165 7 1.97
    endloop
  endfacet
  facet normal 0 0 1
    outer loop
      vertex 16.465 7 1.97
      vertex 18.2433 7.49443 1.97
      vertex 18.4706 7.94046 1.97
    endloop
  endfacet
  facet normal 0 0 1
    outer loop
      vertex 16.465 7 1.97
      vertex 18.4706 6.05954 1.97
      vertex 18.2433 6.50557 1.97
    endloop
  endfacet
  facet normal 0 0 1
    outer loop
      vertex 16.465 7 1.97
      vertex 18.4706 7.94046 1.97
      vertex 18.115 9.85788 1.97
    endloop
  endfacet
  facet normal 0.866025 -0.500001 0
    outer loop
      vertex 16.465 7 4.67
      vertex 18.115 9.85788 1.97
      vertex 18.115 9.85788 4.67
    endloop
  endfacet
  facet normal -0.649464 0.760392 0
    outer loop
      vertex 16.5477 10.2173 1.97
      vertex 16.5477 10.2173 4.67
      vertex 17.0906 10.681 1.97
    endloop
  endfacet
  facet normal -0.649464 0.760392 0
    outer loop
      vertex 16.5477 10.2173 4.67
      vertex 17.0906 10.681 4.67
      vertex 17.0906 10.681 1.97
    endloop
  endfacet
  facet normal -0 0 1
    outer loop
      vertex 16.5477 10.2173 4.67
      vertex 18.115 9.85788 4.67
      vertex 17.0906 10.681 4.67
    endloop
  endfacet
  facet normal -0.649456 -0.760399 -0
    outer loop
      vertex 16.5477 3.78266 1.97
      vertex 17.0906 3.31897 1.97
      vertex 17.0906 3.31897 4.67
    endloop
  endfacet
  facet normal -0.649456 -0.760399 0
    outer loop
      vertex 16.5477 3.78266 1.97
      vertex 17.0906 3.31897 4.67
      vertex 16.5477 3.78266 4.67
    endloop
  endfacet
  facet normal 0 0 1
    outer loop
      vertex 16.5477 3.78266 4.67
      vertex 17.0906 3.31897 4.67
      vertex 18.115 4.14212 4.67
    endloop
  endfacet
  facet normal -0.522588 0.852585 0
    outer loop
      vertex 17.0906 10.681 1.97
      vertex 17.0906 10.681 4.67
      vertex 17.6993 11.0541 1.97
    endloop
  endfacet
  facet normal -0.522588 0.852585 0
    outer loop
      vertex 17.0906 10.681 4.67
      vertex 17.6993 11.0541 4.67
      vertex 17.6993 11.0541 1.97
    endloop
  endfacet
  facet normal -0 0 1
    outer loop
      vertex 17.0906 10.681 4.67
      vertex 18.115 9.85788 4.67
      vertex 17.6993 11.0541 4.67
    endloop
  endfacet
  facet normal -0.522537 -0.852616 -0
    outer loop
      vertex 17.0906 3.31897 1.97
      vertex 17.6993 2.94592 1.97
      vertex 17.6993 2.94592 4.67
    endloop
  endfacet
  facet normal -0.522537 -0.852616 0
    outer loop
      vertex 17.0906 3.31897 1.97
      vertex 17.6993 2.94592 4.67
      vertex 17.0906 3.31897 4.67
    endloop
  endfacet
  facet normal 0 0 1
    outer loop
      vertex 17.0906 3.31897 4.67
      vertex 17.6993 2.94592 4.67
      vertex 18.115 4.14212 4.67
    endloop
  endfacet
  facet normal -0.382616 0.923908 0
    outer loop
      vertex 17.6993 11.0541 1.97
      vertex 17.6993 11.0541 4.67
      vertex 18.359 11.3273 1.97
    endloop
  endfacet
  facet normal -0 0 1
    outer loop
      vertex 17.6993 11.0541 4.67
      vertex 18.115 9.85788 4.67
      vertex 18.359 11.3273 4.67
    endloop
  endfacet
  facet normal -0.382616 0.923908 0
    outer loop
      vertex 17.6993 11.0541 4.67
      vertex 18.359 11.3273 4.67
      vertex 18.359 11.3273 1.97
    endloop
  endfacet
  facet normal -0.382652 -0.923893 -0
    outer loop
      vertex 17.6993 2.94592 1.97
      vertex 18.359 2.67269 1.97
      vertex 18.359 2.67269 4.67
    endloop
  endfacet
  facet normal -0.382652 -0.923893 0
    outer loop
      vertex 17.6993 2.94592 1.97
      vertex 18.359 2.67269 4.67
      vertex 17.6993 2.94592 4.67
    endloop
  endfacet
  facet normal 0 0 1
    outer loop
      vertex 17.6993 2.94592 4.67
      vertex 18.359 2.67269 4.67
      vertex 18.115 4.14212 4.67
    endloop
  endfacet
  facet normal 0 1 0
    outer loop
      vertex 18.115 4.14212 1.97
      vertex 18.115 4.14212 4.67
      vertex 21.415 4.14212 1.97
    endloop
  endfacet
  facet normal 0 0 1
    outer loop
      vertex 18.115 4.14212 1.97
      vertex 18.8245 5.70557 1.97
      vertex 18.4706 6.05954 1.97
    endloop
  endfacet
  facet normal 0 0 1
    outer loop
      vertex 18.115 4.14212 1.97
      vertex 19.2706 5.47831 1.97
      vertex 18.8245 5.70557 1.97
    endloop
  endfacet
  facet normal 0 0 1
    outer loop
      vertex 18.115 4.14212 1.97
      vertex 19.765 5.4 1.97
      vertex 19.2706 5.47831 1.97
    endloop
  endfacet
  facet normal 0 0 1
    outer loop
      vertex 18.115 4.14212 1.97
      vertex 21.415 4.14212 1.97
      vertex 19.765 5.4 1.97
    endloop
  endfacet
  facet normal 0 0 1
    outer loop
      vertex 18.115 4.14212 4.67
      vertex 18.359 2.67269 4.67
      vertex 19.0532 2.50602 4.67
    endloop
  endfacet
  facet normal 0 0 1
    outer loop
      vertex 18.115 4.14212 4.67
      vertex 19.0532 2.50602 4.67
      vertex 19.765 2.45 4.67
    endloop
  endfacet
  facet normal -0 0 1
    outer loop
      vertex 18.115 4.14212 4.67
      vertex 19.765 2.45 4.67
      vertex 21.415 4.14212 4.67
    endloop
  endfacet
  facet normal 0 1 -0
    outer loop
      vertex 18.115 4.14212 4.67
      vertex 21.415 4.14212 4.67
      vertex 21.415 4.14212 1.97
    endloop
  endfacet
  facet normal 0 0 1
    outer loop
      vertex 18.115 9.85788 1.97
      vertex 18.4706 7.94046 1.97
      vertex 18.8245 8.29443 1.97
    endloop
  endfacet
  facet normal 0 0 1
    outer loop
      vertex 18.115 9.85788 1.97
      vertex 18.8245 8.29443 1.97
      vertex 19.2706 8.52169 1.97
    endloop
  endfacet
  facet normal 0 0 1
    outer loop
      vertex 18.115 9.85788 1.97
      vertex 19.2706 8.52169 1.97
      vertex 19.765 8.6 1.97
    endloop
  endfacet
  facet normal -0 0 1
    outer loop
      vertex 18.115 9.85788 1.97
      vertex 19.765 8.6 1.97
      vertex 21.415 9.85788 1.97
    endloop
  endfacet
  facet normal 0 -1 -0
    outer loop
      vertex 18.115 9.85788 1.97
      vertex 21.415 9.85788 1.97
      vertex 21.415 9.85788 4.67
    endloop
  endfacet
  facet normal 0 -1 0
    outer loop
      vertex 18.115 9.85788 1.97
      vertex 21.415 9.85788 4.67
      vertex 18.115 9.85788 4.67
    endloop
  endfacet
  facet normal 0 0 1
    outer loop
      vertex 18.115 9.85788 4.67
      vertex 19.0532 11.494 4.67
      vertex 18.359 11.3273 4.67
    endloop
  endfacet
  facet normal 0 0 1
    outer loop
      vertex 18.115 9.85788 4.67
      vertex 19.765 11.55 4.67
      vertex 19.0532 11.494 4.67
    endloop
  endfacet
  facet normal 0 0 1
    outer loop
      vertex 18.115 9.85788 4.67
      vertex 21.415 9.85788 4.67
      vertex 19.765 11.55 4.67
    endloop
  endfacet
  facet normal 0.987691 0.156415 0
    outer loop
      vertex 18.165 7 0
      vertex 18.165 7 1.97
      vertex 18.2433 6.50557 1.97
    endloop
  endfacet
  facet normal 0.987691 0.156415 0
    outer loop
      vertex 18.165 7 0
      vertex 18.2433 6.50557 1.97
      vertex 18.2433 6.50557 0
    endloop
  endfacet
  facet normal 0.987691 -0.156415 0
    outer loop
      vertex 18.165 7 0
      vertex 18.2433 7.49443 0
      vertex 18.165 7 1.97
    endloop
  endfacet
  facet normal 0.987691 -0.156415 0
    outer loop
      vertex 18.165 7 1.97
      vertex 18.2433 7.49443 0
      vertex 18.2433 7.49443 1.97
    endloop
  endfacet
  facet normal 0.890977 0.454048 0
    outer loop
      vertex 18.2433 6.50557 0
      vertex 18.2433 6.50557 1.97
      vertex 18.4706 6.05954 1.97
    endloop
  endfacet
  facet normal 0.890977 0.454048 0
    outer loop
      vertex 18.2433 6.50557 0
      vertex 18.4706 6.05954 1.97
      vertex 18.4706 6.05954 0
    endloop
  endfacet
  facet normal 0.890977 -0.454048 0
    outer loop
      vertex 18.2433 7.49443 0
      vertex 18.4706 7.94046 0
      vertex 18.2433 7.49443 1.97
    endloop
  endfacet
  facet normal 0.890977 -0.454048 0
    outer loop
      vertex 18.2433 7.49443 1.97
      vertex 18.4706 7.94046 0
      vertex 18.4706 7.94046 1.97
    endloop
  endfacet
  facet normal -0.233495 0.972358 0
    outer loop
      vertex 18.359 11.3273 1.97
      vertex 18.359 11.3273 4.67
      vertex 19.0532 11.494 1.97
    endloop
  endfacet
  facet normal -0.233495 0.972358 0
    outer loop
      vertex 18.359 11.3273 4.67
      vertex 19.0532 11.494 4.67
      vertex 19.0532 11.494 1.97
    endloop
  endfacet
  facet normal -0.233455 -0.972368 -0
    outer loop
      vertex 18.359 2.67269 1.97
      vertex 19.0532 2.50602 1.97
      vertex 19.0532 2.50602 4.67
    endloop
  endfacet
  facet normal -0.233455 -0.972368 0
    outer loop
      vertex 18.359 2.67269 1.97
      vertex 19.0532 2.50602 4.67
      vertex 18.359 2.67269 4.67
    endloop
  endfacet
  facet normal 0.707177 0.707037 0
    outer loop
      vertex 18.4706 6.05954 0
      vertex 18.4706 6.05954 1.97
      vertex 18.8245 5.70557 1.97
    endloop
  endfacet
  facet normal 0.707177 0.707037 0
    outer loop
      vertex 18.4706 6.05954 0
      vertex 18.8245 5.70557 1.97
      vertex 18.8245 5.70557 0
    endloop
  endfacet
  facet normal 0.707177 -0.707037 0
    outer loop
      vertex 18.4706 7.94046 0
      vertex 18.8245 8.29443 0
      vertex 18.4706 7.94046 1.97
    endloop
  endfacet
  facet normal 0.707177 -0.707037 0
    outer loop
      vertex 18.4706 7.94046 1.97
      vertex 18.8245 8.29443 0
      vertex 18.8245 8.29443 1.97
    endloop
  endfacet
  facet normal 0.453928 0.891038 0
    outer loop
      vertex 18.8245 5.70557 0
      vertex 18.8245 5.70557 1.97
      vertex 19.2706 5.47831 0
    endloop
  endfacet
  facet normal 0.453928 0.891038 -0
    outer loop
      vertex 18.8245 5.70557 1.97
      vertex 19.2706 5.47831 1.97
      vertex 19.2706 5.47831 0
    endloop
  endfacet
  facet normal 0.453928 -0.891038 0
    outer loop
      vertex 18.8245 8.29443 0
      vertex 19.2706 8.52169 0
      vertex 19.2706 8.52169 1.97
    endloop
  endfacet
  facet normal 0.453928 -0.891038 0
    outer loop
      vertex 18.8245 8.29443 0
      vertex 19.2706 8.52169 1.97
      vertex 18.8245 8.29443 1.97
    endloop
  endfacet
  facet normal -0.0784314 0.99692 0
    outer loop
      vertex 19.0532 11.494 1.97
      vertex 19.0532 11.494 4.67
      vertex 19.765 11.55 1.97
    endloop
  endfacet
  facet normal 0 0 1
    outer loop
      vertex 19.0532 11.494 1.97
      vertex 19.765 11.55 1.97
      vertex 26.2 14 1.97
    endloop
  endfacet
  facet normal -0.0784314 0.99692 0
    outer loop
      vertex 19.0532 11.494 4.67
      vertex 19.765 11.55 4.67
      vertex 19.765 11.55 1.97
    endloop
  endfacet
  facet normal -0.0784593 -0.996917 -0
    outer loop
      vertex 19.0532 2.50602 1.97
      vertex 19.765 2.45 1.97
      vertex 19.765 2.45 4.67
    endloop
  endfacet
  facet normal -0.0784593 -0.996917 0
    outer loop
      vertex 19.0532 2.50602 1.97
      vertex 19.765 2.45 4.67
      vertex 19.0532 2.50602 4.67
    endloop
  endfacet
  facet normal 0 0 1
    outer loop
      vertex 19.0532 2.50602 1.97
      vertex 28.84 0 1.97
      vertex 19.765 2.45 1.97
    endloop
  endfacet
  facet normal 0.156444 0.987687 0
    outer loop
      vertex 19.2706 5.47831 0
      vertex 19.2706 5.47831 1.97
      vertex 19.765 5.4 0
    endloop
  endfacet
  facet normal 0 0 -1
    outer loop
      vertex 19.2706 5.47831 0
      vertex 19.765 5.4 0
      vertex 28.84 0 0
    endloop
  endfacet
  facet normal 0.156444 0.987687 -0
    outer loop
      vertex 19.2706 5.47831 1.97
      vertex 19.765 5.4 1.97
      vertex 19.765 5.4 0
    endloop
  endfacet
  facet normal 0.156444 -0.987687 0
    outer loop
      vertex 19.2706 8.52169 0
      vertex 19.765 8.6 0
      vertex 19.765 8.6 1.97
    endloop
  endfacet
  facet normal 0.156444 -0.987687 0
    outer loop
      vertex 19.2706 8.52169 0
      vertex 19.765 8.6 1.97
      vertex 19.2706 8.52169 1.97
    endloop
  endfacet
  facet normal 0 0 -1
    outer loop
      vertex 19.2706 8.52169 0
      vertex 26.2 14 0
      vertex 19.765 8.6 0
    endloop
  endfacet
  facet normal 0.0784314 0.99692 0
    outer loop
      vertex 19.765 11.55 1.97
      vertex 19.765 11.55 4.67
      vertex 20.4768 11.494 1.97
    endloop
  endfacet
  facet normal 0 0 1
    outer loop
      vertex 19.765 11.55 1.97
      vertex 20.4768 11.494 1.97
      vertex 26.2 14 1.97
    endloop
  endfacet
  facet normal 0.0784314 0.99692 -0
    outer loop
      vertex 19.765 11.55 4.67
      vertex 20.4768 11.494 4.67
      vertex 20.4768 11.494 1.97
    endloop
  endfacet
  facet normal 0 0 1
    outer loop
      vertex 19.765 11.55 4.67
      vertex 21.415 9.85788 4.67
      vertex 20.4768 11.494 4.67
    endloop
  endfacet
  facet normal 0.0784593 -0.996917 0
    outer loop
      vertex 19.765 2.45 1.97
      vertex 20.4768 2.50602 1.97
      vertex 20.4768 2.50602 4.67
    endloop
  endfacet
  facet normal 0.0784593 -0.996917 0
    outer loop
      vertex 19.765 2.45 1.97
      vertex 20.4768 2.50602 4.67
      vertex 19.765 2.45 4.67
    endloop
  endfacet
  facet normal -0 0 1
    outer loop
      vertex 19.765 2.45 1.97
      vertex 28.84 0 1.97
      vertex 20.4768 2.50602 1.97
    endloop
  endfacet
  facet normal 0 0 1
    outer loop
      vertex 19.765 2.45 4.67
      vertex 20.4768 2.50602 4.67
      vertex 21.415 4.14212 4.67
    endloop
  endfacet
  facet normal -0.156444 0.987687 0
    outer loop
      vertex 19.765 5.4 0
      vertex 19.765 5.4 1.97
      vertex 20.2594 5.47831 0
    endloop
  endfacet
  facet normal 0 0 -1
    outer loop
      vertex 19.765 5.4 0
      vertex 20.2594 5.47831 0
      vertex 28.84 0 0
    endloop
  endfacet
  facet normal -0.156444 0.987687 0
    outer loop
      vertex 19.765 5.4 1.97
      vertex 20.2594 5.47831 1.97
      vertex 20.2594 5.47831 0
    endloop
  endfacet
  facet normal -0 0 1
    outer loop
      vertex 19.765 5.4 1.97
      vertex 21.415 4.14212 1.97
      vertex 20.2594 5.47831 1.97
    endloop
  endfacet
  facet normal -0.156444 -0.987687 -0
    outer loop
      vertex 19.765 8.6 0
      vertex 20.2594 8.52169 0
      vertex 20.2594 8.52169 1.97
    endloop
  endfacet
  facet normal -0.156444 -0.987687 0
    outer loop
      vertex 19.765 8.6 0
      vertex 20.2594 8.52169 1.97
      vertex 19.765 8.6 1.97
    endloop
  endfacet
  facet normal 0 0 -1
    outer loop
      vertex 19.765 8.6 0
      vertex 26.2 14 0
      vertex 20.2594 8.52169 0
    endloop
  endfacet
  facet normal 0 0 1
    outer loop
      vertex 19.765 8.6 1.97
      vertex 20.2594 8.52169 1.97
      vertex 21.415 9.85788 1.97
    endloop
  endfacet
  facet normal 0.866025 0.500001 0
    outer loop
      vertex 2.3 7 1.97
      vertex 2.3 7 4.67
      vertex 3.95 4.14212 4.67
    endloop
  endfacet
  facet normal 0 0 1
    outer loop
      vertex 2.3 7 1.97
      vertex 3.95 4.14212 1.97
      vertex 4.30557 6.05954 1.97
    endloop
  endfacet
  facet normal 0.866025 0.500001 0
    outer loop
      vertex 2.3 7 1.97
      vertex 3.95 4.14212 4.67
      vertex 3.95 4.14212 1.97
    endloop
  endfacet
  facet normal 0.866025 -0.500001 0
    outer loop
      vertex 2.3 7 1.97
      vertex 3.95 9.85788 1.97
      vertex 2.3 7 4.67
    endloop
  endfacet
  facet normal 0 0 1
    outer loop
      vertex 2.3 7 1.97
      vertex 4 7 1.97
      vertex 4.07831 7.49443 1.97
    endloop
  endfacet
  facet normal -0 0 1
    outer loop
      vertex 2.3 7 1.97
      vertex 4.07831 6.50557 1.97
      vertex 4 7 1.97
    endloop
  endfacet
  facet normal 0 0 1
    outer loop
      vertex 2.3 7 1.97
      vertex 4.07831 7.49443 1.97
      vertex 4.30557 7.94046 1.97
    endloop
  endfacet
  facet normal 0 0 1
    outer loop
      vertex 2.3 7 1.97
      vertex 4.30557 6.05954 1.97
      vertex 4.07831 6.50557 1.97
    endloop
  endfacet
  facet normal 0 0 1
    outer loop
      vertex 2.3 7 1.97
      vertex 4.30557 7.94046 1.97
      vertex 3.95 9.85788 1.97
    endloop
  endfacet
  facet normal 0.866025 -0.500001 0
    outer loop
      vertex 2.3 7 4.67
      vertex 3.95 9.85788 1.97
      vertex 3.95 9.85788 4.67
    endloop
  endfacet
  facet normal -0.64945 0.760404 0
    outer loop
      vertex 2.38266 10.2173 1.97
      vertex 2.38266 10.2173 4.67
      vertex 2.92558 10.681 1.97
    endloop
  endfacet
  facet normal -0.64945 0.760404 0
    outer loop
      vertex 2.38266 10.2173 4.67
      vertex 2.92558 10.681 4.67
      vertex 2.92558 10.681 1.97
    endloop
  endfacet
  facet normal -0 0 1
    outer loop
      vertex 2.38266 10.2173 4.67
      vertex 3.95 9.85788 4.67
      vertex 2.92558 10.681 4.67
    endloop
  endfacet
  facet normal -0.649442 -0.760411 -0
    outer loop
      vertex 2.38266 3.78266 1.97
      vertex 2.92558 3.31897 1.97
      vertex 2.92558 3.31897 4.67
    endloop
  endfacet
  facet normal -0.649442 -0.760411 0
    outer loop
      vertex 2.38266 3.78266 1.97
      vertex 2.92558 3.31897 4.67
      vertex 2.38266 3.78266 4.67
    endloop
  endfacet
  facet normal 0 0 1
    outer loop
      vertex 2.38266 3.78266 4.67
      vertex 2.92558 3.31897 4.67
      vertex 3.95 4.14212 4.67
    endloop
  endfacet
  facet normal -0.522551 0.852608 0
    outer loop
      vertex 2.92558 10.681 1.97
      vertex 2.92558 10.681 4.67
      vertex 3.53434 11.0541 1.97
    endloop
  endfacet
  facet normal -0.522551 0.852608 0
    outer loop
      vertex 2.92558 10.681 4.67
      vertex 3.53434 11.0541 4.67
      vertex 3.53434 11.0541 1.97
    endloop
  endfacet
  facet normal -0 0 1
    outer loop
      vertex 2.92558 10.681 4.67
      vertex 3.95 9.85788 4.67
      vertex 3.53434 11.0541 4.67
    endloop
  endfacet
  facet normal -0.5225 -0.852639 -0
    outer loop
      vertex 2.92558 3.31897 1.97
      vertex 3.53434 2.94592 1.97
      vertex 3.53434 2.94592 4.67
    endloop
  endfacet
  facet normal -0.5225 -0.852639 0
    outer loop
      vertex 2.92558 3.31897 1.97
      vertex 3.53434 2.94592 4.67
      vertex 2.92558 3.31897 4.67
    endloop
  endfacet
  facet normal 0 0 1
    outer loop
      vertex 2.92558 3.31897 4.67
      vertex 3.53434 2.94592 4.67
      vertex 3.95 4.14212 4.67
    endloop
  endfacet
  facet normal -0.453928 0.891038 0
    outer loop
      vertex 20.2594 5.47831 0
      vertex 20.2594 5.47831 1.97
      vertex 20.7055 5.70557 0
    endloop
  endfacet
  facet normal 0 0 -1
    outer loop
      vertex 20.2594 5.47831 0
      vertex 20.7055 5.70557 0
      vertex 28.84 0 0
    endloop
  endfacet
  facet normal -0.453928 0.891038 0
    outer loop
      vertex 20.2594 5.47831 1.97
      vertex 20.7055 5.70557 1.97
      vertex 20.7055 5.70557 0
    endloop
  endfacet
  facet normal -0 0 1
    outer loop
      vertex 20.2594 5.47831 1.97
      vertex 21.415 4.14212 1.97
      vertex 20.7055 5.70557 1.97
    endloop
  endfacet
  facet normal -0.453928 -0.891038 -0
    outer loop
      vertex 20.2594 8.52169 0
      vertex 20.7055 8.29443 0
      vertex 20.7055 8.29443 1.97
    endloop
  endfacet
  facet normal -0.453928 -0.891038 0
    outer loop
      vertex 20.2594 8.52169 0
      vertex 20.7055 8.29443 1.97
      vertex 20.2594 8.52169 1.97
    endloop
  endfacet
  facet normal 0 0 -1
    outer loop
      vertex 20.2594 8.52169 0
      vertex 26.2 14 0
      vertex 20.7055 8.29443 0
    endloop
  endfacet
  facet normal 0 0 1
    outer loop
      vertex 20.2594 8.52169 1.97
      vertex 20.7055 8.29443 1.97
      vertex 21.415 9.85788 1.97
    endloop
  endfacet
  facet normal 0.233495 0.972358 0
    outer loop
      vertex 20.4768 11.494 1.97
      vertex 20.4768 11.494 4.67
      vertex 21.171 11.3273 1.97
    endloop
  endfacet
  facet normal 0 0 1
    outer loop
      vertex 20.4768 11.494 1.97
      vertex 21.171 11.3273 1.97
      vertex 26.2 14 1.97
    endloop
  endfacet
  facet normal 0.233495 0.972358 -0
    outer loop
      vertex 20.4768 11.494 4.67
      vertex 21.171 11.3273 4.67
      vertex 21.171 11.3273 1.97
    endloop
  endfacet
  facet normal 0 0 1
    outer loop
      vertex 20.4768 11.494 4.67
      vertex 21.415 9.85788 4.67
      vertex 21.171 11.3273 4.67
    endloop
  endfacet
  facet normal 0.233455 -0.972368 0
    outer loop
      vertex 20.4768 2.50602 1.97
      vertex 21.171 2.67269 1.97
      vertex 21.171 2.67269 4.67
    endloop
  endfacet
  facet normal 0.233455 -0.972368 0
    outer loop
      vertex 20.4768 2.50602 1.97
      vertex 21.171 2.67269 4.67
      vertex 20.4768 2.50602 4.67
    endloop
  endfacet
  facet normal -0 0 1
    outer loop
      vertex 20.4768 2.50602 1.97
      vertex 28.84 0 1.97
      vertex 21.171 2.67269 1.97
    endloop
  endfacet
  facet normal 0 0 1
    outer loop
      vertex 20.4768 2.50602 4.67
      vertex 21.171 2.67269 4.67
      vertex 21.415 4.14212 4.67
    endloop
  endfacet
  facet normal -0.707177 0.707037 0
    outer loop
      vertex 20.7055 5.70557 0
      vertex 20.7055 5.70557 1.97
      vertex 21.0594 6.05954 1.97
    endloop
  endfacet
  facet normal 0 0 -1
    outer loop
      vertex 20.7055 5.70557 0
      vertex 21.0594 6.05954 0
      vertex 28.84 0 0
    endloop
  endfacet
  facet normal -0.707177 0.707037 0
    outer loop
      vertex 20.7055 5.70557 0
      vertex 21.0594 6.05954 1.97
      vertex 21.0594 6.05954 0
    endloop
  endfacet
  facet normal -0 0 1
    outer loop
      vertex 20.7055 5.70557 1.97
      vertex 21.415 4.14212 1.97
      vertex 21.0594 6.05954 1.97
    endloop
  endfacet
  facet normal -0.707177 -0.707037 0
    outer loop
      vertex 20.7055 8.29443 0
      vertex 21.0594 7.94046 0
      vertex 20.7055 8.29443 1.97
    endloop
  endfacet
  facet normal 0 0 -1
    outer loop
      vertex 20.7055 8.29443 0
      vertex 26.2 14 0
      vertex 21.0594 7.94046 0
    endloop
  endfacet
  facet normal -0.707177 -0.707037 0
    outer loop
      vertex 20.7055 8.29443 1.97
      vertex 21.0594 7.94046 0
      vertex 21.0594 7.94046 1.97
    endloop
  endfacet
  facet normal 0 0 1
    outer loop
      vertex 20.7055 8.29443 1.97
      vertex 21.0594 7.94046 1.97
      vertex 21.415 9.85788 1.97
    endloop
  endfacet
  facet normal -0.890977 0.454048 0
    outer loop
      vertex 21.0594 6.05954 0
      vertex 21.0594 6.05954 1.97
      vertex 21.2867 6.50557 1.97
    endloop
  endfacet
  facet normal 0 0 -1
    outer loop
      vertex 21.0594 6.05954 0
      vertex 21.2867 6.50557 0
      vertex 28.84 0 0
    endloop
  endfacet
  facet normal -0.890977 0.454048 0
    outer loop
      vertex 21.0594 6.05954 0
      vertex 21.2867 6.50557 1.97
      vertex 21.2867 6.50557 0
    endloop
  endfacet
  facet normal 0 0 1
    outer loop
      vertex 21.0594 6.05954 1.97
      vertex 21.415 4.14212 1.97
      vertex 23.065 7 1.97
    endloop
  endfacet
  facet normal 0 0 1
    outer loop
      vertex 21.0594 6.05954 1.97
      vertex 23.065 7 1.97
      vertex 21.2867 6.50557 1.97
    endloop
  endfacet
  facet normal -0.890977 -0.454048 0
    outer loop
      vertex 21.0594 7.94046 0
      vertex 21.2867 7.49443 0
      vertex 21.0594 7.94046 1.97
    endloop
  endfacet
  facet normal 0 0 -1
    outer loop
      vertex 21.0594 7.94046 0
      vertex 26.2 14 0
      vertex 21.2867 7.49443 0
    endloop
  endfacet
  facet normal -0.890977 -0.454048 0
    outer loop
      vertex 21.0594 7.94046 1.97
      vertex 21.2867 7.49443 0
      vertex 21.2867 7.49443 1.97
    endloop
  endfacet
  facet normal 0 0 1
    outer loop
      vertex 21.0594 7.94046 1.97
      vertex 21.2867 7.49443 1.97
      vertex 23.065 7 1.97
    endloop
  endfacet
  facet normal -0 0 1
    outer loop
      vertex 21.0594 7.94046 1.97
      vertex 23.065 7 1.97
      vertex 21.415 9.85788 1.97
    endloop
  endfacet
  facet normal 0.382616 0.923908 0
    outer loop
      vertex 21.171 11.3273 1.97
      vertex 21.171 11.3273 4.67
      vertex 21.8307 11.0541 1.97
    endloop
  endfacet
  facet normal 0 0 1
    outer loop
      vertex 21.171 11.3273 1.97
      vertex 21.8307 11.0541 1.97
      vertex 26.2 14 1.97
    endloop
  endfacet
  facet normal 0 0 1
    outer loop
      vertex 21.171 11.3273 4.67
      vertex 21.415 9.85788 4.67
      vertex 21.8307 11.0541 4.67
    endloop
  endfacet
  facet normal 0.382616 0.923908 -0
    outer loop
      vertex 21.171 11.3273 4.67
      vertex 21.8307 11.0541 4.67
      vertex 21.8307 11.0541 1.97
    endloop
  endfacet
  facet normal 0.382652 -0.923893 0
    outer loop
      vertex 21.171 2.67269 1.97
      vertex 21.8307 2.94592 1.97
      vertex 21.8307 2.94592 4.67
    endloop
  endfacet
  facet normal 0.382652 -0.923893 0
    outer loop
      vertex 21.171 2.67269 1.97
      vertex 21.8307 2.94592 4.67
      vertex 21.171 2.67269 4.67
    endloop
  endfacet
  facet normal -0 0 1
    outer loop
      vertex 21.171 2.67269 1.97
      vertex 28.84 0 1.97
      vertex 21.8307 2.94592 1.97
    endloop
  endfacet
  facet normal 0 0 1
    outer loop
      vertex 21.171 2.67269 4.67
      vertex 21.8307 2.94592 4.67
      vertex 21.415 4.14212 4.67
    endloop
  endfacet
  facet normal -0.987691 0.156415 0
    outer loop
      vertex 21.2867 6.50557 0
      vertex 21.2867 6.50557 1.97
      vertex 21.365 7 1.97
    endloop
  endfacet
  facet normal 0 0 -1
    outer loop
      vertex 21.2867 6.50557 0
      vertex 21.365 7 0
      vertex 28.84 0 0
    endloop
  endfacet
  facet normal -0.987691 0.156415 0
    outer loop
      vertex 21.2867 6.50557 0
      vertex 21.365 7 1.97
      vertex 21.365 7 0
    endloop
  endfacet
  facet normal 0 0 1
    outer loop
      vertex 21.2867 6.50557 1.97
      vertex 23.065 7 1.97
      vertex 21.365 7 1.97
    endloop
  endfacet
  facet normal -0.987691 -0.156415 0
    outer loop
      vertex 21.2867 7.49443 0
      vertex 21.365 7 0
      vertex 21.2867 7.49443 1.97
    endloop
  endfacet
  facet normal 0 0 -1
    outer loop
      vertex 21.2867 7.49443 0
      vertex 26.2 14 0
      vertex 21.365 7 0
    endloop
  endfacet
  facet normal -0.987691 -0.156415 0
    outer loop
      vertex 21.2867 7.49443 1.97
      vertex 21.365 7 0
      vertex 21.365 7 1.97
    endloop
  endfacet
  facet normal 0 0 1
    outer loop
      vertex 21.2867 7.49443 1.97
      vertex 21.365 7 1.97
      vertex 23.065 7 1.97
    endloop
  endfacet
  facet normal 0 0 -1
    outer loop
      vertex 21.365 7 0
      vertex 26.2 14 0
      vertex 28.84 0 0
    endloop
  endfacet
  facet normal -0.866025 0.500001 0
    outer loop
      vertex 21.415 4.14212 1.97
      vertex 21.415 4.14212 4.67
      vertex 23.065 7 4.67
    endloop
  endfacet
  facet normal -0.866025 0.500001 0
    outer loop
      vertex 21.415 4.14212 1.97
      vertex 23.065 7 4.67
      vertex 23.065 7 1.97
    endloop
  endfacet
  facet normal 0 0 1
    outer loop
      vertex 21.415 4.14212 4.67
      vertex 21.8307 2.94592 4.67
      vertex 22.4394 3.31897 4.67
    endloop
  endfacet
  facet normal 0 0 1
    outer loop
      vertex 21.415 4.14212 4.67
      vertex 22.4394 3.31897 4.67
      vertex 22.9823 3.78266 4.67
    endloop
  endfacet
  facet normal 0 0 1
    outer loop
      vertex 21.415 4.14212 4.67
      vertex 22.9823 3.78266 4.67
      vertex 23.446 4.32558 4.67
    endloop
  endfacet
  facet normal 0 0 1
    outer loop
      vertex 21.415 4.14212 4.67
      vertex 23.446 4.32558 4.67
      vertex 23.8191 4.93434 4.67
    endloop
  endfacet
  facet normal 0 0 1
    outer loop
      vertex 21.415 4.14212 4.67
      vertex 23.8191 4.93434 4.67
      vertex 23.065 7 4.67
    endloop
  endfacet
  facet normal -0.866025 -0.500001 0
    outer loop
      vertex 21.415 9.85788 1.97
      vertex 23.065 7 1.97
      vertex 21.415 9.85788 4.67
    endloop
  endfacet
  facet normal 0 0 1
    outer loop
      vertex 21.415 9.85788 4.67
      vertex 22.4394 10.681 4.67
      vertex 21.8307 11.0541 4.67
    endloop
  endfacet
  facet normal 0 0 1
    outer loop
      vertex 21.415 9.85788 4.67
      vertex 22.9823 10.2173 4.67
      vertex 22.4394 10.681 4.67
    endloop
  endfacet
  facet normal -0.866025 -0.500001 0
    outer loop
      vertex 21.415 9.85788 4.67
      vertex 23.065 7 1.97
      vertex 23.065 7 4.67
    endloop
  endfacet
  facet normal 0 0 1
    outer loop
      vertex 21.415 9.85788 4.67
      vertex 23.065 7 4.67
      vertex 23.8191 9.06566 4.67
    endloop
  endfacet
  facet normal -0 0 1
    outer loop
      vertex 21.415 9.85788 4.67
      vertex 23.446 9.67442 4.67
      vertex 22.9823 10.2173 4.67
    endloop
  endfacet
  facet normal 0 0 1
    outer loop
      vertex 21.415 9.85788 4.67
      vertex 23.8191 9.06566 4.67
      vertex 23.446 9.67442 4.67
    endloop
  endfacet
  facet normal 0.522588 0.852585 0
    outer loop
      vertex 21.8307 11.0541 1.97
      vertex 21.8307 11.0541 4.67
      vertex 22.4394 10.681 1.97
    endloop
  endfacet
  facet normal 0 0 1
    outer loop
      vertex 21.8307 11.0541 1.97
      vertex 22.4394 10.681 1.97
      vertex 26.2 14 1.97
    endloop
  endfacet
  facet normal 0.522588 0.852585 -0
    outer loop
      vertex 21.8307 11.0541 4.67
      vertex 22.4394 10.681 4.67
      vertex 22.4394 10.681 1.97
    endloop
  endfacet
  facet normal 0.522537 -0.852616 0
    outer loop
      vertex 21.8307 2.94592 1.97
      vertex 22.4394 3.31897 1.97
      vertex 22.4394 3.31897 4.67
    endloop
  endfacet
  facet normal 0.522537 -0.852616 0
    outer loop
      vertex 21.8307 2.94592 1.97
      vertex 22.4394 3.31897 4.67
      vertex 21.8307 2.94592 4.67
    endloop
  endfacet
  facet normal -0 0 1
    outer loop
      vertex 21.8307 2.94592 1.97
      vertex 28.84 0 1.97
      vertex 22.4394 3.31897 1.97
    endloop
  endfacet
  facet normal 0.649464 0.760392 0
    outer loop
      vertex 22.4394 10.681 1.97
      vertex 22.4394 10.681 4.67
      vertex 22.9823 10.2173 1.97
    endloop
  endfacet
  facet normal 0 0 1
    outer loop
      vertex 22.4394 10.681 1.97
      vertex 22.9823 10.2173 1.97
      vertex 26.2 14 1.97
    endloop
  endfacet
  facet normal 0.649464 0.760392 -0
    outer loop
      vertex 22.4394 10.681 4.67
      vertex 22.9823 10.2173 4.67
      vertex 22.9823 10.2173 1.97
    endloop
  endfacet
  facet normal 0.649456 -0.760399 0
    outer loop
      vertex 22.4394 3.31897 1.97
      vertex 22.9823 3.78266 1.97
      vertex 22.9823 3.78266 4.67
    endloop
  endfacet
  facet normal 0.649456 -0.760399 0
    outer loop
      vertex 22.4394 3.31897 1.97
      vertex 22.9823 3.78266 4.67
      vertex 22.4394 3.31897 4.67
    endloop
  endfacet
  facet normal -0 0 1
    outer loop
      vertex 22.4394 3.31897 1.97
      vertex 28.84 0 1.97
      vertex 22.9823 3.78266 1.97
    endloop
  endfacet
  facet normal 0.760381 0.649478 0
    outer loop
      vertex 22.9823 10.2173 1.97
      vertex 22.9823 10.2173 4.67
      vertex 23.446 9.67442 4.67
    endloop
  endfacet
  facet normal 0 0 1
    outer loop
      vertex 22.9823 10.2173 1.97
      vertex 23.446 9.67442 1.97
      vertex 26.2 14 1.97
    endloop
  endfacet
  facet normal 0.760381 0.649478 0
    outer loop
      vertex 22.9823 10.2173 1.97
      vertex 23.446 9.67442 4.67
      vertex 23.446 9.67442 1.97
    endloop
  endfacet
  facet normal 0.760404 -0.64945 0
    outer loop
      vertex 22.9823 3.78266 1.97
      vertex 23.446 4.32558 1.97
      vertex 22.9823 3.78266 4.67
    endloop
  endfacet
  facet normal -0 0 1
    outer loop
      vertex 22.9823 3.78266 1.97
      vertex 28.84 0 1.97
      vertex 23.446 4.32558 1.97
    endloop
  endfacet
  facet normal 0.760404 -0.64945 0
    outer loop
      vertex 22.9823 3.78266 4.67
      vertex 23.446 4.32558 1.97
      vertex 23.446 4.32558 4.67
    endloop
  endfacet
  facet normal 0 0 1
    outer loop
      vertex 23.065 7 4.67
      vertex 23.8191 4.93434 4.67
      vertex 24.0923 5.59397 4.67
    endloop
  endfacet
  facet normal 0 0 1
    outer loop
      vertex 23.065 7 4.67
      vertex 24.0923 5.59397 4.67
      vertex 24.259 6.28822 4.67
    endloop
  endfacet
  facet normal 0 0 1
    outer loop
      vertex 23.065 7 4.67
      vertex 24.0923 8.40603 4.67
      vertex 23.8191 9.06566 4.67
    endloop
  endfacet
  facet normal 0 0 1
    outer loop
      vertex 23.065 7 4.67
      vertex 24.259 6.28822 4.67
      vertex 24.315 7 4.67
    endloop
  endfacet
  facet normal 0 0 1
    outer loop
      vertex 23.065 7 4.67
      vertex 24.259 7.71178 4.67
      vertex 24.0923 8.40603 4.67
    endloop
  endfacet
  facet normal 0 0 1
    outer loop
      vertex 23.065 7 4.67
      vertex 24.315 7 4.67
      vertex 24.259 7.71178 4.67
    endloop
  endfacet
  facet normal 0.852608 -0.522551 0
    outer loop
      vertex 23.446 4.32558 1.97
      vertex 23.8191 4.93434 1.97
      vertex 23.446 4.32558 4.67
    endloop
  endfacet
  facet normal -0 0 1
    outer loop
      vertex 23.446 4.32558 1.97
      vertex 28.84 0 1.97
      vertex 23.8191 4.93434 1.97
    endloop
  endfacet
  facet normal 0.852608 -0.522551 0
    outer loop
      vertex 23.446 4.32558 4.67
      vertex 23.8191 4.93434 1.97
      vertex 23.8191 4.93434 4.67
    endloop
  endfacet
  facet normal 0.852608 0.522551 0
    outer loop
      vertex 23.446 9.67442 1.97
      vertex 23.446 9.67442 4.67
      vertex 23.8191 9.06566 4.67
    endloop
  endfacet
  facet normal 0 0 1
    outer loop
      vertex 23.446 9.67442 1.97
      vertex 23.8191 9.06566 1.97
      vertex 26.2 14 1.97
    endloop
  endfacet
  facet normal 0.852608 0.522551 0
    outer loop
      vertex 23.446 9.67442 1.97
      vertex 23.8191 9.06566 4.67
      vertex 23.8191 9.06566 1.97
    endloop
  endfacet
  facet normal 0.923893 -0.38265 0
    outer loop
      vertex 23.8191 4.93434 1.97
      vertex 24.0923 5.59397 1.97
      vertex 23.8191 4.93434 4.67
    endloop
  endfacet
  facet normal -0 0 1
    outer loop
      vertex 23.8191 4.93434 1.97
      vertex 28.84 0 1.97
      vertex 24.0923 5.59397 1.97
    endloop
  endfacet
  facet normal 0.923893 -0.38265 0
    outer loop
      vertex 23.8191 4.93434 4.67
      vertex 24.0923 5.59397 1.97
      vertex 24.0923 5.59397 4.67
    endloop
  endfacet
  facet normal 0.923893 0.38265 0
    outer loop
      vertex 23.8191 9.06566 1.97
      vertex 23.8191 9.06566 4.67
      vertex 24.0923 8.40603 4.67
    endloop
  endfacet
  facet normal 0 0 1
    outer loop
      vertex 23.8191 9.06566 1.97
      vertex 24.0923 8.40603 1.97
      vertex 26.2 14 1.97
    endloop
  endfacet
  facet normal 0.923893 0.38265 0
    outer loop
      vertex 23.8191 9.06566 1.97
      vertex 24.0923 8.40603 4.67
      vertex 24.0923 8.40603 1.97
    endloop
  endfacet
  facet normal 0.972362 -0.233479 0
    outer loop
      vertex 24.0923 5.59397 1.97
      vertex 24.259 6.28822 1.97
      vertex 24.0923 5.59397 4.67
    endloop
  endfacet
  facet normal -0 0 1
    outer loop
      vertex 24.0923 5.59397 1.97
      vertex 28.84 0 1.97
      vertex 24.259 6.28822 1.97
    endloop
  endfacet
  facet normal 0.972362 -0.233479 0
    outer loop
      vertex 24.0923 5.59397 4.67
      vertex 24.259 6.28822 1.97
      vertex 24.259 6.28822 4.67
    endloop
  endfacet
  facet normal 0.972362 0.233479 0
    outer loop
      vertex 24.0923 8.40603 1.97
      vertex 24.0923 8.40603 4.67
      vertex 24.259 7.71178 4.67
    endloop
  endfacet
  facet normal 0 0 1
    outer loop
      vertex 24.0923 8.40603 1.97
      vertex 24.259 7.71178 1.97
      vertex 26.2 14 1.97
    endloop
  endfacet
  facet normal 0.972362 0.233479 0
    outer loop
      vertex 24.0923 8.40603 1.97
      vertex 24.259 7.71178 4.67
      vertex 24.259 7.71178 1.97
    endloop
  endfacet
  facet normal 0.996919 -0.0784336 0
    outer loop
      vertex 24.259 6.28822 1.97
      vertex 24.315 7 1.97
      vertex 24.259 6.28822 4.67
    endloop
  endfacet
  facet normal -0 0 1
    outer loop
      vertex 24.259 6.28822 1.97
      vertex 28.84 0 1.97
      vertex 24.315 7 1.97
    endloop
  endfacet
  facet normal 0.996919 -0.0784336 0
    outer loop
      vertex 24.259 6.28822 4.67
      vertex 24.315 7 1.97
      vertex 24.315 7 4.67
    endloop
  endfacet
  facet normal 0.996919 0.0784336 0
    outer loop
      vertex 24.259 7.71178 1.97
      vertex 24.259 7.71178 4.67
      vertex 24.315 7 4.67
    endloop
  endfacet
  facet normal 0 0 1
    outer loop
      vertex 24.259 7.71178 1.97
      vertex 24.315 7 1.97
      vertex 26.2 14 1.97
    endloop
  endfacet
  facet normal 0.996919 0.0784336 0
    outer loop
      vertex 24.259 7.71178 1.97
      vertex 24.315 7 4.67
      vertex 24.315 7 1.97
    endloop
  endfacet
  facet normal -0 0 1
    outer loop
      vertex 24.315 7 1.97
      vertex 28.84 0 1.97
      vertex 26.2 14 1.97
    endloop
  endfacet
  facet normal 0.982681 0.185306 0
    outer loop
      vertex 26.2 14 0
      vertex 26.2 14 1.97
      vertex 28.84 0 1.97
    endloop
  endfacet
  facet normal 0.982681 0.185306 0
    outer loop
      vertex 26.2 14 0
      vertex 28.84 0 1.97
      vertex 28.84 0 0
    endloop
  endfacet
  facet normal -0.38265 0.923893 0
    outer loop
      vertex 3.53434 11.0541 1.97
      vertex 3.53434 11.0541 4.67
      vertex 4.19397 11.3273 1.97
    endloop
  endfacet
  facet normal -0 0 1
    outer loop
      vertex 3.53434 11.0541 4.67
      vertex 3.95 9.85788 4.67
      vertex 4.19397 11.3273 4.67
    endloop
  endfacet
  facet normal -0.38265 0.923893 0
    outer loop
      vertex 3.53434 11.0541 4.67
      vertex 4.19397 11.3273 4.67
      vertex 4.19397 11.3273 1.97
    endloop
  endfacet
  facet normal -0.382686 -0.923878 -0
    outer loop
      vertex 3.53434 2.94592 1.97
      vertex 4.19397 2.67269 1.97
      vertex 4.19397 2.67269 4.67
    endloop
  endfacet
  facet normal -0.382686 -0.923878 0
    outer loop
      vertex 3.53434 2.94592 1.97
      vertex 4.19397 2.67269 4.67
      vertex 3.53434 2.94592 4.67
    endloop
  endfacet
  facet normal 0 0 1
    outer loop
      vertex 3.53434 2.94592 4.67
      vertex 4.19397 2.67269 4.67
      vertex 3.95 4.14212 4.67
    endloop
  endfacet
  facet normal 0 1 0
    outer loop
      vertex 3.95 4.14212 1.97
      vertex 3.95 4.14212 4.67
      vertex 7.25 4.14212 1.97
    endloop
  endfacet
  facet normal 0 0 1
    outer loop
      vertex 3.95 4.14212 1.97
      vertex 4.65954 5.70557 1.97
      vertex 4.30557 6.05954 1.97
    endloop
  endfacet
  facet normal 0 0 1
    outer loop
      vertex 3.95 4.14212 1.97
      vertex 5.10557 5.47831 1.97
      vertex 4.65954 5.70557 1.97
    endloop
  endfacet
  facet normal 0 0 1
    outer loop
      vertex 3.95 4.14212 1.97
      vertex 5.6 5.4 1.97
      vertex 5.10557 5.47831 1.97
    endloop
  endfacet
  facet normal 0 0 1
    outer loop
      vertex 3.95 4.14212 1.97
      vertex 7.25 4.14212 1.97
      vertex 5.6 5.4 1.97
    endloop
  endfacet
  facet normal 0 0 1
    outer loop
      vertex 3.95 4.14212 4.67
      vertex 4.19397 2.67269 4.67
      vertex 4.88822 2.50602 4.67
    endloop
  endfacet
  facet normal 0 0 1
    outer loop
      vertex 3.95 4.14212 4.67
      vertex 4.88822 2.50602 4.67
      vertex 5.6 2.45 4.67
    endloop
  endfacet
  facet normal -0 0 1
    outer loop
      vertex 3.95 4.14212 4.67
      vertex 5.6 2.45 4.67
      vertex 7.25 4.14212 4.67
    endloop
  endfacet
  facet normal 0 1 -0
    outer loop
      vertex 3.95 4.14212 4.67
      vertex 7.25 4.14212 4.67
      vertex 7.25 4.14212 1.97
    endloop
  endfacet
  facet normal 0 0 1
    outer loop
      vertex 3.95 9.85788 1.97
      vertex 4.30557 7.94046 1.97
      vertex 4.65954 8.29443 1.97
    endloop
  endfacet
  facet normal 0 0 1
    outer loop
      vertex 3.95 9.85788 1.97
      vertex 4.65954 8.29443 1.97
      vertex 5.10557 8.52169 1.97
    endloop
  endfacet
  facet normal 0 0 1
    outer loop
      vertex 3.95 9.85788 1.97
      vertex 5.10557 8.52169 1.97
      vertex 5.6 8.6 1.97
    endloop
  endfacet
  facet normal -0 0 1
    outer loop
      vertex 3.95 9.85788 1.97
      vertex 5.6 8.6 1.97
      vertex 7.25 9.85788 1.97
    endloop
  endfacet
  facet normal 0 -1 -0
    outer loop
      vertex 3.95 9.85788 1.97
      vertex 7.25 9.85788 1.97
      vertex 7.25 9.85788 4.67
    endloop
  endfacet
  facet normal 0 -1 0
    outer loop
      vertex 3.95 9.85788 1.97
      vertex 7.25 9.85788 4.67
      vertex 3.95 9.85788 4.67
    endloop
  endfacet
  facet normal 0 0 1
    outer loop
      vertex 3.95 9.85788 4.67
      vertex 4.88822 11.494 4.67
      vertex 4.19397 11.3273 4.67
    endloop
  endfacet
  facet normal 0 0 1
    outer loop
      vertex 3.95 9.85788 4.67
      vertex 5.6 11.55 4.67
      vertex 4.88822 11.494 4.67
    endloop
  endfacet
  facet normal 0 0 1
    outer loop
      vertex 3.95 9.85788 4.67
      vertex 7.25 9.85788 4.67
      vertex 5.6 11.55 4.67
    endloop
  endfacet
  facet normal 0.987688 0.156434 0
    outer loop
      vertex 4 7 0
      vertex 4 7 1.97
      vertex 4.07831 6.50557 1.97
    endloop
  endfacet
  facet normal 0.987688 0.156434 0
    outer loop
      vertex 4 7 0
      vertex 4.07831 6.50557 1.97
      vertex 4.07831 6.50557 0
    endloop
  endfacet
  facet normal 0.987688 -0.156434 0
    outer loop
      vertex 4 7 0
      vertex 4.07831 7.49443 0
      vertex 4 7 1.97
    endloop
  endfacet
  facet normal 0.987688 -0.156434 0
    outer loop
      vertex 4 7 1.97
      vertex 4.07831 7.49443 0
      vertex 4.07831 7.49443 1.97
    endloop
  endfacet
  facet normal 0.891009 0.453985 0
    outer loop
      vertex 4.07831 6.50557 0
      vertex 4.07831 6.50557 1.97
      vertex 4.30557 6.05954 1.97
    endloop
  endfacet
  facet normal 0.891009 0.453985 0
    outer loop
      vertex 4.07831 6.50557 0
      vertex 4.30557 6.05954 1.97
      vertex 4.30557 6.05954 0
    endloop
  endfacet
  facet normal 0.891009 -0.453985 0
    outer loop
      vertex 4.07831 7.49443 0
      vertex 4.30557 7.94046 0
      vertex 4.07831 7.49443 1.97
    endloop
  endfacet
  facet normal 0.891009 -0.453985 0
    outer loop
      vertex 4.07831 7.49443 1.97
      vertex 4.30557 7.94046 0
      vertex 4.30557 7.94046 1.97
    endloop
  endfacet
  facet normal -0.233479 0.972362 0
    outer loop
      vertex 4.19397 11.3273 1.97
      vertex 4.19397 11.3273 4.67
      vertex 4.88822 11.494 1.97
    endloop
  endfacet
  facet normal -0.233479 0.972362 0
    outer loop
      vertex 4.19397 11.3273 4.67
      vertex 4.88822 11.494 4.67
      vertex 4.88822 11.494 1.97
    endloop
  endfacet
  facet normal -0.233439 -0.972371 -0
    outer loop
      vertex 4.19397 2.67269 1.97
      vertex 4.88822 2.50602 1.97
      vertex 4.88822 2.50602 4.67
    endloop
  endfacet
  facet normal -0.233439 -0.972371 0
    outer loop
      vertex 4.19397 2.67269 1.97
      vertex 4.88822 2.50602 4.67
      vertex 4.19397 2.67269 4.67
    endloop
  endfacet
  facet normal 0.707107 0.707107 0
    outer loop
      vertex 4.30557 6.05954 0
      vertex 4.30557 6.05954 1.97
      vertex 4.65954 5.70557 1.97
    endloop
  endfacet
  facet normal 0.707107 0.707107 0
    outer loop
      vertex 4.30557 6.05954 0
      vertex 4.65954 5.70557 1.97
      vertex 4.65954 5.70557 0
    endloop
  endfacet
  facet normal 0.707107 -0.707107 0
    outer loop
      vertex 4.30557 7.94046 0
      vertex 4.65954 8.29443 0
      vertex 4.30557 7.94046 1.97
    endloop
  endfacet
  facet normal 0.707107 -0.707107 0
    outer loop
      vertex 4.30557 7.94046 1.97
      vertex 4.65954 8.29443 0
      vertex 4.65954 8.29443 1.97
    endloop
  endfacet
  facet normal 0.453985 0.891009 0
    outer loop
      vertex 4.65954 5.70557 0
      vertex 4.65954 5.70557 1.97
      vertex 5.10557 5.47831 0
    endloop
  endfacet
  facet normal 0.453985 0.891009 -0
    outer loop
      vertex 4.65954 5.70557 1.97
      vertex 5.10557 5.47831 1.97
      vertex 5.10557 5.47831 0
    endloop
  endfacet
  facet normal 0.453985 -0.891009 0
    outer loop
      vertex 4.65954 8.29443 0
      vertex 5.10557 8.52169 0
      vertex 5.10557 8.52169 1.97
    endloop
  endfacet
  facet normal 0.453985 -0.891009 0
    outer loop
      vertex 4.65954 8.29443 0
      vertex 5.10557 8.52169 1.97
      vertex 4.65954 8.29443 1.97
    endloop
  endfacet
  facet normal -0.0784336 0.996919 0
    outer loop
      vertex 4.88822 11.494 1.97
      vertex 4.88822 11.494 4.67
      vertex 5.6 11.55 1.97
    endloop
  endfacet
  facet normal -0.0784336 0.996919 0
    outer loop
      vertex 4.88822 11.494 4.67
      vertex 5.6 11.55 4.67
      vertex 5.6 11.55 1.97
    endloop
  endfacet
  facet normal -0.0784615 -0.996917 -0
    outer loop
      vertex 4.88822 2.50602 1.97
      vertex 5.6 2.45 1.97
      vertex 5.6 2.45 4.67
    endloop
  endfacet
  facet normal -0.0784615 -0.996917 0
    outer loop
      vertex 4.88822 2.50602 1.97
      vertex 5.6 2.45 4.67
      vertex 4.88822 2.50602 4.67
    endloop
  endfacet
  facet normal 0.156434 0.987688 0
    outer loop
      vertex 5.10557 5.47831 0
      vertex 5.10557 5.47831 1.97
      vertex 5.6 5.4 0
    endloop
  endfacet
  facet normal 0.156434 0.987688 -0
    outer loop
      vertex 5.10557 5.47831 1.97
      vertex 5.6 5.4 1.97
      vertex 5.6 5.4 0
    endloop
  endfacet
  facet normal 0.156434 -0.987688 0
    outer loop
      vertex 5.10557 8.52169 0
      vertex 5.6 8.6 0
      vertex 5.6 8.6 1.97
    endloop
  endfacet
  facet normal 0.156434 -0.987688 0
    outer loop
      vertex 5.10557 8.52169 0
      vertex 5.6 8.6 1.97
      vertex 5.10557 8.52169 1.97
    endloop
  endfacet
  facet normal 0.0784336 0.996919 0
    outer loop
      vertex 5.6 11.55 1.97
      vertex 5.6 11.55 4.67
      vertex 6.31178 11.494 1.97
    endloop
  endfacet
  facet normal 0.0784336 0.996919 -0
    outer loop
      vertex 5.6 11.55 4.67
      vertex 6.31178 11.494 4.67
      vertex 6.31178 11.494 1.97
    endloop
  endfacet
  facet normal 0 0 1
    outer loop
      vertex 5.6 11.55 4.67
      vertex 7.25 9.85788 4.67
      vertex 6.31178 11.494 4.67
    endloop
  endfacet
  facet normal 0.0784615 -0.996917 0
    outer loop
      vertex 5.6 2.45 1.97
      vertex 6.31178 2.50602 1.97
      vertex 6.31178 2.50602 4.67
    endloop
  endfacet
  facet normal 0.0784615 -0.996917 0
    outer loop
      vertex 5.6 2.45 1.97
      vertex 6.31178 2.50602 4.67
      vertex 5.6 2.45 4.67
    endloop
  endfacet
  facet normal 0 0 1
    outer loop
      vertex 5.6 2.45 4.67
      vertex 6.31178 2.50602 4.67
      vertex 7.25 4.14212 4.67
    endloop
  endfacet
  facet normal -0.156434 0.987688 0
    outer loop
      vertex 5.6 5.4 0
      vertex 5.6 5.4 1.97
      vertex 6.09443 5.47831 0
    endloop
  endfacet
  facet normal -0.156434 0.987688 0
    outer loop
      vertex 5.6 5.4 1.97
      vertex 6.09443 5.47831 1.97
      vertex 6.09443 5.47831 0
    endloop
  endfacet
  facet normal -0 0 1
    outer loop
      vertex 5.6 5.4 1.97
      vertex 7.25 4.14212 1.97
      vertex 6.09443 5.47831 1.97
    endloop
  endfacet
  facet normal -0.156434 -0.987688 -0
    outer loop
      vertex 5.6 8.6 0
      vertex 6.09443 8.52169 0
      vertex 6.09443 8.52169 1.97
    endloop
  endfacet
  facet normal -0.156434 -0.987688 0
    outer loop
      vertex 5.6 8.6 0
      vertex 6.09443 8.52169 1.97
      vertex 5.6 8.6 1.97
    endloop
  endfacet
  facet normal 0 0 1
    outer loop
      vertex 5.6 8.6 1.97
      vertex 6.09443 8.52169 1.97
      vertex 7.25 9.85788 1.97
    endloop
  endfacet
  facet normal 0 0 -1
    outer loop
      vertex 6.09443 5.47831 0
      vertex 18.8245 5.70557 0
      vertex 19.2706 5.47831 0
    endloop
  endfacet
  facet normal -0.453985 0.891009 0
    outer loop
      vertex 6.09443 5.47831 0
      vertex 6.09443 5.47831 1.97
      vertex 6.54046 5.70557 0
    endloop
  endfacet
  facet normal -0 0 -1
    outer loop
      vertex 6.09443 5.47831 0
      vertex 6.54046 5.70557 0
      vertex 18.8245 5.70557 0
    endloop
  endfacet
  facet normal -0.453985 0.891009 0
    outer loop
      vertex 6.09443 5.47831 1.97
      vertex 6.54046 5.70557 1.97
      vertex 6.54046 5.70557 0
    endloop
  endfacet
  facet normal -0 0 1
    outer loop
      vertex 6.09443 5.47831 1.97
      vertex 7.25 4.14212 1.97
      vertex 6.54046 5.70557 1.97
    endloop
  endfacet
  facet normal 0 0 -1
    outer loop
      vertex 6.09443 8.52169 0
      vertex 18.8245 8.29443 0
      vertex 6.54046 8.29443 0
    endloop
  endfacet
  facet normal 0 0 -1
    outer loop
      vertex 6.09443 8.52169 0
      vertex 19.2706 8.52169 0
      vertex 18.8245 8.29443 0
    endloop
  endfacet
  facet normal -0.453985 -0.891009 -0
    outer loop
      vertex 6.09443 8.52169 0
      vertex 6.54046 8.29443 0
      vertex 6.54046 8.29443 1.97
    endloop
  endfacet
  facet normal -0.453985 -0.891009 0
    outer loop
      vertex 6.09443 8.52169 0
      vertex 6.54046 8.29443 1.97
      vertex 6.09443 8.52169 1.97
    endloop
  endfacet
  facet normal 0 0 1
    outer loop
      vertex 6.09443 8.52169 1.97
      vertex 6.54046 8.29443 1.97
      vertex 7.25 9.85788 1.97
    endloop
  endfacet
  facet normal 0.233479 0.972362 0
    outer loop
      vertex 6.31178 11.494 1.97
      vertex 6.31178 11.494 4.67
      vertex 7.00603 11.3273 1.97
    endloop
  endfacet
  facet normal 0 0 1
    outer loop
      vertex 6.31178 11.494 1.97
      vertex 7.00603 11.3273 1.97
      vertex 18.359 11.3273 1.97
    endloop
  endfacet
  facet normal 0.233479 0.972362 -0
    outer loop
      vertex 6.31178 11.494 4.67
      vertex 7.00603 11.3273 4.67
      vertex 7.00603 11.3273 1.97
    endloop
  endfacet
  facet normal 0 0 1
    outer loop
      vertex 6.31178 11.494 4.67
      vertex 7.25 9.85788 4.67
      vertex 7.00603 11.3273 4.67
    endloop
  endfacet
  facet normal 0.233439 -0.972371 0
    outer loop
      vertex 6.31178 2.50602 1.97
      vertex 7.00603 2.67269 1.97
      vertex 7.00603 2.67269 4.67
    endloop
  endfacet
  facet normal 0.233439 -0.972371 0
    outer loop
      vertex 6.31178 2.50602 1.97
      vertex 7.00603 2.67269 4.67
      vertex 6.31178 2.50602 4.67
    endloop
  endfacet
  facet normal 0 0 1
    outer loop
      vertex 6.31178 2.50602 4.67
      vertex 7.00603 2.67269 4.67
      vertex 7.25 4.14212 4.67
    endloop
  endfacet
  facet normal -0.707107 0.707107 0
    outer loop
      vertex 6.54046 5.70557 0
      vertex 6.54046 5.70557 1.97
      vertex 6.89443 6.05954 1.97
    endloop
  endfacet
  facet normal 0 0 -1
    outer loop
      vertex 6.54046 5.70557 0
      vertex 6.89443 6.05954 0
      vertex 18.8245 5.70557 0
    endloop
  endfacet
  facet normal -0.707107 0.707107 0
    outer loop
      vertex 6.54046 5.70557 0
      vertex 6.89443 6.05954 1.97
      vertex 6.89443 6.05954 0
    endloop
  endfacet
  facet normal -0 0 1
    outer loop
      vertex 6.54046 5.70557 1.97
      vertex 7.25 4.14212 1.97
      vertex 6.89443 6.05954 1.97
    endloop
  endfacet
  facet normal 0 0 -1
    outer loop
      vertex 6.54046 8.29443 0
      vertex 18.8245 8.29443 0
      vertex 6.89443 7.94046 0
    endloop
  endfacet
  facet normal -0.707107 -0.707107 0
    outer loop
      vertex 6.54046 8.29443 0
      vertex 6.89443 7.94046 0
      vertex 6.54046 8.29443 1.97
    endloop
  endfacet
  facet normal -0.707107 -0.707107 0
    outer loop
      vertex 6.54046 8.29443 1.97
      vertex 6.89443 7.94046 0
      vertex 6.89443 7.94046 1.97
    endloop
  endfacet
  facet normal 0 0 1
    outer loop
      vertex 6.54046 8.29443 1.97
      vertex 6.89443 7.94046 1.97
      vertex 7.25 9.85788 1.97
    endloop
  endfacet
  facet normal 0 0 -1
    outer loop
      vertex 6.89443 6.05954 0
      vertex 18.4706 6.05954 0
      vertex 18.8245 5.70557 0
    endloop
  endfacet
  facet normal -0.891009 0.453985 0
    outer loop
      vertex 6.89443 6.05954 0
      vertex 6.89443 6.05954 1.97
      vertex 7.12169 6.50557 1.97
    endloop
  endfacet
  facet normal 0 0 -1
    outer loop
      vertex 6.89443 6.05954 0
      vertex 7.12169 6.50557 0
      vertex 18.4706 6.05954 0
    endloop
  endfacet
  facet normal -0.891009 0.453985 0
    outer loop
      vertex 6.89443 6.05954 0
      vertex 7.12169 6.50557 1.97
      vertex 7.12169 6.50557 0
    endloop
  endfacet
  facet normal 0 0 1
    outer loop
      vertex 6.89443 6.05954 1.97
      vertex 7.25 4.14212 1.97
      vertex 8.9 7 1.97
    endloop
  endfacet
  facet normal 0 0 1
    outer loop
      vertex 6.89443 6.05954 1.97
      vertex 8.9 7 1.97
      vertex 7.12169 6.50557 1.97
    endloop
  endfacet
  facet normal 0 0 -1
    outer loop
      vertex 6.89443 7.94046 0
      vertex 18.4706 7.94046 0
      vertex 7.12169 7.49443 0
    endloop
  endfacet
  facet normal 0 0 -1
    outer loop
      vertex 6.89443 7.94046 0
      vertex 18.8245 8.29443 0
      vertex 18.4706 7.94046 0
    endloop
  endfacet
  facet normal -0.891009 -0.453985 0
    outer loop
      vertex 6.89443 7.94046 0
      vertex 7.12169 7.49443 0
      vertex 6.89443 7.94046 1.97
    endloop
  endfacet
  facet normal -0.891009 -0.453985 0
    outer loop
      vertex 6.89443 7.94046 1.97
      vertex 7.12169 7.49443 0
      vertex 7.12169 7.49443 1.97
    endloop
  endfacet
  facet normal 0 0 1
    outer loop
      vertex 6.89443 7.94046 1.97
      vertex 7.12169 7.49443 1.97
      vertex 8.9 7 1.97
    endloop
  endfacet
  facet normal -0 0 1
    outer loop
      vertex 6.89443 7.94046 1.97
      vertex 8.9 7 1.97
      vertex 7.25 9.85788 1.97
    endloop
  endfacet
  facet normal 0.38265 0.923893 0
    outer loop
      vertex 7.00603 11.3273 1.97
      vertex 7.00603 11.3273 4.67
      vertex 7.66566 11.0541 1.97
    endloop
  endfacet
  facet normal 0 0 1
    outer loop
      vertex 7.00603 11.3273 1.97
      vertex 7.66566 11.0541 1.97
      vertex 18.359 11.3273 1.97
    endloop
  endfacet
  facet normal 0 0 1
    outer loop
      vertex 7.00603 11.3273 4.67
      vertex 7.25 9.85788 4.67
      vertex 7.66566 11.0541 4.67
    endloop
  endfacet
  facet normal 0.38265 0.923893 -0
    outer loop
      vertex 7.00603 11.3273 4.67
      vertex 7.66566 11.0541 4.67
      vertex 7.66566 11.0541 1.97
    endloop
  endfacet
  facet normal 0 0 1
    outer loop
      vertex 7.00603 2.67269 1.97
      vertex 18.359 2.67269 1.97
      vertex 7.66566 2.94592 1.97
    endloop
  endfacet
  facet normal 0.382686 -0.923878 0
    outer loop
      vertex 7.00603 2.67269 1.97
      vertex 7.66566 2.94592 1.97
      vertex 7.66566 2.94592 4.67
    endloop
  endfacet
  facet normal 0.382686 -0.923878 0
    outer loop
      vertex 7.00603 2.67269 1.97
      vertex 7.66566 2.94592 4.67
      vertex 7.00603 2.67269 4.67
    endloop
  endfacet
  facet normal 0 0 1
    outer loop
      vertex 7.00603 2.67269 4.67
      vertex 7.66566 2.94592 4.67
      vertex 7.25 4.14212 4.67
    endloop
  endfacet
  facet normal 0 0 -1
    outer loop
      vertex 7.12169 6.50557 0
      vertex 18.2433 6.50557 0
      vertex 18.4706 6.05954 0
    endloop
  endfacet
  facet normal -0.987688 0.156434 0
    outer loop
      vertex 7.12169 6.50557 0
      vertex 7.12169 6.50557 1.97
      vertex 7.2 7 1.97
    endloop
  endfacet
  facet normal 0 0 -1
    outer loop
      vertex 7.12169 6.50557 0
      vertex 7.2 7 0
      vertex 18.2433 6.50557 0
    endloop
  endfacet
  facet normal -0.987688 0.156434 0
    outer loop
      vertex 7.12169 6.50557 0
      vertex 7.2 7 1.97
      vertex 7.2 7 0
    endloop
  endfacet
  facet normal 0 0 1
    outer loop
      vertex 7.12169 6.50557 1.97
      vertex 8.9 7 1.97
      vertex 7.2 7 1.97
    endloop
  endfacet
  facet normal 0 0 -1
    outer loop
      vertex 7.12169 7.49443 0
      vertex 18.2433 7.49443 0
      vertex 7.2 7 0
    endloop
  endfacet
  facet normal 0 0 -1
    outer loop
      vertex 7.12169 7.49443 0
      vertex 18.4706 7.94046 0
      vertex 18.2433 7.49443 0
    endloop
  endfacet
  facet normal -0.987688 -0.156434 0
    outer loop
      vertex 7.12169 7.49443 0
      vertex 7.2 7 0
      vertex 7.12169 7.49443 1.97
    endloop
  endfacet
  facet normal -0.987688 -0.156434 0
    outer loop
      vertex 7.12169 7.49443 1.97
      vertex 7.2 7 0
      vertex 7.2 7 1.97
    endloop
  endfacet
  facet normal 0 0 1
    outer loop
      vertex 7.12169 7.49443 1.97
      vertex 7.2 7 1.97
      vertex 8.9 7 1.97
    endloop
  endfacet
  facet normal 0 0 -1
    outer loop
      vertex 7.2 7 0
      vertex 18.165 7 0
      vertex 18.2433 6.50557 0
    endloop
  endfacet
  facet normal 0 0 -1
    outer loop
      vertex 7.2 7 0
      vertex 18.2433 7.49443 0
      vertex 18.165 7 0
    endloop
  endfacet
  facet normal -0.866025 0.500001 0
    outer loop
      vertex 7.25 4.14212 1.97
      vertex 7.25 4.14212 4.67
      vertex 8.9 7 4.67
    endloop
  endfacet
  facet normal -0.866025 0.500001 0
    outer loop
      vertex 7.25 4.14212 1.97
      vertex 8.9 7 4.67
      vertex 8.9 7 1.97
    endloop
  endfacet
  facet normal 0 0 1
    outer loop
      vertex 7.25 4.14212 4.67
      vertex 7.66566 2.94592 4.67
      vertex 8.27442 3.31897 4.67
    endloop
  endfacet
  facet normal 0 0 1
    outer loop
      vertex 7.25 4.14212 4.67
      vertex 8.27442 3.31897 4.67
      vertex 8.81734 3.78266 4.67
    endloop
  endfacet
  facet normal 0 0 1
    outer loop
      vertex 7.25 4.14212 4.67
      vertex 8.81734 3.78266 4.67
      vertex 9.28103 4.32558 4.67
    endloop
  endfacet
  facet normal 0 0 1
    outer loop
      vertex 7.25 4.14212 4.67
      vertex 9.28103 4.32558 4.67
      vertex 9.65408 4.93434 4.67
    endloop
  endfacet
  facet normal 0 0 1
    outer loop
      vertex 7.25 4.14212 4.67
      vertex 9.65408 4.93434 4.67
      vertex 8.9 7 4.67
    endloop
  endfacet
  facet normal -0.866025 -0.500001 0
    outer loop
      vertex 7.25 9.85788 1.97
      vertex 8.9 7 1.97
      vertex 7.25 9.85788 4.67
    endloop
  endfacet
  facet normal 0 0 1
    outer loop
      vertex 7.25 9.85788 4.67
      vertex 8.27442 10.681 4.67
      vertex 7.66566 11.0541 4.67
    endloop
  endfacet
  facet normal 0 0 1
    outer loop
      vertex 7.25 9.85788 4.67
      vertex 8.81734 10.2173 4.67
      vertex 8.27442 10.681 4.67
    endloop
  endfacet
  facet normal -0.866025 -0.500001 0
    outer loop
      vertex 7.25 9.85788 4.67
      vertex 8.9 7 1.97
      vertex 8.9 7 4.67
    endloop
  endfacet
  facet normal 0 0 1
    outer loop
      vertex 7.25 9.85788 4.67
      vertex 8.9 7 4.67
      vertex 9.65408 9.06566 4.67
    endloop
  endfacet
  facet normal -0 0 1
    outer loop
      vertex 7.25 9.85788 4.67
      vertex 9.28103 9.67442 4.67
      vertex 8.81734 10.2173 4.67
    endloop
  endfacet
  facet normal 0 0 1
    outer loop
      vertex 7.25 9.85788 4.67
      vertex 9.65408 9.06566 4.67
      vertex 9.28103 9.67442 4.67
    endloop
  endfacet
  facet normal 0 0 1
    outer loop
      vertex 7.66566 11.0541 1.97
      vertex 17.6993 11.0541 1.97
      vertex 18.359 11.3273 1.97
    endloop
  endfacet
  facet normal 0.522551 0.852608 0
    outer loop
      vertex 7.66566 11.0541 1.97
      vertex 7.66566 11.0541 4.67
      vertex 8.27442 10.681 1.97
    endloop
  endfacet
  facet normal 0 0 1
    outer loop
      vertex 7.66566 11.0541 1.97
      vertex 8.27442 10.681 1.97
      vertex 17.6993 11.0541 1.97
    endloop
  endfacet
  facet normal 0.522551 0.852608 -0
    outer loop
      vertex 7.66566 11.0541 4.67
      vertex 8.27442 10.681 4.67
      vertex 8.27442 10.681 1.97
    endloop
  endfacet
  facet normal 0 0 1
    outer loop
      vertex 7.66566 2.94592 1.97
      vertex 17.6993 2.94592 1.97
      vertex 8.27442 3.31897 1.97
    endloop
  endfacet
  facet normal 0 0 1
    outer loop
      vertex 7.66566 2.94592 1.97
      vertex 18.359 2.67269 1.97
      vertex 17.6993 2.94592 1.97
    endloop
  endfacet
  facet normal 0.5225 -0.852639 0
    outer loop
      vertex 7.66566 2.94592 1.97
      vertex 8.27442 3.31897 1.97
      vertex 8.27442 3.31897 4.67
    endloop
  endfacet
  facet normal 0.5225 -0.852639 0
    outer loop
      vertex 7.66566 2.94592 1.97
      vertex 8.27442 3.31897 4.67
      vertex 7.66566 2.94592 4.67
    endloop
  endfacet
  facet normal 0 0 1
    outer loop
      vertex 8.27442 10.681 1.97
      vertex 17.0906 10.681 1.97
      vertex 17.6993 11.0541 1.97
    endloop
  endfacet
  facet normal 0.64945 0.760404 0
    outer loop
      vertex 8.27442 10.681 1.97
      vertex 8.27442 10.681 4.67
      vertex 8.81734 10.2173 1.97
    endloop
  endfacet
  facet normal 0 0 1
    outer loop
      vertex 8.27442 10.681 1.97
      vertex 8.81734 10.2173 1.97
      vertex 17.0906 10.681 1.97
    endloop
  endfacet
  facet normal 0.64945 0.760404 -0
    outer loop
      vertex 8.27442 10.681 4.67
      vertex 8.81734 10.2173 4.67
      vertex 8.81734 10.2173 1.97
    endloop
  endfacet
  facet normal 0 0 1
    outer loop
      vertex 8.27442 3.31897 1.97
      vertex 17.0906 3.31897 1.97
      vertex 8.81734 3.78266 1.97
    endloop
  endfacet
  facet normal 0 0 1
    outer loop
      vertex 8.27442 3.31897 1.97
      vertex 17.6993 2.94592 1.97
      vertex 17.0906 3.31897 1.97
    endloop
  endfacet
  facet normal 0.649442 -0.760411 0
    outer loop
      vertex 8.27442 3.31897 1.97
      vertex 8.81734 3.78266 1.97
      vertex 8.81734 3.78266 4.67
    endloop
  endfacet
  facet normal 0.649442 -0.760411 0
    outer loop
      vertex 8.27442 3.31897 1.97
      vertex 8.81734 3.78266 4.67
      vertex 8.27442 3.31897 4.67
    endloop
  endfacet
  facet normal 0 0 1
    outer loop
      vertex 8.81734 10.2173 1.97
      vertex 16.5477 10.2173 1.97
      vertex 17.0906 10.681 1.97
    endloop
  endfacet
  facet normal 0.760388 0.64947 0
    outer loop
      vertex 8.81734 10.2173 1.97
      vertex 8.81734 10.2173 4.67
      vertex 9.28103 9.67442 4.67
    endloop
  endfacet
  facet normal 0 0 1
    outer loop
      vertex 8.81734 10.2173 1.97
      vertex 9.28103 9.67442 1.97
      vertex 16.5477 10.2173 1.97
    endloop
  endfacet
  facet normal 0.760388 0.64947 0
    outer loop
      vertex 8.81734 10.2173 1.97
      vertex 9.28103 9.67442 4.67
      vertex 9.28103 9.67442 1.97
    endloop
  endfacet
  facet normal 0 0 1
    outer loop
      vertex 8.81734 3.78266 1.97
      vertex 16.5477 3.78266 1.97
      vertex 9.28103 4.32558 1.97
    endloop
  endfacet
  facet normal 0 0 1
    outer loop
      vertex 8.81734 3.78266 1.97
      vertex 17.0906 3.31897 1.97
      vertex 16.5477 3.78266 1.97
    endloop
  endfacet
  facet normal 0.760411 -0.649442 0
    outer loop
      vertex 8.81734 3.78266 1.97
      vertex 9.28103 4.32558 1.97
      vertex 8.81734 3.78266 4.67
    endloop
  endfacet
  facet normal 0.760411 -0.649442 0
    outer loop
      vertex 8.81734 3.78266 4.67
      vertex 9.28103 4.32558 1.97
      vertex 9.28103 4.32558 4.67
    endloop
  endfacet
  facet normal 0 0 1
    outer loop
      vertex 8.9 7 4.67
      vertex 10.094 6.28822 4.67
      vertex 10.15 7 4.67
    endloop
  endfacet
  facet normal 0 0 1
    outer loop
      vertex 8.9 7 4.67
      vertex 10.094 7.71178 4.67
      vertex 9.92731 8.40603 4.67
    endloop
  endfacet
  facet normal 0 0 1
    outer loop
      vertex 8.9 7 4.67
      vertex 10.15 7 4.67
      vertex 10.094 7.71178 4.67
    endloop
  endfacet
  facet normal 0 0 1
    outer loop
      vertex 8.9 7 4.67
      vertex 9.65408 4.93434 4.67
      vertex 9.92731 5.59397 4.67
    endloop
  endfacet
  facet normal 0 0 1
    outer loop
      vertex 8.9 7 4.67
      vertex 9.92731 5.59397 4.67
      vertex 10.094 6.28822 4.67
    endloop
  endfacet
  facet normal 0 0 1
    outer loop
      vertex 8.9 7 4.67
      vertex 9.92731 8.40603 4.67
      vertex 9.65408 9.06566 4.67
    endloop
  endfacet
  facet normal 0 0 1
    outer loop
      vertex 9.28103 4.32558 1.97
      vertex 16.084 4.32558 1.97
      vertex 9.65408 4.93434 1.97
    endloop
  endfacet
  facet normal 0 0 1
    outer loop
      vertex 9.28103 4.32558 1.97
      vertex 16.5477 3.78266 1.97
      vertex 16.084 4.32558 1.97
    endloop
  endfacet
  facet normal 0.852639 -0.5225 0
    outer loop
      vertex 9.28103 4.32558 1.97
      vertex 9.65408 4.93434 1.97
      vertex 9.28103 4.32558 4.67
    endloop
  endfacet
  facet normal 0.852639 -0.5225 0
    outer loop
      vertex 9.28103 4.32558 4.67
      vertex 9.65408 4.93434 1.97
      vertex 9.65408 4.93434 4.67
    endloop
  endfacet
  facet normal 0 0 1
    outer loop
      vertex 9.28103 9.67442 1.97
      vertex 16.084 9.67442 1.97
      vertex 16.5477 10.2173 1.97
    endloop
  endfacet
  facet normal 0.852639 0.5225 0
    outer loop
      vertex 9.28103 9.67442 1.97
      vertex 9.28103 9.67442 4.67
      vertex 9.65408 9.06566 4.67
    endloop
  endfacet
  facet normal 0 0 1
    outer loop
      vertex 9.28103 9.67442 1.97
      vertex 9.65408 9.06566 1.97
      vertex 16.084 9.67442 1.97
    endloop
  endfacet
  facet normal 0.852639 0.5225 0
    outer loop
      vertex 9.28103 9.67442 1.97
      vertex 9.65408 9.06566 4.67
      vertex 9.65408 9.06566 1.97
    endloop
  endfacet
  facet normal 0 0 1
    outer loop
      vertex 9.65408 4.93434 1.97
      vertex 15.7109 4.93434 1.97
      vertex 9.92731 5.59397 1.97
    endloop
  endfacet
  facet normal 0 0 1
    outer loop
      vertex 9.65408 4.93434 1.97
      vertex 16.084 4.32558 1.97
      vertex 15.7109 4.93434 1.97
    endloop
  endfacet
  facet normal 0.923878 -0.382686 0
    outer loop
      vertex 9.65408 4.93434 1.97
      vertex 9.92731 5.59397 1.97
      vertex 9.65408 4.93434 4.67
    endloop
  endfacet
  facet normal 0.923878 -0.382686 0
    outer loop
      vertex 9.65408 4.93434 4.67
      vertex 9.92731 5.59397 1.97
      vertex 9.92731 5.59397 4.67
    endloop
  endfacet
  facet normal 0 0 1
    outer loop
      vertex 9.65408 9.06566 1.97
      vertex 15.7109 9.06566 1.97
      vertex 16.084 9.67442 1.97
    endloop
  endfacet
  facet normal 0.923878 0.382686 0
    outer loop
      vertex 9.65408 9.06566 1.97
      vertex 9.65408 9.06566 4.67
      vertex 9.92731 8.40603 4.67
    endloop
  endfacet
  facet normal 0 0 1
    outer loop
      vertex 9.65408 9.06566 1.97
      vertex 9.92731 8.40603 1.97
      vertex 15.7109 9.06566 1.97
    endloop
  endfacet
  facet normal 0.923878 0.382686 0
    outer loop
      vertex 9.65408 9.06566 1.97
      vertex 9.92731 8.40603 4.67
      vertex 9.92731 8.40603 1.97
    endloop
  endfacet
  facet normal 0.972365 -0.233466 0
    outer loop
      vertex 9.92731 5.59397 1.97
      vertex 10.094 6.28822 1.97
      vertex 9.92731 5.59397 4.67
    endloop
  endfacet
  facet normal 0 0 1
    outer loop
      vertex 9.92731 5.59397 1.97
      vertex 15.4377 5.59397 1.97
      vertex 10.094 6.28822 1.97
    endloop
  endfacet
  facet normal 0 0 1
    outer loop
      vertex 9.92731 5.59397 1.97
      vertex 15.7109 4.93434 1.97
      vertex 15.4377 5.59397 1.97
    endloop
  endfacet
  facet normal 0.972365 -0.233466 0
    outer loop
      vertex 9.92731 5.59397 4.67
      vertex 10.094 6.28822 1.97
      vertex 10.094 6.28822 4.67
    endloop
  endfacet
  facet normal 0 0 1
    outer loop
      vertex 9.92731 8.40603 1.97
      vertex 10.094 7.71178 1.97
      vertex 15.4377 8.40603 1.97
    endloop
  endfacet
  facet normal 0.972365 0.233466 0
    outer loop
      vertex 9.92731 8.40603 1.97
      vertex 10.094 7.71178 4.67
      vertex 10.094 7.71178 1.97
    endloop
  endfacet
  facet normal 0 0 1
    outer loop
      vertex 9.92731 8.40603 1.97
      vertex 15.4377 8.40603 1.97
      vertex 15.7109 9.06566 1.97
    endloop
  endfacet
  facet normal 0.972365 0.233466 0
    outer loop
      vertex 9.92731 8.40603 1.97
      vertex 9.92731 8.40603 4.67
      vertex 10.094 7.71178 4.67
    endloop
  endfacet
endsolid model
