solid model
  facet normal -1 0 0
    outer loop
      vertex 0 0 0
      vertex 0 0 2.07
      vertex 0 14 0
    endloop
  endfacet
  facet normal 0 0 -1
    outer loop
      vertex 0 0 0
      vertex 0 14 0
      vertex 4 7 0
    endloop
  endfacet
  facet normal -0 0 -1
    outer loop
      vertex 0 0 0
      vertex 18.5772 6.19098 0
      vertex 18.856 6.04894 0
    endloop
  endfacet
  facet normal 0 0 -1
    outer loop
      vertex 0 0 0
      vertex 18.856 6.04894 0
      vertex 26.15 0 0
    endloop
  endfacet
  facet normal 0 -1 0
    outer loop
      vertex 0 0 0
      vertex 25 0 2.07
      vertex 0 0 2.07
    endloop
  endfacet
  facet normal 0 -1 -0
    outer loop
      vertex 0 0 0
      vertex 26.15 0 0
      vertex 25 0 2.07
    endloop
  endfacet
  facet normal -0 0 -1
    outer loop
      vertex 0 0 0
      vertex 4 7 0
      vertex 4.04894 6.69098 0
    endloop
  endfacet
  facet normal -0 0 -1
    outer loop
      vertex 0 0 0
      vertex 4.04894 6.69098 0
      vertex 4.19098 6.41221 0
    endloop
  endfacet
  facet normal -0 0 -1
    outer loop
      vertex 0 0 0
      vertex 4.19098 6.41221 0
      vertex 4.41221 6.19098 0
    endloop
  endfacet
  facet normal -0 0 -1
    outer loop
      vertex 0 0 0
      vertex 4.41221 6.19098 0
      vertex 4.69098 6.04894 0
    endloop
  endfacet
  facet normal -0 0 -1
    outer loop
      vertex 0 0 0
      vertex 4.69098 6.04894 0
      vertex 5 6 0
    endloop
  endfacet
  facet normal 0 0 -1
    outer loop
      vertex 0 0 0
      vertex 5 6 0
      vertex 5.30902 6.04894 0
    endloop
  endfacet
  facet normal 0 0 -1
    outer loop
      vertex 0 0 0
      vertex 5.30902 6.04894 0
      vertex 5.58778 6.19098 0
    endloop
  endfacet
  facet normal -0 0 -1
    outer loop
      vertex 0 0 0
      vertex 5.58778 6.19098 0
      vertex 18.5772 6.19098 0
    endloop
  endfacet
  facet normal -1 0 0
    outer loop
      vertex 0 0 2.07
      vertex 0 14 2.9
      vertex 0 14 0
    endloop
  endfacet
  facet normal 0 -0.0591823 0.998247
    outer loop
      vertex 0 0 2.07
      vertex 18.5772 6.19098 2.43704
      vertex 5.58778 6.19098 2.43704
    endloop
  endfacet
  facet normal -1.44314e-06 -0.059178 0.998247
    outer loop
      vertex 0 0 2.07
      vertex 18.856 6.04894 2.42862
      vertex 18.5772 6.19098 2.43704
    endloop
  endfacet
  facet normal 0 -0.0591825 0.998247
    outer loop
      vertex 0 0 2.07
      vertex 25 0 2.07
      vertex 18.856 6.04894 2.42862
    endloop
  endfacet
  facet normal 0 -0.0591818 0.998247
    outer loop
      vertex 0 0 2.07
      vertex 4 7 2.485
      vertex 0 14 2.9
    endloop
  endfacet
  facet normal -2.08672e-06 -0.0591806 0.998247
    outer loop
      vertex 0 0 2.07
      vertex 4.04894 6.69098 2.46668
      vertex 4 7 2.485
    endloop
  endfacet
  facet normal 9.32214e-06 -0.0591875 0.998247
    outer loop
      vertex 0 0 2.07
      vertex 4.19098 6.41221 2.45015
      vertex 4.04894 6.69098 2.46668
    endloop
  endfacet
  facet normal -1.55377e-05 -0.0591713 0.998248
    outer loop
      vertex 0 0 2.07
      vertex 4.41221 6.19098 2.43704
      vertex 4.19098 6.41221 2.45015
    endloop
  endfacet
  facet normal -2.67747e-06 -0.0591804 0.998247
    outer loop
      vertex 0 0 2.07
      vertex 4.69098 6.04894 2.42862
      vertex 4.41221 6.19098 2.43704
    endloop
  endfacet
  facet normal 2.45196e-05 -0.0592015 0.998246
    outer loop
      vertex 0 0 2.07
      vertex 5 6 2.42571
      vertex 4.69098 6.04894 2.42862
    endloop
  endfacet
  facet normal -3.19757e-05 -0.0591545 0.998249
    outer loop
      vertex 0 0 2.07
      vertex 5.30902 6.04894 2.42862
      vertex 5 6 2.42571
    endloop
  endfacet
  facet normal 6.75772e-06 -0.0591884 0.998247
    outer loop
      vertex 0 0 2.07
      vertex 5.58778 6.19098 2.43704
      vertex 5.30902 6.04894 2.42862
    endloop
  endfacet
  facet normal 0 1 0
    outer loop
      vertex 0 14 0
      vertex 0 14 2.9
      vertex 27.4 14 2.9
    endloop
  endfacet
  facet normal 0 0 -1
    outer loop
      vertex 0 14 0
      vertex 18.5772 7.80902 0
      vertex 5.58778 7.80902 0
    endloop
  endfacet
  facet normal 0 0 -1
    outer loop
      vertex 0 14 0
      vertex 18.856 7.95106 0
      vertex 18.5772 7.80902 0
    endloop
  endfacet
  facet normal 0 1 0
    outer loop
      vertex 0 14 0
      vertex 27.4 14 2.9
      vertex 28.8 14 0
    endloop
  endfacet
  facet normal 0 0 -1
    outer loop
      vertex 0 14 0
      vertex 28.8 14 0
      vertex 18.856 7.95106 0
    endloop
  endfacet
  facet normal 0 0 -1
    outer loop
      vertex 0 14 0
      vertex 4.04894 7.30902 0
      vertex 4 7 0
    endloop
  endfacet
  facet normal 0 0 -1
    outer loop
      vertex 0 14 0
      vertex 4.19098 7.58778 0
      vertex 4.04894 7.30902 0
    endloop
  endfacet
  facet normal 0 0 -1
    outer loop
      vertex 0 14 0
      vertex 4.41221 7.80902 0
      vertex 4.19098 7.58778 0
    endloop
  endfacet
  facet normal 0 0 -1
    outer loop
      vertex 0 14 0
      vertex 4.69098 7.95106 0
      vertex 4.41221 7.80902 0
    endloop
  endfacet
  facet normal 0 0 -1
    outer loop
      vertex 0 14 0
      vertex 5 8 0
      vertex 4.69098 7.95106 0
    endloop
  endfacet
  facet normal 0 0 -1
    outer loop
      vertex 0 14 0
      vertex 5.30902 7.95106 0
      vertex 5 8 0
    endloop
  endfacet
  facet normal 0 0 -1
    outer loop
      vertex 0 14 0
      vertex 5.58778 7.80902 0
      vertex 5.30902 7.95106 0
    endloop
  endfacet
  facet normal 1.44314e-06 -0.059178 0.998247
    outer loop
      vertex 0 14 2.9
      vertex 18.5772 7.80902 2.53296
      vertex 18.856 7.95106 2.54138
    endloop
  endfacet
  facet normal 0 -0.0591825 0.998247
    outer loop
      vertex 0 14 2.9
      vertex 18.856 7.95106 2.54138
      vertex 27.4 14 2.9
    endloop
  endfacet
  facet normal 2.08672e-06 -0.0591806 0.998247
    outer loop
      vertex 0 14 2.9
      vertex 4 7 2.485
      vertex 4.04894 7.30902 2.50332
    endloop
  endfacet
  facet normal -1.12269e-05 -0.0591886 0.998247
    outer loop
      vertex 0 14 2.9
      vertex 4.04894 7.30902 2.50332
      vertex 4.19098 7.58778 2.51985
    endloop
  endfacet
  facet normal 1.70993e-05 -0.0591702 0.998248
    outer loop
      vertex 0 14 2.9
      vertex 4.19098 7.58778 2.51985
      vertex 4.41221 7.80902 2.53296
    endloop
  endfacet
  facet normal 2.67747e-06 -0.0591804 0.998247
    outer loop
      vertex 0 14 2.9
      vertex 4.41221 7.80902 2.53296
      vertex 4.69098 7.95106 2.54138
    endloop
  endfacet
  facet normal -2.45196e-05 -0.0592015 0.998246
    outer loop
      vertex 0 14 2.9
      vertex 4.69098 7.95106 2.54138
      vertex 5 8 2.54429
    endloop
  endfacet
  facet normal 3.19757e-05 -0.0591545 0.998249
    outer loop
      vertex 0 14 2.9
      vertex 5 8 2.54429
      vertex 5.30902 7.95106 2.54138
    endloop
  endfacet
  facet normal -6.75772e-06 -0.0591884 0.998247
    outer loop
      vertex 0 14 2.9
      vertex 5.30902 7.95106 2.54138
      vertex 5.58778 7.80902 2.53296
    endloop
  endfacet
  facet normal 0 -0.0591823 0.998247
    outer loop
      vertex 0 14 2.9
      vertex 5.58778 7.80902 2.53296
      vertex 18.5772 7.80902 2.53296
    endloop
  endfacet
  facet normal 0.98771 0.156297 0
    outer loop
      vertex 18.165 7 0
      vertex 18.165 7 2.485
      vertex 18.2139 6.69098 2.46668
    endloop
  endfacet
  facet normal 0.98771 0.156297 0
    outer loop
      vertex 18.165 7 0
      vertex 18.2139 6.69098 2.46668
      vertex 18.2139 6.69098 0
    endloop
  endfacet
  facet normal 0.98771 -0.156297 0
    outer loop
      vertex 18.165 7 0
      vertex 18.2139 7.30902 0
      vertex 18.165 7 2.485
    endloop
  endfacet
  facet normal 0.98771 -0.156297 0
    outer loop
      vertex 18.165 7 2.485
      vertex 18.2139 7.30902 0
      vertex 18.2139 7.30902 2.50332
    endloop
  endfacet
  facet normal 0.890929 0.454142 0
    outer loop
      vertex 18.2139 6.69098 0
      vertex 18.2139 6.69098 2.46668
      vertex 18.356 6.41221 2.45015
    endloop
  endfacet
  facet normal 0.890929 0.454142 0
    outer loop
      vertex 18.2139 6.69098 0
      vertex 18.356 6.41221 2.45015
      vertex 18.356 6.41221 0
    endloop
  endfacet
  facet normal 0.890923 -0.454155 0
    outer loop
      vertex 18.2139 7.30902 0
      vertex 18.356 7.58778 0
      vertex 18.2139 7.30902 2.50332
    endloop
  endfacet
  facet normal 0.890923 -0.454155 0
    outer loop
      vertex 18.2139 7.30902 2.50332
      vertex 18.356 7.58778 0
      vertex 18.356 7.58778 2.51985
    endloop
  endfacet
  facet normal 0.707155 0.707059 0
    outer loop
      vertex 18.356 6.41221 0
      vertex 18.356 6.41221 2.45015
      vertex 18.5772 6.19098 2.43704
    endloop
  endfacet
  facet normal 0.707155 0.707059 0
    outer loop
      vertex 18.356 6.41221 0
      vertex 18.5772 6.19098 2.43704
      vertex 18.5772 6.19098 0
    endloop
  endfacet
  facet normal 0.707171 -0.707043 0
    outer loop
      vertex 18.356 7.58778 0
      vertex 18.5772 7.80902 0
      vertex 18.356 7.58778 2.51985
    endloop
  endfacet
  facet normal 0.707171 -0.707043 0
    outer loop
      vertex 18.356 7.58778 2.51985
      vertex 18.5772 7.80902 0
      vertex 18.5772 7.80902 2.53296
    endloop
  endfacet
  facet normal 0.453951 0.891027 0
    outer loop
      vertex 18.5772 6.19098 0
      vertex 18.5772 6.19098 2.43704
      vertex 18.856 6.04894 2.42862
    endloop
  endfacet
  facet normal 0.453951 0.891027 0
    outer loop
      vertex 18.5772 6.19098 0
      vertex 18.856 6.04894 2.42862
      vertex 18.856 6.04894 0
    endloop
  endfacet
  facet normal 0.453951 -0.891027 0
    outer loop
      vertex 18.5772 7.80902 0
      vertex 18.856 7.95106 0
      vertex 18.5772 7.80902 2.53296
    endloop
  endfacet
  facet normal 0.453951 -0.891027 0
    outer loop
      vertex 18.5772 7.80902 2.53296
      vertex 18.856 7.95106 0
      vertex 18.856 7.95106 2.54138
    endloop
  endfacet
  facet normal 0.156432 0.987689 0
    outer loop
      vertex 18.856 6.04894 0
      vertex 18.856 6.04894 2.42862
      vertex 19.165 6 0
    endloop
  endfacet
  facet normal 0 0 -1
    outer loop
      vertex 18.856 6.04894 0
      vertex 19.165 6 0
      vertex 26.15 0 0
    endloop
  endfacet
  facet normal 0.156432 0.987689 -0
    outer loop
      vertex 18.856 6.04894 2.42862
      vertex 19.165 6 2.42571
      vertex 19.165 6 0
    endloop
  endfacet
  facet normal 3.28113e-05 -0.0591493 0.998249
    outer loop
      vertex 18.856 6.04894 2.42862
      vertex 25 0 2.07
      vertex 19.165 6 2.42571
    endloop
  endfacet
  facet normal 0.156432 -0.987689 0
    outer loop
      vertex 18.856 7.95106 0
      vertex 19.165 8 0
      vertex 19.165 8 2.54429
    endloop
  endfacet
  facet normal 0.156432 -0.987689 0
    outer loop
      vertex 18.856 7.95106 0
      vertex 19.165 8 2.54429
      vertex 18.856 7.95106 2.54138
    endloop
  endfacet
  facet normal 0 0 -1
    outer loop
      vertex 18.856 7.95106 0
      vertex 28.8 14 0
      vertex 19.165 8 0
    endloop
  endfacet
  facet normal -3.54674e-05 -0.0591326 0.99825
    outer loop
      vertex 18.856 7.95106 2.54138
      vertex 19.165 8 2.54429
      vertex 27.4 14 2.9
    endloop
  endfacet
  facet normal -0.156432 0.987689 0
    outer loop
      vertex 19.165 6 0
      vertex 19.165 6 2.42571
      vertex 19.474 6.04894 0
    endloop
  endfacet
  facet normal 0 0 -1
    outer loop
      vertex 19.165 6 0
      vertex 19.474 6.04894 0
      vertex 26.15 0 0
    endloop
  endfacet
  facet normal -0.156432 0.987689 0
    outer loop
      vertex 19.165 6 2.42571
      vertex 19.474 6.04894 2.42862
      vertex 19.474 6.04894 0
    endloop
  endfacet
  facet normal -2.40526e-05 -0.0592044 0.998246
    outer loop
      vertex 19.165 6 2.42571
      vertex 25 0 2.07
      vertex 19.474 6.04894 2.42862
    endloop
  endfacet
  facet normal -0.156432 -0.987689 -0
    outer loop
      vertex 19.165 8 0
      vertex 19.474 7.95106 0
      vertex 19.474 7.95106 2.54138
    endloop
  endfacet
  facet normal -0.156432 -0.987689 0
    outer loop
      vertex 19.165 8 0
      vertex 19.474 7.95106 2.54138
      vertex 19.165 8 2.54429
    endloop
  endfacet
  facet normal 0 0 -1
    outer loop
      vertex 19.165 8 0
      vertex 28.8 14 0
      vertex 19.474 7.95106 0
    endloop
  endfacet
  facet normal 2.28009e-05 -0.0592123 0.998245
    outer loop
      vertex 19.165 8 2.54429
      vertex 19.474 7.95106 2.54138
      vertex 27.4 14 2.9
    endloop
  endfacet
  facet normal -0.453951 0.891027 0
    outer loop
      vertex 19.474 6.04894 0
      vertex 19.474 6.04894 2.42862
      vertex 19.7528 6.19098 0
    endloop
  endfacet
  facet normal 0 0 -1
    outer loop
      vertex 19.474 6.04894 0
      vertex 19.7528 6.19098 0
      vertex 26.15 0 0
    endloop
  endfacet
  facet normal -0.453951 0.891027 0
    outer loop
      vertex 19.474 6.04894 2.42862
      vertex 19.7528 6.19098 2.43704
      vertex 19.7528 6.19098 0
    endloop
  endfacet
  facet normal 2.54878e-06 -0.0591802 0.998247
    outer loop
      vertex 19.474 6.04894 2.42862
      vertex 25 0 2.07
      vertex 19.7528 6.19098 2.43704
    endloop
  endfacet
  facet normal -0.453951 -0.891027 -0
    outer loop
      vertex 19.474 7.95106 0
      vertex 19.7528 7.80902 0
      vertex 19.7528 7.80902 2.53296
    endloop
  endfacet
  facet normal -0.453951 -0.891027 0
    outer loop
      vertex 19.474 7.95106 0
      vertex 19.7528 7.80902 2.53296
      vertex 19.474 7.95106 2.54138
    endloop
  endfacet
  facet normal 0 0 -1
    outer loop
      vertex 19.474 7.95106 0
      vertex 28.8 14 0
      vertex 19.7528 7.80902 0
    endloop
  endfacet
  facet normal -2.23982e-06 -0.0591796 0.998247
    outer loop
      vertex 19.474 7.95106 2.54138
      vertex 19.7528 7.80902 2.53296
      vertex 27.4 14 2.9
    endloop
  endfacet
  facet normal -0.707155 0.707059 0
    outer loop
      vertex 19.7528 6.19098 0
      vertex 19.7528 6.19098 2.43704
      vertex 19.974 6.41221 0
    endloop
  endfacet
  facet normal 0 0 -1
    outer loop
      vertex 19.7528 6.19098 0
      vertex 19.974 6.41221 0
      vertex 26.15 0 0
    endloop
  endfacet
  facet normal -0.707155 0.707059 0
    outer loop
      vertex 19.7528 6.19098 2.43704
      vertex 19.974 6.41221 2.45015
      vertex 19.974 6.41221 0
    endloop
  endfacet
  facet normal 1.44045e-05 -0.0591702 0.998248
    outer loop
      vertex 19.7528 6.19098 2.43704
      vertex 25 0 2.07
      vertex 19.974 6.41221 2.45015
    endloop
  endfacet
  facet normal -0.707171 -0.707043 -0
    outer loop
      vertex 19.7528 7.80902 0
      vertex 19.974 7.58778 0
      vertex 19.974 7.58778 2.51985
    endloop
  endfacet
  facet normal -0.707171 -0.707043 0
    outer loop
      vertex 19.7528 7.80902 0
      vertex 19.974 7.58778 2.51985
      vertex 19.7528 7.80902 2.53296
    endloop
  endfacet
  facet normal 0 0 -1
    outer loop
      vertex 19.7528 7.80902 0
      vertex 28.8 14 0
      vertex 19.974 7.58778 0
    endloop
  endfacet
  facet normal -1.31027e-05 -0.0591662 0.998248
    outer loop
      vertex 19.7528 7.80902 2.53296
      vertex 19.974 7.58778 2.51985
      vertex 27.4 14 2.9
    endloop
  endfacet
  facet normal -0.890929 0.454142 0
    outer loop
      vertex 19.974 6.41221 0
      vertex 19.974 6.41221 2.45015
      vertex 20.1161 6.69098 0
    endloop
  endfacet
  facet normal 0 0 -1
    outer loop
      vertex 19.974 6.41221 0
      vertex 20.1161 6.69098 0
      vertex 26.15 0 0
    endloop
  endfacet
  facet normal -0.890929 0.454142 0
    outer loop
      vertex 19.974 6.41221 2.45015
      vertex 20.1161 6.69098 2.46668
      vertex 20.1161 6.69098 0
    endloop
  endfacet
  facet normal -8.38212e-06 -0.059188 0.998247
    outer loop
      vertex 19.974 6.41221 2.45015
      vertex 25 0 2.07
      vertex 20.1161 6.69098 2.46668
    endloop
  endfacet
  facet normal -0.890923 -0.454155 -0
    outer loop
      vertex 19.974 7.58778 0
      vertex 20.1161 7.30902 0
      vertex 20.1161 7.30902 2.50332
    endloop
  endfacet
  facet normal -0.890923 -0.454155 0
    outer loop
      vertex 19.974 7.58778 0
      vertex 20.1161 7.30902 2.50332
      vertex 19.974 7.58778 2.51985
    endloop
  endfacet
  facet normal 0 0 -1
    outer loop
      vertex 19.974 7.58778 0
      vertex 28.8 14 0
      vertex 20.1161 7.30902 0
    endloop
  endfacet
  facet normal 7.82947e-06 -0.0591904 0.998247
    outer loop
      vertex 19.974 7.58778 2.51985
      vertex 20.1161 7.30902 2.50332
      vertex 27.4 14 2.9
    endloop
  endfacet
  facet normal -0.98771 0.156297 0
    outer loop
      vertex 20.1161 6.69098 0
      vertex 20.1161 6.69098 2.46668
      vertex 20.165 7 0
    endloop
  endfacet
  facet normal 0 0 -1
    outer loop
      vertex 20.1161 6.69098 0
      vertex 20.165 7 0
      vertex 26.15 0 0
    endloop
  endfacet
  facet normal -0.98771 0.156297 0
    outer loop
      vertex 20.1161 6.69098 2.46668
      vertex 20.165 7 2.485
      vertex 20.165 7 0
    endloop
  endfacet
  facet normal 1.79383e-06 -0.0591806 0.998247
    outer loop
      vertex 20.1161 6.69098 2.46668
      vertex 25 0 2.07
      vertex 20.165 7 2.485
    endloop
  endfacet
  facet normal -0.98771 -0.156297 -0
    outer loop
      vertex 20.1161 7.30902 0
      vertex 20.165 7 0
      vertex 20.165 7 2.485
    endloop
  endfacet
  facet normal -0.98771 -0.156297 0
    outer loop
      vertex 20.1161 7.30902 0
      vertex 20.165 7 2.485
      vertex 20.1161 7.30902 2.50332
    endloop
  endfacet
  facet normal 0 0 -1
    outer loop
      vertex 20.1161 7.30902 0
      vertex 28.8 14 0
      vertex 20.165 7 0
    endloop
  endfacet
  facet normal -1.27779e-06 -0.0591805 0.998247
    outer loop
      vertex 20.1161 7.30902 2.50332
      vertex 20.165 7 2.485
      vertex 27.4 14 2.9
    endloop
  endfacet
  facet normal 0 0 -1
    outer loop
      vertex 20.165 7 0
      vertex 28.8 14 0
      vertex 26.15 0 0
    endloop
  endfacet
  facet normal 0 -0.0591818 0.998247
    outer loop
      vertex 20.165 7 2.485
      vertex 25 0 2.07
      vertex 27.4 14 2.9
    endloop
  endfacet
  facet normal 0.862431 -0.163246 0.479128
    outer loop
      vertex 25 0 2.07
      vertex 26.15 0 0
      vertex 28.8 14 0
    endloop
  endfacet
  facet normal 0.886284 -0.1773 0.427861
    outer loop
      vertex 25 0 2.07
      vertex 28.8 14 0
      vertex 27.4 14 2.9
    endloop
  endfacet
  facet normal 0.98769 0.156422 0
    outer loop
      vertex 4 7 0
      vertex 4 7 2.485
      vertex 4.04894 6.69098 2.46668
    endloop
  endfacet
  facet normal 0.98769 0.156422 0
    outer loop
      vertex 4 7 0
      vertex 4.04894 6.69098 2.46668
      vertex 4.04894 6.69098 0
    endloop
  endfacet
  facet normal 0.98769 -0.156422 0
    outer loop
      vertex 4 7 0
      vertex 4.04894 7.30902 0
      vertex 4 7 2.485
    endloop
  endfacet
  facet normal 0.98769 -0.156422 0
    outer loop
      vertex 4 7 2.485
      vertex 4.04894 7.30902 0
      vertex 4.04894 7.30902 2.50332
    endloop
  endfacet
  facet normal 0.891007 0.453989 0
    outer loop
      vertex 4.04894 6.69098 0
      vertex 4.04894 6.69098 2.46668
      vertex 4.19098 6.41221 2.45015
    endloop
  endfacet
  facet normal 0.891007 0.453989 0
    outer loop
      vertex 4.04894 6.69098 0
      vertex 4.19098 6.41221 2.45015
      vertex 4.19098 6.41221 0
    endloop
  endfacet
  facet normal 0.891 -0.454002 0
    outer loop
      vertex 4.04894 7.30902 0
      vertex 4.19098 7.58778 0
      vertex 4.04894 7.30902 2.50332
    endloop
  endfacet
  facet normal 0.891 -0.454002 0
    outer loop
      vertex 4.04894 7.30902 2.50332
      vertex 4.19098 7.58778 0
      vertex 4.19098 7.58778 2.51985
    endloop
  endfacet
  facet normal 0.707107 0.707107 0
    outer loop
      vertex 4.19098 6.41221 0
      vertex 4.19098 6.41221 2.45015
      vertex 4.41221 6.19098 2.43704
    endloop
  endfacet
  facet normal 0.707107 0.707107 0
    outer loop
      vertex 4.19098 6.41221 0
      vertex 4.41221 6.19098 2.43704
      vertex 4.41221 6.19098 0
    endloop
  endfacet
  facet normal 0.707123 -0.707091 0
    outer loop
      vertex 4.19098 7.58778 0
      vertex 4.41221 7.80902 0
      vertex 4.19098 7.58778 2.51985
    endloop
  endfacet
  facet normal 0.707123 -0.707091 0
    outer loop
      vertex 4.19098 7.58778 2.51985
      vertex 4.41221 7.80902 0
      vertex 4.41221 7.80902 2.53296
    endloop
  endfacet
  facet normal 0.453989 0.891007 0
    outer loop
      vertex 4.41221 6.19098 0
      vertex 4.41221 6.19098 2.43704
      vertex 4.69098 6.04894 2.42862
    endloop
  endfacet
  facet normal 0.453989 0.891007 0
    outer loop
      vertex 4.41221 6.19098 0
      vertex 4.69098 6.04894 2.42862
      vertex 4.69098 6.04894 0
    endloop
  endfacet
  facet normal 0.453989 -0.891007 0
    outer loop
      vertex 4.41221 7.80902 0
      vertex 4.69098 7.95106 0
      vertex 4.41221 7.80902 2.53296
    endloop
  endfacet
  facet normal 0.453989 -0.891007 0
    outer loop
      vertex 4.41221 7.80902 2.53296
      vertex 4.69098 7.95106 0
      vertex 4.69098 7.95106 2.54138
    endloop
  endfacet
  facet normal 0.156422 0.98769 0
    outer loop
      vertex 4.69098 6.04894 0
      vertex 4.69098 6.04894 2.42862
      vertex 5 6 0
    endloop
  endfacet
  facet normal 0.156422 0.98769 -0
    outer loop
      vertex 4.69098 6.04894 2.42862
      vertex 5 6 2.42571
      vertex 5 6 0
    endloop
  endfacet
  facet normal 0.156422 -0.98769 0
    outer loop
      vertex 4.69098 7.95106 0
      vertex 5 8 0
      vertex 5 8 2.54429
    endloop
  endfacet
  facet normal 0.156422 -0.98769 0
    outer loop
      vertex 4.69098 7.95106 0
      vertex 5 8 2.54429
      vertex 4.69098 7.95106 2.54138
    endloop
  endfacet
  facet normal -0.156422 0.98769 0
    outer loop
      vertex 5 6 0
      vertex 5 6 2.42571
      vertex 5.30902 6.04894 0
    endloop
  endfacet
  facet normal -0.156422 0.98769 0
    outer loop
      vertex 5 6 2.42571
      vertex 5.30902 6.04894 2.42862
      vertex 5.30902 6.04894 0
    endloop
  endfacet
  facet normal -0.156422 -0.98769 -0
    outer loop
      vertex 5 8 0
      vertex 5.30902 7.95106 0
      vertex 5.30902 7.95106 2.54138
    endloop
  endfacet
  facet normal -0.156422 -0.98769 0
    outer loop
      vertex 5 8 0
      vertex 5.30902 7.95106 2.54138
      vertex 5 8 2.54429
    endloop
  endfacet
  facet normal -0.454002 0.891 0
    outer loop
      vertex 5.30902 6.04894 0
      vertex 5.30902 6.04894 2.42862
      vertex 5.58778 6.19098 0
    endloop
  endfacet
  facet normal -0.454002 0.891 0
    outer loop
      vertex 5.30902 6.04894 2.42862
      vertex 5.58778 6.19098 2.43704
      vertex 5.58778 6.19098 0
    endloop
  endfacet
  facet normal -0.454002 -0.891 -0
    outer loop
      vertex 5.30902 7.95106 0
      vertex 5.58778 7.80902 0
      vertex 5.58778 7.80902 2.53296
    endloop
  endfacet
  facet normal -0.454002 -0.891 0
    outer loop
      vertex 5.30902 7.95106 0
      vertex 5.58778 7.80902 2.53296
      vertex 5.30902 7.95106 2.54138
    endloop
  endfacet
  facet normal -0.707091 0.707123 0
    outer loop
      vertex 5.58778 6.19098 0
      vertex 5.58778 6.19098 2.43704
      vertex 5.80902 6.41221 0
    endloop
  endfacet
  facet normal 0 0 -1
    outer loop
      vertex 5.58778 6.19098 0
      vertex 5.80902 6.41221 0
      vertex 18.5772 6.19098 0
    endloop
  endfacet
  facet normal 0 -0.0591558 0.998249
    outer loop
      vertex 5.58778 6.19098 2.43704
      vertex 18.5772 6.19098 2.43704
      vertex 5.80902 6.41221 2.45015
    endloop
  endfacet
  facet normal -0.707091 0.707123 0
    outer loop
      vertex 5.58778 6.19098 2.43704
      vertex 5.80902 6.41221 2.45015
      vertex 5.80902 6.41221 0
    endloop
  endfacet
  facet normal 0 0 -1
    outer loop
      vertex 5.58778 7.80902 0
      vertex 18.5772 7.80902 0
      vertex 5.80902 7.58778 0
    endloop
  endfacet
  facet normal -0.707107 -0.707107 -0
    outer loop
      vertex 5.58778 7.80902 0
      vertex 5.80902 7.58778 0
      vertex 5.80902 7.58778 2.51985
    endloop
  endfacet
  facet normal -0.707107 -0.707107 0
    outer loop
      vertex 5.58778 7.80902 0
      vertex 5.80902 7.58778 2.51985
      vertex 5.58778 7.80902 2.53296
    endloop
  endfacet
  facet normal 0 -0.0591532 0.998249
    outer loop
      vertex 5.58778 7.80902 2.53296
      vertex 5.80902 7.58778 2.51985
      vertex 18.5772 7.80902 2.53296
    endloop
  endfacet
  facet normal 0 0 -1
    outer loop
      vertex 5.80902 6.41221 0
      vertex 18.356 6.41221 0
      vertex 18.5772 6.19098 0
    endloop
  endfacet
  facet normal -0.891007 0.453989 0
    outer loop
      vertex 5.80902 6.41221 0
      vertex 5.80902 6.41221 2.45015
      vertex 5.95106 6.69098 0
    endloop
  endfacet
  facet normal 0 0 -1
    outer loop
      vertex 5.80902 6.41221 0
      vertex 5.95106 6.69098 0
      vertex 18.356 6.41221 0
    endloop
  endfacet
  facet normal 0 -0.0591922 0.998247
    outer loop
      vertex 5.80902 6.41221 2.45015
      vertex 18.356 6.41221 2.45015
      vertex 5.95106 6.69098 2.46668
    endloop
  endfacet
  facet normal 0 -0.0591558 0.998249
    outer loop
      vertex 5.80902 6.41221 2.45015
      vertex 18.5772 6.19098 2.43704
      vertex 18.356 6.41221 2.45015
    endloop
  endfacet
  facet normal -0.891007 0.453989 0
    outer loop
      vertex 5.80902 6.41221 2.45015
      vertex 5.95106 6.69098 2.46668
      vertex 5.95106 6.69098 0
    endloop
  endfacet
  facet normal 0 0 -1
    outer loop
      vertex 5.80902 7.58778 0
      vertex 18.356 7.58778 0
      vertex 5.95106 7.30902 0
    endloop
  endfacet
  facet normal 0 0 -1
    outer loop
      vertex 5.80902 7.58778 0
      vertex 18.5772 7.80902 0
      vertex 18.356 7.58778 0
    endloop
  endfacet
  facet normal -0.891 -0.454002 -0
    outer loop
      vertex 5.80902 7.58778 0
      vertex 5.95106 7.30902 0
      vertex 5.95106 7.30902 2.50332
    endloop
  endfacet
  facet normal -0.891 -0.454002 0
    outer loop
      vertex 5.80902 7.58778 0
      vertex 5.95106 7.30902 2.50332
      vertex 5.80902 7.58778 2.51985
    endloop
  endfacet
  facet normal 0 -0.0591532 0.998249
    outer loop
      vertex 5.80902 7.58778 2.51985
      vertex 18.356 7.58778 2.51985
      vertex 18.5772 7.80902 2.53296
    endloop
  endfacet
  facet normal 0 -0.0591943 0.998246
    outer loop
      vertex 5.80902 7.58778 2.51985
      vertex 5.95106 7.30902 2.50332
      vertex 18.356 7.58778 2.51985
    endloop
  endfacet
  facet normal 0 0 -1
    outer loop
      vertex 5.95106 6.69098 0
      vertex 18.2139 6.69098 0
      vertex 18.356 6.41221 0
    endloop
  endfacet
  facet normal -0.98769 0.156422 0
    outer loop
      vertex 5.95106 6.69098 0
      vertex 5.95106 6.69098 2.46668
      vertex 6 7 0
    endloop
  endfacet
  facet normal 0 0 -1
    outer loop
      vertex 5.95106 6.69098 0
      vertex 6 7 0
      vertex 18.2139 6.69098 0
    endloop
  endfacet
  facet normal 0 -0.0591803 0.998247
    outer loop
      vertex 5.95106 6.69098 2.46668
      vertex 18.2139 6.69098 2.46668
      vertex 6 7 2.485
    endloop
  endfacet
  facet normal 0 -0.0591922 0.998247
    outer loop
      vertex 5.95106 6.69098 2.46668
      vertex 18.356 6.41221 2.45015
      vertex 18.2139 6.69098 2.46668
    endloop
  endfacet
  facet normal -0.98769 0.156422 0
    outer loop
      vertex 5.95106 6.69098 2.46668
      vertex 6 7 2.485
      vertex 6 7 0
    endloop
  endfacet
  facet normal 0 0 -1
    outer loop
      vertex 5.95106 7.30902 0
      vertex 18.2139 7.30902 0
      vertex 6 7 0
    endloop
  endfacet
  facet normal 0 0 -1
    outer loop
      vertex 5.95106 7.30902 0
      vertex 18.356 7.58778 0
      vertex 18.2139 7.30902 0
    endloop
  endfacet
  facet normal -0.98769 -0.156422 -0
    outer loop
      vertex 5.95106 7.30902 0
      vertex 6 7 0
      vertex 6 7 2.485
    endloop
  endfacet
  facet normal -0.98769 -0.156422 0
    outer loop
      vertex 5.95106 7.30902 0
      vertex 6 7 2.485
      vertex 5.95106 7.30902 2.50332
    endloop
  endfacet
  facet normal 0 -0.0591943 0.998246
    outer loop
      vertex 5.95106 7.30902 2.50332
      vertex 18.2139 7.30902 2.50332
      vertex 18.356 7.58778 2.51985
    endloop
  endfacet
  facet normal 0 -0.0591803 0.998247
    outer loop
      vertex 5.95106 7.30902 2.50332
      vertex 6 7 2.485
      vertex 18.2139 7.30902 2.50332
    endloop
  endfacet
  facet normal 0 0 -1
    outer loop
      vertex 6 7 0
      vertex 18.165 7 0
      vertex 18.2139 6.69098 0
    endloop
  endfacet
  facet normal 0 0 -1
    outer loop
      vertex 6 7 0
      vertex 18.2139 7.30902 0
      vertex 18.165 7 0
    endloop
  endfacet
  facet normal 0 -0.0591803 0.998247
    outer loop
      vertex 6 7 2.485
      vertex 18.165 7 2.485
      vertex 18.2139 7.30902 2.50332
    endloop
  endfacet
  facet normal 0 -0.0591803 0.998247
    outer loop
      vertex 6 7 2.485
      vertex 18.2139 6.69098 2.46668
      vertex 18.165 7 2.485
    endloop
  endfacet
endsolid model
