solid model
  facet normal -1 0 0
    outer loop
      vertex 0 0 0
      vertex 0 0 2.07
      vertex 0 14 0
    endloop
  endfacet
  facet normal 0 0 -1
    outer loop
      vertex 0 0 0
      vertex 0 14 0
      vertex 4 7 0
    endloop
  endfacet
  facet normal 0 0 -1
    outer loop
      vertex 0 0 0
      vertex 19.2706 5.47831 0
      vertex 26.15 0 0
    endloop
  endfacet
  facet normal 0 -1 0
    outer loop
      vertex 0 0 0
      vertex 25 0 2.07
      vertex 0 0 2.07
    endloop
  endfacet
  facet normal 0 -1 -0
    outer loop
      vertex 0 0 0
      vertex 26.15 0 0
      vertex 25 0 2.07
    endloop
  endfacet
  facet normal -0 0 -1
    outer loop
      vertex 0 0 0
      vertex 4 7 0
      vertex 4.07831 6.50557 0
    endloop
  endfacet
  facet normal -0 0 -1
    outer loop
      vertex 0 0 0
      vertex 4.07831 6.50557 0
      vertex 4.30557 6.05954 0
    endloop
  endfacet
  facet normal -0 0 -1
    outer loop
      vertex 0 0 0
      vertex 4.30557 6.05954 0
      vertex 4.65954 5.70557 0
    endloop
  endfacet
  facet normal -0 0 -1
    outer loop
      vertex 0 0 0
      vertex 4.65954 5.70557 0
      vertex 5.10557 5.47831 0
    endloop
  endfacet
  facet normal -0 0 -1
    outer loop
      vertex 0 0 0
      vertex 5.10557 5.47831 0
      vertex 5.6 5.4 0
    endloop
  endfacet
  facet normal 0 0 -1
    outer loop
      vertex 0 0 0
      vertex 5.6 5.4 0
      vertex 6.09443 5.47831 0
    endloop
  endfacet
  facet normal 0 -0 -1
    outer loop
      vertex 0 0 0
      vertex 6.09443 5.47831 0
      vertex 19.2706 5.47831 0
    endloop
  endfacet
  facet normal -1 0 0
    outer loop
      vertex 0 0 2.07
      vertex 0 14 2.9
      vertex 0 14 0
    endloop
  endfacet
  facet normal 0 -0.0591826 0.998247
    outer loop
      vertex 0 0 2.07
      vertex 25 0 2.07
      vertex 6.09443 5.47831 2.39479
    endloop
  endfacet
  facet normal 0 -0.0591818 0.998247
    outer loop
      vertex 0 0 2.07
      vertex 4 7 2.485
      vertex 0 14 2.9
    endloop
  endfacet
  facet normal -7.29155e-06 -0.0591776 0.998247
    outer loop
      vertex 0 0 2.07
      vertex 4.07831 6.50557 2.45569
      vertex 4 7 2.485
    endloop
  endfacet
  facet normal 1.30221e-05 -0.0591903 0.998247
    outer loop
      vertex 0 0 2.07
      vertex 4.30557 6.05954 2.42924
      vertex 4.07831 6.50557 2.45569
    endloop
  endfacet
  facet normal -8.44365e-06 -0.0591751 0.998248
    outer loop
      vertex 0 0 2.07
      vertex 4.65954 5.70557 2.40826
      vertex 4.30557 6.05954 2.42924
    endloop
  endfacet
  facet normal -5.2463e-06 -0.0591777 0.998247
    outer loop
      vertex 0 0 2.07
      vertex 5.10557 5.47831 2.39479
      vertex 4.65954 5.70557 2.40826
    endloop
  endfacet
  facet normal 1.27931e-05 -0.0591945 0.998246
    outer loop
      vertex 0 0 2.07
      vertex 5.6 5.4 2.39014
      vertex 5.10557 5.47831 2.39479
    endloop
  endfacet
  facet normal -1.78216e-05 -0.0591629 0.998248
    outer loop
      vertex 0 0 2.07
      vertex 6.09443 5.47831 2.39479
      vertex 5.6 5.4 2.39014
    endloop
  endfacet
  facet normal 0 1 0
    outer loop
      vertex 0 14 0
      vertex 0 14 2.9
      vertex 27.4 14 2.9
    endloop
  endfacet
  facet normal 0 0 -1
    outer loop
      vertex 0 14 0
      vertex 19.2706 8.52169 0
      vertex 6.09443 8.52169 0
    endloop
  endfacet
  facet normal 0 1 0
    outer loop
      vertex 0 14 0
      vertex 27.4 14 2.9
      vertex 28.8 14 0
    endloop
  endfacet
  facet normal 0 0 -1
    outer loop
      vertex 0 14 0
      vertex 28.8 14 0
      vertex 19.2706 8.52169 0
    endloop
  endfacet
  facet normal 0 0 -1
    outer loop
      vertex 0 14 0
      vertex 4.07831 7.49443 0
      vertex 4 7 0
    endloop
  endfacet
  facet normal 0 0 -1
    outer loop
      vertex 0 14 0
      vertex 4.30557 7.94046 0
      vertex 4.07831 7.49443 0
    endloop
  endfacet
  facet normal 0 0 -1
    outer loop
      vertex 0 14 0
      vertex 4.65954 8.29443 0
      vertex 4.30557 7.94046 0
    endloop
  endfacet
  facet normal 0 0 -1
    outer loop
      vertex 0 14 0
      vertex 5.10557 8.52169 0
      vertex 4.65954 8.29443 0
    endloop
  endfacet
  facet normal 0 0 -1
    outer loop
      vertex 0 14 0
      vertex 5.6 8.6 0
      vertex 5.10557 8.52169 0
    endloop
  endfacet
  facet normal 0 0 -1
    outer loop
      vertex 0 14 0
      vertex 6.09443 8.52169 0
      vertex 5.6 8.6 0
    endloop
  endfacet
  facet normal 0 -0.0591826 0.998247
    outer loop
      vertex 0 14 2.9
      vertex 19.2706 8.52169 2.57521
      vertex 27.4 14 2.9
    endloop
  endfacet
  facet normal 7.29155e-06 -0.0591776 0.998247
    outer loop
      vertex 0 14 2.9
      vertex 4 7 2.485
      vertex 4.07831 7.49443 2.51431
    endloop
  endfacet
  facet normal -1.30221e-05 -0.0591903 0.998247
    outer loop
      vertex 0 14 2.9
      vertex 4.07831 7.49443 2.51431
      vertex 4.30557 7.94046 2.54076
    endloop
  endfacet
  facet normal 8.44365e-06 -0.0591751 0.998248
    outer loop
      vertex 0 14 2.9
      vertex 4.30557 7.94046 2.54076
      vertex 4.65954 8.29443 2.56174
    endloop
  endfacet
  facet normal 5.2463e-06 -0.0591777 0.998247
    outer loop
      vertex 0 14 2.9
      vertex 4.65954 8.29443 2.56174
      vertex 5.10557 8.52169 2.57521
    endloop
  endfacet
  facet normal -1.27931e-05 -0.0591945 0.998246
    outer loop
      vertex 0 14 2.9
      vertex 5.10557 8.52169 2.57521
      vertex 5.6 8.6 2.57986
    endloop
  endfacet
  facet normal 1.78216e-05 -0.0591629 0.998248
    outer loop
      vertex 0 14 2.9
      vertex 5.6 8.6 2.57986
      vertex 6.09443 8.52169 2.57521
    endloop
  endfacet
  facet normal 0 -0.0591826 0.998247
    outer loop
      vertex 0 14 2.9
      vertex 6.09443 8.52169 2.57521
      vertex 19.2706 8.52169 2.57521
    endloop
  endfacet
  facet normal 0.987691 0.156415 0
    outer loop
      vertex 18.165 7 0
      vertex 18.165 7 2.485
      vertex 18.2433 6.50557 2.45569
    endloop
  endfacet
  facet normal 0.987691 0.156415 0
    outer loop
      vertex 18.165 7 0
      vertex 18.2433 6.50557 2.45569
      vertex 18.2433 6.50557 0
    endloop
  endfacet
  facet normal 0.987691 -0.156415 0
    outer loop
      vertex 18.165 7 0
      vertex 18.2433 7.49443 0
      vertex 18.165 7 2.485
    endloop
  endfacet
  facet normal 0.987691 -0.156415 0
    outer loop
      vertex 18.165 7 2.485
      vertex 18.2433 7.49443 0
      vertex 18.2433 7.49443 2.51431
    endloop
  endfacet
  facet normal 0.890977 0.454048 0
    outer loop
      vertex 18.2433 6.50557 0
      vertex 18.2433 6.50557 2.45569
      vertex 18.4706 6.05954 2.42924
    endloop
  endfacet
  facet normal 0.890977 0.454048 0
    outer loop
      vertex 18.2433 6.50557 0
      vertex 18.4706 6.05954 2.42924
      vertex 18.4706 6.05954 0
    endloop
  endfacet
  facet normal 0.890977 -0.454048 0
    outer loop
      vertex 18.2433 7.49443 0
      vertex 18.4706 7.94046 0
      vertex 18.2433 7.49443 2.51431
    endloop
  endfacet
  facet normal 0.890977 -0.454048 0
    outer loop
      vertex 18.2433 7.49443 2.51431
      vertex 18.4706 7.94046 0
      vertex 18.4706 7.94046 2.54076
    endloop
  endfacet
  facet normal 0.707177 0.707037 0
    outer loop
      vertex 18.4706 6.05954 0
      vertex 18.4706 6.05954 2.42924
      vertex 18.8245 5.70557 2.40826
    endloop
  endfacet
  facet normal 0.707177 0.707037 0
    outer loop
      vertex 18.4706 6.05954 0
      vertex 18.8245 5.70557 2.40826
      vertex 18.8245 5.70557 0
    endloop
  endfacet
  facet normal 0.707177 -0.707037 0
    outer loop
      vertex 18.4706 7.94046 0
      vertex 18.8245 8.29443 0
      vertex 18.4706 7.94046 2.54076
    endloop
  endfacet
  facet normal 0.707177 -0.707037 0
    outer loop
      vertex 18.4706 7.94046 2.54076
      vertex 18.8245 8.29443 0
      vertex 18.8245 8.29443 2.56174
    endloop
  endfacet
  facet normal 0.453928 0.891038 0
    outer loop
      vertex 18.8245 5.70557 0
      vertex 18.8245 5.70557 2.40826
      vertex 19.2706 5.47831 2.39479
    endloop
  endfacet
  facet normal 0.453928 0.891038 0
    outer loop
      vertex 18.8245 5.70557 0
      vertex 19.2706 5.47831 2.39479
      vertex 19.2706 5.47831 0
    endloop
  endfacet
  facet normal -1.65583e-05 -0.0591999 0.998246
    outer loop
      vertex 18.8245 5.70557 2.40826
      vertex 25 0 2.07
      vertex 19.2706 5.47831 2.39479
    endloop
  endfacet
  facet normal 0.453928 -0.891038 0
    outer loop
      vertex 18.8245 8.29443 0
      vertex 19.2706 8.52169 0
      vertex 18.8245 8.29443 2.56174
    endloop
  endfacet
  facet normal 0.453928 -0.891038 0
    outer loop
      vertex 18.8245 8.29443 2.56174
      vertex 19.2706 8.52169 0
      vertex 19.2706 8.52169 2.57521
    endloop
  endfacet
  facet normal 0.156444 0.987687 0
    outer loop
      vertex 19.2706 5.47831 0
      vertex 19.2706 5.47831 2.39479
      vertex 19.765 5.4 0
    endloop
  endfacet
  facet normal 0 0 -1
    outer loop
      vertex 19.2706 5.47831 0
      vertex 19.765 5.4 0
      vertex 26.15 0 0
    endloop
  endfacet
  facet normal 0.156444 0.987687 -0
    outer loop
      vertex 19.2706 5.47831 2.39479
      vertex 19.765 5.4 2.39014
      vertex 19.765 5.4 0
    endloop
  endfacet
  facet normal 1.75974e-05 -0.0591643 0.998248
    outer loop
      vertex 19.2706 5.47831 2.39479
      vertex 25 0 2.07
      vertex 19.765 5.4 2.39014
    endloop
  endfacet
  facet normal 0.156444 -0.987687 0
    outer loop
      vertex 19.2706 8.52169 0
      vertex 19.765 8.6 0
      vertex 19.765 8.6 2.57986
    endloop
  endfacet
  facet normal 0.156444 -0.987687 0
    outer loop
      vertex 19.2706 8.52169 0
      vertex 19.765 8.6 2.57986
      vertex 19.2706 8.52169 2.57521
    endloop
  endfacet
  facet normal 0 0 -1
    outer loop
      vertex 19.2706 8.52169 0
      vertex 28.8 14 0
      vertex 19.765 8.6 0
    endloop
  endfacet
  facet normal -1.91938e-05 -0.0591542 0.998249
    outer loop
      vertex 19.2706 8.52169 2.57521
      vertex 19.765 8.6 2.57986
      vertex 27.4 14 2.9
    endloop
  endfacet
  facet normal -0.156444 0.987687 0
    outer loop
      vertex 19.765 5.4 0
      vertex 19.765 5.4 2.39014
      vertex 20.2594 5.47831 0
    endloop
  endfacet
  facet normal 0 0 -1
    outer loop
      vertex 19.765 5.4 0
      vertex 20.2594 5.47831 0
      vertex 26.15 0 0
    endloop
  endfacet
  facet normal -0.156444 0.987687 0
    outer loop
      vertex 19.765 5.4 2.39014
      vertex 20.2594 5.47831 2.39479
      vertex 20.2594 5.47831 0
    endloop
  endfacet
  facet normal -1.29125e-05 -0.0591937 0.998247
    outer loop
      vertex 19.765 5.4 2.39014
      vertex 25 0 2.07
      vertex 20.2594 5.47831 2.39479
    endloop
  endfacet
  facet normal -0.156444 -0.987687 -0
    outer loop
      vertex 19.765 8.6 0
      vertex 20.2594 8.52169 0
      vertex 20.2594 8.52169 2.57521
    endloop
  endfacet
  facet normal -0.156444 -0.987687 0
    outer loop
      vertex 19.765 8.6 0
      vertex 20.2594 8.52169 2.57521
      vertex 19.765 8.6 2.57986
    endloop
  endfacet
  facet normal 0 0 -1
    outer loop
      vertex 19.765 8.6 0
      vertex 28.8 14 0
      vertex 20.2594 8.52169 0
    endloop
  endfacet
  facet normal 1.21698e-05 -0.0591984 0.998246
    outer loop
      vertex 19.765 8.6 2.57986
      vertex 20.2594 8.52169 2.57521
      vertex 27.4 14 2.9
    endloop
  endfacet
  facet normal -0.453928 0.891038 0
    outer loop
      vertex 20.2594 5.47831 0
      vertex 20.2594 5.47831 2.39479
      vertex 20.7055 5.70557 0
    endloop
  endfacet
  facet normal 0 0 -1
    outer loop
      vertex 20.2594 5.47831 0
      vertex 20.7055 5.70557 0
      vertex 26.15 0 0
    endloop
  endfacet
  facet normal -0.453928 0.891038 0
    outer loop
      vertex 20.2594 5.47831 2.39479
      vertex 20.7055 5.70557 2.40826
      vertex 20.7055 5.70557 0
    endloop
  endfacet
  facet normal 5.3693e-06 -0.059178 0.998247
    outer loop
      vertex 20.2594 5.47831 2.39479
      vertex 25 0 2.07
      vertex 20.7055 5.70557 2.40826
    endloop
  endfacet
  facet normal -0.453928 -0.891038 -0
    outer loop
      vertex 20.2594 8.52169 0
      vertex 20.7055 8.29443 0
      vertex 20.7055 8.29443 2.56174
    endloop
  endfacet
  facet normal -0.453928 -0.891038 0
    outer loop
      vertex 20.2594 8.52169 0
      vertex 20.7055 8.29443 2.56174
      vertex 20.2594 8.52169 2.57521
    endloop
  endfacet
  facet normal 0 0 -1
    outer loop
      vertex 20.2594 8.52169 0
      vertex 28.8 14 0
      vertex 20.7055 8.29443 0
    endloop
  endfacet
  facet normal -4.64916e-06 -0.0591766 0.998248
    outer loop
      vertex 20.2594 8.52169 2.57521
      vertex 20.7055 8.29443 2.56174
      vertex 27.4 14 2.9
    endloop
  endfacet
  facet normal -0.707177 0.707037 0
    outer loop
      vertex 20.7055 5.70557 0
      vertex 20.7055 5.70557 2.40826
      vertex 21.0594 6.05954 0
    endloop
  endfacet
  facet normal 0 0 -1
    outer loop
      vertex 20.7055 5.70557 0
      vertex 21.0594 6.05954 0
      vertex 26.15 0 0
    endloop
  endfacet
  facet normal -0.707177 0.707037 0
    outer loop
      vertex 20.7055 5.70557 2.40826
      vertex 21.0594 6.05954 2.42924
      vertex 21.0594 6.05954 0
    endloop
  endfacet
  facet normal 8.75286e-06 -0.0591754 0.998248
    outer loop
      vertex 20.7055 5.70557 2.40826
      vertex 25 0 2.07
      vertex 21.0594 6.05954 2.42924
    endloop
  endfacet
  facet normal -0.707177 -0.707037 -0
    outer loop
      vertex 20.7055 8.29443 0
      vertex 21.0594 7.94046 0
      vertex 21.0594 7.94046 2.54076
    endloop
  endfacet
  facet normal -0.707177 -0.707037 0
    outer loop
      vertex 20.7055 8.29443 0
      vertex 21.0594 7.94046 2.54076
      vertex 20.7055 8.29443 2.56174
    endloop
  endfacet
  facet normal 0 0 -1
    outer loop
      vertex 20.7055 8.29443 0
      vertex 28.8 14 0
      vertex 21.0594 7.94046 0
    endloop
  endfacet
  facet normal -7.05861e-06 -0.0591738 0.998248
    outer loop
      vertex 20.7055 8.29443 2.56174
      vertex 21.0594 7.94046 2.54076
      vertex 27.4 14 2.9
    endloop
  endfacet
  facet normal -0.890977 0.454048 0
    outer loop
      vertex 21.0594 6.05954 0
      vertex 21.0594 6.05954 2.42924
      vertex 21.2867 6.50557 0
    endloop
  endfacet
  facet normal 0 0 -1
    outer loop
      vertex 21.0594 6.05954 0
      vertex 21.2867 6.50557 0
      vertex 26.15 0 0
    endloop
  endfacet
  facet normal -0.890977 0.454048 0
    outer loop
      vertex 21.0594 6.05954 2.42924
      vertex 21.2867 6.50557 2.45569
      vertex 21.2867 6.50557 0
    endloop
  endfacet
  facet normal -1.36973e-05 -0.05919 0.998247
    outer loop
      vertex 21.0594 6.05954 2.42924
      vertex 25 0 2.07
      vertex 21.2867 6.50557 2.45569
    endloop
  endfacet
  facet normal -0.890977 -0.454048 -0
    outer loop
      vertex 21.0594 7.94046 0
      vertex 21.2867 7.49443 0
      vertex 21.2867 7.49443 2.51431
    endloop
  endfacet
  facet normal -0.890977 -0.454048 0
    outer loop
      vertex 21.0594 7.94046 0
      vertex 21.2867 7.49443 2.51431
      vertex 21.0594 7.94046 2.54076
    endloop
  endfacet
  facet normal 0 0 -1
    outer loop
      vertex 21.0594 7.94046 0
      vertex 28.8 14 0
      vertex 21.2867 7.49443 0
    endloop
  endfacet
  facet normal 1.02107e-05 -0.0591918 0.998247
    outer loop
      vertex 21.0594 7.94046 2.54076
      vertex 21.2867 7.49443 2.51431
      vertex 27.4 14 2.9
    endloop
  endfacet
  facet normal -0.987691 0.156415 0
    outer loop
      vertex 21.2867 6.50557 0
      vertex 21.2867 6.50557 2.45569
      vertex 21.365 7 0
    endloop
  endfacet
  facet normal 0 0 -1
    outer loop
      vertex 21.2867 6.50557 0
      vertex 21.365 7 0
      vertex 26.15 0 0
    endloop
  endfacet
  facet normal -0.987691 0.156415 0
    outer loop
      vertex 21.2867 6.50557 2.45569
      vertex 21.365 7 2.485
      vertex 21.365 7 0
    endloop
  endfacet
  facet normal 7.85283e-06 -0.0591777 0.998247
    outer loop
      vertex 21.2867 6.50557 2.45569
      vertex 25 0 2.07
      vertex 21.365 7 2.485
    endloop
  endfacet
  facet normal -0.987691 -0.156415 -0
    outer loop
      vertex 21.2867 7.49443 0
      vertex 21.365 7 0
      vertex 21.365 7 2.485
    endloop
  endfacet
  facet normal -0.987691 -0.156415 0
    outer loop
      vertex 21.2867 7.49443 0
      vertex 21.365 7 2.485
      vertex 21.2867 7.49443 2.51431
    endloop
  endfacet
  facet normal 0 0 -1
    outer loop
      vertex 21.2867 7.49443 0
      vertex 28.8 14 0
      vertex 21.365 7 0
    endloop
  endfacet
  facet normal -5.21454e-06 -0.0591773 0.998247
    outer loop
      vertex 21.2867 7.49443 2.51431
      vertex 21.365 7 2.485
      vertex 27.4 14 2.9
    endloop
  endfacet
  facet normal 0 0 -1
    outer loop
      vertex 21.365 7 0
      vertex 28.8 14 0
      vertex 26.15 0 0
    endloop
  endfacet
  facet normal 0 -0.0591818 0.998247
    outer loop
      vertex 21.365 7 2.485
      vertex 25 0 2.07
      vertex 27.4 14 2.9
    endloop
  endfacet
  facet normal 0.862431 -0.163246 0.479128
    outer loop
      vertex 25 0 2.07
      vertex 26.15 0 0
      vertex 28.8 14 0
    endloop
  endfacet
  facet normal 0.886284 -0.1773 0.427861
    outer loop
      vertex 25 0 2.07
      vertex 28.8 14 0
      vertex 27.4 14 2.9
    endloop
  endfacet
  facet normal 0.987688 0.156434 0
    outer loop
      vertex 4 7 0
      vertex 4 7 2.485
      vertex 4.07831 6.50557 2.45569
    endloop
  endfacet
  facet normal 0.987688 0.156434 0
    outer loop
      vertex 4 7 0
      vertex 4.07831 6.50557 2.45569
      vertex 4.07831 6.50557 0
    endloop
  endfacet
  facet normal 0.987688 -0.156434 0
    outer loop
      vertex 4 7 0
      vertex 4.07831 7.49443 0
      vertex 4 7 2.485
    endloop
  endfacet
  facet normal 0.987688 -0.156434 0
    outer loop
      vertex 4 7 2.485
      vertex 4.07831 7.49443 0
      vertex 4.07831 7.49443 2.51431
    endloop
  endfacet
  facet normal 0.891009 0.453985 0
    outer loop
      vertex 4.07831 6.50557 0
      vertex 4.07831 6.50557 2.45569
      vertex 4.30557 6.05954 2.42924
    endloop
  endfacet
  facet normal 0.891009 0.453985 0
    outer loop
      vertex 4.07831 6.50557 0
      vertex 4.30557 6.05954 2.42924
      vertex 4.30557 6.05954 0
    endloop
  endfacet
  facet normal 0.891009 -0.453985 0
    outer loop
      vertex 4.07831 7.49443 0
      vertex 4.30557 7.94046 0
      vertex 4.07831 7.49443 2.51431
    endloop
  endfacet
  facet normal 0.891009 -0.453985 0
    outer loop
      vertex 4.07831 7.49443 2.51431
      vertex 4.30557 7.94046 0
      vertex 4.30557 7.94046 2.54076
    endloop
  endfacet
  facet normal 0.707107 0.707107 0
    outer loop
      vertex 4.30557 6.05954 0
      vertex 4.30557 6.05954 2.42924
      vertex 4.65954 5.70557 2.40826
    endloop
  endfacet
  facet normal 0.707107 0.707107 0
    outer loop
      vertex 4.30557 6.05954 0
      vertex 4.65954 5.70557 2.40826
      vertex 4.65954 5.70557 0
    endloop
  endfacet
  facet normal 0.707107 -0.707107 0
    outer loop
      vertex 4.30557 7.94046 0
      vertex 4.65954 8.29443 0
      vertex 4.30557 7.94046 2.54076
    endloop
  endfacet
  facet normal 0.707107 -0.707107 0
    outer loop
      vertex 4.30557 7.94046 2.54076
      vertex 4.65954 8.29443 0
      vertex 4.65954 8.29443 2.56174
    endloop
  endfacet
  facet normal 0.453985 0.891009 0
    outer loop
      vertex 4.65954 5.70557 0
      vertex 4.65954 5.70557 2.40826
      vertex 5.10557 5.47831 2.39479
    endloop
  endfacet
  facet normal 0.453985 0.891009 0
    outer loop
      vertex 4.65954 5.70557 0
      vertex 5.10557 5.47831 2.39479
      vertex 5.10557 5.47831 0
    endloop
  endfacet
  facet normal 0.453985 -0.891009 0
    outer loop
      vertex 4.65954 8.29443 0
      vertex 5.10557 8.52169 0
      vertex 4.65954 8.29443 2.56174
    endloop
  endfacet
  facet normal 0.453985 -0.891009 0
    outer loop
      vertex 4.65954 8.29443 2.56174
      vertex 5.10557 8.52169 0
      vertex 5.10557 8.52169 2.57521
    endloop
  endfacet
  facet normal 0.156434 0.987688 0
    outer loop
      vertex 5.10557 5.47831 0
      vertex 5.10557 5.47831 2.39479
      vertex 5.6 5.4 0
    endloop
  endfacet
  facet normal 0.156434 0.987688 -0
    outer loop
      vertex 5.10557 5.47831 2.39479
      vertex 5.6 5.4 2.39014
      vertex 5.6 5.4 0
    endloop
  endfacet
  facet normal 0.156434 -0.987688 0
    outer loop
      vertex 5.10557 8.52169 0
      vertex 5.6 8.6 0
      vertex 5.6 8.6 2.57986
    endloop
  endfacet
  facet normal 0.156434 -0.987688 0
    outer loop
      vertex 5.10557 8.52169 0
      vertex 5.6 8.6 2.57986
      vertex 5.10557 8.52169 2.57521
    endloop
  endfacet
  facet normal -0.156434 0.987688 0
    outer loop
      vertex 5.6 5.4 0
      vertex 5.6 5.4 2.39014
      vertex 6.09443 5.47831 0
    endloop
  endfacet
  facet normal -0.156434 0.987688 0
    outer loop
      vertex 5.6 5.4 2.39014
      vertex 6.09443 5.47831 2.39479
      vertex 6.09443 5.47831 0
    endloop
  endfacet
  facet normal -0.156434 -0.987688 -0
    outer loop
      vertex 5.6 8.6 0
      vertex 6.09443 8.52169 0
      vertex 6.09443 8.52169 2.57521
    endloop
  endfacet
  facet normal -0.156434 -0.987688 0
    outer loop
      vertex 5.6 8.6 0
      vertex 6.09443 8.52169 2.57521
      vertex 5.6 8.6 2.57986
    endloop
  endfacet
  facet normal 0 0 -1
    outer loop
      vertex 6.09443 5.47831 0
      vertex 18.8245 5.70557 0
      vertex 19.2706 5.47831 0
    endloop
  endfacet
  facet normal -0.453985 0.891009 0
    outer loop
      vertex 6.09443 5.47831 0
      vertex 6.09443 5.47831 2.39479
      vertex 6.54046 5.70557 0
    endloop
  endfacet
  facet normal -0 0 -1
    outer loop
      vertex 6.09443 5.47831 0
      vertex 6.54046 5.70557 0
      vertex 18.8245 5.70557 0
    endloop
  endfacet
  facet normal 2.80513e-06 -0.059173 0.998248
    outer loop
      vertex 6.09443 5.47831 2.39479
      vertex 25 0 2.07
      vertex 6.54046 5.70557 2.40826
    endloop
  endfacet
  facet normal -0.453985 0.891009 0
    outer loop
      vertex 6.09443 5.47831 2.39479
      vertex 6.54046 5.70557 2.40826
      vertex 6.54046 5.70557 0
    endloop
  endfacet
  facet normal 0 0 -1
    outer loop
      vertex 6.09443 8.52169 0
      vertex 18.8245 8.29443 0
      vertex 6.54046 8.29443 0
    endloop
  endfacet
  facet normal 0 0 -1
    outer loop
      vertex 6.09443 8.52169 0
      vertex 19.2706 8.52169 0
      vertex 18.8245 8.29443 0
    endloop
  endfacet
  facet normal -0.453985 -0.891009 -0
    outer loop
      vertex 6.09443 8.52169 0
      vertex 6.54046 8.29443 0
      vertex 6.54046 8.29443 2.56174
    endloop
  endfacet
  facet normal -0.453985 -0.891009 0
    outer loop
      vertex 6.09443 8.52169 0
      vertex 6.54046 8.29443 2.56174
      vertex 6.09443 8.52169 2.57521
    endloop
  endfacet
  facet normal 0 -0.0591675 0.998248
    outer loop
      vertex 6.09443 8.52169 2.57521
      vertex 18.8245 8.29443 2.56174
      vertex 19.2706 8.52169 2.57521
    endloop
  endfacet
  facet normal 0 -0.0591675 0.998248
    outer loop
      vertex 6.09443 8.52169 2.57521
      vertex 6.54046 8.29443 2.56174
      vertex 18.8245 8.29443 2.56174
    endloop
  endfacet
  facet normal -0.707107 0.707107 0
    outer loop
      vertex 6.54046 5.70557 0
      vertex 6.54046 5.70557 2.40826
      vertex 6.89443 6.05954 0
    endloop
  endfacet
  facet normal 0 0 -1
    outer loop
      vertex 6.54046 5.70557 0
      vertex 6.89443 6.05954 0
      vertex 18.8245 5.70557 0
    endloop
  endfacet
  facet normal 0 -0.0591667 0.998248
    outer loop
      vertex 6.54046 5.70557 2.40826
      vertex 18.8245 5.70557 2.40826
      vertex 6.89443 6.05954 2.42924
    endloop
  endfacet
  facet normal 0 -0.059182 0.998247
    outer loop
      vertex 6.54046 5.70557 2.40826
      vertex 25 0 2.07
      vertex 18.8245 5.70557 2.40826
    endloop
  endfacet
  facet normal -0.707107 0.707107 0
    outer loop
      vertex 6.54046 5.70557 2.40826
      vertex 6.89443 6.05954 2.42924
      vertex 6.89443 6.05954 0
    endloop
  endfacet
  facet normal 0 0 -1
    outer loop
      vertex 6.54046 8.29443 0
      vertex 18.8245 8.29443 0
      vertex 6.89443 7.94046 0
    endloop
  endfacet
  facet normal -0.707107 -0.707107 -0
    outer loop
      vertex 6.54046 8.29443 0
      vertex 6.89443 7.94046 0
      vertex 6.89443 7.94046 2.54076
    endloop
  endfacet
  facet normal -0.707107 -0.707107 0
    outer loop
      vertex 6.54046 8.29443 0
      vertex 6.89443 7.94046 2.54076
      vertex 6.54046 8.29443 2.56174
    endloop
  endfacet
  facet normal 0 -0.0591667 0.998248
    outer loop
      vertex 6.54046 8.29443 2.56174
      vertex 6.89443 7.94046 2.54076
      vertex 18.8245 8.29443 2.56174
    endloop
  endfacet
  facet normal 0 0 -1
    outer loop
      vertex 6.89443 6.05954 0
      vertex 18.4706 6.05954 0
      vertex 18.8245 5.70557 0
    endloop
  endfacet
  facet normal -0.891009 0.453985 0
    outer loop
      vertex 6.89443 6.05954 0
      vertex 6.89443 6.05954 2.42924
      vertex 7.12169 6.50557 0
    endloop
  endfacet
  facet normal 0 0 -1
    outer loop
      vertex 6.89443 6.05954 0
      vertex 7.12169 6.50557 0
      vertex 18.4706 6.05954 0
    endloop
  endfacet
  facet normal 0 -0.0591969 0.998246
    outer loop
      vertex 6.89443 6.05954 2.42924
      vertex 18.4706 6.05954 2.42924
      vertex 7.12169 6.50557 2.45569
    endloop
  endfacet
  facet normal 0 -0.0591667 0.998248
    outer loop
      vertex 6.89443 6.05954 2.42924
      vertex 18.8245 5.70557 2.40826
      vertex 18.4706 6.05954 2.42924
    endloop
  endfacet
  facet normal -0.891009 0.453985 0
    outer loop
      vertex 6.89443 6.05954 2.42924
      vertex 7.12169 6.50557 2.45569
      vertex 7.12169 6.50557 0
    endloop
  endfacet
  facet normal 0 0 -1
    outer loop
      vertex 6.89443 7.94046 0
      vertex 18.4706 7.94046 0
      vertex 7.12169 7.49443 0
    endloop
  endfacet
  facet normal 0 0 -1
    outer loop
      vertex 6.89443 7.94046 0
      vertex 18.8245 8.29443 0
      vertex 18.4706 7.94046 0
    endloop
  endfacet
  facet normal -0.891009 -0.453985 -0
    outer loop
      vertex 6.89443 7.94046 0
      vertex 7.12169 7.49443 0
      vertex 7.12169 7.49443 2.51431
    endloop
  endfacet
  facet normal -0.891009 -0.453985 0
    outer loop
      vertex 6.89443 7.94046 0
      vertex 7.12169 7.49443 2.51431
      vertex 6.89443 7.94046 2.54076
    endloop
  endfacet
  facet normal 0 -0.0591667 0.998248
    outer loop
      vertex 6.89443 7.94046 2.54076
      vertex 18.4706 7.94046 2.54076
      vertex 18.8245 8.29443 2.56174
    endloop
  endfacet
  facet normal 0 -0.0591969 0.998246
    outer loop
      vertex 6.89443 7.94046 2.54076
      vertex 7.12169 7.49443 2.51431
      vertex 18.4706 7.94046 2.54076
    endloop
  endfacet
  facet normal 0 0 -1
    outer loop
      vertex 7.12169 6.50557 0
      vertex 18.2433 6.50557 0
      vertex 18.4706 6.05954 0
    endloop
  endfacet
  facet normal -0.987688 0.156434 0
    outer loop
      vertex 7.12169 6.50557 0
      vertex 7.12169 6.50557 2.45569
      vertex 7.2 7 0
    endloop
  endfacet
  facet normal 0 0 -1
    outer loop
      vertex 7.12169 6.50557 0
      vertex 7.2 7 0
      vertex 18.2433 6.50557 0
    endloop
  endfacet
  facet normal 0 -0.0591765 0.998248
    outer loop
      vertex 7.12169 6.50557 2.45569
      vertex 18.2433 6.50557 2.45569
      vertex 7.2 7 2.485
    endloop
  endfacet
  facet normal 0 -0.0591969 0.998246
    outer loop
      vertex 7.12169 6.50557 2.45569
      vertex 18.4706 6.05954 2.42924
      vertex 18.2433 6.50557 2.45569
    endloop
  endfacet
  facet normal -0.987688 0.156434 0
    outer loop
      vertex 7.12169 6.50557 2.45569
      vertex 7.2 7 2.485
      vertex 7.2 7 0
    endloop
  endfacet
  facet normal 0 0 -1
    outer loop
      vertex 7.12169 7.49443 0
      vertex 18.2433 7.49443 0
      vertex 7.2 7 0
    endloop
  endfacet
  facet normal 0 0 -1
    outer loop
      vertex 7.12169 7.49443 0
      vertex 18.4706 7.94046 0
      vertex 18.2433 7.49443 0
    endloop
  endfacet
  facet normal -0.987688 -0.156434 -0
    outer loop
      vertex 7.12169 7.49443 0
      vertex 7.2 7 0
      vertex 7.2 7 2.485
    endloop
  endfacet
  facet normal -0.987688 -0.156434 0
    outer loop
      vertex 7.12169 7.49443 0
      vertex 7.2 7 2.485
      vertex 7.12169 7.49443 2.51431
    endloop
  endfacet
  facet normal 0 -0.0591969 0.998246
    outer loop
      vertex 7.12169 7.49443 2.51431
      vertex 18.2433 7.49443 2.51431
      vertex 18.4706 7.94046 2.54076
    endloop
  endfacet
  facet normal 0 -0.0591765 0.998248
    outer loop
      vertex 7.12169 7.49443 2.51431
      vertex 7.2 7 2.485
      vertex 18.2433 7.49443 2.51431
    endloop
  endfacet
  facet normal 0 0 -1
    outer loop
      vertex 7.2 7 0
      vertex 18.165 7 0
      vertex 18.2433 6.50557 0
    endloop
  endfacet
  facet normal 0 0 -1
    outer loop
      vertex 7.2 7 0
      vertex 18.2433 7.49443 0
      vertex 18.165 7 0
    endloop
  endfacet
  facet normal 0 -0.0591765 0.998248
    outer loop
      vertex 7.2 7 2.485
      vertex 18.165 7 2.485
      vertex 18.2433 7.49443 2.51431
    endloop
  endfacet
  facet normal 0 -0.0591765 0.998248
    outer loop
      vertex 7.2 7 2.485
      vertex 18.2433 6.50557 2.45569
      vertex 18.165 7 2.485
    endloop
  endfacet
endsolid model
