solid OpenSCAD_Model
  facet normal 1 -0 0
    outer loop
      vertex 1 5 3
      vertex 1 28.2 0
      vertex 1 28.2 3
    endloop
  endfacet
  facet normal 1 0 0
    outer loop
      vertex 1 28.2 0
      vertex 1 5 3
      vertex 1 5 0
    endloop
  endfacet
  facet normal -0 0 1
    outer loop
      vertex 0 33.2 3
      vertex 6.35 30.7 3
      vertex 6.35 33.2 3
    endloop
  endfacet
  facet normal 0 0 1
    outer loop
      vertex 1 28.2 3
      vertex 0 33.2 3
      vertex 1 5 3
    endloop
  endfacet
  facet normal 0 0 1
    outer loop
      vertex 6.35 30.7 3
      vertex 0 33.2 3
      vertex 1 28.2 3
    endloop
  endfacet
  facet normal 0 0 1
    outer loop
      vertex 13.2 5 3
      vertex 7.81329 2.73176 3
      vertex 7.85 2.5 3
    endloop
  endfacet
  facet normal 0 0 1
    outer loop
      vertex 13.2 5 3
      vertex 7.70676 2.94084 3
      vertex 7.81329 2.73176 3
    endloop
  endfacet
  facet normal 0 0 1
    outer loop
      vertex 13.2 5 3
      vertex 7.54084 3.10676 3
      vertex 7.70676 2.94084 3
    endloop
  endfacet
  facet normal 0 0 1
    outer loop
      vertex 13.2 5 3
      vertex 7.33176 3.21329 3
      vertex 7.54084 3.10676 3
    endloop
  endfacet
  facet normal 0 0 1
    outer loop
      vertex 13.2 5 3
      vertex 7.1 3.25 3
      vertex 7.33176 3.21329 3
    endloop
  endfacet
  facet normal -0 0 1
    outer loop
      vertex 1 5 3
      vertex 7.1 3.25 3
      vertex 13.2 5 3
    endloop
  endfacet
  facet normal 0 0 1
    outer loop
      vertex 7.1 3.25 3
      vertex 1 5 3
      vertex 6.86824 3.21329 3
    endloop
  endfacet
  facet normal 0 0 1
    outer loop
      vertex 1 5 3
      vertex 6.65916 3.10676 3
      vertex 6.86824 3.21329 3
    endloop
  endfacet
  facet normal 0 0 1
    outer loop
      vertex 1 5 3
      vertex 6.49324 2.94084 3
      vertex 6.65916 3.10676 3
    endloop
  endfacet
  facet normal 0 0 1
    outer loop
      vertex 1 5 3
      vertex 6.38671 2.73176 3
      vertex 6.49324 2.94084 3
    endloop
  endfacet
  facet normal 0 0 1
    outer loop
      vertex 1 5 3
      vertex 6.35 2.5 3
      vertex 6.38671 2.73176 3
    endloop
  endfacet
  facet normal 0 0 1
    outer loop
      vertex 0 0 3
      vertex 6.35 2.5 3
      vertex 1 5 3
    endloop
  endfacet
  facet normal 0 0 1
    outer loop
      vertex 6.35 2.5 3
      vertex 0 0 3
      vertex 6.35 0 3
    endloop
  endfacet
  facet normal 0 0 1
    outer loop
      vertex 0 0 3
      vertex 1 5 3
      vertex 0 33.2 3
    endloop
  endfacet
  facet normal 0 0 1
    outer loop
      vertex 14.2 33.2 3
      vertex 13.2 28.2 3
      vertex 14.2 0 3
    endloop
  endfacet
  facet normal 0 0 1
    outer loop
      vertex 7.85 30.7 3
      vertex 14.2 33.2 3
      vertex 7.85 33.2 3
    endloop
  endfacet
  facet normal 0 0 1
    outer loop
      vertex 14.2 33.2 3
      vertex 7.85 30.7 3
      vertex 13.2 28.2 3
    endloop
  endfacet
  facet normal -0 0 1
    outer loop
      vertex 7.81329 30.4682 3
      vertex 13.2 28.2 3
      vertex 7.85 30.7 3
    endloop
  endfacet
  facet normal -0 0 1
    outer loop
      vertex 7.70676 30.2592 3
      vertex 13.2 28.2 3
      vertex 7.81329 30.4682 3
    endloop
  endfacet
  facet normal -0 0 1
    outer loop
      vertex 7.54084 30.0932 3
      vertex 13.2 28.2 3
      vertex 7.70676 30.2592 3
    endloop
  endfacet
  facet normal -0 0 1
    outer loop
      vertex 7.33176 29.9867 3
      vertex 13.2 28.2 3
      vertex 7.54084 30.0932 3
    endloop
  endfacet
  facet normal -0 0 1
    outer loop
      vertex 7.1 29.95 3
      vertex 13.2 28.2 3
      vertex 7.33176 29.9867 3
    endloop
  endfacet
  facet normal 0 0 1
    outer loop
      vertex 1 28.2 3
      vertex 7.1 29.95 3
      vertex 6.86824 29.9867 3
    endloop
  endfacet
  facet normal 0 0 1
    outer loop
      vertex 7.1 29.95 3
      vertex 1 28.2 3
      vertex 13.2 28.2 3
    endloop
  endfacet
  facet normal 0 0 1
    outer loop
      vertex 6.65916 30.0932 3
      vertex 1 28.2 3
      vertex 6.86824 29.9867 3
    endloop
  endfacet
  facet normal 0 0 1
    outer loop
      vertex 6.49324 30.2592 3
      vertex 1 28.2 3
      vertex 6.65916 30.0932 3
    endloop
  endfacet
  facet normal 0 0 1
    outer loop
      vertex 6.38671 30.4682 3
      vertex 1 28.2 3
      vertex 6.49324 30.2592 3
    endloop
  endfacet
  facet normal 0 0 1
    outer loop
      vertex 1 28.2 3
      vertex 6.38671 30.4682 3
      vertex 6.35 30.7 3
    endloop
  endfacet
  facet normal -0 0 1
    outer loop
      vertex 13.2 5 3
      vertex 14.2 0 3
      vertex 13.2 28.2 3
    endloop
  endfacet
  facet normal -0 0 1
    outer loop
      vertex 7.85 2.5 3
      vertex 14.2 0 3
      vertex 13.2 5 3
    endloop
  endfacet
  facet normal 0 0 1
    outer loop
      vertex 14.2 0 3
      vertex 7.85 2.5 3
      vertex 7.85 0 3
    endloop
  endfacet
  facet normal -1 0 0
    outer loop
      vertex 13.2 5 0
      vertex 13.2 28.2 3
      vertex 13.2 28.2 0
    endloop
  endfacet
  facet normal -1 -0 0
    outer loop
      vertex 13.2 28.2 3
      vertex 13.2 5 0
      vertex 13.2 5 3
    endloop
  endfacet
  facet normal 0 -1 0
    outer loop
      vertex 1 28.2 0
      vertex 13.2 28.2 3
      vertex 1 28.2 3
    endloop
  endfacet
  facet normal 0 -1 -0
    outer loop
      vertex 13.2 28.2 3
      vertex 1 28.2 0
      vertex 13.2 28.2 0
    endloop
  endfacet
  facet normal 0 0 -1
    outer loop
      vertex 0 0 0
      vertex 6.35 2.5 0
      vertex 6.35 0 0
    endloop
  endfacet
  facet normal -0 0 -1
    outer loop
      vertex 1 5 0
      vertex 0 0 0
      vertex 1 28.2 0
    endloop
  endfacet
  facet normal -0 0 -1
    outer loop
      vertex 6.35 2.5 0
      vertex 0 0 0
      vertex 1 5 0
    endloop
  endfacet
  facet normal 0 0 -1
    outer loop
      vertex 13.2 28.2 0
      vertex 7.81329 30.4682 0
      vertex 7.85 30.7 0
    endloop
  endfacet
  facet normal 0 0 -1
    outer loop
      vertex 13.2 28.2 0
      vertex 7.70676 30.2592 0
      vertex 7.81329 30.4682 0
    endloop
  endfacet
  facet normal 0 0 -1
    outer loop
      vertex 13.2 28.2 0
      vertex 7.54084 30.0932 0
      vertex 7.70676 30.2592 0
    endloop
  endfacet
  facet normal 0 0 -1
    outer loop
      vertex 13.2 28.2 0
      vertex 7.33176 29.9867 0
      vertex 7.54084 30.0932 0
    endloop
  endfacet
  facet normal 0 0 -1
    outer loop
      vertex 13.2 28.2 0
      vertex 7.1 29.95 0
      vertex 7.33176 29.9867 0
    endloop
  endfacet
  facet normal 0 0 -1
    outer loop
      vertex 1 28.2 0
      vertex 7.1 29.95 0
      vertex 13.2 28.2 0
    endloop
  endfacet
  facet normal -0 0 -1
    outer loop
      vertex 7.1 29.95 0
      vertex 1 28.2 0
      vertex 6.86824 29.9867 0
    endloop
  endfacet
  facet normal 0 0 -1
    outer loop
      vertex 1 28.2 0
      vertex 6.65916 30.0932 0
      vertex 6.86824 29.9867 0
    endloop
  endfacet
  facet normal 0 0 -1
    outer loop
      vertex 1 28.2 0
      vertex 6.49324 30.2592 0
      vertex 6.65916 30.0932 0
    endloop
  endfacet
  facet normal 0 0 -1
    outer loop
      vertex 1 28.2 0
      vertex 6.38671 30.4682 0
      vertex 6.49324 30.2592 0
    endloop
  endfacet
  facet normal 0 0 -1
    outer loop
      vertex 1 28.2 0
      vertex 6.35 30.7 0
      vertex 6.38671 30.4682 0
    endloop
  endfacet
  facet normal 0 0 -1
    outer loop
      vertex 0 33.2 0
      vertex 6.35 30.7 0
      vertex 1 28.2 0
    endloop
  endfacet
  facet normal 0 0 -1
    outer loop
      vertex 6.35 30.7 0
      vertex 0 33.2 0
      vertex 6.35 33.2 0
    endloop
  endfacet
  facet normal 0 0 -1
    outer loop
      vertex 0 33.2 0
      vertex 1 28.2 0
      vertex 0 0 0
    endloop
  endfacet
  facet normal 0 0 -1
    outer loop
      vertex 14.2 0 0
      vertex 13.2 5 0
      vertex 14.2 33.2 0
    endloop
  endfacet
  facet normal 0 0 -1
    outer loop
      vertex 7.85 2.5 0
      vertex 14.2 0 0
      vertex 7.85 0 0
    endloop
  endfacet
  facet normal 0 0 -1
    outer loop
      vertex 14.2 0 0
      vertex 7.85 2.5 0
      vertex 13.2 5 0
    endloop
  endfacet
  facet normal 0 0 -1
    outer loop
      vertex 7.81329 2.73176 0
      vertex 13.2 5 0
      vertex 7.85 2.5 0
    endloop
  endfacet
  facet normal 0 0 -1
    outer loop
      vertex 7.70676 2.94084 0
      vertex 13.2 5 0
      vertex 7.81329 2.73176 0
    endloop
  endfacet
  facet normal 0 0 -1
    outer loop
      vertex 7.54084 3.10676 0
      vertex 13.2 5 0
      vertex 7.70676 2.94084 0
    endloop
  endfacet
  facet normal 0 0 -1
    outer loop
      vertex 7.33176 3.21329 0
      vertex 13.2 5 0
      vertex 7.54084 3.10676 0
    endloop
  endfacet
  facet normal 0 0 -1
    outer loop
      vertex 7.1 3.25 0
      vertex 13.2 5 0
      vertex 7.33176 3.21329 0
    endloop
  endfacet
  facet normal 0 0 -1
    outer loop
      vertex 1 5 0
      vertex 7.1 3.25 0
      vertex 6.86824 3.21329 0
    endloop
  endfacet
  facet normal 0 0 -1
    outer loop
      vertex 7.1 3.25 0
      vertex 1 5 0
      vertex 13.2 5 0
    endloop
  endfacet
  facet normal 0 0 -1
    outer loop
      vertex 6.65916 3.10676 0
      vertex 1 5 0
      vertex 6.86824 3.21329 0
    endloop
  endfacet
  facet normal 0 0 -1
    outer loop
      vertex 6.49324 2.94084 0
      vertex 1 5 0
      vertex 6.65916 3.10676 0
    endloop
  endfacet
  facet normal 0 0 -1
    outer loop
      vertex 6.38671 2.73176 0
      vertex 1 5 0
      vertex 6.49324 2.94084 0
    endloop
  endfacet
  facet normal 0 0 -1
    outer loop
      vertex 1 5 0
      vertex 6.38671 2.73176 0
      vertex 6.35 2.5 0
    endloop
  endfacet
  facet normal 0 0 -1
    outer loop
      vertex 13.2 28.2 0
      vertex 14.2 33.2 0
      vertex 13.2 5 0
    endloop
  endfacet
  facet normal 0 0 -1
    outer loop
      vertex 7.85 30.7 0
      vertex 14.2 33.2 0
      vertex 13.2 28.2 0
    endloop
  endfacet
  facet normal -0 0 -1
    outer loop
      vertex 14.2 33.2 0
      vertex 7.85 30.7 0
      vertex 7.85 33.2 0
    endloop
  endfacet
  facet normal 0 1 -0
    outer loop
      vertex 13.2 5 0
      vertex 1 5 3
      vertex 13.2 5 3
    endloop
  endfacet
  facet normal 0 1 0
    outer loop
      vertex 1 5 3
      vertex 13.2 5 0
      vertex 1 5 0
    endloop
  endfacet
  facet normal -0.987688 -0.156436 0
    outer loop
      vertex 7.85 2.5 0
      vertex 7.81329 2.73176 3
      vertex 7.81329 2.73176 0
    endloop
  endfacet
  facet normal -0.987688 -0.156436 0
    outer loop
      vertex 7.81329 2.73176 3
      vertex 7.85 2.5 0
      vertex 7.85 2.5 3
    endloop
  endfacet
  facet normal -0.891008 -0.453988 0
    outer loop
      vertex 7.81329 2.73176 0
      vertex 7.70676 2.94084 3
      vertex 7.70676 2.94084 0
    endloop
  endfacet
  facet normal -0.891008 -0.453988 0
    outer loop
      vertex 7.70676 2.94084 3
      vertex 7.81329 2.73176 0
      vertex 7.81329 2.73176 3
    endloop
  endfacet
  facet normal -1 0 0
    outer loop
      vertex 7.85 0 0
      vertex 7.85 2.5 3
      vertex 7.85 2.5 0
    endloop
  endfacet
  facet normal -1 -0 0
    outer loop
      vertex 7.85 2.5 3
      vertex 7.85 0 0
      vertex 7.85 0 3
    endloop
  endfacet
  facet normal -0.156435 -0.987688 0
    outer loop
      vertex 7.1 3.25 0
      vertex 7.33176 3.21329 3
      vertex 7.1 3.25 3
    endloop
  endfacet
  facet normal -0.156435 -0.987688 -0
    outer loop
      vertex 7.33176 3.21329 3
      vertex 7.1 3.25 0
      vertex 7.33176 3.21329 0
    endloop
  endfacet
  facet normal 1 -0 0
    outer loop
      vertex 6.35 0 3
      vertex 6.35 2.5 0
      vertex 6.35 2.5 3
    endloop
  endfacet
  facet normal 1 0 0
    outer loop
      vertex 6.35 2.5 0
      vertex 6.35 0 3
      vertex 6.35 0 0
    endloop
  endfacet
  facet normal -0.707105 -0.707109 0
    outer loop
      vertex 7.54084 3.10676 0
      vertex 7.70676 2.94084 3
      vertex 7.54084 3.10676 3
    endloop
  endfacet
  facet normal -0.707105 -0.707109 -0
    outer loop
      vertex 7.70676 2.94084 3
      vertex 7.54084 3.10676 0
      vertex 7.70676 2.94084 0
    endloop
  endfacet
  facet normal 0.987688 -0.156436 0
    outer loop
      vertex 6.35 2.5 3
      vertex 6.38671 2.73176 0
      vertex 6.38671 2.73176 3
    endloop
  endfacet
  facet normal 0.987688 -0.156436 0
    outer loop
      vertex 6.38671 2.73176 0
      vertex 6.35 2.5 3
      vertex 6.35 2.5 0
    endloop
  endfacet
  facet normal -0.453993 -0.891005 0
    outer loop
      vertex 7.33176 3.21329 0
      vertex 7.54084 3.10676 3
      vertex 7.33176 3.21329 3
    endloop
  endfacet
  facet normal -0.453993 -0.891005 -0
    outer loop
      vertex 7.54084 3.10676 3
      vertex 7.33176 3.21329 0
      vertex 7.54084 3.10676 0
    endloop
  endfacet
  facet normal 0.453993 -0.891005 0
    outer loop
      vertex 6.65916 3.10676 0
      vertex 6.86824 3.21329 3
      vertex 6.65916 3.10676 3
    endloop
  endfacet
  facet normal 0.453993 -0.891005 0
    outer loop
      vertex 6.86824 3.21329 3
      vertex 6.65916 3.10676 0
      vertex 6.86824 3.21329 0
    endloop
  endfacet
  facet normal 0.707105 -0.707109 0
    outer loop
      vertex 6.49324 2.94084 0
      vertex 6.65916 3.10676 3
      vertex 6.49324 2.94084 3
    endloop
  endfacet
  facet normal 0.707105 -0.707109 0
    outer loop
      vertex 6.65916 3.10676 3
      vertex 6.49324 2.94084 0
      vertex 6.65916 3.10676 0
    endloop
  endfacet
  facet normal 0.156435 -0.987688 0
    outer loop
      vertex 6.86824 3.21329 0
      vertex 7.1 3.25 3
      vertex 6.86824 3.21329 3
    endloop
  endfacet
  facet normal 0.156435 -0.987688 0
    outer loop
      vertex 7.1 3.25 3
      vertex 6.86824 3.21329 0
      vertex 7.1 3.25 0
    endloop
  endfacet
  facet normal 0.891008 -0.453988 0
    outer loop
      vertex 6.38671 2.73176 3
      vertex 6.49324 2.94084 0
      vertex 6.49324 2.94084 3
    endloop
  endfacet
  facet normal 0.891008 -0.453988 0
    outer loop
      vertex 6.49324 2.94084 0
      vertex 6.38671 2.73176 3
      vertex 6.38671 2.73176 0
    endloop
  endfacet
  facet normal 1 -0 0
    outer loop
      vertex 6.35 30.7 3
      vertex 6.35 33.2 0
      vertex 6.35 33.2 3
    endloop
  endfacet
  facet normal 1 0 0
    outer loop
      vertex 6.35 33.2 0
      vertex 6.35 30.7 3
      vertex 6.35 30.7 0
    endloop
  endfacet
  facet normal -1 0 0
    outer loop
      vertex 7.85 30.7 0
      vertex 7.85 33.2 3
      vertex 7.85 33.2 0
    endloop
  endfacet
  facet normal -1 -0 0
    outer loop
      vertex 7.85 33.2 3
      vertex 7.85 30.7 0
      vertex 7.85 30.7 3
    endloop
  endfacet
  facet normal -0.891007 0.45399 0
    outer loop
      vertex 7.70676 30.2592 0
      vertex 7.81329 30.4682 3
      vertex 7.81329 30.4682 0
    endloop
  endfacet
  facet normal -0.891007 0.45399 0
    outer loop
      vertex 7.81329 30.4682 3
      vertex 7.70676 30.2592 0
      vertex 7.70676 30.2592 3
    endloop
  endfacet
  facet normal 0.453996 0.891004 -0
    outer loop
      vertex 6.86824 29.9867 0
      vertex 6.65916 30.0932 3
      vertex 6.86824 29.9867 3
    endloop
  endfacet
  facet normal 0.453996 0.891004 0
    outer loop
      vertex 6.65916 30.0932 3
      vertex 6.86824 29.9867 0
      vertex 6.65916 30.0932 0
    endloop
  endfacet
  facet normal 0.987688 0.156435 0
    outer loop
      vertex 6.38671 30.4682 3
      vertex 6.35 30.7 0
      vertex 6.35 30.7 3
    endloop
  endfacet
  facet normal 0.987688 0.156435 0
    outer loop
      vertex 6.35 30.7 0
      vertex 6.38671 30.4682 3
      vertex 6.38671 30.4682 0
    endloop
  endfacet
  facet normal 0.156424 0.98769 -0
    outer loop
      vertex 7.1 29.95 0
      vertex 6.86824 29.9867 3
      vertex 7.1 29.95 3
    endloop
  endfacet
  facet normal 0.156424 0.98769 0
    outer loop
      vertex 6.86824 29.9867 3
      vertex 7.1 29.95 0
      vertex 6.86824 29.9867 0
    endloop
  endfacet
  facet normal -0.453996 0.891004 0
    outer loop
      vertex 7.54084 30.0932 0
      vertex 7.33176 29.9867 3
      vertex 7.54084 30.0932 3
    endloop
  endfacet
  facet normal -0.453996 0.891004 0
    outer loop
      vertex 7.33176 29.9867 3
      vertex 7.54084 30.0932 0
      vertex 7.33176 29.9867 0
    endloop
  endfacet
  facet normal -0.987688 0.156435 0
    outer loop
      vertex 7.81329 30.4682 0
      vertex 7.85 30.7 3
      vertex 7.85 30.7 0
    endloop
  endfacet
  facet normal -0.987688 0.156435 0
    outer loop
      vertex 7.85 30.7 3
      vertex 7.81329 30.4682 0
      vertex 7.81329 30.4682 3
    endloop
  endfacet
  facet normal 0.707107 0.707107 0
    outer loop
      vertex 6.65916 30.0932 3
      vertex 6.49324 30.2592 0
      vertex 6.49324 30.2592 3
    endloop
  endfacet
  facet normal 0.707107 0.707107 0
    outer loop
      vertex 6.49324 30.2592 0
      vertex 6.65916 30.0932 3
      vertex 6.65916 30.0932 0
    endloop
  endfacet
  facet normal -0.156424 0.98769 0
    outer loop
      vertex 7.33176 29.9867 0
      vertex 7.1 29.95 3
      vertex 7.33176 29.9867 3
    endloop
  endfacet
  facet normal -0.156424 0.98769 0
    outer loop
      vertex 7.1 29.95 3
      vertex 7.33176 29.9867 0
      vertex 7.1 29.95 0
    endloop
  endfacet
  facet normal -0.707107 0.707107 0
    outer loop
      vertex 7.54084 30.0932 0
      vertex 7.70676 30.2592 3
      vertex 7.70676 30.2592 0
    endloop
  endfacet
  facet normal -0.707107 0.707107 0
    outer loop
      vertex 7.70676 30.2592 3
      vertex 7.54084 30.0932 0
      vertex 7.54084 30.0932 3
    endloop
  endfacet
  facet normal 0.891007 0.45399 0
    outer loop
      vertex 6.49324 30.2592 3
      vertex 6.38671 30.4682 0
      vertex 6.38671 30.4682 3
    endloop
  endfacet
  facet normal 0.891007 0.45399 0
    outer loop
      vertex 6.38671 30.4682 0
      vertex 6.49324 30.2592 3
      vertex 6.49324 30.2592 0
    endloop
  endfacet
  facet normal -1 0 0
    outer loop
      vertex 0 0 0
      vertex 0 33.2 3
      vertex 0 33.2 0
    endloop
  endfacet
  facet normal -1 -0 0
    outer loop
      vertex 0 33.2 3
      vertex 0 0 0
      vertex 0 0 3
    endloop
  endfacet
  facet normal 1 -0 0
    outer loop
      vertex 14.2 0 3
      vertex 14.2 33.2 0
      vertex 14.2 33.2 3
    endloop
  endfacet
  facet normal 1 0 0
    outer loop
      vertex 14.2 33.2 0
      vertex 14.2 0 3
      vertex 14.2 0 0
    endloop
  endfacet
  facet normal 0 1 -0
    outer loop
      vertex 14.2 33.2 0
      vertex 7.85 33.2 3
      vertex 14.2 33.2 3
    endloop
  endfacet
  facet normal 0 1 0
    outer loop
      vertex 7.85 33.2 3
      vertex 14.2 33.2 0
      vertex 7.85 33.2 0
    endloop
  endfacet
  facet normal 0 1 -0
    outer loop
      vertex 6.35 33.2 0
      vertex 0 33.2 3
      vertex 6.35 33.2 3
    endloop
  endfacet
  facet normal 0 1 0
    outer loop
      vertex 0 33.2 3
      vertex 6.35 33.2 0
      vertex 0 33.2 0
    endloop
  endfacet
  facet normal 0 -1 0
    outer loop
      vertex 7.85 0 0
      vertex 14.2 0 3
      vertex 7.85 0 3
    endloop
  endfacet
  facet normal 0 -1 -0
    outer loop
      vertex 14.2 0 3
      vertex 7.85 0 0
      vertex 14.2 0 0
    endloop
  endfacet
  facet normal 0 -1 0
    outer loop
      vertex 0 0 0
      vertex 6.35 0 3
      vertex 0 0 3
    endloop
  endfacet
  facet normal 0 -1 -0
    outer loop
      vertex 6.35 0 3
      vertex 0 0 0
      vertex 6.35 0 0
    endloop
  endfacet
endsolid OpenSCAD_Model
