solid model
  facet normal 0 -1 -0
    outer loop
      vertex -0.251162 -3.99211 10
      vertex 0.251162 -3.99211 10
      vertex 0.251162 -3.99211 23
    endloop
  endfacet
  facet normal 0 -1 0
    outer loop
      vertex -0.251162 -3.99211 10
      vertex 0.251162 -3.99211 23
      vertex -0.251162 -3.99211 23
    endloop
  endfacet
  facet normal 0 0 1
    outer loop
      vertex -0.251162 -3.99211 23
      vertex 0.251162 -3.99211 23
      vertex -0.251162 3.99211 23
    endloop
  endfacet
  facet normal 0 1 0
    outer loop
      vertex -0.251162 3.99211 10
      vertex -0.251162 3.99211 23
      vertex 0.251162 3.99211 10
    endloop
  endfacet
  facet normal -0 0 1
    outer loop
      vertex -0.251162 3.99211 23
      vertex 0.251162 -3.99211 23
      vertex 0.251162 3.99211 23
    endloop
  endfacet
  facet normal 0 1 -0
    outer loop
      vertex -0.251162 3.99211 23
      vertex 0.251162 3.99211 23
      vertex 0.251162 3.99211 10
    endloop
  endfacet
  facet normal -0.125337 -0.992114 -0
    outer loop
      vertex -0.749525 -3.92915 10
      vertex -0.251162 -3.99211 10
      vertex -0.251162 -3.99211 23
    endloop
  endfacet
  facet normal -0.125337 -0.992114 0
    outer loop
      vertex -0.749525 -3.92915 10
      vertex -0.251162 -3.99211 23
      vertex -0.749525 -3.92915 23
    endloop
  endfacet
  facet normal 0 0 1
    outer loop
      vertex -0.749525 -3.92915 23
      vertex -0.251162 -3.99211 23
      vertex -0.749525 3.92915 23
    endloop
  endfacet
  facet normal -0.125337 0.992114 0
    outer loop
      vertex -0.749525 3.92915 10
      vertex -0.749525 3.92915 23
      vertex -0.251162 3.99211 10
    endloop
  endfacet
  facet normal -0 0 1
    outer loop
      vertex -0.749525 3.92915 23
      vertex -0.251162 -3.99211 23
      vertex -0.251162 3.99211 23
    endloop
  endfacet
  facet normal -0.125337 0.992114 0
    outer loop
      vertex -0.749525 3.92915 23
      vertex -0.251162 3.99211 23
      vertex -0.251162 3.99211 10
    endloop
  endfacet
  facet normal -0.248683 -0.968585 -0
    outer loop
      vertex -1.23607 -3.80423 10
      vertex -0.749525 -3.92915 10
      vertex -0.749525 -3.92915 23
    endloop
  endfacet
  facet normal -0.248683 -0.968585 0
    outer loop
      vertex -1.23607 -3.80423 10
      vertex -0.749525 -3.92915 23
      vertex -1.23607 -3.80423 23
    endloop
  endfacet
  facet normal 0 0 1
    outer loop
      vertex -1.23607 -3.80423 23
      vertex -0.749525 -3.92915 23
      vertex -1.23607 3.80423 23
    endloop
  endfacet
  facet normal -0.248683 0.968585 0
    outer loop
      vertex -1.23607 3.80423 10
      vertex -1.23607 3.80423 23
      vertex -0.749525 3.92915 10
    endloop
  endfacet
  facet normal -0 0 1
    outer loop
      vertex -1.23607 3.80423 23
      vertex -0.749525 -3.92915 23
      vertex -0.749525 3.92915 23
    endloop
  endfacet
  facet normal -0.248683 0.968585 0
    outer loop
      vertex -1.23607 3.80423 23
      vertex -0.749525 3.92915 23
      vertex -0.749525 3.92915 10
    endloop
  endfacet
  facet normal -0.368128 -0.929775 -0
    outer loop
      vertex -1.70312 -3.61931 10
      vertex -1.23607 -3.80423 10
      vertex -1.23607 -3.80423 23
    endloop
  endfacet
  facet normal -0.368128 -0.929775 0
    outer loop
      vertex -1.70312 -3.61931 10
      vertex -1.23607 -3.80423 23
      vertex -1.70312 -3.61931 23
    endloop
  endfacet
  facet normal 0 0 1
    outer loop
      vertex -1.70312 -3.61931 23
      vertex -1.23607 -3.80423 23
      vertex -1.70312 3.61931 23
    endloop
  endfacet
  facet normal -0.368128 0.929775 0
    outer loop
      vertex -1.70312 3.61931 10
      vertex -1.70312 3.61931 23
      vertex -1.23607 3.80423 10
    endloop
  endfacet
  facet normal -0 0 1
    outer loop
      vertex -1.70312 3.61931 23
      vertex -1.23607 -3.80423 23
      vertex -1.23607 3.80423 23
    endloop
  endfacet
  facet normal -0.368128 0.929775 0
    outer loop
      vertex -1.70312 3.61931 23
      vertex -1.23607 3.80423 23
      vertex -1.23607 3.80423 10
    endloop
  endfacet
  facet normal -0.481759 -0.876304 -0
    outer loop
      vertex -2.14331 -3.37731 10
      vertex -1.70312 -3.61931 10
      vertex -1.70312 -3.61931 23
    endloop
  endfacet
  facet normal -0.481759 -0.876304 0
    outer loop
      vertex -2.14331 -3.37731 10
      vertex -1.70312 -3.61931 23
      vertex -2.14331 -3.37731 23
    endloop
  endfacet
  facet normal 0 0 1
    outer loop
      vertex -2.14331 -3.37731 23
      vertex -1.70312 -3.61931 23
      vertex -2.14331 3.37731 23
    endloop
  endfacet
  facet normal -0.481759 0.876304 0
    outer loop
      vertex -2.14331 3.37731 10
      vertex -2.14331 3.37731 23
      vertex -1.70312 3.61931 10
    endloop
  endfacet
  facet normal -0 0 1
    outer loop
      vertex -2.14331 3.37731 23
      vertex -1.70312 -3.61931 23
      vertex -1.70312 3.61931 23
    endloop
  endfacet
  facet normal -0.481759 0.876304 0
    outer loop
      vertex -2.14331 3.37731 23
      vertex -1.70312 3.61931 23
      vertex -1.70312 3.61931 10
    endloop
  endfacet
  facet normal -0.587786 -0.809017 -0
    outer loop
      vertex -2.5497 -3.08205 10
      vertex -2.14331 -3.37731 10
      vertex -2.14331 -3.37731 23
    endloop
  endfacet
  facet normal -0.587786 -0.809017 0
    outer loop
      vertex -2.5497 -3.08205 10
      vertex -2.14331 -3.37731 23
      vertex -2.5497 -3.08205 23
    endloop
  endfacet
  facet normal 0 0 1
    outer loop
      vertex -2.5497 -3.08205 23
      vertex -2.14331 -3.37731 23
      vertex -2.5497 3.08205 23
    endloop
  endfacet
  facet normal -0.587786 0.809017 0
    outer loop
      vertex -2.5497 3.08205 10
      vertex -2.5497 3.08205 23
      vertex -2.14331 3.37731 10
    endloop
  endfacet
  facet normal -0 0 1
    outer loop
      vertex -2.5497 3.08205 23
      vertex -2.14331 -3.37731 23
      vertex -2.14331 3.37731 23
    endloop
  endfacet
  facet normal -0.587786 0.809017 0
    outer loop
      vertex -2.5497 3.08205 23
      vertex -2.14331 3.37731 23
      vertex -2.14331 3.37731 10
    endloop
  endfacet
  facet normal -0.684551 -0.728965 -0
    outer loop
      vertex -2.91587 -2.73819 10
      vertex -2.5497 -3.08205 10
      vertex -2.5497 -3.08205 23
    endloop
  endfacet
  facet normal -0.684551 -0.728965 0
    outer loop
      vertex -2.91587 -2.73819 10
      vertex -2.5497 -3.08205 23
      vertex -2.91587 -2.73819 23
    endloop
  endfacet
  facet normal 0 0 1
    outer loop
      vertex -2.91587 -2.73819 23
      vertex -2.5497 -3.08205 23
      vertex -2.91587 2.73819 23
    endloop
  endfacet
  facet normal -0.684551 0.728965 0
    outer loop
      vertex -2.91587 2.73819 10
      vertex -2.91587 2.73819 23
      vertex -2.5497 3.08205 10
    endloop
  endfacet
  facet normal -0 0 1
    outer loop
      vertex -2.91587 2.73819 23
      vertex -2.5497 -3.08205 23
      vertex -2.5497 3.08205 23
    endloop
  endfacet
  facet normal -0.684551 0.728965 0
    outer loop
      vertex -2.91587 2.73819 23
      vertex -2.5497 3.08205 23
      vertex -2.5497 3.08205 10
    endloop
  endfacet
  facet normal -0.770509 -0.637429 0
    outer loop
      vertex -3.23607 -2.35114 10
      vertex -2.91587 -2.73819 10
      vertex -3.23607 -2.35114 23
    endloop
  endfacet
  facet normal -0.770509 -0.637429 0
    outer loop
      vertex -3.23607 -2.35114 23
      vertex -2.91587 -2.73819 10
      vertex -2.91587 -2.73819 23
    endloop
  endfacet
  facet normal 0 0 1
    outer loop
      vertex -3.23607 -2.35114 23
      vertex -2.91587 -2.73819 23
      vertex -3.23607 2.35114 23
    endloop
  endfacet
  facet normal -0.770509 0.637429 0
    outer loop
      vertex -3.23607 2.35114 10
      vertex -2.91587 2.73819 23
      vertex -2.91587 2.73819 10
    endloop
  endfacet
  facet normal -0.770509 0.637429 0
    outer loop
      vertex -3.23607 2.35114 10
      vertex -3.23607 2.35114 23
      vertex -2.91587 2.73819 23
    endloop
  endfacet
  facet normal -0 0 1
    outer loop
      vertex -3.23607 2.35114 23
      vertex -2.91587 -2.73819 23
      vertex -2.91587 2.73819 23
    endloop
  endfacet
  facet normal -0.844329 -0.535825 0
    outer loop
      vertex -3.50523 -1.92701 10
      vertex -3.23607 -2.35114 10
      vertex -3.50523 -1.92701 23
    endloop
  endfacet
  facet normal -0.844329 -0.535825 0
    outer loop
      vertex -3.50523 -1.92701 23
      vertex -3.23607 -2.35114 10
      vertex -3.23607 -2.35114 23
    endloop
  endfacet
  facet normal 0 0 1
    outer loop
      vertex -3.50523 -1.92701 23
      vertex -3.23607 -2.35114 23
      vertex -3.50523 1.92701 23
    endloop
  endfacet
  facet normal -0.844329 0.535825 0
    outer loop
      vertex -3.50523 1.92701 10
      vertex -3.23607 2.35114 23
      vertex -3.23607 2.35114 10
    endloop
  endfacet
  facet normal -0.844329 0.535825 0
    outer loop
      vertex -3.50523 1.92701 10
      vertex -3.50523 1.92701 23
      vertex -3.23607 2.35114 23
    endloop
  endfacet
  facet normal -0 0 1
    outer loop
      vertex -3.50523 1.92701 23
      vertex -3.23607 -2.35114 23
      vertex -3.23607 2.35114 23
    endloop
  endfacet
  facet normal -0.904824 -0.425786 0
    outer loop
      vertex -3.71911 -1.4725 10
      vertex -3.50523 -1.92701 10
      vertex -3.71911 -1.4725 23
    endloop
  endfacet
  facet normal -0.904824 -0.425786 0
    outer loop
      vertex -3.71911 -1.4725 23
      vertex -3.50523 -1.92701 10
      vertex -3.50523 -1.92701 23
    endloop
  endfacet
  facet normal 0 0 1
    outer loop
      vertex -3.71911 -1.4725 23
      vertex -3.50523 -1.92701 23
      vertex -3.71911 1.4725 23
    endloop
  endfacet
  facet normal -0.904824 0.425786 0
    outer loop
      vertex -3.71911 1.4725 10
      vertex -3.50523 1.92701 23
      vertex -3.50523 1.92701 10
    endloop
  endfacet
  facet normal -0.904824 0.425786 0
    outer loop
      vertex -3.71911 1.4725 10
      vertex -3.71911 1.4725 23
      vertex -3.50523 1.92701 23
    endloop
  endfacet
  facet normal -0 0 1
    outer loop
      vertex -3.71911 1.4725 23
      vertex -3.50523 -1.92701 23
      vertex -3.50523 1.92701 23
    endloop
  endfacet
  facet normal -0.951061 -0.309004 0
    outer loop
      vertex -3.87433 -0.994759 10
      vertex -3.71911 -1.4725 10
      vertex -3.87433 -0.994759 23
    endloop
  endfacet
  facet normal -0.951061 -0.309004 0
    outer loop
      vertex -3.87433 -0.994759 23
      vertex -3.71911 -1.4725 10
      vertex -3.71911 -1.4725 23
    endloop
  endfacet
  facet normal 0 0 1
    outer loop
      vertex -3.87433 -0.994759 23
      vertex -3.71911 -1.4725 23
      vertex -3.87433 0.994759 23
    endloop
  endfacet
  facet normal -0.951061 0.309004 0
    outer loop
      vertex -3.87433 0.994759 10
      vertex -3.71911 1.4725 23
      vertex -3.71911 1.4725 10
    endloop
  endfacet
  facet normal -0.951061 0.309004 0
    outer loop
      vertex -3.87433 0.994759 10
      vertex -3.87433 0.994759 23
      vertex -3.71911 1.4725 23
    endloop
  endfacet
  facet normal -0 0 1
    outer loop
      vertex -3.87433 0.994759 23
      vertex -3.71911 -1.4725 23
      vertex -3.71911 1.4725 23
    endloop
  endfacet
  facet normal -0.982286 -0.187389 0
    outer loop
      vertex -3.96846 -0.501332 10
      vertex -3.87433 -0.994759 10
      vertex -3.96846 -0.501332 23
    endloop
  endfacet
  facet normal -0.982286 -0.187389 0
    outer loop
      vertex -3.96846 -0.501332 23
      vertex -3.87433 -0.994759 10
      vertex -3.87433 -0.994759 23
    endloop
  endfacet
  facet normal 0 0 1
    outer loop
      vertex -3.96846 -0.501332 23
      vertex -3.87433 -0.994759 23
      vertex -3.96846 0.501332 23
    endloop
  endfacet
  facet normal -0.982286 0.187389 0
    outer loop
      vertex -3.96846 0.501332 10
      vertex -3.87433 0.994759 23
      vertex -3.87433 0.994759 10
    endloop
  endfacet
  facet normal -0.982286 0.187389 0
    outer loop
      vertex -3.96846 0.501332 10
      vertex -3.96846 0.501332 23
      vertex -3.87433 0.994759 23
    endloop
  endfacet
  facet normal -0 0 1
    outer loop
      vertex -3.96846 0.501332 23
      vertex -3.87433 -0.994759 23
      vertex -3.87433 0.994759 23
    endloop
  endfacet
  facet normal 0 1 0
    outer loop
      vertex -4 -4.6 0
      vertex -4 -4.6 9
      vertex 1 -4.6 0
    endloop
  endfacet
  facet normal -1 0 0
    outer loop
      vertex -4 -4.6 9
      vertex -4 0 10
      vertex -4 4.6 9
    endloop
  endfacet
  facet normal -0 0 -1
    outer loop
      vertex -4 -4.6 9
      vertex -4 4.6 9
      vertex 1 4.6 9
    endloop
  endfacet
  facet normal 0 1 -0
    outer loop
      vertex -4 -4.6 9
      vertex 1 -4.6 9
      vertex 1 -4.6 0
    endloop
  endfacet
  facet normal 0 0 -1
    outer loop
      vertex -4 -4.6 9
      vertex 1 4.6 9
      vertex 1 -4.6 9
    endloop
  endfacet
  facet normal -0 0 -1
    outer loop
      vertex -4 -5 0
      vertex -4 -4.6 0
      vertex 1 -4.6 0
    endloop
  endfacet
  facet normal -1 0 0
    outer loop
      vertex -4 -5 0
      vertex -4 -4.6 9
      vertex -4 -4.6 0
    endloop
  endfacet
  facet normal -1 0 0
    outer loop
      vertex -4 -5 0
      vertex -4 -5 10
      vertex -4 -4.6 9
    endloop
  endfacet
  facet normal 0 0 -1
    outer loop
      vertex -4 -5 0
      vertex 1 -4.6 0
      vertex 16 -5 0
    endloop
  endfacet
  facet normal 0 -1 -0
    outer loop
      vertex -4 -5 0
      vertex 16 -5 0
      vertex 16 -5 10
    endloop
  endfacet
  facet normal 0 -1 0
    outer loop
      vertex -4 -5 0
      vertex 16 -5 10
      vertex -4 -5 10
    endloop
  endfacet
  facet normal 0 0 1
    outer loop
      vertex -4 -5 10
      vertex -0.251162 -3.99211 10
      vertex -0.749525 -3.92915 10
    endloop
  endfacet
  facet normal 0 0 1
    outer loop
      vertex -4 -5 10
      vertex -0.749525 -3.92915 10
      vertex -1.23607 -3.80423 10
    endloop
  endfacet
  facet normal 0 0 1
    outer loop
      vertex -4 -5 10
      vertex -1.23607 -3.80423 10
      vertex -1.70312 -3.61931 10
    endloop
  endfacet
  facet normal 0 0 1
    outer loop
      vertex -4 -5 10
      vertex -1.70312 -3.61931 10
      vertex -2.14331 -3.37731 10
    endloop
  endfacet
  facet normal 0 0 1
    outer loop
      vertex -4 -5 10
      vertex -2.14331 -3.37731 10
      vertex -2.5497 -3.08205 10
    endloop
  endfacet
  facet normal 0 0 1
    outer loop
      vertex -4 -5 10
      vertex -2.5497 -3.08205 10
      vertex -2.91587 -2.73819 10
    endloop
  endfacet
  facet normal 0 0 1
    outer loop
      vertex -4 -5 10
      vertex -2.91587 -2.73819 10
      vertex -3.23607 -2.35114 10
    endloop
  endfacet
  facet normal 0 0 1
    outer loop
      vertex -4 -5 10
      vertex -3.23607 -2.35114 10
      vertex -3.50523 -1.92701 10
    endloop
  endfacet
  facet normal 0 0 1
    outer loop
      vertex -4 -5 10
      vertex -3.50523 -1.92701 10
      vertex -3.71911 -1.4725 10
    endloop
  endfacet
  facet normal 0 0 1
    outer loop
      vertex -4 -5 10
      vertex -3.71911 -1.4725 10
      vertex -3.87433 -0.994759 10
    endloop
  endfacet
  facet normal 0 0 1
    outer loop
      vertex -4 -5 10
      vertex -3.87433 -0.994759 10
      vertex -3.96846 -0.501332 10
    endloop
  endfacet
  facet normal 0 0 1
    outer loop
      vertex -4 -5 10
      vertex -3.96846 -0.501332 10
      vertex -4 0 10
    endloop
  endfacet
  facet normal -1 0 0
    outer loop
      vertex -4 -5 10
      vertex -4 0 10
      vertex -4 -4.6 9
    endloop
  endfacet
  facet normal 0 0 1
    outer loop
      vertex -4 -5 10
      vertex 0.251162 -3.99211 10
      vertex -0.251162 -3.99211 10
    endloop
  endfacet
  facet normal 0 0 1
    outer loop
      vertex -4 -5 10
      vertex 0.749525 -3.92915 10
      vertex 0.251162 -3.99211 10
    endloop
  endfacet
  facet normal 0 0 1
    outer loop
      vertex -4 -5 10
      vertex 16 -5 10
      vertex 0.749525 -3.92915 10
    endloop
  endfacet
  facet normal -0.998027 -0.0627883 0
    outer loop
      vertex -4 0 10
      vertex -3.96846 -0.501332 10
      vertex -4 0 23
    endloop
  endfacet
  facet normal 0 0 1
    outer loop
      vertex -4 0 10
      vertex -3.96846 0.501332 10
      vertex -4 5 10
    endloop
  endfacet
  facet normal -0.998027 0.0627883 0
    outer loop
      vertex -4 0 10
      vertex -3.96846 0.501332 23
      vertex -3.96846 0.501332 10
    endloop
  endfacet
  facet normal -0.998027 0.0627883 0
    outer loop
      vertex -4 0 10
      vertex -4 0 23
      vertex -3.96846 0.501332 23
    endloop
  endfacet
  facet normal -1 0 0
    outer loop
      vertex -4 0 10
      vertex -4 5 10
      vertex -4 4.6 9
    endloop
  endfacet
  facet normal -0.998027 -0.0627883 0
    outer loop
      vertex -4 0 23
      vertex -3.96846 -0.501332 10
      vertex -3.96846 -0.501332 23
    endloop
  endfacet
  facet normal 0 -0 1
    outer loop
      vertex -4 0 23
      vertex -3.96846 -0.501332 23
      vertex -3.96846 0.501332 23
    endloop
  endfacet
  facet normal -1 0 0
    outer loop
      vertex -4 4.6 0
      vertex -4 4.6 9
      vertex -4 5 0
    endloop
  endfacet
  facet normal 0 0 -1
    outer loop
      vertex -4 4.6 0
      vertex -4 5 0
      vertex 1 4.6 0
    endloop
  endfacet
  facet normal 0 -1 -0
    outer loop
      vertex -4 4.6 0
      vertex 1 4.6 0
      vertex 1 4.6 9
    endloop
  endfacet
  facet normal 0 -1 0
    outer loop
      vertex -4 4.6 0
      vertex 1 4.6 9
      vertex -4 4.6 9
    endloop
  endfacet
  facet normal -1 0 0
    outer loop
      vertex -4 4.6 9
      vertex -4 5 10
      vertex -4 5 0
    endloop
  endfacet
  facet normal 0 1 0
    outer loop
      vertex -4 5 0
      vertex -4 5 10
      vertex 16 5 0
    endloop
  endfacet
  facet normal 0 0 -1
    outer loop
      vertex -4 5 0
      vertex 16 5 0
      vertex 1 4.6 0
    endloop
  endfacet
  facet normal 0 0 1
    outer loop
      vertex -4 5 10
      vertex -0.251162 3.99211 10
      vertex 0.251162 3.99211 10
    endloop
  endfacet
  facet normal 0 0 1
    outer loop
      vertex -4 5 10
      vertex -0.749525 3.92915 10
      vertex -0.251162 3.99211 10
    endloop
  endfacet
  facet normal 0 0 1
    outer loop
      vertex -4 5 10
      vertex -1.23607 3.80423 10
      vertex -0.749525 3.92915 10
    endloop
  endfacet
  facet normal 0 0 1
    outer loop
      vertex -4 5 10
      vertex -1.70312 3.61931 10
      vertex -1.23607 3.80423 10
    endloop
  endfacet
  facet normal 0 0 1
    outer loop
      vertex -4 5 10
      vertex -2.14331 3.37731 10
      vertex -1.70312 3.61931 10
    endloop
  endfacet
  facet normal 0 0 1
    outer loop
      vertex -4 5 10
      vertex -2.5497 3.08205 10
      vertex -2.14331 3.37731 10
    endloop
  endfacet
  facet normal 0 0 1
    outer loop
      vertex -4 5 10
      vertex -2.91587 2.73819 10
      vertex -2.5497 3.08205 10
    endloop
  endfacet
  facet normal 0 0 1
    outer loop
      vertex -4 5 10
      vertex -3.23607 2.35114 10
      vertex -2.91587 2.73819 10
    endloop
  endfacet
  facet normal 0 0 1
    outer loop
      vertex -4 5 10
      vertex -3.50523 1.92701 10
      vertex -3.23607 2.35114 10
    endloop
  endfacet
  facet normal 0 0 1
    outer loop
      vertex -4 5 10
      vertex -3.71911 1.4725 10
      vertex -3.50523 1.92701 10
    endloop
  endfacet
  facet normal 0 0 1
    outer loop
      vertex -4 5 10
      vertex -3.87433 0.994759 10
      vertex -3.71911 1.4725 10
    endloop
  endfacet
  facet normal 0 0 1
    outer loop
      vertex -4 5 10
      vertex -3.96846 0.501332 10
      vertex -3.87433 0.994759 10
    endloop
  endfacet
  facet normal 0 0 1
    outer loop
      vertex -4 5 10
      vertex 0.251162 3.99211 10
      vertex 0.749525 3.92915 10
    endloop
  endfacet
  facet normal -0 0 1
    outer loop
      vertex -4 5 10
      vertex 0.749525 3.92915 10
      vertex 16 5 10
    endloop
  endfacet
  facet normal 0 1 -0
    outer loop
      vertex -4 5 10
      vertex 16 5 10
      vertex 16 5 0
    endloop
  endfacet
  facet normal 0.125337 -0.992114 0
    outer loop
      vertex 0.251162 -3.99211 10
      vertex 0.749525 -3.92915 10
      vertex 0.749525 -3.92915 23
    endloop
  endfacet
  facet normal 0.125337 -0.992114 0
    outer loop
      vertex 0.251162 -3.99211 10
      vertex 0.749525 -3.92915 23
      vertex 0.251162 -3.99211 23
    endloop
  endfacet
  facet normal 0 0 1
    outer loop
      vertex 0.251162 -3.99211 23
      vertex 0.749525 -3.92915 23
      vertex 0.251162 3.99211 23
    endloop
  endfacet
  facet normal 0.125337 0.992114 0
    outer loop
      vertex 0.251162 3.99211 10
      vertex 0.251162 3.99211 23
      vertex 0.749525 3.92915 10
    endloop
  endfacet
  facet normal 0 0 1
    outer loop
      vertex 0.251162 3.99211 23
      vertex 0.749525 -3.92915 23
      vertex 0.749525 3.92915 23
    endloop
  endfacet
  facet normal 0.125337 0.992114 -0
    outer loop
      vertex 0.251162 3.99211 23
      vertex 0.749525 3.92915 23
      vertex 0.749525 3.92915 10
    endloop
  endfacet
  facet normal 0.248683 -0.968585 0
    outer loop
      vertex 0.749525 -3.92915 10
      vertex 1.23607 -3.80423 10
      vertex 1.23607 -3.80423 23
    endloop
  endfacet
  facet normal 0.248683 -0.968585 0
    outer loop
      vertex 0.749525 -3.92915 10
      vertex 1.23607 -3.80423 23
      vertex 0.749525 -3.92915 23
    endloop
  endfacet
  facet normal -0 0 1
    outer loop
      vertex 0.749525 -3.92915 10
      vertex 16 -5 10
      vertex 1.23607 -3.80423 10
    endloop
  endfacet
  facet normal 0 0 1
    outer loop
      vertex 0.749525 -3.92915 23
      vertex 1.23607 -3.80423 23
      vertex 0.749525 3.92915 23
    endloop
  endfacet
  facet normal 0.248683 0.968585 0
    outer loop
      vertex 0.749525 3.92915 10
      vertex 0.749525 3.92915 23
      vertex 1.23607 3.80423 10
    endloop
  endfacet
  facet normal 0 0 1
    outer loop
      vertex 0.749525 3.92915 10
      vertex 1.23607 3.80423 10
      vertex 16 5 10
    endloop
  endfacet
  facet normal 0 0 1
    outer loop
      vertex 0.749525 3.92915 23
      vertex 1.23607 -3.80423 23
      vertex 1.23607 3.80423 23
    endloop
  endfacet
  facet normal 0.248683 0.968585 -0
    outer loop
      vertex 0.749525 3.92915 23
      vertex 1.23607 3.80423 23
      vertex 1.23607 3.80423 10
    endloop
  endfacet
  facet normal 0 0.0627704 0.998028
    outer loop
      vertex 1 -0.181733 3.56143
      vertex 16 -0.181733 3.56143
      vertex 1 0 3.55
    endloop
  endfacet
  facet normal -0 0.187378 0.982288
    outer loop
      vertex 1 -0.181733 3.56143
      vertex 16 -0.3606 3.59555
      vertex 16 -0.181733 3.56143
    endloop
  endfacet
  facet normal 0 0.0627704 -0.998028
    outer loop
      vertex 1 -0.181733 6.43857
      vertex 1 0 6.45
      vertex 16 0 6.45
    endloop
  endfacet
  facet normal 0 0.0627704 -0.998028
    outer loop
      vertex 1 -0.181733 6.43857
      vertex 16 0 6.45
      vertex 16 -0.181733 6.43857
    endloop
  endfacet
  facet normal 0 0.187378 0.982288
    outer loop
      vertex 1 -0.3606 3.59555
      vertex 16 -0.3606 3.59555
      vertex 1 -0.181733 3.56143
    endloop
  endfacet
  facet normal -0 0.309019 0.951056
    outer loop
      vertex 1 -0.3606 3.59555
      vertex 16 -0.53378 3.65182
      vertex 16 -0.3606 3.59555
    endloop
  endfacet
  facet normal 0 0.187431 -0.982278
    outer loop
      vertex 1 -0.3606 6.40444
      vertex 1 -0.181733 6.43857
      vertex 16 -0.181733 6.43857
    endloop
  endfacet
  facet normal 0 0.187431 -0.982278
    outer loop
      vertex 1 -0.3606 6.40444
      vertex 16 -0.181733 6.43857
      vertex 16 -0.3606 6.40444
    endloop
  endfacet
  facet normal 0 0.309019 0.951056
    outer loop
      vertex 1 -0.53378 3.65182
      vertex 16 -0.53378 3.65182
      vertex 1 -0.3606 3.59555
    endloop
  endfacet
  facet normal -0 0.425772 0.90483
    outer loop
      vertex 1 -0.53378 3.65182
      vertex 16 -0.698543 3.72935
      vertex 16 -0.53378 3.65182
    endloop
  endfacet
  facet normal 0 0.308969 -0.951072
    outer loop
      vertex 1 -0.53378 6.34818
      vertex 1 -0.3606 6.40444
      vertex 16 -0.3606 6.40444
    endloop
  endfacet
  facet normal 0 0.308969 -0.951072
    outer loop
      vertex 1 -0.53378 6.34818
      vertex 16 -0.3606 6.40444
      vertex 16 -0.53378 6.34818
    endloop
  endfacet
  facet normal 0 0.425772 0.90483
    outer loop
      vertex 1 -0.698543 3.72935
      vertex 16 -0.698543 3.72935
      vertex 1 -0.53378 3.65182
    endloop
  endfacet
  facet normal -0 0.535868 0.844302
    outer loop
      vertex 1 -0.698543 3.72935
      vertex 16 -0.852288 3.82693
      vertex 16 -0.698543 3.72935
    endloop
  endfacet
  facet normal 0 0.425817 -0.904809
    outer loop
      vertex 1 -0.698543 6.27064
      vertex 1 -0.53378 6.34818
      vertex 16 -0.53378 6.34818
    endloop
  endfacet
  facet normal 0 0.425817 -0.904809
    outer loop
      vertex 1 -0.698543 6.27064
      vertex 16 -0.53378 6.34818
      vertex 16 -0.698543 6.27064
    endloop
  endfacet
  facet normal 0 0.535868 0.844302
    outer loop
      vertex 1 -0.852288 3.82693
      vertex 16 -0.852288 3.82693
      vertex 1 -0.698543 3.72935
    endloop
  endfacet
  facet normal -0 0.637423 0.770514
    outer loop
      vertex 1 -0.852288 3.82693
      vertex 16 -0.992593 3.943
      vertex 16 -0.852288 3.82693
    endloop
  endfacet
  facet normal 0 0.535829 -0.844327
    outer loop
      vertex 1 -0.852288 6.17307
      vertex 1 -0.698543 6.27064
      vertex 16 -0.698543 6.27064
    endloop
  endfacet
  facet normal 0 0.535829 -0.844327
    outer loop
      vertex 1 -0.852288 6.17307
      vertex 16 -0.698543 6.27064
      vertex 16 -0.852288 6.17307
    endloop
  endfacet
  facet normal 0 0.637423 0.770514
    outer loop
      vertex 1 -0.992593 3.943
      vertex 16 -0.992593 3.943
      vertex 1 -0.852288 3.82693
    endloop
  endfacet
  facet normal 0 0.637423 -0.770514
    outer loop
      vertex 1 -0.992593 6.057
      vertex 1 -0.852288 6.17307
      vertex 16 -0.852288 6.17307
    endloop
  endfacet
  facet normal 0 0.637423 -0.770514
    outer loop
      vertex 1 -0.992593 6.057
      vertex 16 -0.852288 6.17307
      vertex 16 -0.992593 6.057
    endloop
  endfacet
  facet normal 0 0.72898 -0.684535
    outer loop
      vertex 1 -0.992593 6.057
      vertex 16 -0.992593 6.057
      vertex 16 -1.11724 5.92426
    endloop
  endfacet
  facet normal 0 0.72898 0.684535
    outer loop
      vertex 1 -1.11724 4.07574
      vertex 16 -0.992593 3.943
      vertex 1 -0.992593 3.943
    endloop
  endfacet
  facet normal 0 0.72898 0.684535
    outer loop
      vertex 1 -1.11724 4.07574
      vertex 16 -1.11724 4.07574
      vertex 16 -0.992593 3.943
    endloop
  endfacet
  facet normal 0 0.72898 -0.684535
    outer loop
      vertex 1 -1.11724 5.92426
      vertex 1 -0.992593 6.057
      vertex 16 -1.11724 5.92426
    endloop
  endfacet
  facet normal 0 0.809009 -0.587796
    outer loop
      vertex 1 -1.11724 5.92426
      vertex 16 -1.11724 5.92426
      vertex 16 -1.22427 5.77695
    endloop
  endfacet
  facet normal 0 0.809009 0.587796
    outer loop
      vertex 1 -1.22427 4.22305
      vertex 16 -1.11724 4.07574
      vertex 1 -1.11724 4.07574
    endloop
  endfacet
  facet normal 0 0.809009 0.587796
    outer loop
      vertex 1 -1.22427 4.22305
      vertex 16 -1.22427 4.22305
      vertex 16 -1.11724 4.07574
    endloop
  endfacet
  facet normal 0 0.809009 -0.587796
    outer loop
      vertex 1 -1.22427 5.77695
      vertex 1 -1.11724 5.92426
      vertex 16 -1.22427 5.77695
    endloop
  endfacet
  facet normal 0 0.876294 -0.481778
    outer loop
      vertex 1 -1.22427 5.77695
      vertex 16 -1.22427 5.77695
      vertex 16 -1.312 5.61738
    endloop
  endfacet
  facet normal 0 0.876294 0.481778
    outer loop
      vertex 1 -1.312 4.38262
      vertex 16 -1.22427 4.22305
      vertex 1 -1.22427 4.22305
    endloop
  endfacet
  facet normal 0 0.876294 0.481778
    outer loop
      vertex 1 -1.312 4.38262
      vertex 16 -1.312 4.38262
      vertex 16 -1.22427 4.22305
    endloop
  endfacet
  facet normal 0 0.876294 -0.481778
    outer loop
      vertex 1 -1.312 5.61738
      vertex 1 -1.22427 5.77695
      vertex 16 -1.312 5.61738
    endloop
  endfacet
  facet normal 0 0.929785 -0.368103
    outer loop
      vertex 1 -1.312 5.61738
      vertex 16 -1.312 5.61738
      vertex 16 -1.37903 5.44807
    endloop
  endfacet
  facet normal 0 0.929778 0.368122
    outer loop
      vertex 1 -1.37903 4.55192
      vertex 16 -1.312 4.38262
      vertex 1 -1.312 4.38262
    endloop
  endfacet
  facet normal 0 0.929778 0.368122
    outer loop
      vertex 1 -1.37903 4.55192
      vertex 16 -1.37903 4.55192
      vertex 16 -1.312 4.38262
    endloop
  endfacet
  facet normal 0 0.929785 -0.368103
    outer loop
      vertex 1 -1.37903 5.44807
      vertex 1 -1.312 5.61738
      vertex 16 -1.37903 5.44807
    endloop
  endfacet
  facet normal 0 0.968575 -0.24872
    outer loop
      vertex 1 -1.37903 5.44807
      vertex 16 -1.37903 5.44807
      vertex 16 -1.42432 5.2717
    endloop
  endfacet
  facet normal 0 0.968579 0.248707
    outer loop
      vertex 1 -1.42432 4.7283
      vertex 16 -1.37903 4.55192
      vertex 1 -1.37903 4.55192
    endloop
  endfacet
  facet normal 0 0.968579 0.248707
    outer loop
      vertex 1 -1.42432 4.7283
      vertex 16 -1.42432 4.7283
      vertex 16 -1.37903 4.55192
    endloop
  endfacet
  facet normal 0 0.968575 -0.24872
    outer loop
      vertex 1 -1.42432 5.2717
      vertex 1 -1.37903 5.44807
      vertex 16 -1.42432 5.2717
    endloop
  endfacet
  facet normal 0 0.992116 -0.125326
    outer loop
      vertex 1 -1.42432 5.2717
      vertex 16 -1.42432 5.2717
      vertex 16 -1.44714 5.09105
    endloop
  endfacet
  facet normal 0 1 0
    outer loop
      vertex 1 -1.44714 4.90895
      vertex 1 -1.44714 5.09105
      vertex 16 -1.44714 4.90895
    endloop
  endfacet
  facet normal 0 0.992116 0.125326
    outer loop
      vertex 1 -1.44714 4.90895
      vertex 16 -1.42432 4.7283
      vertex 1 -1.42432 4.7283
    endloop
  endfacet
  facet normal 0 0.992116 0.125326
    outer loop
      vertex 1 -1.44714 4.90895
      vertex 16 -1.44714 4.90895
      vertex 16 -1.42432 4.7283
    endloop
  endfacet
  facet normal 0 0.992116 -0.125326
    outer loop
      vertex 1 -1.44714 5.09105
      vertex 1 -1.42432 5.2717
      vertex 16 -1.44714 5.09105
    endloop
  endfacet
  facet normal 0 1 -0
    outer loop
      vertex 1 -1.44714 5.09105
      vertex 16 -1.44714 5.09105
      vertex 16 -1.44714 4.90895
    endloop
  endfacet
  facet normal -1 -0 0
    outer loop
      vertex 1 -4.6 0
      vertex 1 -0.181733 3.56143
      vertex 1 0 3.55
    endloop
  endfacet
  facet normal -1 -0 0
    outer loop
      vertex 1 -4.6 0
      vertex 1 -0.3606 3.59555
      vertex 1 -0.181733 3.56143
    endloop
  endfacet
  facet normal -1 -0 0
    outer loop
      vertex 1 -4.6 0
      vertex 1 -0.53378 3.65182
      vertex 1 -0.3606 3.59555
    endloop
  endfacet
  facet normal -1 -0 0
    outer loop
      vertex 1 -4.6 0
      vertex 1 -0.698543 3.72935
      vertex 1 -0.53378 3.65182
    endloop
  endfacet
  facet normal -1 -0 0
    outer loop
      vertex 1 -4.6 0
      vertex 1 -0.852288 3.82693
      vertex 1 -0.698543 3.72935
    endloop
  endfacet
  facet normal -1 -0 0
    outer loop
      vertex 1 -4.6 0
      vertex 1 -0.992593 3.943
      vertex 1 -0.852288 3.82693
    endloop
  endfacet
  facet normal -1 -0 0
    outer loop
      vertex 1 -4.6 0
      vertex 1 -1.11724 4.07574
      vertex 1 -0.992593 3.943
    endloop
  endfacet
  facet normal -1 -0 0
    outer loop
      vertex 1 -4.6 0
      vertex 1 -1.22427 4.22305
      vertex 1 -1.11724 4.07574
    endloop
  endfacet
  facet normal -1 -0 0
    outer loop
      vertex 1 -4.6 0
      vertex 1 -1.312 4.38262
      vertex 1 -1.22427 4.22305
    endloop
  endfacet
  facet normal -1 -0 0
    outer loop
      vertex 1 -4.6 0
      vertex 1 -1.37903 4.55192
      vertex 1 -1.312 4.38262
    endloop
  endfacet
  facet normal -1 -0 0
    outer loop
      vertex 1 -4.6 0
      vertex 1 -1.42432 4.7283
      vertex 1 -1.37903 4.55192
    endloop
  endfacet
  facet normal -1 -0 0
    outer loop
      vertex 1 -4.6 0
      vertex 1 -1.44714 4.90895
      vertex 1 -1.42432 4.7283
    endloop
  endfacet
  facet normal -1 0 0
    outer loop
      vertex 1 -4.6 0
      vertex 1 -4.6 9
      vertex 1 -1.44714 4.90895
    endloop
  endfacet
  facet normal -1 0 0
    outer loop
      vertex 1 -4.6 0
      vertex 1 0 3.55
      vertex 1 4.6 0
    endloop
  endfacet
  facet normal 0 0 -1
    outer loop
      vertex 1 -4.6 0
      vertex 1 4.6 0
      vertex 16 5 0
    endloop
  endfacet
  facet normal 0 0 -1
    outer loop
      vertex 1 -4.6 0
      vertex 16 5 0
      vertex 16 -5 0
    endloop
  endfacet
  facet normal -1 0 0
    outer loop
      vertex 1 -4.6 9
      vertex 1 -0.181733 6.43857
      vertex 1 -0.3606 6.40444
    endloop
  endfacet
  facet normal -1 0 0
    outer loop
      vertex 1 -4.6 9
      vertex 1 -0.3606 6.40444
      vertex 1 -0.53378 6.34818
    endloop
  endfacet
  facet normal -1 0 0
    outer loop
      vertex 1 -4.6 9
      vertex 1 -0.53378 6.34818
      vertex 1 -0.698543 6.27064
    endloop
  endfacet
  facet normal -1 0 0
    outer loop
      vertex 1 -4.6 9
      vertex 1 -0.698543 6.27064
      vertex 1 -0.852288 6.17307
    endloop
  endfacet
  facet normal -1 0 0
    outer loop
      vertex 1 -4.6 9
      vertex 1 -0.852288 6.17307
      vertex 1 -0.992593 6.057
    endloop
  endfacet
  facet normal -1 0 0
    outer loop
      vertex 1 -4.6 9
      vertex 1 -0.992593 6.057
      vertex 1 -1.11724 5.92426
    endloop
  endfacet
  facet normal -1 0 0
    outer loop
      vertex 1 -4.6 9
      vertex 1 -1.11724 5.92426
      vertex 1 -1.22427 5.77695
    endloop
  endfacet
  facet normal -1 0 0
    outer loop
      vertex 1 -4.6 9
      vertex 1 -1.22427 5.77695
      vertex 1 -1.312 5.61738
    endloop
  endfacet
  facet normal -1 0 0
    outer loop
      vertex 1 -4.6 9
      vertex 1 -1.312 5.61738
      vertex 1 -1.37903 5.44807
    endloop
  endfacet
  facet normal -1 0 0
    outer loop
      vertex 1 -4.6 9
      vertex 1 -1.37903 5.44807
      vertex 1 -1.42432 5.2717
    endloop
  endfacet
  facet normal -1 0 0
    outer loop
      vertex 1 -4.6 9
      vertex 1 -1.42432 5.2717
      vertex 1 -1.44714 5.09105
    endloop
  endfacet
  facet normal -1 0 0
    outer loop
      vertex 1 -4.6 9
      vertex 1 -1.44714 5.09105
      vertex 1 -1.44714 4.90895
    endloop
  endfacet
  facet normal -1 0 0
    outer loop
      vertex 1 -4.6 9
      vertex 1 0 6.45
      vertex 1 -0.181733 6.43857
    endloop
  endfacet
  facet normal -1 0 0
    outer loop
      vertex 1 -4.6 9
      vertex 1 4.6 9
      vertex 1 0 6.45
    endloop
  endfacet
  facet normal -1 0 0
    outer loop
      vertex 1 0 3.55
      vertex 1 0.181733 3.56143
      vertex 1 4.6 0
    endloop
  endfacet
  facet normal -0 0.0627704 0.998028
    outer loop
      vertex 1 0 3.55
      vertex 16 -0.181733 3.56143
      vertex 16 0 3.55
    endloop
  endfacet
  facet normal 0 -0.0627704 0.998028
    outer loop
      vertex 1 0 3.55
      vertex 16 0 3.55
      vertex 1 0.181733 3.56143
    endloop
  endfacet
  facet normal -0 -0.0627704 -0.998028
    outer loop
      vertex 1 0 6.45
      vertex 1 0.181733 6.43857
      vertex 16 0.181733 6.43857
    endloop
  endfacet
  facet normal -1 0 0
    outer loop
      vertex 1 0 6.45
      vertex 1 4.6 9
      vertex 1 0.181733 6.43857
    endloop
  endfacet
  facet normal 0 -0.0627704 -0.998028
    outer loop
      vertex 1 0 6.45
      vertex 16 0.181733 6.43857
      vertex 16 0 6.45
    endloop
  endfacet
  facet normal -1 0 0
    outer loop
      vertex 1 0.181733 3.56143
      vertex 1 0.3606 3.59555
      vertex 1 4.6 0
    endloop
  endfacet
  facet normal 0 -0.0627704 0.998028
    outer loop
      vertex 1 0.181733 3.56143
      vertex 16 0 3.55
      vertex 16 0.181733 3.56143
    endloop
  endfacet
  facet normal 0 -0.187378 0.982288
    outer loop
      vertex 1 0.181733 3.56143
      vertex 16 0.181733 3.56143
      vertex 1 0.3606 3.59555
    endloop
  endfacet
  facet normal -0 -0.187431 -0.982278
    outer loop
      vertex 1 0.181733 6.43857
      vertex 1 0.3606 6.40444
      vertex 16 0.3606 6.40444
    endloop
  endfacet
  facet normal -1 0 0
    outer loop
      vertex 1 0.181733 6.43857
      vertex 1 4.6 9
      vertex 1 0.3606 6.40444
    endloop
  endfacet
  facet normal 0 -0.187431 -0.982278
    outer loop
      vertex 1 0.181733 6.43857
      vertex 16 0.3606 6.40444
      vertex 16 0.181733 6.43857
    endloop
  endfacet
  facet normal -1 0 0
    outer loop
      vertex 1 0.3606 3.59555
      vertex 1 0.53378 3.65182
      vertex 1 4.6 0
    endloop
  endfacet
  facet normal 0 -0.187378 0.982288
    outer loop
      vertex 1 0.3606 3.59555
      vertex 16 0.181733 3.56143
      vertex 16 0.3606 3.59555
    endloop
  endfacet
  facet normal 0 -0.309019 0.951056
    outer loop
      vertex 1 0.3606 3.59555
      vertex 16 0.3606 3.59555
      vertex 1 0.53378 3.65182
    endloop
  endfacet
  facet normal -0 -0.308969 -0.951072
    outer loop
      vertex 1 0.3606 6.40444
      vertex 1 0.53378 6.34818
      vertex 16 0.53378 6.34818
    endloop
  endfacet
  facet normal -1 0 0
    outer loop
      vertex 1 0.3606 6.40444
      vertex 1 4.6 9
      vertex 1 0.53378 6.34818
    endloop
  endfacet
  facet normal 0 -0.308969 -0.951072
    outer loop
      vertex 1 0.3606 6.40444
      vertex 16 0.53378 6.34818
      vertex 16 0.3606 6.40444
    endloop
  endfacet
  facet normal -1 0 0
    outer loop
      vertex 1 0.53378 3.65182
      vertex 1 0.698543 3.72935
      vertex 1 4.6 0
    endloop
  endfacet
  facet normal 0 -0.309019 0.951056
    outer loop
      vertex 1 0.53378 3.65182
      vertex 16 0.3606 3.59555
      vertex 16 0.53378 3.65182
    endloop
  endfacet
  facet normal 0 -0.425772 0.90483
    outer loop
      vertex 1 0.53378 3.65182
      vertex 16 0.53378 3.65182
      vertex 1 0.698543 3.72935
    endloop
  endfacet
  facet normal -0 -0.425817 -0.904809
    outer loop
      vertex 1 0.53378 6.34818
      vertex 1 0.698543 6.27064
      vertex 16 0.698543 6.27064
    endloop
  endfacet
  facet normal -1 0 0
    outer loop
      vertex 1 0.53378 6.34818
      vertex 1 4.6 9
      vertex 1 0.698543 6.27064
    endloop
  endfacet
  facet normal 0 -0.425817 -0.904809
    outer loop
      vertex 1 0.53378 6.34818
      vertex 16 0.698543 6.27064
      vertex 16 0.53378 6.34818
    endloop
  endfacet
  facet normal -1 0 0
    outer loop
      vertex 1 0.698543 3.72935
      vertex 1 0.852288 3.82693
      vertex 1 4.6 0
    endloop
  endfacet
  facet normal 0 -0.425772 0.90483
    outer loop
      vertex 1 0.698543 3.72935
      vertex 16 0.53378 3.65182
      vertex 16 0.698543 3.72935
    endloop
  endfacet
  facet normal 0 -0.535868 0.844302
    outer loop
      vertex 1 0.698543 3.72935
      vertex 16 0.698543 3.72935
      vertex 1 0.852288 3.82693
    endloop
  endfacet
  facet normal -0 -0.535829 -0.844327
    outer loop
      vertex 1 0.698543 6.27064
      vertex 1 0.852288 6.17307
      vertex 16 0.852288 6.17307
    endloop
  endfacet
  facet normal -1 0 0
    outer loop
      vertex 1 0.698543 6.27064
      vertex 1 4.6 9
      vertex 1 0.852288 6.17307
    endloop
  endfacet
  facet normal 0 -0.535829 -0.844327
    outer loop
      vertex 1 0.698543 6.27064
      vertex 16 0.852288 6.17307
      vertex 16 0.698543 6.27064
    endloop
  endfacet
  facet normal -1 0 0
    outer loop
      vertex 1 0.852288 3.82693
      vertex 1 0.992593 3.943
      vertex 1 4.6 0
    endloop
  endfacet
  facet normal 0 -0.535868 0.844302
    outer loop
      vertex 1 0.852288 3.82693
      vertex 16 0.698543 3.72935
      vertex 16 0.852288 3.82693
    endloop
  endfacet
  facet normal 0 -0.637423 0.770514
    outer loop
      vertex 1 0.852288 3.82693
      vertex 16 0.852288 3.82693
      vertex 1 0.992593 3.943
    endloop
  endfacet
  facet normal -0 -0.637423 -0.770514
    outer loop
      vertex 1 0.852288 6.17307
      vertex 1 0.992593 6.057
      vertex 16 0.992593 6.057
    endloop
  endfacet
  facet normal -1 0 0
    outer loop
      vertex 1 0.852288 6.17307
      vertex 1 4.6 9
      vertex 1 0.992593 6.057
    endloop
  endfacet
  facet normal 0 -0.637423 -0.770514
    outer loop
      vertex 1 0.852288 6.17307
      vertex 16 0.992593 6.057
      vertex 16 0.852288 6.17307
    endloop
  endfacet
  facet normal -1 0 0
    outer loop
      vertex 1 0.992593 3.943
      vertex 1 1.11724 4.07574
      vertex 1 4.6 0
    endloop
  endfacet
  facet normal 0 -0.637423 0.770514
    outer loop
      vertex 1 0.992593 3.943
      vertex 16 0.852288 3.82693
      vertex 16 0.992593 3.943
    endloop
  endfacet
  facet normal 0 -0.72898 0.684535
    outer loop
      vertex 1 0.992593 3.943
      vertex 16 0.992593 3.943
      vertex 16 1.11724 4.07574
    endloop
  endfacet
  facet normal 0 -0.72898 0.684535
    outer loop
      vertex 1 0.992593 3.943
      vertex 16 1.11724 4.07574
      vertex 1 1.11724 4.07574
    endloop
  endfacet
  facet normal 0 -0.72898 -0.684535
    outer loop
      vertex 1 0.992593 6.057
      vertex 1 1.11724 5.92426
      vertex 16 0.992593 6.057
    endloop
  endfacet
  facet normal -1 0 0
    outer loop
      vertex 1 0.992593 6.057
      vertex 1 4.6 9
      vertex 1 1.11724 5.92426
    endloop
  endfacet
  facet normal -1 0 0
    outer loop
      vertex 1 1.11724 4.07574
      vertex 1 1.22427 4.22305
      vertex 1 4.6 0
    endloop
  endfacet
  facet normal 0 -0.809009 0.587796
    outer loop
      vertex 1 1.11724 4.07574
      vertex 16 1.11724 4.07574
      vertex 16 1.22427 4.22305
    endloop
  endfacet
  facet normal 0 -0.809009 0.587796
    outer loop
      vertex 1 1.11724 4.07574
      vertex 16 1.22427 4.22305
      vertex 1 1.22427 4.22305
    endloop
  endfacet
  facet normal 0 -0.809009 -0.587796
    outer loop
      vertex 1 1.11724 5.92426
      vertex 1 1.22427 5.77695
      vertex 16 1.11724 5.92426
    endloop
  endfacet
  facet normal -1 0 0
    outer loop
      vertex 1 1.11724 5.92426
      vertex 1 4.6 9
      vertex 1 1.22427 5.77695
    endloop
  endfacet
  facet normal 0 -0.72898 -0.684535
    outer loop
      vertex 1 1.11724 5.92426
      vertex 16 1.11724 5.92426
      vertex 16 0.992593 6.057
    endloop
  endfacet
  facet normal -1 0 0
    outer loop
      vertex 1 1.22427 4.22305
      vertex 1 1.312 4.38262
      vertex 1 4.6 0
    endloop
  endfacet
  facet normal 0 -0.876294 0.481778
    outer loop
      vertex 1 1.22427 4.22305
      vertex 16 1.22427 4.22305
      vertex 16 1.312 4.38262
    endloop
  endfacet
  facet normal 0 -0.876294 0.481778
    outer loop
      vertex 1 1.22427 4.22305
      vertex 16 1.312 4.38262
      vertex 1 1.312 4.38262
    endloop
  endfacet
  facet normal 0 -0.876294 -0.481778
    outer loop
      vertex 1 1.22427 5.77695
      vertex 1 1.312 5.61738
      vertex 16 1.22427 5.77695
    endloop
  endfacet
  facet normal -1 0 0
    outer loop
      vertex 1 1.22427 5.77695
      vertex 1 4.6 9
      vertex 1 1.312 5.61738
    endloop
  endfacet
  facet normal 0 -0.809009 -0.587796
    outer loop
      vertex 1 1.22427 5.77695
      vertex 16 1.22427 5.77695
      vertex 16 1.11724 5.92426
    endloop
  endfacet
  facet normal -1 0 0
    outer loop
      vertex 1 1.312 4.38262
      vertex 1 1.37903 4.55192
      vertex 1 4.6 0
    endloop
  endfacet
  facet normal 0 -0.929778 0.368122
    outer loop
      vertex 1 1.312 4.38262
      vertex 16 1.312 4.38262
      vertex 16 1.37903 4.55192
    endloop
  endfacet
  facet normal 0 -0.929778 0.368122
    outer loop
      vertex 1 1.312 4.38262
      vertex 16 1.37903 4.55192
      vertex 1 1.37903 4.55192
    endloop
  endfacet
  facet normal 0 -0.929785 -0.368103
    outer loop
      vertex 1 1.312 5.61738
      vertex 1 1.37903 5.44807
      vertex 16 1.312 5.61738
    endloop
  endfacet
  facet normal -1 0 0
    outer loop
      vertex 1 1.312 5.61738
      vertex 1 4.6 9
      vertex 1 1.37903 5.44807
    endloop
  endfacet
  facet normal 0 -0.876294 -0.481778
    outer loop
      vertex 1 1.312 5.61738
      vertex 16 1.312 5.61738
      vertex 16 1.22427 5.77695
    endloop
  endfacet
  facet normal -1 0 0
    outer loop
      vertex 1 1.37903 4.55192
      vertex 1 1.42432 4.7283
      vertex 1 4.6 0
    endloop
  endfacet
  facet normal 0 -0.968579 0.248707
    outer loop
      vertex 1 1.37903 4.55192
      vertex 16 1.37903 4.55192
      vertex 16 1.42432 4.7283
    endloop
  endfacet
  facet normal 0 -0.968579 0.248707
    outer loop
      vertex 1 1.37903 4.55192
      vertex 16 1.42432 4.7283
      vertex 1 1.42432 4.7283
    endloop
  endfacet
  facet normal 0 -0.968575 -0.24872
    outer loop
      vertex 1 1.37903 5.44807
      vertex 1 1.42432 5.2717
      vertex 16 1.37903 5.44807
    endloop
  endfacet
  facet normal -1 0 0
    outer loop
      vertex 1 1.37903 5.44807
      vertex 1 4.6 9
      vertex 1 1.42432 5.2717
    endloop
  endfacet
  facet normal 0 -0.929785 -0.368103
    outer loop
      vertex 1 1.37903 5.44807
      vertex 16 1.37903 5.44807
      vertex 16 1.312 5.61738
    endloop
  endfacet
  facet normal -1 0 0
    outer loop
      vertex 1 1.42432 4.7283
      vertex 1 1.44714 4.90895
      vertex 1 4.6 0
    endloop
  endfacet
  facet normal 0 -0.992116 0.125326
    outer loop
      vertex 1 1.42432 4.7283
      vertex 16 1.42432 4.7283
      vertex 16 1.44714 4.90895
    endloop
  endfacet
  facet normal 0 -0.992116 0.125326
    outer loop
      vertex 1 1.42432 4.7283
      vertex 16 1.44714 4.90895
      vertex 1 1.44714 4.90895
    endloop
  endfacet
  facet normal 0 -0.992116 -0.125326
    outer loop
      vertex 1 1.42432 5.2717
      vertex 1 1.44714 5.09105
      vertex 16 1.42432 5.2717
    endloop
  endfacet
  facet normal -1 0 0
    outer loop
      vertex 1 1.42432 5.2717
      vertex 1 4.6 9
      vertex 1 1.44714 5.09105
    endloop
  endfacet
  facet normal 0 -0.968575 -0.24872
    outer loop
      vertex 1 1.42432 5.2717
      vertex 16 1.42432 5.2717
      vertex 16 1.37903 5.44807
    endloop
  endfacet
  facet normal -1 0 0
    outer loop
      vertex 1 1.44714 4.90895
      vertex 1 1.44714 5.09105
      vertex 1 4.6 9
    endloop
  endfacet
  facet normal -1 0 0
    outer loop
      vertex 1 1.44714 4.90895
      vertex 1 4.6 9
      vertex 1 4.6 0
    endloop
  endfacet
  facet normal 0 -1 -0
    outer loop
      vertex 1 1.44714 4.90895
      vertex 16 1.44714 4.90895
      vertex 16 1.44714 5.09105
    endloop
  endfacet
  facet normal 0 -1 0
    outer loop
      vertex 1 1.44714 4.90895
      vertex 16 1.44714 5.09105
      vertex 1 1.44714 5.09105
    endloop
  endfacet
  facet normal 0 -0.992116 -0.125326
    outer loop
      vertex 1 1.44714 5.09105
      vertex 16 1.44714 5.09105
      vertex 16 1.42432 5.2717
    endloop
  endfacet
  facet normal 0.368128 -0.929775 0
    outer loop
      vertex 1.23607 -3.80423 10
      vertex 1.70312 -3.61931 10
      vertex 1.70312 -3.61931 23
    endloop
  endfacet
  facet normal 0.368128 -0.929775 0
    outer loop
      vertex 1.23607 -3.80423 10
      vertex 1.70312 -3.61931 23
      vertex 1.23607 -3.80423 23
    endloop
  endfacet
  facet normal -0 0 1
    outer loop
      vertex 1.23607 -3.80423 10
      vertex 16 -5 10
      vertex 1.70312 -3.61931 10
    endloop
  endfacet
  facet normal 0 0 1
    outer loop
      vertex 1.23607 -3.80423 23
      vertex 1.70312 -3.61931 23
      vertex 1.23607 3.80423 23
    endloop
  endfacet
  facet normal 0.368128 0.929775 0
    outer loop
      vertex 1.23607 3.80423 10
      vertex 1.23607 3.80423 23
      vertex 1.70312 3.61931 10
    endloop
  endfacet
  facet normal 0 0 1
    outer loop
      vertex 1.23607 3.80423 10
      vertex 1.70312 3.61931 10
      vertex 16 5 10
    endloop
  endfacet
  facet normal 0 0 1
    outer loop
      vertex 1.23607 3.80423 23
      vertex 1.70312 -3.61931 23
      vertex 1.70312 3.61931 23
    endloop
  endfacet
  facet normal 0.368128 0.929775 -0
    outer loop
      vertex 1.23607 3.80423 23
      vertex 1.70312 3.61931 23
      vertex 1.70312 3.61931 10
    endloop
  endfacet
  facet normal -0 0 1
    outer loop
      vertex 1.70312 -3.61931 10
      vertex 16 -5 10
      vertex 2.14331 -3.37731 10
    endloop
  endfacet
  facet normal 0.481759 -0.876304 0
    outer loop
      vertex 1.70312 -3.61931 10
      vertex 2.14331 -3.37731 10
      vertex 2.14331 -3.37731 23
    endloop
  endfacet
  facet normal 0.481759 -0.876304 0
    outer loop
      vertex 1.70312 -3.61931 10
      vertex 2.14331 -3.37731 23
      vertex 1.70312 -3.61931 23
    endloop
  endfacet
  facet normal 0 0 1
    outer loop
      vertex 1.70312 -3.61931 23
      vertex 2.14331 -3.37731 23
      vertex 1.70312 3.61931 23
    endloop
  endfacet
  facet normal 0.481759 0.876304 0
    outer loop
      vertex 1.70312 3.61931 10
      vertex 1.70312 3.61931 23
      vertex 2.14331 3.37731 10
    endloop
  endfacet
  facet normal 0 0 1
    outer loop
      vertex 1.70312 3.61931 10
      vertex 2.14331 3.37731 10
      vertex 16 5 10
    endloop
  endfacet
  facet normal 0 0 1
    outer loop
      vertex 1.70312 3.61931 23
      vertex 2.14331 -3.37731 23
      vertex 2.14331 3.37731 23
    endloop
  endfacet
  facet normal 0.481759 0.876304 -0
    outer loop
      vertex 1.70312 3.61931 23
      vertex 2.14331 3.37731 23
      vertex 2.14331 3.37731 10
    endloop
  endfacet
  facet normal 1 0 0
    outer loop
      vertex 16 -5 0
      vertex 16 -0.181733 3.56143
      vertex 16 -0.3606 3.59555
    endloop
  endfacet
  facet normal 1 0 0
    outer loop
      vertex 16 -5 0
      vertex 16 -0.3606 3.59555
      vertex 16 -0.53378 3.65182
    endloop
  endfacet
  facet normal 1 0 0
    outer loop
      vertex 16 -5 0
      vertex 16 -0.53378 3.65182
      vertex 16 -0.698543 3.72935
    endloop
  endfacet
  facet normal 1 0 0
    outer loop
      vertex 16 -5 0
      vertex 16 -0.698543 3.72935
      vertex 16 -0.852288 3.82693
    endloop
  endfacet
  facet normal 1 0 0
    outer loop
      vertex 16 -5 0
      vertex 16 -0.852288 3.82693
      vertex 16 -0.992593 3.943
    endloop
  endfacet
  facet normal 1 0 0
    outer loop
      vertex 16 -5 0
      vertex 16 -0.992593 3.943
      vertex 16 -1.11724 4.07574
    endloop
  endfacet
  facet normal 1 0 0
    outer loop
      vertex 16 -5 0
      vertex 16 -1.11724 4.07574
      vertex 16 -1.22427 4.22305
    endloop
  endfacet
  facet normal 1 0 0
    outer loop
      vertex 16 -5 0
      vertex 16 -1.22427 4.22305
      vertex 16 -1.312 4.38262
    endloop
  endfacet
  facet normal 1 0 0
    outer loop
      vertex 16 -5 0
      vertex 16 -1.312 4.38262
      vertex 16 -1.37903 4.55192
    endloop
  endfacet
  facet normal 1 0 0
    outer loop
      vertex 16 -5 0
      vertex 16 -1.37903 4.55192
      vertex 16 -1.42432 4.7283
    endloop
  endfacet
  facet normal 1 0 0
    outer loop
      vertex 16 -5 0
      vertex 16 -1.42432 4.7283
      vertex 16 -1.44714 4.90895
    endloop
  endfacet
  facet normal 1 0 0
    outer loop
      vertex 16 -5 0
      vertex 16 -1.44714 4.90895
      vertex 16 -5 10
    endloop
  endfacet
  facet normal 1 0 0
    outer loop
      vertex 16 -5 0
      vertex 16 0 3.55
      vertex 16 -0.181733 3.56143
    endloop
  endfacet
  facet normal 1 0 0
    outer loop
      vertex 16 -5 0
      vertex 16 5 0
      vertex 16 0 3.55
    endloop
  endfacet
  facet normal 1 0 0
    outer loop
      vertex 16 -5 10
      vertex 16 -0.181733 6.43857
      vertex 16 0 6.45
    endloop
  endfacet
  facet normal 1 0 0
    outer loop
      vertex 16 -5 10
      vertex 16 -0.3606 6.40444
      vertex 16 -0.181733 6.43857
    endloop
  endfacet
  facet normal 1 0 0
    outer loop
      vertex 16 -5 10
      vertex 16 -0.53378 6.34818
      vertex 16 -0.3606 6.40444
    endloop
  endfacet
  facet normal 1 0 0
    outer loop
      vertex 16 -5 10
      vertex 16 -0.698543 6.27064
      vertex 16 -0.53378 6.34818
    endloop
  endfacet
  facet normal 1 0 0
    outer loop
      vertex 16 -5 10
      vertex 16 -0.852288 6.17307
      vertex 16 -0.698543 6.27064
    endloop
  endfacet
  facet normal 1 0 0
    outer loop
      vertex 16 -5 10
      vertex 16 -0.992593 6.057
      vertex 16 -0.852288 6.17307
    endloop
  endfacet
  facet normal 1 0 0
    outer loop
      vertex 16 -5 10
      vertex 16 -1.11724 5.92426
      vertex 16 -0.992593 6.057
    endloop
  endfacet
  facet normal 1 0 0
    outer loop
      vertex 16 -5 10
      vertex 16 -1.22427 5.77695
      vertex 16 -1.11724 5.92426
    endloop
  endfacet
  facet normal 1 0 0
    outer loop
      vertex 16 -5 10
      vertex 16 -1.312 5.61738
      vertex 16 -1.22427 5.77695
    endloop
  endfacet
  facet normal 1 0 0
    outer loop
      vertex 16 -5 10
      vertex 16 -1.37903 5.44807
      vertex 16 -1.312 5.61738
    endloop
  endfacet
  facet normal 1 0 0
    outer loop
      vertex 16 -5 10
      vertex 16 -1.42432 5.2717
      vertex 16 -1.37903 5.44807
    endloop
  endfacet
  facet normal 1 0 0
    outer loop
      vertex 16 -5 10
      vertex 16 -1.44714 4.90895
      vertex 16 -1.44714 5.09105
    endloop
  endfacet
  facet normal 1 0 0
    outer loop
      vertex 16 -5 10
      vertex 16 -1.44714 5.09105
      vertex 16 -1.42432 5.2717
    endloop
  endfacet
  facet normal 1 -0 0
    outer loop
      vertex 16 -5 10
      vertex 16 0 6.45
      vertex 16 5 10
    endloop
  endfacet
  facet normal 1 -0 0
    outer loop
      vertex 16 0 3.55
      vertex 16 5 0
      vertex 16 0.181733 3.56143
    endloop
  endfacet
  facet normal 1 0 0
    outer loop
      vertex 16 0 6.45
      vertex 16 0.181733 6.43857
      vertex 16 5 10
    endloop
  endfacet
  facet normal 1 -0 0
    outer loop
      vertex 16 0.181733 3.56143
      vertex 16 5 0
      vertex 16 0.3606 3.59555
    endloop
  endfacet
  facet normal 1 0 0
    outer loop
      vertex 16 0.181733 6.43857
      vertex 16 0.3606 6.40444
      vertex 16 5 10
    endloop
  endfacet
  facet normal 1 -0 0
    outer loop
      vertex 16 0.3606 3.59555
      vertex 16 5 0
      vertex 16 0.53378 3.65182
    endloop
  endfacet
  facet normal 1 0 0
    outer loop
      vertex 16 0.3606 6.40444
      vertex 16 0.53378 6.34818
      vertex 16 5 10
    endloop
  endfacet
  facet normal 1 -0 0
    outer loop
      vertex 16 0.53378 3.65182
      vertex 16 5 0
      vertex 16 0.698543 3.72935
    endloop
  endfacet
  facet normal 1 0 0
    outer loop
      vertex 16 0.53378 6.34818
      vertex 16 0.698543 6.27064
      vertex 16 5 10
    endloop
  endfacet
  facet normal 1 -0 0
    outer loop
      vertex 16 0.698543 3.72935
      vertex 16 5 0
      vertex 16 0.852288 3.82693
    endloop
  endfacet
  facet normal 1 0 0
    outer loop
      vertex 16 0.698543 6.27064
      vertex 16 0.852288 6.17307
      vertex 16 5 10
    endloop
  endfacet
  facet normal 1 -0 0
    outer loop
      vertex 16 0.852288 3.82693
      vertex 16 5 0
      vertex 16 0.992593 3.943
    endloop
  endfacet
  facet normal 1 0 0
    outer loop
      vertex 16 0.852288 6.17307
      vertex 16 0.992593 6.057
      vertex 16 5 10
    endloop
  endfacet
  facet normal 1 -0 0
    outer loop
      vertex 16 0.992593 3.943
      vertex 16 5 0
      vertex 16 1.11724 4.07574
    endloop
  endfacet
  facet normal 1 0 0
    outer loop
      vertex 16 0.992593 6.057
      vertex 16 1.11724 5.92426
      vertex 16 5 10
    endloop
  endfacet
  facet normal 1 -0 0
    outer loop
      vertex 16 1.11724 4.07574
      vertex 16 5 0
      vertex 16 1.22427 4.22305
    endloop
  endfacet
  facet normal 1 0 0
    outer loop
      vertex 16 1.11724 5.92426
      vertex 16 1.22427 5.77695
      vertex 16 5 10
    endloop
  endfacet
  facet normal 1 -0 0
    outer loop
      vertex 16 1.22427 4.22305
      vertex 16 5 0
      vertex 16 1.312 4.38262
    endloop
  endfacet
  facet normal 1 0 0
    outer loop
      vertex 16 1.22427 5.77695
      vertex 16 1.312 5.61738
      vertex 16 5 10
    endloop
  endfacet
  facet normal 1 -0 0
    outer loop
      vertex 16 1.312 4.38262
      vertex 16 5 0
      vertex 16 1.37903 4.55192
    endloop
  endfacet
  facet normal 1 0 0
    outer loop
      vertex 16 1.312 5.61738
      vertex 16 1.37903 5.44807
      vertex 16 5 10
    endloop
  endfacet
  facet normal 1 -0 0
    outer loop
      vertex 16 1.37903 4.55192
      vertex 16 5 0
      vertex 16 1.42432 4.7283
    endloop
  endfacet
  facet normal 1 0 0
    outer loop
      vertex 16 1.37903 5.44807
      vertex 16 1.42432 5.2717
      vertex 16 5 10
    endloop
  endfacet
  facet normal 1 -0 0
    outer loop
      vertex 16 1.42432 4.7283
      vertex 16 5 0
      vertex 16 1.44714 4.90895
    endloop
  endfacet
  facet normal 1 0 0
    outer loop
      vertex 16 1.42432 5.2717
      vertex 16 1.44714 5.09105
      vertex 16 5 10
    endloop
  endfacet
  facet normal 1 -0 0
    outer loop
      vertex 16 1.44714 4.90895
      vertex 16 5 0
      vertex 16 1.44714 5.09105
    endloop
  endfacet
  facet normal 1 0 0
    outer loop
      vertex 16 1.44714 5.09105
      vertex 16 5 0
      vertex 16 5 10
    endloop
  endfacet
  facet normal -0 0 1
    outer loop
      vertex 2.14331 -3.37731 10
      vertex 16 -5 10
      vertex 2.5497 -3.08205 10
    endloop
  endfacet
  facet normal 0.587786 -0.809017 0
    outer loop
      vertex 2.14331 -3.37731 10
      vertex 2.5497 -3.08205 10
      vertex 2.5497 -3.08205 23
    endloop
  endfacet
  facet normal 0.587786 -0.809017 0
    outer loop
      vertex 2.14331 -3.37731 10
      vertex 2.5497 -3.08205 23
      vertex 2.14331 -3.37731 23
    endloop
  endfacet
  facet normal 0 0 1
    outer loop
      vertex 2.14331 -3.37731 23
      vertex 2.5497 -3.08205 23
      vertex 2.14331 3.37731 23
    endloop
  endfacet
  facet normal 0.587786 0.809017 0
    outer loop
      vertex 2.14331 3.37731 10
      vertex 2.14331 3.37731 23
      vertex 2.5497 3.08205 10
    endloop
  endfacet
  facet normal 0 0 1
    outer loop
      vertex 2.14331 3.37731 10
      vertex 2.5497 3.08205 10
      vertex 16 5 10
    endloop
  endfacet
  facet normal 0 0 1
    outer loop
      vertex 2.14331 3.37731 23
      vertex 2.5497 -3.08205 23
      vertex 2.5497 3.08205 23
    endloop
  endfacet
  facet normal 0.587786 0.809017 -0
    outer loop
      vertex 2.14331 3.37731 23
      vertex 2.5497 3.08205 23
      vertex 2.5497 3.08205 10
    endloop
  endfacet
  facet normal -0 0 1
    outer loop
      vertex 2.5497 -3.08205 10
      vertex 16 -5 10
      vertex 2.91587 -2.73819 10
    endloop
  endfacet
  facet normal 0.684551 -0.728965 0
    outer loop
      vertex 2.5497 -3.08205 10
      vertex 2.91587 -2.73819 10
      vertex 2.91587 -2.73819 23
    endloop
  endfacet
  facet normal 0.684551 -0.728965 0
    outer loop
      vertex 2.5497 -3.08205 10
      vertex 2.91587 -2.73819 23
      vertex 2.5497 -3.08205 23
    endloop
  endfacet
  facet normal 0 0 1
    outer loop
      vertex 2.5497 -3.08205 23
      vertex 2.91587 -2.73819 23
      vertex 2.5497 3.08205 23
    endloop
  endfacet
  facet normal 0.684551 0.728965 0
    outer loop
      vertex 2.5497 3.08205 10
      vertex 2.5497 3.08205 23
      vertex 2.91587 2.73819 10
    endloop
  endfacet
  facet normal 0 0 1
    outer loop
      vertex 2.5497 3.08205 10
      vertex 2.91587 2.73819 10
      vertex 16 5 10
    endloop
  endfacet
  facet normal 0 0 1
    outer loop
      vertex 2.5497 3.08205 23
      vertex 2.91587 -2.73819 23
      vertex 2.91587 2.73819 23
    endloop
  endfacet
  facet normal 0.684551 0.728965 -0
    outer loop
      vertex 2.5497 3.08205 23
      vertex 2.91587 2.73819 23
      vertex 2.91587 2.73819 10
    endloop
  endfacet
  facet normal -0 0 1
    outer loop
      vertex 2.91587 -2.73819 10
      vertex 16 -5 10
      vertex 3.23607 -2.35114 10
    endloop
  endfacet
  facet normal 0.770509 -0.637429 0
    outer loop
      vertex 2.91587 -2.73819 10
      vertex 3.23607 -2.35114 10
      vertex 2.91587 -2.73819 23
    endloop
  endfacet
  facet normal 0.770509 -0.637429 0
    outer loop
      vertex 2.91587 -2.73819 23
      vertex 3.23607 -2.35114 10
      vertex 3.23607 -2.35114 23
    endloop
  endfacet
  facet normal 0 0 1
    outer loop
      vertex 2.91587 -2.73819 23
      vertex 3.23607 -2.35114 23
      vertex 2.91587 2.73819 23
    endloop
  endfacet
  facet normal 0.770509 0.637429 0
    outer loop
      vertex 2.91587 2.73819 10
      vertex 2.91587 2.73819 23
      vertex 3.23607 2.35114 23
    endloop
  endfacet
  facet normal 0 0 1
    outer loop
      vertex 2.91587 2.73819 10
      vertex 3.23607 2.35114 10
      vertex 16 5 10
    endloop
  endfacet
  facet normal 0.770509 0.637429 0
    outer loop
      vertex 2.91587 2.73819 10
      vertex 3.23607 2.35114 23
      vertex 3.23607 2.35114 10
    endloop
  endfacet
  facet normal 0 0 1
    outer loop
      vertex 2.91587 2.73819 23
      vertex 3.23607 -2.35114 23
      vertex 3.23607 2.35114 23
    endloop
  endfacet
  facet normal -0 0 1
    outer loop
      vertex 3.23607 -2.35114 10
      vertex 16 -5 10
      vertex 3.50523 -1.92701 10
    endloop
  endfacet
  facet normal 0.844329 -0.535825 0
    outer loop
      vertex 3.23607 -2.35114 10
      vertex 3.50523 -1.92701 10
      vertex 3.23607 -2.35114 23
    endloop
  endfacet
  facet normal 0.844329 -0.535825 0
    outer loop
      vertex 3.23607 -2.35114 23
      vertex 3.50523 -1.92701 10
      vertex 3.50523 -1.92701 23
    endloop
  endfacet
  facet normal 0 0 1
    outer loop
      vertex 3.23607 -2.35114 23
      vertex 3.50523 -1.92701 23
      vertex 3.23607 2.35114 23
    endloop
  endfacet
  facet normal 0.844329 0.535825 0
    outer loop
      vertex 3.23607 2.35114 10
      vertex 3.23607 2.35114 23
      vertex 3.50523 1.92701 23
    endloop
  endfacet
  facet normal 0 0 1
    outer loop
      vertex 3.23607 2.35114 10
      vertex 3.50523 1.92701 10
      vertex 16 5 10
    endloop
  endfacet
  facet normal 0.844329 0.535825 0
    outer loop
      vertex 3.23607 2.35114 10
      vertex 3.50523 1.92701 23
      vertex 3.50523 1.92701 10
    endloop
  endfacet
  facet normal 0 0 1
    outer loop
      vertex 3.23607 2.35114 23
      vertex 3.50523 -1.92701 23
      vertex 3.50523 1.92701 23
    endloop
  endfacet
  facet normal -0 0 1
    outer loop
      vertex 3.50523 -1.92701 10
      vertex 16 -5 10
      vertex 3.71911 -1.4725 10
    endloop
  endfacet
  facet normal 0.904824 -0.425786 0
    outer loop
      vertex 3.50523 -1.92701 10
      vertex 3.71911 -1.4725 10
      vertex 3.50523 -1.92701 23
    endloop
  endfacet
  facet normal 0.904824 -0.425786 0
    outer loop
      vertex 3.50523 -1.92701 23
      vertex 3.71911 -1.4725 10
      vertex 3.71911 -1.4725 23
    endloop
  endfacet
  facet normal 0 0 1
    outer loop
      vertex 3.50523 -1.92701 23
      vertex 3.71911 -1.4725 23
      vertex 3.50523 1.92701 23
    endloop
  endfacet
  facet normal 0.904824 0.425786 0
    outer loop
      vertex 3.50523 1.92701 10
      vertex 3.50523 1.92701 23
      vertex 3.71911 1.4725 23
    endloop
  endfacet
  facet normal 0 0 1
    outer loop
      vertex 3.50523 1.92701 10
      vertex 3.71911 1.4725 10
      vertex 16 5 10
    endloop
  endfacet
  facet normal 0.904824 0.425786 0
    outer loop
      vertex 3.50523 1.92701 10
      vertex 3.71911 1.4725 23
      vertex 3.71911 1.4725 10
    endloop
  endfacet
  facet normal 0 0 1
    outer loop
      vertex 3.50523 1.92701 23
      vertex 3.71911 -1.4725 23
      vertex 3.71911 1.4725 23
    endloop
  endfacet
  facet normal -0 0 1
    outer loop
      vertex 3.71911 -1.4725 10
      vertex 16 -5 10
      vertex 3.87433 -0.994759 10
    endloop
  endfacet
  facet normal 0.951061 -0.309004 0
    outer loop
      vertex 3.71911 -1.4725 10
      vertex 3.87433 -0.994759 10
      vertex 3.71911 -1.4725 23
    endloop
  endfacet
  facet normal 0.951061 -0.309004 0
    outer loop
      vertex 3.71911 -1.4725 23
      vertex 3.87433 -0.994759 10
      vertex 3.87433 -0.994759 23
    endloop
  endfacet
  facet normal 0 0 1
    outer loop
      vertex 3.71911 -1.4725 23
      vertex 3.87433 -0.994759 23
      vertex 3.71911 1.4725 23
    endloop
  endfacet
  facet normal 0.951061 0.309004 0
    outer loop
      vertex 3.71911 1.4725 10
      vertex 3.71911 1.4725 23
      vertex 3.87433 0.994759 23
    endloop
  endfacet
  facet normal 0 0 1
    outer loop
      vertex 3.71911 1.4725 10
      vertex 3.87433 0.994759 10
      vertex 16 5 10
    endloop
  endfacet
  facet normal 0.951061 0.309004 0
    outer loop
      vertex 3.71911 1.4725 10
      vertex 3.87433 0.994759 23
      vertex 3.87433 0.994759 10
    endloop
  endfacet
  facet normal 0 0 1
    outer loop
      vertex 3.71911 1.4725 23
      vertex 3.87433 -0.994759 23
      vertex 3.87433 0.994759 23
    endloop
  endfacet
  facet normal -0 0 1
    outer loop
      vertex 3.87433 -0.994759 10
      vertex 16 -5 10
      vertex 3.96846 -0.501332 10
    endloop
  endfacet
  facet normal 0.982286 -0.187389 0
    outer loop
      vertex 3.87433 -0.994759 10
      vertex 3.96846 -0.501332 10
      vertex 3.87433 -0.994759 23
    endloop
  endfacet
  facet normal 0.982286 -0.187389 0
    outer loop
      vertex 3.87433 -0.994759 23
      vertex 3.96846 -0.501332 10
      vertex 3.96846 -0.501332 23
    endloop
  endfacet
  facet normal 0 0 1
    outer loop
      vertex 3.87433 -0.994759 23
      vertex 3.96846 -0.501332 23
      vertex 3.87433 0.994759 23
    endloop
  endfacet
  facet normal 0.982286 0.187389 0
    outer loop
      vertex 3.87433 0.994759 10
      vertex 3.87433 0.994759 23
      vertex 3.96846 0.501332 23
    endloop
  endfacet
  facet normal 0 0 1
    outer loop
      vertex 3.87433 0.994759 10
      vertex 3.96846 0.501332 10
      vertex 16 5 10
    endloop
  endfacet
  facet normal 0.982286 0.187389 0
    outer loop
      vertex 3.87433 0.994759 10
      vertex 3.96846 0.501332 23
      vertex 3.96846 0.501332 10
    endloop
  endfacet
  facet normal 0 0 1
    outer loop
      vertex 3.87433 0.994759 23
      vertex 3.96846 -0.501332 23
      vertex 3.96846 0.501332 23
    endloop
  endfacet
  facet normal -0 0 1
    outer loop
      vertex 3.96846 -0.501332 10
      vertex 16 -5 10
      vertex 4 0 10
    endloop
  endfacet
  facet normal 0.998027 -0.0627883 0
    outer loop
      vertex 3.96846 -0.501332 10
      vertex 4 0 10
      vertex 3.96846 -0.501332 23
    endloop
  endfacet
  facet normal 0.998027 -0.0627883 0
    outer loop
      vertex 3.96846 -0.501332 23
      vertex 4 0 10
      vertex 4 0 23
    endloop
  endfacet
  facet normal 0 0 1
    outer loop
      vertex 3.96846 -0.501332 23
      vertex 4 0 23
      vertex 3.96846 0.501332 23
    endloop
  endfacet
  facet normal 0.998027 0.0627883 0
    outer loop
      vertex 3.96846 0.501332 10
      vertex 3.96846 0.501332 23
      vertex 4 0 23
    endloop
  endfacet
  facet normal 0 0 1
    outer loop
      vertex 3.96846 0.501332 10
      vertex 4 0 10
      vertex 16 5 10
    endloop
  endfacet
  facet normal 0.998027 0.0627883 0
    outer loop
      vertex 3.96846 0.501332 10
      vertex 4 0 23
      vertex 4 0 10
    endloop
  endfacet
  facet normal 0 0 1
    outer loop
      vertex 4 0 10
      vertex 16 -5 10
      vertex 16 5 10
    endloop
  endfacet
endsolid model
