solid model
  facet normal 0 1 0
    outer loop
      vertex -0.927051 -2.85317 -1
      vertex -0.927051 -2.85317 1
      vertex 0.927051 -2.85317 -1
    endloop
  endfacet
  facet normal 0 0 -1
    outer loop
      vertex -0.927051 -2.85317 -1
      vertex 0.927051 -2.85317 -1
      vertex 1.56793 -14.9178 -1
    endloop
  endfacet
  facet normal 0 1 -0
    outer loop
      vertex -0.927051 -2.85317 1
      vertex 0.927051 -2.85317 1
      vertex 0.927051 -2.85317 -1
    endloop
  endfacet
  facet normal -0 0 1
    outer loop
      vertex -0.927051 -2.85317 1
      vertex 1.56793 -14.9178 1
      vertex 0.927051 -2.85317 1
    endloop
  endfacet
  facet normal 0 1 0
    outer loop
      vertex -0.927051 17.1468 -1
      vertex -0.927051 17.1468 1
      vertex 0.927051 17.1468 -1
    endloop
  endfacet
  facet normal 0 1 -0
    outer loop
      vertex -0.927051 17.1468 1
      vertex 0.927051 17.1468 1
      vertex 0.927051 17.1468 -1
    endloop
  endfacet
  facet normal 0 -1 -0
    outer loop
      vertex -0.927051 2.85317 -1
      vertex 0.927051 2.85317 -1
      vertex 0.927051 2.85317 1
    endloop
  endfacet
  facet normal 0 -1 0
    outer loop
      vertex -0.927051 2.85317 -1
      vertex 0.927051 2.85317 1
      vertex -0.927051 2.85317 1
    endloop
  endfacet
  facet normal 0 -1 -0
    outer loop
      vertex -0.927051 22.8532 -1
      vertex 0.927051 22.8532 -1
      vertex 0.927051 22.8532 1
    endloop
  endfacet
  facet normal 0 -1 0
    outer loop
      vertex -0.927051 22.8532 -1
      vertex 0.927051 22.8532 1
      vertex -0.927051 22.8532 1
    endloop
  endfacet
  facet normal 0 0 -1
    outer loop
      vertex -0.927051 22.8532 -1
      vertex 5 35 -1
      vertex 0.927051 22.8532 -1
    endloop
  endfacet
  facet normal 0 0 1
    outer loop
      vertex -0.927051 22.8532 1
      vertex 0.927051 22.8532 1
      vertex 5 35 1
    endloop
  endfacet
  facet normal 0 0 -1
    outer loop
      vertex -1.56793 -14.9178 -1
      vertex -0.927051 -2.85317 -1
      vertex 1.56793 -14.9178 -1
    endloop
  endfacet
  facet normal 0 -1 -0
    outer loop
      vertex -1.56793 -14.9178 -1
      vertex 1.56793 -14.9178 -1
      vertex 1.56793 -14.9178 1
    endloop
  endfacet
  facet normal 0 -1 0
    outer loop
      vertex -1.56793 -14.9178 -1
      vertex 1.56793 -14.9178 1
      vertex -1.56793 -14.9178 1
    endloop
  endfacet
  facet normal 0 0 1
    outer loop
      vertex -1.56793 -14.9178 1
      vertex 1.56793 -14.9178 1
      vertex -0.927051 -2.85317 1
    endloop
  endfacet
  facet normal -0.587777 0.809023 0
    outer loop
      vertex -10.037 11.1472 -1
      vertex -10.037 11.1472 1
      vertex -7.5 12.9904 -1
    endloop
  endfacet
  facet normal 0 -0 -1
    outer loop
      vertex -10.037 11.1472 -1
      vertex -7.5 12.9904 -1
      vertex -3 0 -1
    endloop
  endfacet
  facet normal -0 0 1
    outer loop
      vertex -10.037 11.1472 1
      vertex -2.42705 1.76336 1
      vertex -7.5 12.9904 1
    endloop
  endfacet
  facet normal -0.587777 0.809023 0
    outer loop
      vertex -10.037 11.1472 1
      vertex -7.5 12.9904 1
      vertex -7.5 12.9904 -1
    endloop
  endfacet
  facet normal 0 0 -1
    outer loop
      vertex -12.1353 8.81678 -1
      vertex -10.037 11.1472 -1
      vertex -3 0 -1
    endloop
  endfacet
  facet normal -0.743148 0.669127 0
    outer loop
      vertex -12.1353 8.81678 -1
      vertex -10.037 11.1472 1
      vertex -10.037 11.1472 -1
    endloop
  endfacet
  facet normal -0.743148 0.669127 0
    outer loop
      vertex -12.1353 8.81678 -1
      vertex -12.1353 8.81678 1
      vertex -10.037 11.1472 1
    endloop
  endfacet
  facet normal -0 0 1
    outer loop
      vertex -12.1353 8.81678 1
      vertex -2.42705 1.76336 1
      vertex -10.037 11.1472 1
    endloop
  endfacet
  facet normal 0 0 -1
    outer loop
      vertex -13.7032 6.10105 -1
      vertex -12.1353 8.81678 -1
      vertex -3 0 -1
    endloop
  endfacet
  facet normal -0.866029 0.499993 0
    outer loop
      vertex -13.7032 6.10105 -1
      vertex -12.1353 8.81678 1
      vertex -12.1353 8.81678 -1
    endloop
  endfacet
  facet normal -0.866029 0.499993 0
    outer loop
      vertex -13.7032 6.10105 -1
      vertex -13.7032 6.10105 1
      vertex -12.1353 8.81678 1
    endloop
  endfacet
  facet normal -0 0 1
    outer loop
      vertex -13.7032 6.10105 1
      vertex -2.42705 1.76336 1
      vertex -12.1353 8.81678 1
    endloop
  endfacet
  facet normal 0 0 1
    outer loop
      vertex -13.7032 6.10105 1
      vertex -3 0 1
      vertex -2.42705 1.76336 1
    endloop
  endfacet
  facet normal 0 0 1
    outer loop
      vertex -14.3861 -9.37626 1
      vertex -9.71395 -11.3819 1
      vertex -3 0 1
    endloop
  endfacet
  facet normal 0 0 -1
    outer loop
      vertex -14.5799 -11.2202 -1
      vertex -14.3861 -9.37626 -1
      vertex -9.71395 -11.3819 -1
    endloop
  endfacet
  facet normal -0.994522 0.104525 0
    outer loop
      vertex -14.5799 -11.2202 -1
      vertex -14.3861 -9.37626 1
      vertex -14.3861 -9.37626 -1
    endloop
  endfacet
  facet normal -0.994522 0.104525 0
    outer loop
      vertex -14.5799 -11.2202 -1
      vertex -14.5799 -11.2202 1
      vertex -14.3861 -9.37626 1
    endloop
  endfacet
  facet normal -0 0 1
    outer loop
      vertex -14.5799 -11.2202 1
      vertex -9.71395 -11.3819 1
      vertex -14.3861 -9.37626 1
    endloop
  endfacet
  facet normal 0 0 -1
    outer loop
      vertex -14.6722 3.11868 -1
      vertex -13.7032 6.10105 -1
      vertex -3 0 -1
    endloop
  endfacet
  facet normal -0.951059 0.309008 0
    outer loop
      vertex -14.6722 3.11868 -1
      vertex -13.7032 6.10105 1
      vertex -13.7032 6.10105 -1
    endloop
  endfacet
  facet normal -0.951059 0.309008 0
    outer loop
      vertex -14.6722 3.11868 -1
      vertex -14.6722 3.11868 1
      vertex -13.7032 6.10105 1
    endloop
  endfacet
  facet normal -0 0 1
    outer loop
      vertex -14.6722 3.11868 1
      vertex -3 0 1
      vertex -13.7032 6.10105 1
    endloop
  endfacet
  facet normal 0 0 -1
    outer loop
      vertex -14.7139 -2.7216 -1
      vertex -2.42705 -1.76336 -1
      vertex -9.71395 -11.3819 -1
    endloop
  endfacet
  facet normal -0 0 -1
    outer loop
      vertex -14.7139 -2.7216 -1
      vertex -3 0 -1
      vertex -2.42705 -1.76336 -1
    endloop
  endfacet
  facet normal 0 0 -1
    outer loop
      vertex -14.7139 -2.7216 -1
      vertex -9.71395 -11.3819 -1
      vertex -14.3861 -9.37626 -1
    endloop
  endfacet
  facet normal 0 0 1
    outer loop
      vertex -14.7139 -2.7216 1
      vertex -14.3861 -9.37626 1
      vertex -3 0 1
    endloop
  endfacet
  facet normal 0 0 -1
    outer loop
      vertex -15 0 -1
      vertex -14.6722 3.11868 -1
      vertex -3 0 -1
    endloop
  endfacet
  facet normal -0.994521 0.104533 0
    outer loop
      vertex -15 0 -1
      vertex -14.6722 3.11868 1
      vertex -14.6722 3.11868 -1
    endloop
  endfacet
  facet normal -0.99452 -0.104546 0
    outer loop
      vertex -15 0 -1
      vertex -14.7139 -2.7216 -1
      vertex -15 0 1
    endloop
  endfacet
  facet normal -0.994521 0.104533 0
    outer loop
      vertex -15 0 -1
      vertex -15 0 1
      vertex -14.6722 3.11868 1
    endloop
  endfacet
  facet normal 0 0 -1
    outer loop
      vertex -15 0 -1
      vertex -3 0 -1
      vertex -14.7139 -2.7216 -1
    endloop
  endfacet
  facet normal -0.99452 -0.104546 0
    outer loop
      vertex -15 0 1
      vertex -14.7139 -2.7216 -1
      vertex -14.7139 -2.7216 1
    endloop
  endfacet
  facet normal 0 0 1
    outer loop
      vertex -15 0 1
      vertex -14.7139 -2.7216 1
      vertex -3 0 1
    endloop
  endfacet
  facet normal 0 0 1
    outer loop
      vertex -15 0 1
      vertex -3 0 1
      vertex -14.6722 3.11868 1
    endloop
  endfacet
  facet normal -0.866036 -0.499982 0
    outer loop
      vertex -15.3131 -7.77057 -1
      vertex -14.3861 -9.37626 -1
      vertex -15.3131 -7.77057 1
    endloop
  endfacet
  facet normal 0 0 -1
    outer loop
      vertex -15.3131 -7.77057 -1
      vertex -14.7139 -2.7216 -1
      vertex -14.3861 -9.37626 -1
    endloop
  endfacet
  facet normal -0.866036 -0.499982 0
    outer loop
      vertex -15.3131 -7.77057 1
      vertex -14.3861 -9.37626 -1
      vertex -14.3861 -9.37626 1
    endloop
  endfacet
  facet normal 0 0 1
    outer loop
      vertex -15.3131 -7.77057 1
      vertex -14.3861 -9.37626 1
      vertex -14.7139 -2.7216 1
    endloop
  endfacet
  facet normal -0 0 -1
    outer loop
      vertex -15.8205 -12.5981 -1
      vertex -14.5799 -11.2202 -1
      vertex -9.71395 -11.3819 -1
    endloop
  endfacet
  facet normal -0.743163 0.669111 0
    outer loop
      vertex -15.8205 -12.5981 -1
      vertex -14.5799 -11.2202 1
      vertex -14.5799 -11.2202 -1
    endloop
  endfacet
  facet normal -0.743163 0.669111 0
    outer loop
      vertex -15.8205 -12.5981 -1
      vertex -15.8205 -12.5981 1
      vertex -14.5799 -11.2202 1
    endloop
  endfacet
  facet normal 0 0 1
    outer loop
      vertex -15.8205 -12.5981 1
      vertex -9.71395 -11.3819 1
      vertex -14.5799 -11.2202 1
    endloop
  endfacet
  facet normal 0 0 -1
    outer loop
      vertex -17.0069 -7.01643 -1
      vertex -14.7139 -2.7216 -1
      vertex -15.3131 -7.77057 -1
    endloop
  endfacet
  facet normal -0.406742 -0.913543 -0
    outer loop
      vertex -17.0069 -7.01643 -1
      vertex -15.3131 -7.77057 -1
      vertex -15.3131 -7.77057 1
    endloop
  endfacet
  facet normal -0.406742 -0.913543 0
    outer loop
      vertex -17.0069 -7.01643 -1
      vertex -15.3131 -7.77057 1
      vertex -17.0069 -7.01643 1
    endloop
  endfacet
  facet normal 0 0 1
    outer loop
      vertex -17.0069 -7.01643 1
      vertex -15.3131 -7.77057 1
      vertex -14.7139 -2.7216 1
    endloop
  endfacet
  facet normal -0.207916 0.978147 0
    outer loop
      vertex -17.6341 -12.9836 -1
      vertex -17.6341 -12.9836 1
      vertex -15.8205 -12.5981 -1
    endloop
  endfacet
  facet normal -0.207916 0.978147 0
    outer loop
      vertex -17.6341 -12.9836 1
      vertex -15.8205 -12.5981 1
      vertex -15.8205 -12.5981 -1
    endloop
  endfacet
  facet normal 0 0 -1
    outer loop
      vertex -18.8205 -7.40192 -1
      vertex -14.7139 -2.7216 -1
      vertex -17.0069 -7.01643 -1
    endloop
  endfacet
  facet normal 0.20791 -0.978148 0
    outer loop
      vertex -18.8205 -7.40192 -1
      vertex -17.0069 -7.01643 -1
      vertex -17.0069 -7.01643 1
    endloop
  endfacet
  facet normal 0.20791 -0.978148 0
    outer loop
      vertex -18.8205 -7.40192 -1
      vertex -17.0069 -7.01643 1
      vertex -18.8205 -7.40192 1
    endloop
  endfacet
  facet normal 0 0 1
    outer loop
      vertex -18.8205 -7.40192 1
      vertex -17.0069 -7.01643 1
      vertex -14.7139 -2.7216 1
    endloop
  endfacet
  facet normal 0.406769 0.913531 0
    outer loop
      vertex -19.3279 -12.2294 -1
      vertex -19.3279 -12.2294 1
      vertex -17.6341 -12.9836 -1
    endloop
  endfacet
  facet normal 0.406769 0.913531 -0
    outer loop
      vertex -19.3279 -12.2294 1
      vertex -17.6341 -12.9836 1
      vertex -17.6341 -12.9836 -1
    endloop
  endfacet
  facet normal 0.587784 0.809018 0
    outer loop
      vertex -2.42705 -1.76336 -1
      vertex -2.42705 -1.76336 1
      vertex -0.927051 -2.85317 -1
    endloop
  endfacet
  facet normal 0.587784 0.809018 -0
    outer loop
      vertex -2.42705 -1.76336 1
      vertex -0.927051 -2.85317 1
      vertex -0.927051 -2.85317 -1
    endloop
  endfacet
  facet normal 0.587784 -0.809018 0
    outer loop
      vertex -2.42705 1.76336 -1
      vertex -0.927051 2.85317 -1
      vertex -0.927051 2.85317 1
    endloop
  endfacet
  facet normal 0.587784 -0.809018 0
    outer loop
      vertex -2.42705 1.76336 -1
      vertex -0.927051 2.85317 1
      vertex -2.42705 1.76336 1
    endloop
  endfacet
  facet normal 0.587781 0.80902 0
    outer loop
      vertex -2.42705 18.2366 -1
      vertex -2.42705 18.2366 1
      vertex -0.927051 17.1468 -1
    endloop
  endfacet
  facet normal 0.587781 0.80902 -0
    outer loop
      vertex -2.42705 18.2366 1
      vertex -0.927051 17.1468 1
      vertex -0.927051 17.1468 -1
    endloop
  endfacet
  facet normal 0.587781 -0.80902 0
    outer loop
      vertex -2.42705 21.7634 -1
      vertex -0.927051 22.8532 -1
      vertex -0.927051 22.8532 1
    endloop
  endfacet
  facet normal 0.587781 -0.80902 0
    outer loop
      vertex -2.42705 21.7634 -1
      vertex -0.927051 22.8532 1
      vertex -2.42705 21.7634 1
    endloop
  endfacet
  facet normal 0.743155 -0.669119 0
    outer loop
      vertex -20.0611 -8.77979 -1
      vertex -18.8205 -7.40192 -1
      vertex -20.0611 -8.77979 1
    endloop
  endfacet
  facet normal 0.743155 -0.669119 0
    outer loop
      vertex -20.0611 -8.77979 1
      vertex -18.8205 -7.40192 -1
      vertex -18.8205 -7.40192 1
    endloop
  endfacet
  facet normal 0.866014 0.50002 0
    outer loop
      vertex -20.255 -10.6237 -1
      vertex -19.3279 -12.2294 1
      vertex -19.3279 -12.2294 -1
    endloop
  endfacet
  facet normal 0.994516 -0.10458 0
    outer loop
      vertex -20.255 -10.6237 -1
      vertex -20.0611 -8.77979 -1
      vertex -20.255 -10.6237 1
    endloop
  endfacet
  facet normal 0.866014 0.50002 0
    outer loop
      vertex -20.255 -10.6237 -1
      vertex -20.255 -10.6237 1
      vertex -19.3279 -12.2294 1
    endloop
  endfacet
  facet normal 0.994516 -0.10458 0
    outer loop
      vertex -20.255 -10.6237 1
      vertex -20.0611 -8.77979 -1
      vertex -20.0611 -8.77979 1
    endloop
  endfacet
  facet normal 0 0 -1
    outer loop
      vertex -27.8109 -21.8301 -1
      vertex -15.8205 -12.5981 -1
      vertex -9.71395 -11.3819 -1
    endloop
  endfacet
  facet normal 0 0 -1
    outer loop
      vertex -27.8109 -21.8301 -1
      vertex -17.6341 -12.9836 -1
      vertex -15.8205 -12.5981 -1
    endloop
  endfacet
  facet normal -0 0 -1
    outer loop
      vertex -27.8109 -21.8301 -1
      vertex -19.3279 -12.2294 -1
      vertex -17.6341 -12.9836 -1
    endloop
  endfacet
  facet normal -0 0 -1
    outer loop
      vertex -27.8109 -21.8301 -1
      vertex -20.255 -10.6237 -1
      vertex -19.3279 -12.2294 -1
    endloop
  endfacet
  facet normal 0.499997 -0.866027 0
    outer loop
      vertex -27.8109 -21.8301 -1
      vertex -9.71395 -11.3819 -1
      vertex -9.71395 -11.3819 1
    endloop
  endfacet
  facet normal 0.499997 -0.866027 0
    outer loop
      vertex -27.8109 -21.8301 -1
      vertex -9.71395 -11.3819 1
      vertex -27.8109 -21.8301 1
    endloop
  endfacet
  facet normal 0 0 1
    outer loop
      vertex -27.8109 -21.8301 1
      vertex -15.8205 -12.5981 1
      vertex -17.6341 -12.9836 1
    endloop
  endfacet
  facet normal 0 0 1
    outer loop
      vertex -27.8109 -21.8301 1
      vertex -17.6341 -12.9836 1
      vertex -19.3279 -12.2294 1
    endloop
  endfacet
  facet normal 0 0 1
    outer loop
      vertex -27.8109 -21.8301 1
      vertex -19.3279 -12.2294 1
      vertex -20.255 -10.6237 1
    endloop
  endfacet
  facet normal -0 0 1
    outer loop
      vertex -27.8109 -21.8301 1
      vertex -9.71395 -11.3819 1
      vertex -15.8205 -12.5981 1
    endloop
  endfacet
  facet normal 0.951057 0.309017 0
    outer loop
      vertex -3 0 -1
      vertex -2.42705 -1.76336 1
      vertex -2.42705 -1.76336 -1
    endloop
  endfacet
  facet normal 0.951057 -0.309017 0
    outer loop
      vertex -3 0 -1
      vertex -2.42705 1.76336 -1
      vertex -3 0 1
    endloop
  endfacet
  facet normal 0.951057 0.309017 0
    outer loop
      vertex -3 0 -1
      vertex -3 0 1
      vertex -2.42705 -1.76336 1
    endloop
  endfacet
  facet normal 0.951057 -0.309017 0
    outer loop
      vertex -3 0 1
      vertex -2.42705 1.76336 -1
      vertex -2.42705 1.76336 1
    endloop
  endfacet
  facet normal 0.951059 0.30901 0
    outer loop
      vertex -3 20 -1
      vertex -2.42705 18.2366 1
      vertex -2.42705 18.2366 -1
    endloop
  endfacet
  facet normal 0.951059 -0.30901 0
    outer loop
      vertex -3 20 -1
      vertex -2.42705 21.7634 -1
      vertex -3 20 1
    endloop
  endfacet
  facet normal 0.951059 0.30901 0
    outer loop
      vertex -3 20 -1
      vertex -3 20 1
      vertex -2.42705 18.2366 1
    endloop
  endfacet
  facet normal 0.951059 -0.30901 0
    outer loop
      vertex -3 20 1
      vertex -2.42705 21.7634 -1
      vertex -2.42705 21.7634 1
    endloop
  endfacet
  facet normal -0 0 -1
    outer loop
      vertex -32.8109 -13.1699 -1
      vertex -14.7139 -2.7216 -1
      vertex -18.8205 -7.40192 -1
    endloop
  endfacet
  facet normal 0 0 -1
    outer loop
      vertex -32.8109 -13.1699 -1
      vertex -18.8205 -7.40192 -1
      vertex -20.0611 -8.77979 -1
    endloop
  endfacet
  facet normal -0 0 -1
    outer loop
      vertex -32.8109 -13.1699 -1
      vertex -20.0611 -8.77979 -1
      vertex -20.255 -10.6237 -1
    endloop
  endfacet
  facet normal 0 0 -1
    outer loop
      vertex -32.8109 -13.1699 -1
      vertex -20.255 -10.6237 -1
      vertex -27.8109 -21.8301 -1
    endloop
  endfacet
  facet normal -0.866024 -0.500002 0
    outer loop
      vertex -32.8109 -13.1699 -1
      vertex -27.8109 -21.8301 -1
      vertex -32.8109 -13.1699 1
    endloop
  endfacet
  facet normal -0.5 0.866026 0
    outer loop
      vertex -32.8109 -13.1699 -1
      vertex -32.8109 -13.1699 1
      vertex -14.7139 -2.7216 -1
    endloop
  endfacet
  facet normal -0.5 0.866026 0
    outer loop
      vertex -32.8109 -13.1699 1
      vertex -14.7139 -2.7216 1
      vertex -14.7139 -2.7216 -1
    endloop
  endfacet
  facet normal 0 0 1
    outer loop
      vertex -32.8109 -13.1699 1
      vertex -18.8205 -7.40192 1
      vertex -14.7139 -2.7216 1
    endloop
  endfacet
  facet normal 0 0 1
    outer loop
      vertex -32.8109 -13.1699 1
      vertex -20.0611 -8.77979 1
      vertex -18.8205 -7.40192 1
    endloop
  endfacet
  facet normal 0 0 1
    outer loop
      vertex -32.8109 -13.1699 1
      vertex -20.255 -10.6237 1
      vertex -20.0611 -8.77979 1
    endloop
  endfacet
  facet normal -0.866024 -0.500002 0
    outer loop
      vertex -32.8109 -13.1699 1
      vertex -27.8109 -21.8301 -1
      vertex -27.8109 -21.8301 1
    endloop
  endfacet
  facet normal 0 0 1
    outer loop
      vertex -32.8109 -13.1699 1
      vertex -27.8109 -21.8301 1
      vertex -20.255 -10.6237 1
    endloop
  endfacet
  facet normal 0 0 -1
    outer loop
      vertex -4.63525 -14.2658 -1
      vertex -0.927051 -2.85317 -1
      vertex -1.56793 -14.9178 -1
    endloop
  endfacet
  facet normal -0.207918 -0.978146 -0
    outer loop
      vertex -4.63525 -14.2658 -1
      vertex -1.56793 -14.9178 -1
      vertex -1.56793 -14.9178 1
    endloop
  endfacet
  facet normal -0.207918 -0.978146 0
    outer loop
      vertex -4.63525 -14.2658 -1
      vertex -1.56793 -14.9178 1
      vertex -4.63525 -14.2658 1
    endloop
  endfacet
  facet normal 0 0 1
    outer loop
      vertex -4.63525 -14.2658 1
      vertex -0.927051 -2.85317 1
      vertex -2.42705 -1.76336 1
    endloop
  endfacet
  facet normal 0 0 1
    outer loop
      vertex -4.63525 -14.2658 1
      vertex -1.56793 -14.9178 1
      vertex -0.927051 -2.85317 1
    endloop
  endfacet
  facet normal 0 0 1
    outer loop
      vertex -4.63525 -14.2658 1
      vertex -2.42705 -1.76336 1
      vertex -3 0 1
    endloop
  endfacet
  facet normal -0 0 -1
    outer loop
      vertex -5 14.1035 -1
      vertex -0.927051 17.1468 -1
      vertex 0.927051 17.1468 -1
    endloop
  endfacet
  facet normal 0 0 -1
    outer loop
      vertex -5 14.1035 -1
      vertex -0.927051 2.85317 -1
      vertex -2.42705 1.76336 -1
    endloop
  endfacet
  facet normal 0 0 -1
    outer loop
      vertex -5 14.1035 -1
      vertex -2.42705 1.76336 -1
      vertex -3 0 -1
    endloop
  endfacet
  facet normal -0 0 -1
    outer loop
      vertex -5 14.1035 -1
      vertex -2.42705 18.2366 -1
      vertex -0.927051 17.1468 -1
    endloop
  endfacet
  facet normal -0 0 -1
    outer loop
      vertex -5 14.1035 -1
      vertex -3 20 -1
      vertex -2.42705 18.2366 -1
    endloop
  endfacet
  facet normal -1 -0 0
    outer loop
      vertex -5 14.1035 -1
      vertex -5 14.1035 1
      vertex -5 35 1
    endloop
  endfacet
  facet normal 0 0 -1
    outer loop
      vertex -5 14.1035 -1
      vertex -5 35 -1
      vertex -3 20 -1
    endloop
  endfacet
  facet normal -1 0 0
    outer loop
      vertex -5 14.1035 -1
      vertex -5 35 1
      vertex -5 35 -1
    endloop
  endfacet
  facet normal 0 0 -1
    outer loop
      vertex -5 14.1035 -1
      vertex 0.927051 17.1468 -1
      vertex 5 14.1035 -1
    endloop
  endfacet
  facet normal 0 0 -1
    outer loop
      vertex -5 14.1035 -1
      vertex 0.927051 2.85317 -1
      vertex -0.927051 2.85317 -1
    endloop
  endfacet
  facet normal 0 0 -1
    outer loop
      vertex -5 14.1035 -1
      vertex 5 14.1035 -1
      vertex 0.927051 2.85317 -1
    endloop
  endfacet
  facet normal 0 0 1
    outer loop
      vertex -5 14.1035 1
      vertex -0.927051 17.1468 1
      vertex -2.42705 18.2366 1
    endloop
  endfacet
  facet normal 0 0 1
    outer loop
      vertex -5 14.1035 1
      vertex -0.927051 2.85317 1
      vertex 0.927051 2.85317 1
    endloop
  endfacet
  facet normal 0 0 1
    outer loop
      vertex -5 14.1035 1
      vertex -2.42705 18.2366 1
      vertex -3 20 1
    endloop
  endfacet
  facet normal 0 0 1
    outer loop
      vertex -5 14.1035 1
      vertex -3 20 1
      vertex -5 35 1
    endloop
  endfacet
  facet normal 0 0 1
    outer loop
      vertex -5 14.1035 1
      vertex 0.927051 17.1468 1
      vertex -0.927051 17.1468 1
    endloop
  endfacet
  facet normal 0 0 1
    outer loop
      vertex -5 14.1035 1
      vertex 0.927051 2.85317 1
      vertex 5 14.1035 1
    endloop
  endfacet
  facet normal 0 0 1
    outer loop
      vertex -5 14.1035 1
      vertex 5 14.1035 1
      vertex 0.927051 17.1468 1
    endloop
  endfacet
  facet normal 0 0 -1
    outer loop
      vertex -5 35 -1
      vertex -0.927051 22.8532 -1
      vertex -2.42705 21.7634 -1
    endloop
  endfacet
  facet normal 0 0 -1
    outer loop
      vertex -5 35 -1
      vertex -2.42705 21.7634 -1
      vertex -3 20 -1
    endloop
  endfacet
  facet normal 0 1 0
    outer loop
      vertex -5 35 -1
      vertex -5 35 1
      vertex 5 35 -1
    endloop
  endfacet
  facet normal 0 0 -1
    outer loop
      vertex -5 35 -1
      vertex 5 35 -1
      vertex -0.927051 22.8532 -1
    endloop
  endfacet
  facet normal -0 0 1
    outer loop
      vertex -5 35 1
      vertex -0.927051 22.8532 1
      vertex 5 35 1
    endloop
  endfacet
  facet normal 0 0 1
    outer loop
      vertex -5 35 1
      vertex -2.42705 21.7634 1
      vertex -0.927051 22.8532 1
    endloop
  endfacet
  facet normal 0 0 1
    outer loop
      vertex -5 35 1
      vertex -3 20 1
      vertex -2.42705 21.7634 1
    endloop
  endfacet
  facet normal 0 1 -0
    outer loop
      vertex -5 35 1
      vertex 5 35 1
      vertex 5 35 -1
    endloop
  endfacet
  facet normal 0 0 -1
    outer loop
      vertex -7.5 -12.9904 -1
      vertex -0.927051 -2.85317 -1
      vertex -4.63525 -14.2658 -1
    endloop
  endfacet
  facet normal -0.406718 -0.913554 -0
    outer loop
      vertex -7.5 -12.9904 -1
      vertex -4.63525 -14.2658 -1
      vertex -4.63525 -14.2658 1
    endloop
  endfacet
  facet normal -0.406718 -0.913554 0
    outer loop
      vertex -7.5 -12.9904 -1
      vertex -4.63525 -14.2658 1
      vertex -7.5 -12.9904 1
    endloop
  endfacet
  facet normal 0 0 1
    outer loop
      vertex -7.5 -12.9904 1
      vertex -4.63525 -14.2658 1
      vertex -3 0 1
    endloop
  endfacet
  facet normal 0 0 -1
    outer loop
      vertex -7.5 12.9904 -1
      vertex -5 14.1035 -1
      vertex -3 0 -1
    endloop
  endfacet
  facet normal -0.406745 0.913542 0
    outer loop
      vertex -7.5 12.9904 -1
      vertex -7.5 12.9904 1
      vertex -5 14.1035 -1
    endloop
  endfacet
  facet normal -0 0 1
    outer loop
      vertex -7.5 12.9904 1
      vertex -0.927051 2.85317 1
      vertex -5 14.1035 1
    endloop
  endfacet
  facet normal 0 0 1
    outer loop
      vertex -7.5 12.9904 1
      vertex -2.42705 1.76336 1
      vertex -0.927051 2.85317 1
    endloop
  endfacet
  facet normal -0.406745 0.913542 0
    outer loop
      vertex -7.5 12.9904 1
      vertex -5 14.1035 1
      vertex -5 14.1035 -1
    endloop
  endfacet
  facet normal 0 0 -1
    outer loop
      vertex -9.71395 -11.3819 -1
      vertex -0.927051 -2.85317 -1
      vertex -7.5 -12.9904 -1
    endloop
  endfacet
  facet normal -0 0 -1
    outer loop
      vertex -9.71395 -11.3819 -1
      vertex -2.42705 -1.76336 -1
      vertex -0.927051 -2.85317 -1
    endloop
  endfacet
  facet normal -0.587778 -0.809022 -0
    outer loop
      vertex -9.71395 -11.3819 -1
      vertex -7.5 -12.9904 -1
      vertex -7.5 -12.9904 1
    endloop
  endfacet
  facet normal -0.587778 -0.809022 0
    outer loop
      vertex -9.71395 -11.3819 -1
      vertex -7.5 -12.9904 1
      vertex -9.71395 -11.3819 1
    endloop
  endfacet
  facet normal 0 -0 1
    outer loop
      vertex -9.71395 -11.3819 1
      vertex -7.5 -12.9904 1
      vertex -3 0 1
    endloop
  endfacet
  facet normal -0.587784 0.809018 0
    outer loop
      vertex 0.927051 -2.85317 -1
      vertex 0.927051 -2.85317 1
      vertex 2.42705 -1.76336 -1
    endloop
  endfacet
  facet normal 0 0 -1
    outer loop
      vertex 0.927051 -2.85317 -1
      vertex 2.42705 -1.76336 -1
      vertex 7.5 -12.9904 -1
    endloop
  endfacet
  facet normal 0 0 -1
    outer loop
      vertex 0.927051 -2.85317 -1
      vertex 4.63525 -14.2658 -1
      vertex 1.56793 -14.9178 -1
    endloop
  endfacet
  facet normal 0 0 -1
    outer loop
      vertex 0.927051 -2.85317 -1
      vertex 7.5 -12.9904 -1
      vertex 4.63525 -14.2658 -1
    endloop
  endfacet
  facet normal 0 0 1
    outer loop
      vertex 0.927051 -2.85317 1
      vertex 1.56793 -14.9178 1
      vertex 4.63525 -14.2658 1
    endloop
  endfacet
  facet normal -0.587784 0.809018 0
    outer loop
      vertex 0.927051 -2.85317 1
      vertex 2.42705 -1.76336 1
      vertex 2.42705 -1.76336 -1
    endloop
  endfacet
  facet normal 0 0 1
    outer loop
      vertex 0.927051 -2.85317 1
      vertex 4.63525 -14.2658 1
      vertex 7.5 -12.9904 1
    endloop
  endfacet
  facet normal 0 0 1
    outer loop
      vertex 0.927051 -2.85317 1
      vertex 7.5 -12.9904 1
      vertex 9.71395 -11.3819 1
    endloop
  endfacet
  facet normal -0 0 1
    outer loop
      vertex 0.927051 -2.85317 1
      vertex 9.71395 -11.3819 1
      vertex 2.42705 -1.76336 1
    endloop
  endfacet
  facet normal -0.587781 0.80902 0
    outer loop
      vertex 0.927051 17.1468 -1
      vertex 0.927051 17.1468 1
      vertex 2.42705 18.2366 -1
    endloop
  endfacet
  facet normal 0 0 -1
    outer loop
      vertex 0.927051 17.1468 -1
      vertex 2.42705 18.2366 -1
      vertex 5 14.1035 -1
    endloop
  endfacet
  facet normal -0.587781 0.80902 0
    outer loop
      vertex 0.927051 17.1468 1
      vertex 2.42705 18.2366 1
      vertex 2.42705 18.2366 -1
    endloop
  endfacet
  facet normal -0 0 1
    outer loop
      vertex 0.927051 17.1468 1
      vertex 5 14.1035 1
      vertex 2.42705 18.2366 1
    endloop
  endfacet
  facet normal -0.587784 -0.809018 -0
    outer loop
      vertex 0.927051 2.85317 -1
      vertex 2.42705 1.76336 -1
      vertex 2.42705 1.76336 1
    endloop
  endfacet
  facet normal -0.587784 -0.809018 0
    outer loop
      vertex 0.927051 2.85317 -1
      vertex 2.42705 1.76336 1
      vertex 0.927051 2.85317 1
    endloop
  endfacet
  facet normal -0 0 -1
    outer loop
      vertex 0.927051 2.85317 -1
      vertex 5 14.1035 -1
      vertex 7.5 12.9904 -1
    endloop
  endfacet
  facet normal 0 0 -1
    outer loop
      vertex 0.927051 2.85317 -1
      vertex 7.5 12.9904 -1
      vertex 2.42705 1.76336 -1
    endloop
  endfacet
  facet normal 0 0 1
    outer loop
      vertex 0.927051 2.85317 1
      vertex 2.42705 1.76336 1
      vertex 7.5 12.9904 1
    endloop
  endfacet
  facet normal 0 0 1
    outer loop
      vertex 0.927051 2.85317 1
      vertex 7.5 12.9904 1
      vertex 5 14.1035 1
    endloop
  endfacet
  facet normal -0.587781 -0.80902 -0
    outer loop
      vertex 0.927051 22.8532 -1
      vertex 2.42705 21.7634 -1
      vertex 2.42705 21.7634 1
    endloop
  endfacet
  facet normal -0.587781 -0.80902 0
    outer loop
      vertex 0.927051 22.8532 -1
      vertex 2.42705 21.7634 1
      vertex 0.927051 22.8532 1
    endloop
  endfacet
  facet normal 0 0 -1
    outer loop
      vertex 0.927051 22.8532 -1
      vertex 5 35 -1
      vertex 2.42705 21.7634 -1
    endloop
  endfacet
  facet normal 0 0 1
    outer loop
      vertex 0.927051 22.8532 1
      vertex 2.42705 21.7634 1
      vertex 5 35 1
    endloop
  endfacet
  facet normal 0.207918 -0.978146 0
    outer loop
      vertex 1.56793 -14.9178 -1
      vertex 4.63525 -14.2658 -1
      vertex 4.63525 -14.2658 1
    endloop
  endfacet
  facet normal 0.207918 -0.978146 0
    outer loop
      vertex 1.56793 -14.9178 -1
      vertex 4.63525 -14.2658 1
      vertex 1.56793 -14.9178 1
    endloop
  endfacet
  facet normal 0.743148 0.669127 0
    outer loop
      vertex 10.037 11.1472 -1
      vertex 10.037 11.1472 1
      vertex 12.1353 8.81678 1
    endloop
  endfacet
  facet normal 0.743148 0.669127 0
    outer loop
      vertex 10.037 11.1472 -1
      vertex 12.1353 8.81678 1
      vertex 12.1353 8.81678 -1
    endloop
  endfacet
  facet normal 0.866029 0.499993 0
    outer loop
      vertex 12.1353 8.81678 -1
      vertex 12.1353 8.81678 1
      vertex 13.7032 6.10105 1
    endloop
  endfacet
  facet normal 0 0 -1
    outer loop
      vertex 12.1353 8.81678 -1
      vertex 13.7032 6.10105 -1
      vertex 14.7139 -2.7216 -1
    endloop
  endfacet
  facet normal 0.866029 0.499993 0
    outer loop
      vertex 12.1353 8.81678 -1
      vertex 13.7032 6.10105 1
      vertex 13.7032 6.10105 -1
    endloop
  endfacet
  facet normal 0.951059 0.309008 0
    outer loop
      vertex 13.7032 6.10105 -1
      vertex 13.7032 6.10105 1
      vertex 14.6722 3.11868 1
    endloop
  endfacet
  facet normal 0 0 -1
    outer loop
      vertex 13.7032 6.10105 -1
      vertex 14.6722 3.11868 -1
      vertex 14.7139 -2.7216 -1
    endloop
  endfacet
  facet normal 0.951059 0.309008 0
    outer loop
      vertex 13.7032 6.10105 -1
      vertex 14.6722 3.11868 1
      vertex 14.6722 3.11868 -1
    endloop
  endfacet
  facet normal 0.994522 0.104525 0
    outer loop
      vertex 14.3861 -9.37626 -1
      vertex 14.3861 -9.37626 1
      vertex 14.5799 -11.2202 1
    endloop
  endfacet
  facet normal 0.994522 0.104525 0
    outer loop
      vertex 14.3861 -9.37626 -1
      vertex 14.5799 -11.2202 1
      vertex 14.5799 -11.2202 -1
    endloop
  endfacet
  facet normal 0 0 -1
    outer loop
      vertex 14.3861 -9.37626 -1
      vertex 14.7139 -2.7216 -1
      vertex 15.3131 -7.77057 -1
    endloop
  endfacet
  facet normal 0.866036 -0.499982 0
    outer loop
      vertex 14.3861 -9.37626 -1
      vertex 15.3131 -7.77057 -1
      vertex 14.3861 -9.37626 1
    endloop
  endfacet
  facet normal 0.866036 -0.499982 0
    outer loop
      vertex 14.3861 -9.37626 1
      vertex 15.3131 -7.77057 -1
      vertex 15.3131 -7.77057 1
    endloop
  endfacet
  facet normal 0 0 1
    outer loop
      vertex 14.3861 -9.37626 1
      vertex 15.3131 -7.77057 1
      vertex 14.7139 -2.7216 1
    endloop
  endfacet
  facet normal 0.743163 0.669111 0
    outer loop
      vertex 14.5799 -11.2202 -1
      vertex 14.5799 -11.2202 1
      vertex 15.8205 -12.5981 1
    endloop
  endfacet
  facet normal 0.743163 0.669111 0
    outer loop
      vertex 14.5799 -11.2202 -1
      vertex 15.8205 -12.5981 1
      vertex 15.8205 -12.5981 -1
    endloop
  endfacet
  facet normal 0.994521 0.104533 0
    outer loop
      vertex 14.6722 3.11868 -1
      vertex 14.6722 3.11868 1
      vertex 15 0 1
    endloop
  endfacet
  facet normal -0 0 -1
    outer loop
      vertex 14.6722 3.11868 -1
      vertex 15 0 -1
      vertex 14.7139 -2.7216 -1
    endloop
  endfacet
  facet normal 0.994521 0.104533 0
    outer loop
      vertex 14.6722 3.11868 -1
      vertex 15 0 1
      vertex 15 0 -1
    endloop
  endfacet
  facet normal 0.5 0.866026 0
    outer loop
      vertex 14.7139 -2.7216 -1
      vertex 14.7139 -2.7216 1
      vertex 32.8109 -13.1699 -1
    endloop
  endfacet
  facet normal 0.99452 -0.104546 0
    outer loop
      vertex 14.7139 -2.7216 -1
      vertex 15 0 -1
      vertex 14.7139 -2.7216 1
    endloop
  endfacet
  facet normal 0 0 -1
    outer loop
      vertex 14.7139 -2.7216 -1
      vertex 17.0069 -7.01643 -1
      vertex 15.3131 -7.77057 -1
    endloop
  endfacet
  facet normal 0 0 -1
    outer loop
      vertex 14.7139 -2.7216 -1
      vertex 18.8205 -7.40192 -1
      vertex 17.0069 -7.01643 -1
    endloop
  endfacet
  facet normal 0 0 -1
    outer loop
      vertex 14.7139 -2.7216 -1
      vertex 32.8109 -13.1699 -1
      vertex 18.8205 -7.40192 -1
    endloop
  endfacet
  facet normal 0.99452 -0.104546 0
    outer loop
      vertex 14.7139 -2.7216 1
      vertex 15 0 -1
      vertex 15 0 1
    endloop
  endfacet
  facet normal 0 0 1
    outer loop
      vertex 14.7139 -2.7216 1
      vertex 15.3131 -7.77057 1
      vertex 17.0069 -7.01643 1
    endloop
  endfacet
  facet normal 0 0 1
    outer loop
      vertex 14.7139 -2.7216 1
      vertex 17.0069 -7.01643 1
      vertex 18.8205 -7.40192 1
    endloop
  endfacet
  facet normal 0 0 1
    outer loop
      vertex 14.7139 -2.7216 1
      vertex 18.8205 -7.40192 1
      vertex 32.8109 -13.1699 1
    endloop
  endfacet
  facet normal 0.5 0.866026 -0
    outer loop
      vertex 14.7139 -2.7216 1
      vertex 32.8109 -13.1699 1
      vertex 32.8109 -13.1699 -1
    endloop
  endfacet
  facet normal 0.406742 -0.913543 0
    outer loop
      vertex 15.3131 -7.77057 -1
      vertex 17.0069 -7.01643 -1
      vertex 17.0069 -7.01643 1
    endloop
  endfacet
  facet normal 0.406742 -0.913543 0
    outer loop
      vertex 15.3131 -7.77057 -1
      vertex 17.0069 -7.01643 1
      vertex 15.3131 -7.77057 1
    endloop
  endfacet
  facet normal 0.207916 0.978147 0
    outer loop
      vertex 15.8205 -12.5981 -1
      vertex 15.8205 -12.5981 1
      vertex 17.6341 -12.9836 -1
    endloop
  endfacet
  facet normal 0 0 -1
    outer loop
      vertex 15.8205 -12.5981 -1
      vertex 17.6341 -12.9836 -1
      vertex 27.8109 -21.8301 -1
    endloop
  endfacet
  facet normal 0.207916 0.978147 -0
    outer loop
      vertex 15.8205 -12.5981 1
      vertex 17.6341 -12.9836 1
      vertex 17.6341 -12.9836 -1
    endloop
  endfacet
  facet normal 0 0 1
    outer loop
      vertex 15.8205 -12.5981 1
      vertex 27.8109 -21.8301 1
      vertex 17.6341 -12.9836 1
    endloop
  endfacet
  facet normal -0.20791 -0.978148 -0
    outer loop
      vertex 17.0069 -7.01643 -1
      vertex 18.8205 -7.40192 -1
      vertex 18.8205 -7.40192 1
    endloop
  endfacet
  facet normal -0.20791 -0.978148 0
    outer loop
      vertex 17.0069 -7.01643 -1
      vertex 18.8205 -7.40192 1
      vertex 17.0069 -7.01643 1
    endloop
  endfacet
  facet normal -0.406769 0.913531 0
    outer loop
      vertex 17.6341 -12.9836 -1
      vertex 17.6341 -12.9836 1
      vertex 19.3279 -12.2294 -1
    endloop
  endfacet
  facet normal 0 0 -1
    outer loop
      vertex 17.6341 -12.9836 -1
      vertex 19.3279 -12.2294 -1
      vertex 27.8109 -21.8301 -1
    endloop
  endfacet
  facet normal -0.406769 0.913531 0
    outer loop
      vertex 17.6341 -12.9836 1
      vertex 19.3279 -12.2294 1
      vertex 19.3279 -12.2294 -1
    endloop
  endfacet
  facet normal -0 0 1
    outer loop
      vertex 17.6341 -12.9836 1
      vertex 27.8109 -21.8301 1
      vertex 19.3279 -12.2294 1
    endloop
  endfacet
  facet normal -0.743155 -0.669119 0
    outer loop
      vertex 18.8205 -7.40192 -1
      vertex 20.0611 -8.77979 -1
      vertex 18.8205 -7.40192 1
    endloop
  endfacet
  facet normal 0 0 -1
    outer loop
      vertex 18.8205 -7.40192 -1
      vertex 32.8109 -13.1699 -1
      vertex 20.0611 -8.77979 -1
    endloop
  endfacet
  facet normal -0.743155 -0.669119 0
    outer loop
      vertex 18.8205 -7.40192 1
      vertex 20.0611 -8.77979 -1
      vertex 20.0611 -8.77979 1
    endloop
  endfacet
  facet normal 0 0 1
    outer loop
      vertex 18.8205 -7.40192 1
      vertex 20.0611 -8.77979 1
      vertex 32.8109 -13.1699 1
    endloop
  endfacet
  facet normal -0.866014 0.50002 0
    outer loop
      vertex 19.3279 -12.2294 -1
      vertex 19.3279 -12.2294 1
      vertex 20.255 -10.6237 1
    endloop
  endfacet
  facet normal 0 0 -1
    outer loop
      vertex 19.3279 -12.2294 -1
      vertex 20.255 -10.6237 -1
      vertex 27.8109 -21.8301 -1
    endloop
  endfacet
  facet normal -0.866014 0.50002 0
    outer loop
      vertex 19.3279 -12.2294 -1
      vertex 20.255 -10.6237 1
      vertex 20.255 -10.6237 -1
    endloop
  endfacet
  facet normal -0 0 1
    outer loop
      vertex 19.3279 -12.2294 1
      vertex 27.8109 -21.8301 1
      vertex 20.255 -10.6237 1
    endloop
  endfacet
  facet normal 0 0 -1
    outer loop
      vertex 2.42705 -1.76336 -1
      vertex 14.7139 -2.7216 -1
      vertex 9.71395 -11.3819 -1
    endloop
  endfacet
  facet normal -0.951057 0.309017 0
    outer loop
      vertex 2.42705 -1.76336 -1
      vertex 2.42705 -1.76336 1
      vertex 3 0 1
    endloop
  endfacet
  facet normal 0 0 -1
    outer loop
      vertex 2.42705 -1.76336 -1
      vertex 3 0 -1
      vertex 14.7139 -2.7216 -1
    endloop
  endfacet
  facet normal -0.951057 0.309017 0
    outer loop
      vertex 2.42705 -1.76336 -1
      vertex 3 0 1
      vertex 3 0 -1
    endloop
  endfacet
  facet normal 0 0 -1
    outer loop
      vertex 2.42705 -1.76336 -1
      vertex 9.71395 -11.3819 -1
      vertex 7.5 -12.9904 -1
    endloop
  endfacet
  facet normal -0 0 1
    outer loop
      vertex 2.42705 -1.76336 1
      vertex 14.7139 -2.7216 1
      vertex 3 0 1
    endloop
  endfacet
  facet normal 0 -0 1
    outer loop
      vertex 2.42705 -1.76336 1
      vertex 9.71395 -11.3819 1
      vertex 14.7139 -2.7216 1
    endloop
  endfacet
  facet normal -0 0 -1
    outer loop
      vertex 2.42705 1.76336 -1
      vertex 10.037 11.1472 -1
      vertex 12.1353 8.81678 -1
    endloop
  endfacet
  facet normal 0 0 -1
    outer loop
      vertex 2.42705 1.76336 -1
      vertex 12.1353 8.81678 -1
      vertex 3 0 -1
    endloop
  endfacet
  facet normal -0.951057 -0.309017 0
    outer loop
      vertex 2.42705 1.76336 -1
      vertex 3 0 -1
      vertex 2.42705 1.76336 1
    endloop
  endfacet
  facet normal -0 0 -1
    outer loop
      vertex 2.42705 1.76336 -1
      vertex 7.5 12.9904 -1
      vertex 10.037 11.1472 -1
    endloop
  endfacet
  facet normal 0 0 1
    outer loop
      vertex 2.42705 1.76336 1
      vertex 10.037 11.1472 1
      vertex 7.5 12.9904 1
    endloop
  endfacet
  facet normal 0 0 1
    outer loop
      vertex 2.42705 1.76336 1
      vertex 12.1353 8.81678 1
      vertex 10.037 11.1472 1
    endloop
  endfacet
  facet normal 0 0 1
    outer loop
      vertex 2.42705 1.76336 1
      vertex 13.7032 6.10105 1
      vertex 12.1353 8.81678 1
    endloop
  endfacet
  facet normal -0.951057 -0.309017 0
    outer loop
      vertex 2.42705 1.76336 1
      vertex 3 0 -1
      vertex 3 0 1
    endloop
  endfacet
  facet normal 0 0 1
    outer loop
      vertex 2.42705 1.76336 1
      vertex 3 0 1
      vertex 13.7032 6.10105 1
    endloop
  endfacet
  facet normal -0.951059 0.30901 0
    outer loop
      vertex 2.42705 18.2366 -1
      vertex 2.42705 18.2366 1
      vertex 3 20 1
    endloop
  endfacet
  facet normal 0 0 -1
    outer loop
      vertex 2.42705 18.2366 -1
      vertex 3 20 -1
      vertex 5 14.1035 -1
    endloop
  endfacet
  facet normal -0.951059 0.30901 0
    outer loop
      vertex 2.42705 18.2366 -1
      vertex 3 20 1
      vertex 3 20 -1
    endloop
  endfacet
  facet normal -0 0 1
    outer loop
      vertex 2.42705 18.2366 1
      vertex 5 14.1035 1
      vertex 3 20 1
    endloop
  endfacet
  facet normal -0.951059 -0.30901 0
    outer loop
      vertex 2.42705 21.7634 -1
      vertex 3 20 -1
      vertex 2.42705 21.7634 1
    endloop
  endfacet
  facet normal 0 0 -1
    outer loop
      vertex 2.42705 21.7634 -1
      vertex 5 35 -1
      vertex 3 20 -1
    endloop
  endfacet
  facet normal -0.951059 -0.30901 0
    outer loop
      vertex 2.42705 21.7634 1
      vertex 3 20 -1
      vertex 3 20 1
    endloop
  endfacet
  facet normal 0 0 1
    outer loop
      vertex 2.42705 21.7634 1
      vertex 3 20 1
      vertex 5 35 1
    endloop
  endfacet
  facet normal -0.994516 -0.10458 0
    outer loop
      vertex 20.0611 -8.77979 -1
      vertex 20.255 -10.6237 -1
      vertex 20.0611 -8.77979 1
    endloop
  endfacet
  facet normal 0 0 -1
    outer loop
      vertex 20.0611 -8.77979 -1
      vertex 32.8109 -13.1699 -1
      vertex 20.255 -10.6237 -1
    endloop
  endfacet
  facet normal -0.994516 -0.10458 0
    outer loop
      vertex 20.0611 -8.77979 1
      vertex 20.255 -10.6237 -1
      vertex 20.255 -10.6237 1
    endloop
  endfacet
  facet normal 0 0 1
    outer loop
      vertex 20.0611 -8.77979 1
      vertex 20.255 -10.6237 1
      vertex 32.8109 -13.1699 1
    endloop
  endfacet
  facet normal 0 0 -1
    outer loop
      vertex 20.255 -10.6237 -1
      vertex 32.8109 -13.1699 -1
      vertex 27.8109 -21.8301 -1
    endloop
  endfacet
  facet normal 0 0 1
    outer loop
      vertex 20.255 -10.6237 1
      vertex 27.8109 -21.8301 1
      vertex 32.8109 -13.1699 1
    endloop
  endfacet
  facet normal 0.866024 -0.500002 0
    outer loop
      vertex 27.8109 -21.8301 -1
      vertex 32.8109 -13.1699 -1
      vertex 27.8109 -21.8301 1
    endloop
  endfacet
  facet normal 0.866024 -0.500002 0
    outer loop
      vertex 27.8109 -21.8301 1
      vertex 32.8109 -13.1699 -1
      vertex 32.8109 -13.1699 1
    endloop
  endfacet
  facet normal 0 0 -1
    outer loop
      vertex 3 0 -1
      vertex 12.1353 8.81678 -1
      vertex 14.7139 -2.7216 -1
    endloop
  endfacet
  facet normal 0 0 1
    outer loop
      vertex 3 0 1
      vertex 14.6722 3.11868 1
      vertex 13.7032 6.10105 1
    endloop
  endfacet
  facet normal 0 0 1
    outer loop
      vertex 3 0 1
      vertex 14.7139 -2.7216 1
      vertex 15 0 1
    endloop
  endfacet
  facet normal 0 0 1
    outer loop
      vertex 3 0 1
      vertex 15 0 1
      vertex 14.6722 3.11868 1
    endloop
  endfacet
  facet normal 0 0 -1
    outer loop
      vertex 3 20 -1
      vertex 5 35 -1
      vertex 5 14.1035 -1
    endloop
  endfacet
  facet normal -0 0 1
    outer loop
      vertex 3 20 1
      vertex 5 14.1035 1
      vertex 5 35 1
    endloop
  endfacet
  facet normal 0.406718 -0.913554 0
    outer loop
      vertex 4.63525 -14.2658 -1
      vertex 7.5 -12.9904 -1
      vertex 7.5 -12.9904 1
    endloop
  endfacet
  facet normal 0.406718 -0.913554 0
    outer loop
      vertex 4.63525 -14.2658 -1
      vertex 7.5 -12.9904 1
      vertex 4.63525 -14.2658 1
    endloop
  endfacet
  facet normal 0.406745 0.913542 0
    outer loop
      vertex 5 14.1035 -1
      vertex 5 14.1035 1
      vertex 7.5 12.9904 -1
    endloop
  endfacet
  facet normal 1 0 0
    outer loop
      vertex 5 14.1035 -1
      vertex 5 35 -1
      vertex 5 14.1035 1
    endloop
  endfacet
  facet normal 1 -0 0
    outer loop
      vertex 5 14.1035 1
      vertex 5 35 -1
      vertex 5 35 1
    endloop
  endfacet
  facet normal 0.406745 0.913542 -0
    outer loop
      vertex 5 14.1035 1
      vertex 7.5 12.9904 1
      vertex 7.5 12.9904 -1
    endloop
  endfacet
  facet normal 0.587778 -0.809022 0
    outer loop
      vertex 7.5 -12.9904 -1
      vertex 9.71395 -11.3819 -1
      vertex 9.71395 -11.3819 1
    endloop
  endfacet
  facet normal 0.587778 -0.809022 0
    outer loop
      vertex 7.5 -12.9904 -1
      vertex 9.71395 -11.3819 1
      vertex 7.5 -12.9904 1
    endloop
  endfacet
  facet normal 0.587777 0.809023 0
    outer loop
      vertex 7.5 12.9904 -1
      vertex 7.5 12.9904 1
      vertex 10.037 11.1472 -1
    endloop
  endfacet
  facet normal 0.587777 0.809023 -0
    outer loop
      vertex 7.5 12.9904 1
      vertex 10.037 11.1472 1
      vertex 10.037 11.1472 -1
    endloop
  endfacet
  facet normal 0 0 -1
    outer loop
      vertex 9.71395 -11.3819 -1
      vertex 14.3861 -9.37626 -1
      vertex 14.5799 -11.2202 -1
    endloop
  endfacet
  facet normal 0 0 -1
    outer loop
      vertex 9.71395 -11.3819 -1
      vertex 14.5799 -11.2202 -1
      vertex 15.8205 -12.5981 -1
    endloop
  endfacet
  facet normal 0 0 -1
    outer loop
      vertex 9.71395 -11.3819 -1
      vertex 14.7139 -2.7216 -1
      vertex 14.3861 -9.37626 -1
    endloop
  endfacet
  facet normal 0 0 -1
    outer loop
      vertex 9.71395 -11.3819 -1
      vertex 15.8205 -12.5981 -1
      vertex 27.8109 -21.8301 -1
    endloop
  endfacet
  facet normal -0.499997 -0.866027 -0
    outer loop
      vertex 9.71395 -11.3819 -1
      vertex 27.8109 -21.8301 -1
      vertex 27.8109 -21.8301 1
    endloop
  endfacet
  facet normal -0.499997 -0.866027 0
    outer loop
      vertex 9.71395 -11.3819 -1
      vertex 27.8109 -21.8301 1
      vertex 9.71395 -11.3819 1
    endloop
  endfacet
  facet normal 0 0 1
    outer loop
      vertex 9.71395 -11.3819 1
      vertex 14.3861 -9.37626 1
      vertex 14.7139 -2.7216 1
    endloop
  endfacet
  facet normal 0 0 1
    outer loop
      vertex 9.71395 -11.3819 1
      vertex 14.5799 -11.2202 1
      vertex 14.3861 -9.37626 1
    endloop
  endfacet
  facet normal 0 0 1
    outer loop
      vertex 9.71395 -11.3819 1
      vertex 15.8205 -12.5981 1
      vertex 14.5799 -11.2202 1
    endloop
  endfacet
  facet normal 0 0 1
    outer loop
      vertex 9.71395 -11.3819 1
      vertex 27.8109 -21.8301 1
      vertex 15.8205 -12.5981 1
    endloop
  endfacet
endsolid model
